<?xml version="1.0" encoding="UTF-8"?>
<svg width="48px" height="48px" viewBox="0 0 48 48" version="1.1" xmlns="http://www.w3.org/2000/svg" xmlns:xlink="http://www.w3.org/1999/xlink">
    <!-- Generator: Sketch 61 (89581) - https://sketch.com -->
    <title>Icon 1</title>
    <desc>Created with Sketch.</desc>
    <g id="Icon-1" stroke="none" stroke-width="1" fill="none" fill-rule="evenodd">
        <g id="money-(4)" transform="translate(5.423295, 9.795229)" fill="#FFFFFF" fill-rule="nonzero">
            <path d="M19.3892045,0.0443181818 C21.6715909,0.0443181818 23.8357955,0.317613636 25.4977273,0.819886364 C27.1596591,1.32215909 28.1420455,1.99431818 28.4153409,2.82159091 L28.4153409,2.82159091 L28.6147727,11.2272727 C30.6829545,11.2715909 32.5590909,11.5375 34.0511364,11.9880682 C35.83125,12.5272727 36.8136364,13.2585227 37.0056818,14.1670455 L37.0056818,14.1670455 L37.1090909,22.6909091 C37.1090909,24.0130682 35.5210227,24.7886364 34.1693182,25.2022727 C32.5295455,25.7045455 30.3875,25.9852273 28.1125,25.9852273 C23.9761364,25.9852273 19.5369318,25.0471591 19.1602273,23.0011364 C17.4318182,22.9863636 15.7994318,22.8090909 14.4107955,22.4840909 C12.8375,23.7619318 10.8653409,24.4636364 8.83409091,24.4636364 C3.95170455,24.4636364 4.31654712e-12,20.5045455 4.31654712e-12,15.6221591 C4.31654712e-12,10.7471591 3.96647727,6.78068182 8.84147727,6.78068182 C9.40284091,6.78068182 9.95681818,6.83238636 10.5034091,6.93579545 L10.5034091,6.93579545 L10.4221591,3.56761364 C10.4073864,3.48636364 10.4,3.40511364 10.4,3.32386364 C10.4,2.00170455 12.0028409,1.23352273 13.3397727,0.819886364 C14.9647727,0.317613636 17.1142045,0.0443181818 19.3892045,0.0443181818 Z M35.6318182,20.4306818 C35.1886364,20.71875 34.5681818,20.9403409 34.0289773,21.1028409 C32.3744318,21.6051136 30.2323864,21.8784091 27.95,21.8784091 C25.9335227,21.8784091 23.9761364,21.6568182 22.425,21.2505682 C21.7897727,21.0954545 21.1767045,20.8738636 20.5857955,20.5857955 L20.5857955,20.5857955 L20.6079545,22.2551136 L20.6153409,22.7056818 L20.6153409,22.7056818 L20.6153409,22.7204545 C20.6153409,22.8829545 21.0880682,23.3704545 22.4988636,23.80625 C23.9835227,24.2568182 25.9704545,24.5079545 28.1051136,24.5079545 C30.2323864,24.5079545 32.2267045,24.2494318 33.7335227,23.7840909 C35.3068182,23.2965909 35.6318182,22.7869318 35.6318182,22.6835227 L35.6318182,22.6835227 Z M8.83409091,8.25795455 C7.00227273,8.25795455 5.23693182,8.94488636 3.87784091,10.1784091 C0.871590909,12.9113636 0.657386364,17.5721591 3.39034091,20.5784091 C6.12329545,23.5846591 10.7840909,23.80625 13.7903409,21.0659091 C15.3267045,19.6772727 16.2056818,17.6977273 16.1983416,15.6221591 C16.1983416,15.1272727 16.1465909,14.625 16.0505682,14.1375 C15.7181818,12.5420455 14.86875,11.0943182 13.6278409,10.0380682 C12.8670455,9.37329545 11.9732955,8.87840909 11.0130682,8.58295455 C10.3039773,8.36875 9.57272727,8.25795455 8.83409091,8.25795455 Z M17.0846591,18.7982955 C16.7448864,19.6772727 16.2647727,20.4971591 15.6664773,21.2284091 C16.8113636,21.4204545 17.95625,21.5164773 19.1011364,21.53125 L19.1011364,21.53125 L19.0715909,19.1528409 C19.0568182,19.0642045 19.0568182,18.9829545 19.0715909,18.8943182 C18.3846591,18.8869318 17.7198864,18.85 17.0846591,18.7982955 Z M8.84147727,10.7397727 C11.5301136,10.7471591 13.7090909,12.9261364 13.7164773,15.6147727 C13.7164773,18.3034091 11.5301136,20.4897727 8.84147727,20.4897727 C6.15284091,20.4897727 3.96647727,18.3034091 3.96647727,15.6147727 C3.96647727,12.9261364 6.14545455,10.7397727 8.84147727,10.7397727 Z M35.6392045,16.3534091 C35.1073864,16.6414773 34.5534091,16.8630682 33.9772727,17.0255682 C32.3301136,17.5130682 30.1954545,17.7789773 27.95,17.7789773 C25.2022727,17.7789773 22.2698864,17.3653409 20.5267045,16.4568182 L20.5267045,16.4568182 L20.55625,18.7909091 C21.1914773,19.5 23.9244318,20.39375 27.9426136,20.39375 C30.0846591,20.39375 32.09375,20.1426136 33.6079545,19.6846591 C35.1960227,19.1971591 35.5357955,18.6948864 35.5357955,18.5914773 C35.5357955,18.44375 35.6318182,18.3107955 35.6392045,18.2 L35.6392045,18.2 Z M8.84147727,12.2244318 C6.96534091,12.2244318 5.44375,13.7460227 5.44375,15.6221591 C5.44375,17.4982955 6.96534091,19.0198864 8.84147727,19.0198864 C10.7176136,19.0198864 12.2392045,17.4982955 12.2392045,15.6221591 C12.2392045,13.7460227 10.7176136,12.2244318 8.84147727,12.2244318 Z M17.6386364,14.7431818 C17.6607955,15.0386364 17.6755682,15.3267045 17.6755682,15.6147727 C17.6755682,16.1909091 17.6164773,16.7744318 17.5056818,17.3431818 C18.0005682,17.3801136 18.525,17.4022727 19.0568182,17.4096591 L19.0568182,17.4096591 L19.0272727,14.95 C19.0125,14.8982955 18.9977273,14.8465909 18.9903409,14.7948864 C18.525,14.7875 18.0744318,14.7727273 17.6386364,14.7431818 Z M27.95,12.7193182 L27.8909091,12.7193182 C25.9113636,12.7193182 24.0278409,12.9409091 22.5801136,13.3471591 C21.1397727,13.7460227 20.5857955,14.1965909 20.4602273,14.4255682 C20.4823864,14.4920455 20.4971591,14.5585227 20.4971591,14.625 C20.6744318,14.8761364 21.2727273,15.3119318 22.6613636,15.6886364 C24.1090909,16.0801136 25.9926136,16.3017045 27.95,16.3017045 C30.0551136,16.3017045 32.0568182,16.0579545 33.5710227,15.6073864 C35.2107955,15.1198864 35.5727273,14.6102273 35.5801136,14.4994318 L35.5801136,14.4994318 C35.5579545,14.3664773 35.18125,13.89375 33.6301136,13.4210227 C32.1306818,12.9630682 30.0625,12.7193182 27.95,12.7193182 L27.95,12.7193182 Z M27.1301136,9.25511364 C26.6056818,9.54318182 26.0590909,9.77215909 25.4829545,9.93465909 C23.8284091,10.4369318 21.6642045,10.7102273 19.3818182,10.7102273 C18.2664773,10.7102273 17.14375,10.6363636 16.0357955,10.4960227 C16.6267045,11.3306818 17.0772727,12.2613636 17.3505682,13.24375 C17.9857955,13.2954545 18.6653409,13.325 19.3818182,13.325 L19.3818182,13.325 L19.4409091,13.325 C19.9579545,12.7488636 20.8664773,12.2761364 22.1664773,11.9068182 C23.5477273,11.5153409 25.2835227,11.2789773 27.1301136,11.2272727 L27.1301136,11.2272727 Z M27.1375,5.15568182 C26.6130682,5.44375 26.0590909,5.67272727 25.4977273,5.82045455 C23.8431818,6.32272727 21.6789773,6.59602273 19.3965909,6.59602273 C17.2176136,6.59602273 15.1420455,6.34488636 13.5392045,5.87954545 C12.9852273,5.73181818 12.4534091,5.525 11.94375,5.26647727 L11.94375,5.26647727 L11.9954545,7.34943182 C12.8227273,7.65965909 13.6056818,8.10284091 14.3,8.65681818 C14.3147727,8.66420455 14.3369318,8.66420455 14.3590909,8.67159091 C15.7772727,9.03352273 17.5647727,9.22556818 19.3892045,9.22556818 C21.4943182,9.22556818 23.5698864,8.96704545 25.0693182,8.50909091 C26.6721591,8.02159091 27.0193182,7.51193182 27.0193182,7.41590909 C27.0193182,7.26818182 27.05625,7.12784091 27.1375,7.00227273 L27.1375,7.00227273 Z M19.3744318,1.52159091 C17.2471591,1.52159091 15.2454545,1.78011364 13.7534091,2.23806818 C12.3426136,2.67386364 11.8477273,3.16875 11.8477273,3.32386364 C11.8551136,3.33125 11.8625,3.33863636 11.8625,3.34602273 C11.8994318,3.50852273 12.35,4.01818182 13.9380682,4.47613636 C15.4079545,4.90454545 17.3431818,5.14090909 19.3818182,5.14090909 C21.4869318,5.14090909 23.5625,4.875 25.0619318,4.42443182 C26.6721591,3.93693182 27.0193182,3.43465909 27.0193182,3.33125 C27.0193182,3.22784091 26.6721591,2.72556818 25.0619318,2.23806818 C23.5551136,1.78011364 21.4795455,1.52159091 19.3744318,1.52159091 Z" id="Combined-Shape"></path>
        </g>
    </g>
</svg>