<?xml version="1.0" encoding="UTF-8"?>
<svg width="48px" height="48px" viewBox="0 0 48 48" version="1.1" xmlns="http://www.w3.org/2000/svg" xmlns:xlink="http://www.w3.org/1999/xlink">
    <!-- Generator: Sketch 61 (89581) - https://sketch.com -->
    <title>Icon 4</title>
    <desc>Created with Sketch.</desc>
    <g id="Icon-4" stroke="none" stroke-width="1" fill="none" fill-rule="evenodd">
        <g id="Group-3" transform="translate(10.000000, 9.000000)" fill="#FFFFFF">
            <path d="M2.0371,15.4228 C2.0371,13.3368 3.7341,11.6398 5.8201,11.6398 L8.9871,11.6388 L9.0331,11.6398 L12.8041,11.6398 L12.8041,28.8078 L5.8201,28.8088 C3.7341,28.8088 2.0371,27.1118 2.0371,25.0268 L2.0371,15.4228 Z M9.0211,2.0368 C11.1071,2.0368 12.8041,3.7338 12.8041,5.8198 L12.8031,9.6018 L8.9911,9.6028 C6.9191,9.5838 5.2381,7.8858 5.2381,5.8198 C5.2381,3.7338 6.9351,2.0368 9.0211,2.0368 L9.0211,2.0368 Z M14.8401,11.6398 L21.8251,11.6398 C23.9111,11.6398 25.6081,13.3368 25.6081,15.4228 L25.6021,25.2268 C25.4901,27.2408 23.8311,28.8088 21.8251,28.8088 L14.8401,28.8078 L14.8401,11.6398 Z M14.8411,5.8198 C14.8411,3.7338 16.5381,2.0368 18.6241,2.0368 C20.7101,2.0368 22.4071,3.7338 22.4071,5.8198 L22.4021,6.0168 C22.2901,8.0168 20.6461,9.5848 18.6591,9.6028 L14.8401,9.6018 L14.8411,5.8198 Z M0.0001,25.0268 C0.0001,28.2358 2.6111,30.8458 5.8201,30.8458 L21.8251,30.8458 C25.0341,30.8458 27.6441,28.2358 27.6441,25.0268 L27.6441,15.4228 C27.6441,12.9528 26.0811,10.7458 23.7531,9.9308 L23.0431,9.6818 L23.4621,9.0568 C24.1041,8.0978 24.4441,6.9788 24.4441,5.8198 C24.4441,2.6108 21.8331,-0.0002 18.6241,-0.0002 C16.9541,-0.0002 15.3631,0.7178 14.2601,1.9708 L13.8241,2.4658 L13.3871,1.9708 C12.2811,0.7178 10.6901,-0.0002 9.0211,-0.0002 C5.8121,-0.0002 3.2011,2.6108 3.2011,5.8198 C3.2011,6.9798 3.5411,8.0988 4.1831,9.0558 L4.6021,9.6808 L3.8921,9.9298 C1.5641,10.7458 0.0001,12.9538 0.0001,15.4228 L0.0001,25.0268 Z" id="Fill-1"></path>
        </g>
    </g>
</svg>