<?xml version="1.0" encoding="UTF-8"?>
<svg width="48px" height="48px" viewBox="0 0 48 48" version="1.1" xmlns="http://www.w3.org/2000/svg" xmlns:xlink="http://www.w3.org/1999/xlink">
    <!-- Generator: Sketch 61 (89581) - https://sketch.com -->
    <title>Icon 6</title>
    <desc>Created with Sketch.</desc>
    <g id="Icon-6" stroke="none" stroke-width="1" fill="none" fill-rule="evenodd">
        <g id="poker-cards-(3)" transform="translate(6.808967, 7.000000)" fill="#FFFFFF" fill-rule="nonzero">
            <path d="M11.4213489,2.46509942 C11.7077973,0.841384016 13.2534386,-0.240385965 14.8764912,0.0459298246 L14.8764912,0.0459298246 L30.5412125,2.80801559 C32.1607524,3.09360234 33.2460351,4.64355166 32.9604483,6.26302534 L32.9604483,6.26302534 L28.7942885,29.8907719 C28.5100936,31.501961 26.9741287,32.5984444 25.3392125,32.3099415 L25.3392125,32.3099415 L20.9598402,31.5377505 C20.850616,31.5697622 21.6961754,31.4118908 7.66716569,33.8882573 C6.04040156,34.1751696 4.49780897,33.0888265 4.21208967,31.4690214 L4.21208967,31.4690214 L0.0459298246,7.84134113 C-0.239590643,6.22186745 0.845625731,4.67191813 2.46523197,4.38633138 L2.46523197,4.38633138 L11.359115,2.81808967 Z M10.9917427,4.90189864 L2.81046784,6.34447953 C2.270577,6.43965302 1.90883821,6.9562807 2.00407797,7.49617154 L2.00407797,7.49617154 L6.17023782,31.1238519 C6.26561014,31.6651345 6.78104483,32.0257466 7.32192982,31.9302417 L7.32192982,31.9302417 L15.2537388,30.5316686 L9.6745575,29.547922 C8.05495127,29.2623353 6.96966862,27.7124522 7.25525536,26.0929123 L7.25525536,26.0929123 L10.9917427,4.90189864 Z M14.5311891,2.00407797 C13.9877856,1.90870565 13.474538,2.27130604 13.3794971,2.81046784 L13.3794971,2.81046784 L9.21333723,26.4381481 C9.11809747,26.9779727 9.47983626,27.4946004 10.0197271,27.5898402 L10.0197271,27.5898402 L25.6845146,30.3519259 C26.2277856,30.4474971 26.741232,30.0845653 26.8362066,29.5455361 L26.8362066,29.5455361 L31.0023665,5.91785575 C31.09754,5.37796491 30.7358012,4.86133723 30.1959766,4.76616374 L30.1959766,4.76616374 Z M22.3377248,25.663316 L22.452924,25.6768928 L24.4176335,26.0233216 C24.9583197,26.1186277 25.319462,26.6342612 25.2240897,27.1749474 C25.1285848,27.716694 24.6117583,28.0766433 24.0723977,27.9813372 L24.0723977,27.9813372 L22.1076881,27.6349084 C21.5670019,27.5396023 21.2059259,27.0239688 21.301232,26.4832827 C21.3966043,25.9425302 21.9129669,25.5813879 22.452924,25.6768928 Z M17.0974269,12.401384 C18.2366589,11.6037427 19.7636764,11.7614152 20.7201832,12.7052632 C21.9419298,12.1454893 23.4307719,12.5196218 24.2284133,13.6587875 C25.1265302,14.9414425 24.8136374,16.7156062 23.5310487,17.6137232 L23.5310487,17.6137232 L20.1512632,19.980269 C19.7014425,20.2952164 19.0815556,20.1858596 18.7666745,19.7361053 L18.7666745,19.7361053 L16.4001287,16.3563197 C15.4997583,15.0705497 15.8117895,13.3016218 17.0974269,12.401384 Z M19.4236101,14.2391735 C18.9871774,13.6159727 18.0183431,13.8386628 17.8877115,14.5796374 C17.8482105,14.803653 17.8983158,15.0295244 18.0287485,15.2158285 L18.0287485,15.2158285 L19.825115,17.781271 L22.3905575,15.9849708 C22.7750955,15.7156881 22.8689435,15.1837505 22.5996608,14.7992125 C22.3304444,14.4146745 21.7985068,14.3208928 21.4139025,14.5901754 L21.4139025,14.5901754 L21.0576647,14.839575 C20.6080429,15.1545224 19.9880234,15.0452982 19.673076,14.5954113 L19.673076,14.5954113 Z M7.08339961,7.67730604 C7.6242846,7.58206628 8.13978558,7.94300975 8.23509162,8.48369591 C8.33046394,9.02438207 7.96932164,9.54001559 7.42863548,9.63532164 L7.42863548,9.63532164 L5.52430409,9.97107992 C4.98355166,10.0664522 4.46791813,9.70537622 4.37261209,9.16469006 C4.27730604,8.6240039 4.63838207,8.10837037 5.17906823,8.01306433 L5.17906823,8.01306433 Z M16.0408126,4.36328925 L16.1560975,4.3768538 L18.0604288,4.71261209 C18.601115,4.80791813 18.962191,5.32355166 18.866885,5.86423782 C18.7712476,6.406846 18.2535595,6.76586745 17.715193,6.67062768 L17.715193,6.67062768 L15.8108616,6.3348694 C15.2701754,6.23956335 14.9090994,5.72392982 15.0044055,5.18324366 C15.0997778,4.64249123 15.6156764,4.2814152 16.1560975,4.3768538 Z" id="Combined-Shape"></path>
        </g>
    </g>
</svg>