<?xml version="1.0" encoding="UTF-8"?>
<svg width="48px" height="48px" viewBox="0 0 48 48" version="1.1" xmlns="http://www.w3.org/2000/svg" xmlns:xlink="http://www.w3.org/1999/xlink">
    <!-- Generator: Sketch 61 (89581) - https://sketch.com -->
    <title>Icon 8</title>
    <desc>Created with Sketch.</desc>
    <g id="Icon-8" stroke="none" stroke-width="1" fill="none" fill-rule="evenodd">
        <g id="Group-6" transform="translate(9.693015, 5.500000)" fill="#FFFFFF">
            <path d="M14.8183575,0.0383449951 C15.5848753,0.0470973832 15.9271757,0.216264634 15.9279962,0.216264634 L15.9279962,0.216264634 L15.9944597,0.247992041 C16.9357517,0.611489659 17.6675334,1.38648627 18.0017652,2.37427532 C18.1579406,2.83555353 18.448137,3.18906795 18.8410371,3.3965269 C19.5509379,3.77055474 20.1313306,3.51851331 20.6434821,3.29573768 L20.6434821,3.29573768 L20.7191082,3.26291623 C20.9741582,3.15241733 21.2365931,3.0728253 21.5002588,3.02619148 C22.7332515,2.80478341 23.9548934,3.28274586 24.768045,4.30431365 C25.5922737,5.33983057 25.7870144,6.6541931 25.2884018,7.82154286 L25.2884018,7.82154286 L25.2486058,7.91426348 C25.0943449,8.27201734 24.9191604,8.67749907 25.0370441,9.19785589 C25.1725694,9.79630043 25.619625,10.2787758 26.2041204,10.4571057 C26.3895616,10.5137227 26.5704899,10.5846991 26.741982,10.6681203 L26.741982,10.6681203 C27.8669374,11.2141873 28.5760176,12.3195866 28.6393356,13.6251967 C28.7023802,14.928482 28.1042091,16.0952847 27.0390161,16.7465171 C26.7983255,16.8938034 26.5376684,17.0134649 26.2640195,17.1022196 C25.6942938,17.2876609 25.2580419,17.7676746 25.1256621,18.3547684 C25.0058637,18.8857922 25.1893904,19.2944193 25.3513096,19.6546348 C25.3793446,19.7167221 25.4076531,19.7794931 25.434594,19.8441787 C25.8919063,20.9363126 25.7195936,22.1939214 24.9741363,23.2082411 C24.2329185,24.2165436 23.0918259,24.7513966 21.9184588,24.6430858 L21.9184588,24.6430858 L21.3952301,24.5939903 L21.3952301,36.1537069 C21.3952301,36.4745366 21.2196354,36.7618611 20.9258833,36.9224127 C20.6321313,37.0829644 20.2957114,37.0755795 20.0260284,36.9024464 L20.0260284,36.9024464 L16.4546438,34.6104147 C16.2931349,34.4731116 15.6637835,33.9839352 14.8889236,33.9966535 C14.0927298,34.0129275 13.4594125,34.5227541 13.2916128,34.6712712 L13.2916128,34.6712712 L9.80638453,36.9016258 C9.53711184,37.0744855 9.2013757,37.0822806 8.90789719,36.9218657 C8.61346138,36.7609038 8.43759308,36.4737161 8.43759308,36.1534334 L8.43759308,36.1534334 L8.43759308,24.7009336 L7.90178282,24.7654824 C6.87187291,24.8888364 5.84182623,24.5301252 5.07790686,23.7797447 C3.97072977,22.6921237 3.71061973,21.095907 4.41559724,19.7131664 C4.64329609,19.2665211 4.65998033,18.7419248 4.46127377,18.2742191 C4.26215694,17.8061031 3.87322269,17.4539562 3.39361918,17.307764 C1.90885859,16.8551014 0.940352144,15.559748 0.926381442,14.0074299 C0.912317151,12.4555221 1.85730155,11.1428006 3.33372002,10.6633339 C3.81072517,10.508526 4.19336864,10.1491311 4.38359632,9.67759616 C4.57396076,9.20633477 4.5477036,8.68228553 4.3120729,8.23974291 C3.58234254,6.86985741 3.81359705,5.26912769 4.90121802,4.16167708 C5.98897576,3.05449999 7.5856028,2.79480022 8.96820661,3.49909395 C9.41444165,3.72692955 9.93890115,3.74361379 10.4066069,3.54504399 C10.8748597,3.34606391 11.22728,2.95699291 11.3734723,2.47711588 C11.7104392,1.37212689 12.5149751,0.537771507 13.5809886,0.187956129 L13.5809886,0.187956129 L13.6079296,0.178109692 C13.6118955,0.176605376 14.0076676,0.0274045099 14.8183575,0.0383449951 Z M19.6171278,23.8615249 L18.8605933,24.4004805 C18.5594564,24.6150508 18.3335354,24.9301367 18.2241305,25.2878906 C17.7742031,26.7636253 16.4341304,27.7551067 14.8896074,27.7551067 C13.3538368,27.7552435 12.0546542,26.8103959 11.5795637,25.347653 C11.470022,25.0105493 11.2562723,24.7121476 10.9775635,24.5071502 L10.9775635,24.5071502 L10.2152852,23.9463136 L10.2152852,34.5269935 L14.4381757,31.8175824 C14.7192094,31.6362438 15.1136139,31.6366541 15.3971092,31.8182662 L15.3971092,31.8182662 L19.6171278,34.5265833 L19.6171278,23.8615249 Z M14.7374855,1.78816127 L14.5887441,1.79210476 C13.8659883,1.84106343 13.2855956,2.30220488 13.0741707,2.99569488 C12.7728971,3.9838942 12.0549277,4.78213934 11.1041996,5.18584324 C10.1538817,5.58995741 9.08103036,5.55248625 8.16079881,5.0832762 C7.4906941,4.74124928 6.71214182,4.87171456 6.17769913,5.41545667 C5.6436667,5.95906203 5.52728729,6.73966564 5.88121198,7.4040266 C6.36683276,8.31550577 6.42358653,9.38767331 6.03697714,10.3455128 C5.65023099,11.3032155 4.86525118,12.0354075 3.88279562,12.3543226 C3.16701438,12.5866712 2.70874481,13.2292879 2.71564086,13.9914294 C2.72255717,14.753571 3.19217749,15.3877089 3.91206141,15.6072023 C4.89998722,15.908476 5.69809561,16.6264453 6.10207302,17.5770367 C6.50591368,18.5276281 6.46844252,19.6004794 5.99936922,20.520711 C5.58062215,21.3424782 5.89228922,22.0880722 6.32389136,22.5118793 C6.75494647,22.9354128 7.50601078,23.2338145 8.32025638,22.800161 C9.21231619,22.325344 10.2770989,22.2733767 11.2416394,22.6586185 C12.2057697,23.0437236 12.9422011,23.8144808 13.2616632,24.7736878 C13.5023539,25.4954863 14.1129697,25.9563542 14.8548714,25.9761839 L14.8548714,25.9761839 L14.9023257,25.9767309 C15.6532533,25.9767309 16.3012035,25.4965804 16.5230219,24.7697219 C16.8204663,23.7972495 17.541034,23.0057054 18.500241,22.5978988 C19.4591745,22.1903657 20.5292907,22.2203153 21.4352997,22.6803627 C22.102806,23.0212956 22.8790334,22.8909671 23.4130659,22.348319 C23.9490129,21.8033461 24.0678539,21.0234263 23.715707,20.3612534 C23.2655061,19.5140496 23.196034,18.4954904 23.5249323,17.5669167 C23.8532836,16.6398474 24.5469104,15.8935695 25.4273459,15.519952 L25.4273459,15.519952 L25.4531928,15.5090115 C26.0385088,15.260936 26.7670083,14.9524143 26.8807894,13.998951 L26.8807894,13.998951 L26.8922588,13.8446871 C26.9151525,13.0782558 26.4269815,12.3837166 25.6856781,12.1579409 C24.0558194,11.6608326 23.0101825,10.0144263 23.2534715,8.32781381 C23.3074902,7.95050383 23.4235961,7.58591217 23.5983703,7.24361174 C23.9386194,6.57624215 23.8066498,5.7994677 23.2623607,5.26488825 C22.7183451,4.73030879 21.9389723,4.61283534 21.2773464,4.9649822 C20.3881585,5.43870521 19.3251536,5.49012549 18.3612969,5.10679824 C17.3971666,4.72333423 16.6601882,3.95544894 16.3390849,3.00007107 C16.0739149,2.2124929 15.3897244,1.73835963 14.5887441,1.79210476 Z M14.7988424,7.22616166 C18.398262,7.22616166 21.3266196,10.154656 21.3266196,13.7542124 C21.3266196,17.353632 18.398262,20.2819896 14.7988424,20.2819896 C11.1992861,20.2819896 8.27092847,17.353632 8.27092847,13.7542124 C8.27092847,10.154656 11.1992861,7.22616166 14.7988424,7.22616166 Z M14.7988424,8.86709768 C12.1042009,8.86709768 9.91200124,11.0592974 9.91200124,13.7540756 C9.91200124,16.4485804 12.1042009,18.6407801 14.7988424,18.6407801 C17.4933472,18.6407801 19.6855469,16.4485804 19.6855469,13.7540756 C19.6855469,11.0592974 17.4933472,8.86709768 14.7988424,8.86709768 Z" id="Combined-Shape"></path>
        </g>
    </g>
</svg>