<?xml version="1.0" encoding="UTF-8"?>
<svg width="48px" height="48px" viewBox="0 0 48 48" version="1.1" xmlns="http://www.w3.org/2000/svg" xmlns:xlink="http://www.w3.org/1999/xlink">
    <!-- Generator: Sketch 61 (89581) - https://sketch.com -->
    <title>Icons 7</title>
    <desc>Created with Sketch.</desc>
    <g id="Icons-7" stroke="none" stroke-width="1" fill="none" fill-rule="evenodd">
        <path d="M32.9016667,11.04 C35.3188106,11.04 37.5497224,11.504446 38.8187769,12.1859196 L39.0018242,12.2897374 L39.4677118,12.56927 L38.1830875,18.2216169 L37.3281612,17.7941537 C36.1247188,17.1924325 34.8448839,16.9209524 32.7111905,16.9209524 C29.010037,16.9209524 26.6040476,19.3732108 26.6040476,23.79 C26.6040476,28.2535506 28.8755242,30.8495238 32.5207143,30.8495238 C32.9554093,30.8495238 33.4177773,30.8020232 33.7936156,30.7344453 L34.0078213,30.6917087 L34.056,30.679 L34.056,27.016 L30.8183333,27.0161905 L30.8183333,21.3257143 L40.1278571,21.3257143 L40.1278571,34.976417 L39.6411997,35.1589135 C37.4532127,35.9794087 34.8541075,36.54 32.3302381,36.54 C29.9568303,36.54 27.9907578,36.1476401 26.2645009,35.3454669 L25.9223974,35.1795629 L25.651,35.037 L25.6516667,36.3495238 L19.3897619,36.3495238 L19.389,27.014 L18.8810564,27.0124684 C17.3202334,27.1685507 16.6837276,27.7311718 16.215,29.749819 L16.1635712,29.9801584 L15.9062035,31.2267312 C15.403,33.5886024 14.9246342,35.260331 14.531203,35.9304121 L14.4780853,36.015549 L14.2554354,36.3495238 L7.98436814,36.3495238 L8.39578534,35.3209808 C8.64988103,34.6857416 9.12797474,32.9005426 9.60901726,30.8465178 L9.95013695,29.3455317 L10.0828557,28.7355191 C10.5908164,26.8729965 11.186895,25.5546689 12.0477236,24.711218 L12.233,24.54 L12.205828,24.524523 C10.5130396,23.4970064 9.29276311,21.5328017 9.12405754,19.2025425 L9.10889747,18.9211908 L9.10404762,18.6471429 C9.10404762,16.326343 9.83028319,14.5626281 11.2649311,13.1303294 C12.9090061,11.6917638 15.3155184,11.04 18.6159524,11.04 C21.0664429,11.04 23.2568403,11.221889 24.8015884,11.5671711 L25.0835684,11.6338217 L25.6516667,11.7758463 L25.651,12.995 L25.9269987,12.8267313 C27.6968932,11.7791293 29.7407331,11.1829819 32.0266469,11.0627373 L32.4870479,11.045041 L32.9016667,11.04 Z M32.9016667,12.54 C30.0392019,12.54 27.6141485,13.3186408 25.6535222,14.8180382 L25.376595,15.0371346 L24.1516667,16.0393487 L24.151,12.963 L23.9003003,12.9167759 C22.7255764,12.7088225 21.2086895,12.5819014 19.5178238,12.5487322 L19.0524914,12.54202 L18.6159524,12.54 C15.6453241,12.54 13.5774143,13.1000589 12.2891396,14.225092 C11.1730501,15.3411815 10.6040476,16.7230447 10.6040476,18.6471429 C10.6040476,21.0269976 11.957423,22.9586746 13.6918384,23.5813876 L13.8790823,23.6430589 L14.4135714,23.8034056 L14.4135714,25.0716551 L13.926914,25.2541516 C12.8625593,25.6532847 12.1517567,26.8504258 11.5397804,29.090004 C11.1416333,30.9480238 10.6903326,32.8245072 10.3171645,34.1826221 L10.127,34.849 L13.391,34.849 L13.4208801,34.7769633 C13.7043958,34.0375579 14.1025185,32.5258792 14.5090324,30.5810675 L14.6424216,29.9286272 C15.2271873,27.0047991 16.286284,25.8295444 18.5870688,25.5406991 L18.8064286,25.5161905 L20.8897619,25.5161905 L20.889,34.849 L24.151,34.849 L24.1516667,32.2542702 L25.3317634,33.080338 C27.216501,34.3996543 29.3936765,35.04 32.3302381,35.04 C34.1770159,35.04 36.0889606,34.7094976 37.8157061,34.191591 L38.2818569,34.0458048 L38.627,33.929 L38.627,22.825 L32.318,22.825 L32.318,25.516 L35.5564286,25.5161905 L35.5564286,31.6820969 L35.1418388,31.8893918 C34.6064114,32.1571055 33.516041,32.3495238 32.5207143,32.3495238 C27.9992377,32.3495238 25.1040476,29.0407351 25.1040476,23.79 C25.1040476,18.5511116 28.1751472,15.4209524 32.7111905,15.4209524 C34.3842212,15.4209524 35.629907,15.5823019 36.7211077,15.9306237 L36.9703051,16.0143364 L37.133,16.074 L37.754,13.337 C36.7940168,12.9290439 35.2795738,12.6210263 33.591199,12.5537417 L33.2268808,12.5430596 L32.9016667,12.54 Z M18.0445238,15.04 C18.5763926,15.04 19.0605863,15.0767742 19.5484085,15.1418172 L20.1397619,15.2304762 L20.8897619,15.2304762 L20.8897619,23.2066667 L18.4254762,23.2066667 C15.6007495,23.2066667 13.8659524,21.600373 13.8659524,19.0280952 C13.8659524,16.5459389 15.5028425,15.04 18.0445238,15.04 Z M18.0445238,16.54 C16.3046316,16.54 15.3659524,17.4035849 15.3659524,19.0280952 C15.3659524,20.6837389 16.3316321,21.6370169 18.2127037,21.7029964 L18.4254762,21.7066667 L19.389,21.706 L19.389,16.634 L19.3501629,16.628659 C19.1371413,16.6002561 18.9257802,16.5780914 18.7101502,16.5630273 L18.3827622,16.5458647 L18.0445238,16.54 Z" id="Combined-Shape" fill="#FFFFFF" fill-rule="nonzero"></path>
    </g>
</svg>