<?xml version="1.0" encoding="UTF-8"?>
<svg width="48px" height="48px" viewBox="0 0 48 48" version="1.1" xmlns="http://www.w3.org/2000/svg" xmlns:xlink="http://www.w3.org/1999/xlink">
    <!-- Generator: Sketch 61 (89581) - https://sketch.com -->
    <title>Icon 5</title>
    <desc>Created with Sketch.</desc>
    <g id="Icon-5" stroke="none" stroke-width="1" fill="none" fill-rule="evenodd">
        <g id="communication" transform="translate(6.374700, 6.593750)" fill="#FFFFFF" fill-rule="nonzero">
            <path d="M23.863071,0.00922382919 C29.5142037,0.00922382919 34.1117701,4.60460385 34.1117701,10.2531402 C34.1117701,12.4798409 33.3891685,14.632136 32.0621669,16.3990117 L32.0621669,16.3990117 L35.1372549,20.4969882 L25.4245628,20.4969882 C26.7969319,28.0536957 20.9684967,34.9913818 13.3239921,34.9913818 L13.3239921,34.9913818 L3.58915764e-12,34.9913818 L3.5884795,30.2094071 C1.93017166,28.0640811 1.02555316,25.428184 1.02555316,22.6988188 C1.02555316,15.8127862 6.71187304,10.2500656 13.6143719,10.409877 L13.6143719,10.409877 L13.6143719,10.2531402 C13.6143719,4.60460385 18.2119383,0.00922382919 23.863071,0.00922382919 Z M13.3239921,12.4559273 C7.67285939,12.4559273 3.07529298,17.050829 3.07529298,22.6988188 C3.07529298,25.2080419 3.99296149,27.6224988 5.65926332,29.4973275 L5.65926332,29.4973275 L6.21569935,30.1233863 L4.10084613,32.9416419 L13.3239921,32.9416419 C18.9751248,32.9416419 23.5726912,28.3467402 23.5726912,22.6988188 C23.5726912,17.050829 18.9751248,12.4559273 13.3239921,12.4559273 Z M19.4732115,23.7263533 L19.4732115,25.7760931 L7.17477261,25.7760931 L7.17477261,23.7263533 L19.4732115,23.7263533 Z M13.3239921,19.6268737 L13.3239921,21.6766135 L7.17477261,21.6766135 L7.17477261,19.6268737 L13.3239921,19.6268737 Z M23.863071,2.05889532 C19.3421648,2.05889532 15.6640434,5.73476207 15.6640434,10.2530719 L15.6640434,10.2530719 L15.6640434,10.630429 C19.9143155,11.452238 23.3914942,14.4677469 24.863754,18.4473167 L24.863754,18.4473167 L31.0365454,18.4473167 L29.4385683,16.3178421 L29.9950043,15.6917832 C31.3279501,14.1918519 32.0620303,12.2603821 32.0620303,10.2530719 C32.0620303,5.73476207 28.3839771,2.05889532 23.863071,2.05889532 Z" id="Combined-Shape"></path>
        </g>
    </g>
</svg>