<?xml version="1.0" encoding="UTF-8"?>
<svg width="48px" height="48px" viewBox="0 0 48 48" version="1.1" xmlns="http://www.w3.org/2000/svg" xmlns:xlink="http://www.w3.org/1999/xlink">
    <!-- Generator: Sketch 61 (89581) - https://sketch.com -->
    <title>Icon 3</title>
    <desc>Created with Sketch.</desc>
    <g id="Icon-3" stroke="none" stroke-width="1" fill="none" fill-rule="evenodd">
        <g id="Group-13" transform="translate(6.500000, 6.500000)" fill="#FFFFFF">
            <path d="M17.25,0 C26.762,0 34.5,7.738 34.5,17.25 C34.5,26.762 26.762,34.5 17.25,34.5 C7.738,34.5 0,26.762 0,17.25 C0,7.738 7.738,0 17.25,0 Z M17.25,2 C8.841,2 2,8.841 2,17.25 C2,25.659 8.841,32.5 17.25,32.5 C25.659,32.5 32.5,25.659 32.5,17.25 C32.5,8.841 25.659,2 17.25,2 Z M22.4695702,8.0504 C22.4695702,9.57732982 23.7073772,10.8151368 25.234307,10.8151368 L25.7176842,10.8151368 L25.7176842,19.325286 C25.7176842,21.4846719 24.6596754,23.5076281 22.8851842,24.740014 L17.25,28.6504 L17.2310263,28.6368474 L17.2310263,28.6359439 L11.6148158,24.740014 C9.90899123,23.555514 8.86453509,21.6391719 8.78683333,19.5737509 L8.78231579,19.3243825 L8.78231579,10.8151368 L9.26569298,10.8151368 C10.7926228,10.8151368 12.0304298,9.57732982 12.0304298,8.0504 L22.4695702,8.0504 Z M21.2681746,10.4214781 L13.2314553,10.4214781 C13.2314553,11.596943 12.2791658,12.5492412 11.1037009,12.5492412 L10.7314553,12.5492412 L10.7314553,19.1005833 C10.7314553,20.763943 11.5464202,22.3197851 12.9116219,23.2684693 L17.2502711,26.2789605 L21.5880167,23.2684693 C22.9541219,22.3197851 23.7690868,20.763943 23.7690868,19.1005833 L23.7690868,12.5492412 L23.3959377,12.5492412 C22.2724442,12.5492412 21.3514801,11.6779513 21.2735201,10.5734741 L21.2681746,10.4214781 Z" id="Combined-Shape"></path>
        </g>
    </g>
</svg>