<?xml version="1.0" encoding="UTF-8"?>
<svg width="48px" height="48px" viewBox="0 0 48 48" version="1.1" xmlns="http://www.w3.org/2000/svg" xmlns:xlink="http://www.w3.org/1999/xlink">
    <!-- Generator: Sketch 61 (89581) - https://sketch.com -->
    <title>Icon 2</title>
    <desc>Created with Sketch.</desc>
    <g id="Icon-2" stroke="none" stroke-width="1" fill="none" fill-rule="evenodd">
        <g id="bitcoin" transform="translate(7.500000, 7.500000)" fill="#FFFFFF" fill-rule="nonzero">
            <path d="M33,23.1739277 L33,25.3826719 C33,28.4268574 30.5233887,30.9034043 27.4792676,30.9034043 L27.4792676,30.9034043 L27.3828457,30.9034043 L28.0848047,31.6053633 L26.7187207,32.9714473 L23.6846543,29.9374453 L26.7187207,26.9034434 L28.0848047,28.2695273 L27.3828457,28.9715508 L27.4792676,28.9715508 C29.4581719,28.9715508 31.068082,27.3616406 31.068082,25.3827363 L31.068082,25.3827363 L31.068082,23.1739277 L33,23.1739277 Z M20.4479473,0.103640625 C27.3011836,0.103640625 32.8767012,5.6791582 32.8767012,12.5323945 C32.8767012,15.3014297 31.9856367,17.9219004 30.2998652,20.1104707 C28.7772891,22.0873125 26.6643223,23.5779844 24.3066914,24.3496172 C22.6784121,29.3175996 17.9984707,32.9159531 12.4931426,32.9159531 C5.63990625,32.9159531 0.0643886719,27.3404355 0.0643886719,20.4871992 C0.0643886719,14.9818711 3.66274219,10.3019297 8.63072461,8.67365039 C9.40235742,6.31608398 10.8930938,4.20311719 12.8698711,2.68047656 C15.0584414,0.994705078 17.6789121,0.103640625 20.4479473,0.103640625 Z M12.4931426,9.99036328 C6.7051875,9.99036328 1.99630664,14.6992441 1.99630664,20.4871992 C1.99630664,26.2751543 6.7051875,30.9840352 12.4931426,30.9840352 C18.2811621,30.9840352 22.9899785,26.2751543 22.9899785,20.4871992 C22.9899785,14.6992441 18.2810977,9.99036328 12.4931426,9.99036328 Z M20.4478828,2.03555859 C18.1092012,2.03555859 15.8963965,2.78779102 14.0487188,4.21098047 C12.6965566,5.25254297 11.6138086,6.62043164 10.9044375,8.15957227 C11.4247031,8.09292773 11.9548945,8.05844531 12.4930137,8.05844531 C12.7383867,8.05844531 12.9819551,8.06637305 13.2238477,8.08048828 C14.7838066,5.60922656 17.495543,4.09863867 20.4478184,4.09863867 C25.1582461,4.09863867 28.9905,7.93089258 28.9905,12.6413203 C28.9905,15.643418 27.4417559,18.3793242 24.9086836,19.927875 C24.9169336,20.1133066 24.921832,20.2996406 24.921832,20.4871348 C24.921832,21.0252539 24.8873496,21.5554453 24.8207051,22.0757109 C26.3598457,21.3665332 27.7277344,20.2837852 28.7692969,18.9315586 C30.1924863,17.0838809 30.9447188,14.8710762 30.9447188,12.5323945 C30.9447188,6.74443945 26.2358379,2.03555859 20.4478828,2.03555859 Z M20.4479473,6.03055664 C18.4637578,6.03055664 16.6198184,6.9124043 15.3780645,8.39714648 C19.9744102,9.49388086 23.5879102,13.1505645 24.622125,17.7706289 C26.1505664,16.5303574 27.0587109,14.6637305 27.0587109,12.6413203 C27.0587109,8.99610938 24.0930938,6.03055664 20.4479473,6.03055664 Z M6.28121484,0.0284882813 L9.3153457,3.06255469 L6.2812793,6.09655664 L4.91519531,4.73047266 L5.6171543,4.02844922 L5.52073242,4.02844922 C3.54182813,4.02844922 1.93191797,5.63835938 1.93191797,7.61726367 L1.93191797,7.61726367 L1.93191797,9.82600781 L2.36077824e-12,9.82600781 L2.36077824e-12,7.61726367 C2.36077824e-12,4.57314258 2.47654688,2.09653125 5.52073242,2.0965957 L5.52073242,2.0965957 L5.6171543,2.0965957 L4.91519531,1.39457227 L6.28121484,0.0284882813 Z" id="Combined-Shape"></path>
            <path d="M15.1621465,16.1693555 L15.1621465,14.6180977 L13.2302285,14.6180977 L13.2302285,16.1618789 L11.5556719,16.1618789 L11.5556719,14.6180977 L9.62375391,14.6180977 L9.62375391,16.1618789 L8.01365039,16.1618789 L8.01365039,18.0937969 L9.62375391,18.0937969 L9.62375391,23.1380918 L8.01365039,23.1380918 L8.01365039,25.0700098 L9.62375391,25.0700098 L9.62375391,26.613791 L11.5556719,26.613791 L11.5556719,25.0700098 L13.2302285,25.0700098 L13.2302285,26.613791 L15.1621465,26.613791 L15.1621465,25.0625332 C16.5675469,24.9640488 17.6811035,23.7900352 17.6811035,22.3600137 C17.6811035,21.6961465 17.4408223,21.0876445 17.0431465,20.6159766 C17.4408223,20.1442441 17.6811035,19.5357422 17.6811035,18.8719395 C17.6811035,17.441918 16.5675469,16.2678398 15.1621465,16.1693555 L15.1621465,16.1693555 Z M14.971043,18.0938613 C15.400043,18.0938613 15.7491211,18.4429395 15.7491211,18.8720039 C15.7491211,19.3010039 15.400043,19.650082 14.971043,19.650082 L11.5556074,19.650082 L11.5556074,18.0939258 L14.971043,18.0939258 L14.971043,18.0938613 Z M14.971043,23.1380918 L11.5556074,23.1380918 L11.5556074,21.5819355 L14.971043,21.5819355 C15.400043,21.5819355 15.7491211,21.9310137 15.7491211,22.3600137 C15.7491211,22.7890137 15.4001074,23.1380918 14.971043,23.1380918 L14.971043,23.1380918 Z" id="Shape"></path>
        </g>
    </g>
</svg>