<svg id="Layer_1" xmlns="http://www.w3.org/2000/svg" viewBox="0 0 482.8 129.4"><style>.st0{fill:#fff}.st1{fill:#cf222d}</style><path class="st0" d="M31.5 42.6c1.1-.1 2.9-.4 5.3-.6 2.4-.3 5.3-.4 8.9-.4 2.6 0 5.3.2 8 .7 2.7.5 5.1 1.4 7.3 2.8s3.9 3.3 5.3 5.8c1.3 2.5 2 5.7 2 9.7 0 3.5-.5 6.5-1.6 8.8-1.1 2.3-2.5 4.2-4.3 5.6-1.8 1.4-3.8 2.4-6 3-2.3.6-4.6.9-7 .9-.9 0-1.9 0-2.9-.1s-1.7-.2-2.1-.3v17.4c-1.3.2-2.5.4-3.5.5-1 .1-2 .1-2.9.1-1.7 0-3.9-.2-6.5-.7V42.6zm12.9 25.2c.2.1.7.2 1.3.2.6 0 1.2.1 1.9.1 2.1 0 3.9-.6 5.2-1.9 1.3-1.2 2-3.1 2-5.7 0-1.5-.2-2.8-.6-3.8-.4-1-1-1.8-1.8-2.5-.7-.6-1.6-1.1-2.6-1.3-1-.3-2-.4-3.1-.4h-1c-.4 0-.8 0-1.2.1v15.2zM75.2 42.6c1.3-.2 2.6-.3 3.7-.4 1.1-.1 2.1-.1 2.9-.1.9 0 1.9 0 3 .1s2.3.3 3.6.4v41.8h17.2c.2 1.2.4 2.3.5 3.2.1.9.1 1.8.1 2.5 0 .8 0 1.7-.1 2.7-.1.9-.2 2-.5 3.3H75.2V42.6zM120.7 96c-1.1.2-2.2.3-3.1.4-.9.1-1.9.1-2.8.1-.9 0-1.9-.1-3.1-.2-1.2-.1-2.5-.3-3.9-.6l16.7-53.3c1.3-.1 2.5-.3 3.6-.4 1.1-.1 2.3-.1 3.4-.1.9 0 2 0 3.1.1s2.4.2 3.8.4l16.5 53.4c-2.8.4-5.3.7-7.5.7-1 0-2 0-3-.1s-2.1-.3-3.2-.4l-2.8-10.4c-1.4.4-2.7.7-4 .9-1.3.2-2.5.3-3.8.3-1.1 0-2.3-.1-3.5-.3-1.2-.2-2.4-.4-3.7-.8L120.7 96zm10.4-39.4l-5 19.2c.8.3 1.6.4 2.4.6.7.1 1.5.2 2.3.2.8 0 1.7-.1 2.5-.2s1.7-.3 2.6-.6l-4.8-19.2zM180.9 42.6c1.1-.2 2.3-.3 3.6-.4 1.2-.1 2.5-.1 3.8-.1.8 0 1.9.1 3.3.2 1.3.1 2.5.3 3.4.4L178.4 77v19c-2.6.4-4.8.7-6.6.7-1.8 0-4.1-.2-6.6-.7V77c-1.3-2.7-2.7-5.5-4.1-8.4-1.4-2.9-2.8-5.8-4.3-8.7l-4.2-8.7c-1.4-2.9-2.7-5.7-4-8.4.8-.1 2-.3 3.4-.4 1.4-.1 2.8-.2 4.1-.2 1 0 2.2.1 3.5.2 1.3.1 2.4.3 3.3.4l9.2 20.8 8.8-21zM306.8 96c-1.1.2-2.2.3-3.1.4-.9.1-1.9.1-2.8.1-.9 0-1.9-.1-3.1-.2-1.2-.1-2.5-.3-3.9-.6l16.7-53.3c1.3-.1 2.5-.3 3.6-.4 1.1-.1 2.3-.1 3.4-.1.9 0 2 0 3.1.1s2.4.2 3.8.4L341 95.8c-2.8.4-5.3.7-7.5.7-1 0-2 0-3-.1s-2.1-.3-3.2-.4l-2.8-10.4c-1.4.4-2.7.7-4 .9-1.3.2-2.5.3-3.8.3-1.1 0-2.3-.1-3.5-.3-1.2-.2-2.4-.4-3.7-.8L306.8 96zm10.5-39.4l-5 19.2c.8.3 1.6.4 2.4.6.7.1 1.5.2 2.3.2.8 0 1.7-.1 2.5-.2s1.7-.3 2.6-.6l-4.8-19.2zM347.5 42.6c1-.1 2.2-.3 3.4-.4 1.2-.1 2.4-.2 3.4-.2s2.1.1 3.2.2c1.2.1 2.3.3 3.2.4l10.6 27.8 11-27.8c1-.1 2-.3 3-.4 1-.1 2-.2 3-.2s2.1.1 3.2.2 2.2.3 3.2.4l2.5 53.3c-.8.1-1.7.3-2.7.4-1 .2-2.3.2-3.8.2-1.7 0-3.8-.2-6.2-.7l-1-30.9-8.2 20.4c-.9.1-1.8.3-2.7.4-.9.1-1.7.1-2.5.1-.7 0-1.5 0-2.3-.1-.8-.1-1.6-.2-2.5-.4L358 65.2l-.8 30.6c-2.1.4-4.1.7-6 .7-1.7 0-3.8-.2-6-.7l2.3-53.2zM404.3 69.5c0-4 .5-7.7 1.4-11.1.9-3.4 2.3-6.4 4.3-8.8 1.9-2.5 4.4-4.4 7.3-5.9 3-1.4 6.5-2.1 10.6-2.1s7.6.7 10.5 2.1c2.9 1.4 5.4 3.4 7.3 5.9 1.9 2.5 3.3 5.4 4.3 8.8.9 3.4 1.4 7.1 1.4 11.1s-.5 7.7-1.4 11c-.9 3.4-2.3 6.3-4.3 8.7-1.9 2.5-4.3 4.4-7.3 5.7-2.9 1.4-6.4 2.1-10.5 2.1s-7.6-.7-10.6-2.1c-3-1.4-5.4-3.3-7.3-5.7-1.9-2.5-3.3-5.4-4.3-8.7-.9-3.4-1.4-7-1.4-11zm33.1 0c0-10.8-3.2-16.3-9.5-16.3-6.5 0-9.7 5.4-9.7 16.3 0 5.4.8 9.5 2.4 12.1 1.6 2.7 4 4 7.3 4 6.3 0 9.5-5.4 9.5-16.1z"/><path class="st1" d="M286.1 52.8l-23.3-19.2c-5.6-3.3-12-4.1-17.6-5.3-2.4-.6-4.8-1.1-7.3-1.6l-8.2-1.4-2.4-.3c7.2 6.2 13.3 13.3 19.8 19.3l7.8 6.3c7.1 4.2 14.7 4 21.5 4.8 2 .2 3.9.5 5.8.7l8.6.7c-1.5-1.2-3.1-2.6-4.7-4zm-50.2-23.3c2.8-2.3 8.4 1 9.7 4.1-2.9 1.8-7-1-9.7-4.1zm17 14.9c2.9-1.9 9 1.7 10 5-2.8 2-9.2-1.9-10-5zm3.5-11c1.8-1.8 7.7 1.3 8.6 4.2-1.7 1.5-7.1-1.1-8.6-4.2zm16.4 14.4c2.7-2.4 7.7 1.3 9.6 4.3-2.9 2.1-7-1.3-9.6-4.3z"/><path d="M290.8 59.9l-10.6-1.6c-1.7-.2-3.5-.4-5.5-.7-4.6-.5-11.1-2.1-14.5-1-6.6 2.1-9.5 9.6-12.6 15.6-3.7 7.2-7.2 13.3-11.2 21-1.5 2.8-5 8.5-3.3 10.4 1.4 1.7 6.8.5 8.2.4 2.9-.3 5.7-.5 8.1-.7 4.3-.4 12.9-.6 16.2-2.2 1.7-.8 4.1-2.8 5.9-5.1.9-1.1 1.7-2.4 2.5-3.7l17-29.4c.4-1.2.3-2.2-.2-3zm-48.6 37.6c-3.4-3.1 5.5-11.8 8.7-6.4 0 3.7-5.9 9-8.7 6.4zm6.7-11.9c-3.4-3 3.9-9.6 6.9-8.3 4.9 2.1-3.3 11.5-6.9 8.3zm6.8-12.5c-3.3-3 3.9-10.3 7.3-8.7 4.8 2.4-3.7 12-7.3 8.7zm7 22.9c-2.3-2.7 4.3-8.4 6.8-7 3.5 1.9-3.9 10.3-6.8 7zm6.8-10.5c-3.1-2.4 3.6-9.7 6.8-7.7 3.5 2.2-4.2 9.7-6.8 7.7zm6.7-11.9c-2.6-2.7 3.8-9.3 6.8-7.7 3.8 2.1-3.7 11-6.8 7.7z" fill-rule="evenodd" clip-rule="evenodd" fill="#cf222d"/><path class="st1" d="M238 38.8c-2.5-2.4-5.2-5.5-7.7-8l-4.1-3.3c-.3-.1-.5-.3-.8-.4-4-1.5-5.7 4.4-7.3 7.9-2.4 5.5-6.2 14.4-8.9 20.3-1.7 3.7-3.7 6.9-4.4 10.1-1.2 5.5 1.8 9.2 5.7 14.5 3.8 5.3 6.8 9.2 10.8 14.6 1 1.3 3.7 6.4 6.4 6.3 2.9-.1 5.2-6 6.9-9 4.2-7.7 7.1-13.4 11-20.8 1.7-3.2 4.2-6.9 5.3-10.4 2.9-8.9-4-13.3-12.9-21.8zm-25.5 33c-6.5-.7-2.1-15 2.7-8.9 1.6 2.1.7 7.7-2.7 8.9zm13.2-34.5c3.2 2.3 1.8 9.8-2.6 10.4-5.5-.2-2.4-13.9 2.6-10.4zm-1.4 20.3c4.4-2 6.8 8.7 1.4 10.8-4.8.8-5.5-9-1.4-10.8zm2.3 32.4c-4.4-1.6-5.1-8.7-1.3-11 4.8-2.9 8 10 1.3 11zm13.8-25.5c-4.7 1.9-7.1-8.2-2.2-11.1.8-.5 1.9-.4 2.9.2 3.3 1.6 3.9 9-.7 10.9z"/></svg>