<svg id="Layer_1" xmlns="http://www.w3.org/2000/svg" width="140" height="45"><style>.st0{fill:#fff}.st1{fill:#cf222d}</style><path class="st0" d="M0 6.1c.4 0 1-.1 1.8-.2s1.8-.1 3-.1c.9 0 1.8.1 2.7.2.8.2 1.6.5 2.4 1 .7.5 1.3 1.1 1.8 1.9.4.8.7 1.9.7 3.2 0 1.2-.2 2.2-.5 2.9-.4.8-.8 1.4-1.4 1.9-.6.5-1.3.8-2 1-.8.2-1.5.3-2.3.3h-1c-.3 0-.6-.1-.7-.1v5.8c-.6.1-1 .1-1.3.2h-1c-.6 0-1.3-.1-2.2-.2V6.1zm4.3 8.4c.1 0 .2.1.4.1h.6c.7 0 1.3-.2 1.7-.6.4-.4.7-1 .7-1.9 0-.5-.1-.9-.2-1.3 0-.3-.2-.6-.5-.8-.2-.2-.5-.4-.9-.4-.3-.1-.7-.1-1-.1h-.7l-.1 5zM14.6 6.1c.4 0 .9-.1 1.2-.1h2c.4 0 .8.1 1.2.1V20h5.7c.1.4.1.8.2 1.1V22.8c0 .3-.1.7-.2 1.1H14.6V6.1zM29.8 23.9c-.4.1-.7.1-1 .1h-.9c-.3 0-.6 0-1-.1-.4 0-.8-.1-1.3-.2L31 6.1c.4 0 .8-.1 1.2-.1h2.1c.4 0 .8.1 1.3.1l5.5 17.8c-.9.1-1.8.2-2.5.2h-1c-.3 0-.7-.1-1.1-.1l-.9-3.5c-.5.1-.9.2-1.3.3-.4.1-.8.1-1.3.1-.4 0-.8 0-1.2-.1-.4-.1-.8-.1-1.2-.3l-.8 3.4zm3.4-13.1l-1.7 6.4c.3.1.5.1.8.2.2 0 .5.1.8.1s.6 0 .8-.1c.3 0 .6-.1.9-.2l-1.6-6.4zM49.8 6.1c.4 0 .8-.1 1.2-.1h1.3c.3 0 .6 0 1.1.1.4 0 .8.1 1.1.1L49 17.6v6.3c-.9.1-1.6.2-2.2.2s-1.4-.1-2.2-.2v-6.3c-.4-.9-.9-1.8-1.4-2.8-.5-1-.9-1.9-1.4-2.9-.5-1-.9-1.9-1.4-2.9s-.9-1.9-1.3-2.8c.3 0 .7-.1 1.1-.1.5-.1.9-.1 1.4-.1.3 0 .7 0 1.2.1.4 0 .8.1 1.1.1l3.1 6.9 2.8-7zM91.8 23.9c-.4.1-.7.1-1 .1h-.9c-.3 0-.6 0-1-.1-.4 0-.8-.1-1.3-.2L93 6.1c.4 0 .8-.1 1.2-.1h2.1c.4 0 .8.1 1.3.1l5.5 17.8c-.9.1-1.8.2-2.5.2h-1c-.3 0-.7-.1-1.1-.1l-.9-3.5c-.5.1-.9.2-1.3.3-.4.1-.8.1-1.3.1-.4 0-.8 0-1.2-.1-.4-.1-.8-.1-1.2-.3l-.8 3.4zm3.5-13.1l-1.7 6.4c.3.1.5.1.8.2.2 0 .5.1.8.1s.6 0 .8-.1c.3 0 .6-.1.9-.2l-1.6-6.4zM105.3 6.1c.3 0 .7-.1 1.1-.1.4 0 .8-.1 1.1-.1.3 0 .7 0 1.1.1.4 0 .8.1 1.1.1l3.5 9.3 3.7-9.3c.3 0 .7-.1 1-.1.3 0 .7-.1 1-.1.3 0 .7 0 1.1.1.4 0 .7.1 1.1.1l.8 17.8c-.3 0-.6.1-.9.1-.3.1-.8.1-1.3.1-.6 0-1.3-.1-2.1-.2l-.3-10.3-2.7 6.8c-.3 0-.6.1-.9.1h-1.6c-.3 0-.5-.1-.8-.1l-2.4-6.7-.3 10.2c-.7.1-1.4.2-2 .2-.6 0-1.3-.1-2-.2l.7-17.8zM124.3 15.1c0-1.3.2-2.6.5-3.7s.8-2.1 1.4-2.9c.6-.8 1.5-1.5 2.4-2 1-.5 2.2-.7 3.5-.7 1.4 0 2.5.2 3.5.7 1 .5 1.8 1.1 2.4 2 .6.8 1.1 1.8 1.4 2.9.3 1.1.5 2.4.5 3.7s-.2 2.6-.5 3.7-.8 2.1-1.4 2.9c-.6.8-1.4 1.5-2.4 1.9-1 .5-2.1.7-3.5.7s-2.5-.2-3.5-.7-1.8-1.1-2.4-1.9c-.6-.8-1.1-1.8-1.4-2.9-.4-1.2-.5-2.4-.5-3.7zm11 0c0-3.6-1.1-5.4-3.2-5.4-2.2 0-3.2 1.8-3.2 5.4 0 1.8.3 3.2.8 4 .5.9 1.3 1.3 2.4 1.3 2.1.1 3.2-1.7 3.2-5.3z"/><path class="st1" d="M84.9 9.5l-7.8-6.4c-1.9-1.1-4-1.4-5.9-1.8-.8-.2-1.6-.4-2.4-.5L66.1.3c-.3 0-.5-.1-.8-.1 2.4 2.1 4.4 4.4 6.6 6.4l2.6 2.1c2.4 1.4 4.9 1.3 7.2 1.6.7.1 1.3.2 1.9.2l2.9.2c-.6-.2-1.1-.7-1.6-1.2zM68.2 1.8c.9-.8 2.8.3 3.2 1.4-1 .5-2.3-.4-3.2-1.4zm5.6 4.9c1-.6 3 .6 3.3 1.7-.9.7-3-.6-3.3-1.7zM75 3.1c.6-.6 2.6.4 2.9 1.4-.6.5-2.4-.4-2.9-1.4zm5.4 4.8c.9-.8 2.6.4 3.2 1.4-.9.7-2.3-.4-3.2-1.4zM86.4 11.9l-3.5-.5c-.6-.1-1.2-.1-1.8-.2-1.5-.2-3.7-.7-4.8-.3-2.3.6-3.2 3.1-4.3 5.1-1.2 2.4-2.4 4.4-3.7 7-.5.9-1.7 2.8-1.1 3.5.5.6 2.3.2 2.7.1 1-.1 1.9-.2 2.7-.2 1.4-.1 4.3-.2 5.4-.7.6-.3 1.4-.9 2-1.7.3-.4.6-.8.8-1.2l5.7-9.8c.1-.5.1-.8-.1-1.1zM70.2 24.4c-1.1-1 1.8-3.9 2.9-2.1 0 1.2-1.9 3-2.9 2.1zm2.3-3.9c-1.1-1 1.3-3.2 2.3-2.8 1.6.7-1.1 3.8-2.3 2.8zm2.2-4.2c-1.1-1 1.3-3.4 2.4-2.9 1.7.8-1.2 4-2.4 2.9zm2.4 7.6c-.8-.9 1.4-2.8 2.3-2.3 1.1.6-1.4 3.4-2.3 2.3zm2.2-3.5c-1-.8 1.2-3.2 2.3-2.6 1.2.8-1.4 3.3-2.3 2.6zm2.3-3.9c-.9-.9 1.3-3.1 2.3-2.6 1.2.7-1.3 3.7-2.3 2.6zM68.9 4.9c-.9-.8-1.8-1.9-2.6-2.7l-1.4-1.1c-.1 0-.2-.1-.3-.1-1.3-.5-1.9 1.5-2.4 2.6-.8 1.8-2.1 4.8-3 6.8-.6 1.2-1.2 2.3-1.5 3.4-.4 1.8.6 3.1 1.9 4.8 1.3 1.8 2.3 3.1 3.6 4.9.3.4 1.2 2.1 2.1 2.1 1 0 1.7-2 2.3-3 1.4-2.6 2.4-4.5 3.7-6.9.6-1.1 1.4-2.3 1.8-3.5 1-3-1.3-4.5-4.2-7.3zm-8.5 11c-2.2-.2-.7-5 .9-3 .5.7.2 2.6-.9 3zm4.4-11.5c1.1.8.6 3.3-.9 3.5-1.8-.1-.8-4.7.9-3.5zm-.5 6.7c1.5-.7 2.3 2.9.5 3.6-1.6.3-1.9-3-.5-3.6zm.8 10.8c-1.5-.5-1.7-2.9-.4-3.7 1.5-.9 2.6 3.4.4 3.7zm4.6-8.5c-1.6.6-2.4-2.7-.7-3.7.3-.2.6-.1 1 .1 1 .5 1.2 3-.3 3.6z"/><g><path class="st0" d="M15.2 31.6c.1 0 .2 0 .3.1.1.1.1.2.1.3v.5c0 .1 0 .2-.1.3-.1.1-.2.1-.3.1h-2.7v8.5c0 .1 0 .2-.1.3s-.2.1-.3.1h-.6c-.1 0-.2 0-.3-.1-.1-.1-.1-.2-.1-.3v-8.5H8.4c-.1 0-.2 0-.3-.1 0-.1-.1-.2-.1-.3V32c0-.1 0-.2.1-.3.1-.1.2-.1.3-.1h6.8zM22.9 41.4c0 .1 0 .2-.1.3-.1.1-.2.1-.3.1H22c-.1 0-.2 0-.3-.1s-.1-.2-.1-.3v-3.8c0-.7-.2-1.3-.5-1.7-.4-.4-.9-.6-1.5-.6s-1.1.2-1.5.6c-.4.4-.6.9-.6 1.7v3.8c0 .1 0 .2-.1.3s-.2.1-.3.1h-.5c-.1 0-.2 0-.3-.1-.1-.1-.1-.2-.1-.3v-9.5c0-.1 0-.2.1-.3.1-.1.2-.1.3-.1h.5c.1 0 .2 0 .3.1s.1.2.1.3v3.2c.2-.2.5-.5.8-.7s.8-.3 1.4-.3c.5 0 .9.1 1.3.2s.7.4 1 .6c.3.3.5.6.6 1 .2.4.2.9.2 1.4v4.1zM23.5 37.3c0-.4.1-.9.3-1.3s.4-.7.7-1c.3-.3.6-.5 1-.7.4-.2.8-.2 1.3-.2s1 .1 1.4.3c.4.2.8.4 1.1.7.3.3.5.7.7 1.2.2.5.2 1 .2 1.5v.4c0 .1 0 .2-.1.3-.1.1-.2.1-.3.1h-5v.1c0 .7.2 1.2.6 1.5.4.4.9.5 1.4.5.5 0 .9-.1 1.2-.2s.5-.3.6-.5l.2-.2c.1-.1.1 0 .3 0h.4c.1 0 .2 0 .3.1.2 0 .2.1.2.2 0 .2-.1.4-.2.6-.1.2-.3.4-.6.6-.3.2-.6.3-1 .5s-.8.2-1.3.2-.9-.1-1.3-.3c-.4-.2-.7-.4-1-.7-.3-.3-.5-.6-.7-1-.2-.4-.3-.8-.3-1.3-.1-.5-.1-1-.1-1.4zm1.3 0h4.1c0-.6-.2-1.1-.6-1.4-.4-.4-.9-.5-1.5-.5-.3 0-.5 0-.8.1-.2.1-.5.2-.6.4-.2.2-.3.4-.4.6-.1.2-.2.5-.2.8zM39.1 34.1c.5 0 .9.1 1.3.2.4.2.7.4 1 .7.3.3.5.7.7 1.1.2.4.3.9.3 1.4v1c0 .5-.1 1-.3 1.4-.2.4-.4.8-.7 1.1-.3.3-.6.5-1 .7-.4.2-.8.2-1.3.2-.6 0-1.1-.1-1.4-.3-.4-.2-.6-.4-.8-.7v.5c0 .1 0 .2-.1.3s-.2.1-.3.1H36c-.1 0-.2 0-.3-.1-.1-.1-.1-.2-.1-.3v-9.5c0-.1 0-.2.1-.3.1-.1.2-.1.3-.1h.5c.1 0 .2 0 .3.1s.1.2.1.3v3.2c.2-.2.5-.5.8-.7s.8-.3 1.4-.3zm-2.3 4.5c0 .6.3 1.1.6 1.5s.9.6 1.5.6 1.1-.2 1.5-.6c.4-.4.6-1 .6-1.7v-.8c0-.7-.3-1.3-.6-1.7s-.9-.6-1.5-.6-1.1.2-1.5.6-.6.9-.6 1.6v1.1zM43.1 37.3c0-.4.1-.9.3-1.3s.4-.7.7-1c.3-.3.6-.5 1-.7.4-.2.8-.2 1.3-.2s1 .1 1.4.3c.4.2.8.4 1.1.7.3.3.5.7.7 1.2.2.5.2 1 .2 1.5v.4c0 .1 0 .2-.1.3-.1.1-.2.1-.3.1h-5v.1c0 .7.2 1.2.6 1.5.4.4.9.5 1.4.5.5 0 .9-.1 1.2-.2s.5-.3.6-.5l.2-.2c.1-.1.1 0 .3 0h.4c.1 0 .2 0 .3.1.1.1.1.2.1.3 0 .2-.1.4-.2.6-.1.2-.3.4-.6.6-.3.2-.6.3-1 .5s-.8.2-1.3.2-.9-.1-1.3-.3c-.4-.2-.7-.4-1-.7-.3-.3-.5-.6-.7-1-.2-.4-.3-.8-.3-1.3-.1-.6-.1-1.1 0-1.5zm1.2 0h4.1c0-.6-.2-1.1-.6-1.4-.4-.4-.9-.5-1.5-.5-.3 0-.5 0-.8.1-.2.1-.5.2-.6.4-.2.2-.3.4-.4.6-.1.2-.1.5-.2.8zM55 39.7c0-.2-.1-.3-.2-.5s-.3-.2-.5-.3c-.2-.1-.5-.2-.8-.2-.3-.1-.7-.2-1.1-.2-.8-.2-1.3-.4-1.6-.8-.3-.4-.5-.8-.5-1.3 0-.3.1-.6.2-.8.1-.3.3-.5.5-.7.2-.2.5-.4.9-.5.4-.1.8-.2 1.2-.2s.9.1 1.2.2c.4.1.7.2.9.4.2.2.4.3.6.5.1.2.2.4.2.5 0 .1 0 .2-.1.3-.1.1-.2.1-.3.1h-.7c-.1 0-.2-.1-.2-.2-.1-.2-.3-.3-.6-.4s-.6-.2-1-.2-.8.1-1.1.2c-.3.2-.4.4-.4.7 0 .2 0 .3.1.4s.2.2.4.3.4.2.7.2c.3.1.6.2 1.1.2.4.1.8.2 1.1.4s.5.3.7.5c.2.2.3.4.4.6s.1.5.1.7c0 .3-.1.6-.2.8-.1.3-.3.5-.6.7-.3.2-.6.4-1 .5-.4.1-.8.2-1.3.2s-.9-.1-1.3-.2-.7-.3-.9-.4c-.3-.2-.5-.4-.6-.6-.1-.2-.2-.4-.2-.6 0-.1 0-.2.1-.3s.2-.1.3-.1h.7c.1 0 .1.1.2.2.2.2.4.4.6.5.3.1.6.2 1.1.2.2 0 .4 0 .6-.1.2 0 .4-.1.6-.2s.3-.2.4-.3c.3.1.3-.1.3-.2zM59.3 39.2c0 .2 0 .4.1.5 0 .2.1.3.2.4s.2.2.4.3c.2.1.4.1.6.1h.8c.1 0 .2 0 .3.1.1.1.1.2.1.3v.5c0 .1 0 .2-.1.3s-.2.1-.3.1h-.9c-.8 0-1.5-.2-1.8-.7-.4-.4-.6-1.1-.6-1.9v-3.8H57c-.1 0-.2 0-.3-.1-.1-.1-.1-.2-.1-.3v-.5c0-.1 0-.2.1-.3.1-.1.2-.1.3-.1h1v-2.4c0-.1 0-.2.1-.3s.2-.1.3-.1h.6c.1 0 .2 0 .3.1.1.1.1.2.1.3v2.4h1.8c.1 0 .2 0 .3.1.1.1.1.2.1.3v.5c0 .1 0 .2-.1.3-.1.1-.2.1-.3.1h-1.8v3.8zM73.5 39.4l1.6-4.9c0-.1.1-.2.2-.2.1-.1.2-.1.3-.1h.5c.1 0 .2 0 .2.1.1.1.1.2.1.2v.1l-2.2 6.7c0 .1-.1.2-.2.3-.1.1-.2.1-.3.1h-.5c-.1 0-.2 0-.3-.1-.1-.1-.1-.2-.2-.3L71 36.5l-1.7 4.8c0 .1-.1.2-.2.3-.1.1-.2.1-.3.1h-.5c-.1 0-.2 0-.3-.1s-.1-.2-.2-.3l-2.2-6.7v-.1c0-.1 0-.2.1-.2.1-.1.1-.1.2-.1h.5c.1 0 .3 0 .3.1.1.1.1.2.2.2l1.6 4.9 1.7-4.9c0-.1.1-.2.1-.2.1-.1.2-.1.3-.1h.3c.1 0 .2 0 .3.1.1.1.1.2.1.2l2.2 4.9zM76.3 39.9c0-.4.1-.7.2-1 .2-.3.4-.5.6-.7.3-.2.6-.4 1-.5.4-.1.7-.2 1.2-.3l2-.3v-.2c0-.5-.2-.9-.5-1.1-.3-.2-.7-.4-1.2-.4-.4 0-.7.1-1 .2s-.4.3-.6.6l-.2.2h-.7c-.1 0-.2 0-.3-.1-.1-.1-.1-.2-.1-.3 0-.2.1-.4.3-.7l.6-.6c.2-.2.6-.3.9-.4s.7-.2 1.1-.2c.4 0 .8.1 1.2.2.4.1.7.3 1 .6s.5.5.6.9.2.8.2 1.2v4.4c0 .1 0 .2-.1.3-.1.1-.2.1-.3.1h-.5c-.1 0-.2 0-.3-.1-.1-.1-.1-.2-.1-.3v-.6c-.1.2-.2.3-.4.5-.2.1-.4.3-.6.4s-.5.2-.7.2c-.3 0-.5.1-.7.1-.4 0-.7-.1-1-.2s-.6-.2-.8-.4c-.2-.2-.4-.4-.5-.6-.2-.4-.3-.6-.3-.9zm2.7.8c.3 0 .7-.1 1-.2.3-.1.5-.3.7-.4.2-.2.4-.4.5-.7s.2-.6.2-.9v-.4l-1.7.3c-.6.1-1.1.3-1.5.5-.4.2-.5.5-.5.8 0 .1 0 .2.1.3 0 .1.1.2.2.3.1.1.2.2.4.2.1.1.3.2.6.2zM85.9 44.2c0 .1-.1.2-.1.2-.1.1-.2.1-.3.1h-.6c-.1 0-.2 0-.2-.1-.1-.1-.1-.2-.1-.2v-.1l1.4-3-2.9-6.4v-.1c0-.1 0-.2.1-.2.1-.1.2-.1.2-.1h.6c.1 0 .2 0 .3.1.1.1.1.2.1.2l2.2 4.9 2.3-4.9c0-.1.1-.2.1-.2.1-.1.2-.1.3-.1h.7c.1 0 .2 0 .2.1.1.1.1.2.1.2v.1l-4.4 9.5zM96.6 39.2c0 .2 0 .4.1.5 0 .2.1.3.2.4.1.1.2.2.4.3.2.1.4.1.6.1h.8c.1 0 .2 0 .3.1.1.1.1.2.1.3v.5c0 .1 0 .2-.1.3s-.2.1-.3.1h-.9c-.8 0-1.5-.2-1.8-.7-.4-.4-.6-1.1-.6-1.9v-3.8h-1.1c-.1 0-.2 0-.3-.1-.1-.1-.1-.2-.1-.3v-.5c0-.1 0-.2.1-.3.1-.1.2-.1.3-.1h1.1v-2.4c0-.1 0-.2.1-.3s.2-.1.3-.1h.5c.1 0 .2 0 .3.1.1.1.1.2.1.3v2.4h1.8c.1 0 .2 0 .3.1.1.1.1.2.1.3v.5c0 .1 0 .2-.1.3-.1.1-.2.1-.3.1h-1.8v3.8zM103 34.1c.5 0 1 .1 1.4.2.4.2.8.4 1 .7.3.3.5.6.7 1 .2.4.3.8.3 1.3V38.7c0 .5-.2.9-.3 1.3s-.4.7-.7 1c-.3.3-.6.5-1 .7-.4.2-.9.2-1.4.2-.5 0-1-.1-1.4-.2-.4-.2-.8-.4-1-.7s-.5-.6-.7-1-.3-.8-.3-1.3v-.3-.4-.4-.3c0-.5.1-.9.3-1.3s.4-.7.7-1c.3-.3.6-.5 1-.7.4-.1.9-.2 1.4-.2zm2.1 4.5V38v-.6c0-.3-.1-.6-.2-.8s-.2-.5-.4-.7c-.2-.2-.4-.3-.6-.4-.3-.1-.5-.2-.9-.2-.3 0-.6.1-.9.2-.3.1-.5.3-.6.4-.2.2-.3.4-.4.7s-.2.5-.2.8v1.2c0 .3.1.6.2.8s.2.5.4.7c.2.2.4.3.6.4.3.1.5.2.9.2.3 0 .6-.1.9-.2s.5-.3.6-.4c.2-.2.3-.4.4-.7s.2-.5.2-.8zM118.6 39.4l1.6-4.9c0-.1.1-.2.2-.2.1-.1.2-.1.3-.1h.5c.1 0 .2 0 .2.1.1.1.1.2.1.2v.1l-2.2 6.7c0 .1-.1.2-.2.3-.1.1-.2.1-.3.1h-.5c-.1 0-.2 0-.3-.1-.1-.1-.1-.2-.2-.3l-1.7-4.8-1.7 4.8c0 .1-.1.2-.2.3-.1.1-.2.1-.3.1h-.5c-.1 0-.2 0-.3-.1-.1-.1-.1-.2-.2-.3l-2.2-6.7v-.1c0-.1 0-.2.1-.2.1-.1.2-.1.2-.1h.5c.1 0 .3 0 .3.1.1.1.1.2.2.2l1.6 4.9 1.7-4.9c0-.1.1-.2.1-.2.1-.1.2-.1.3-.1h.3c.1 0 .2 0 .3.1.1.1.1.2.1.2l2.2 4.9zM123.7 32.7c0 .1 0 .2-.1.3-.1.1-.2.1-.3.1h-.8c-.1 0-.2 0-.3-.1-.1-.1-.1-.2-.1-.3v-.8c0-.1 0-.2.1-.3.1-.1.2-.1.3-.1h.8c.1 0 .2 0 .3.1.1.1.1.2.1.3v.8zm-.1 8.7c0 .1 0 .2-.1.3-.1.1-.2.1-.3.1h-.5c-.1 0-.2 0-.3-.1-.1-.1-.1-.2-.1-.3v-6.8c0-.1 0-.2.1-.3.1-.1.2-.1.3-.1h.5c.1 0 .2 0 .3.1.1.1.1.2.1.3v6.8zM131.3 41.4c0 .1 0 .2-.1.3-.1.1-.2.1-.3.1h-.5c-.1 0-.2 0-.3-.1s-.1-.2-.1-.3v-3.8c0-.7-.2-1.3-.5-1.7-.4-.4-.9-.6-1.5-.6s-1.1.2-1.5.6c-.4.4-.6.9-.6 1.7v3.8c0 .1 0 .2-.1.3-.1.1-.2.1-.3.1h-.5c-.1 0-.2 0-.3-.1-.1-.1-.1-.2-.1-.3v-6.8c0-.1 0-.2.1-.3.1-.1.2-.1.3-.1h.5c.1 0 .2 0 .3.1.1.1.1.2.1.3v.5c.2-.2.5-.5.8-.7.4-.2.8-.3 1.4-.3.5 0 .9.1 1.3.2s.7.4 1 .6c.3.3.5.6.6 1 .2.4.2.9.2 1.4v4.1z"/></g></svg>