<svg    xmlns="http://www.w3.org/2000/svg"
        xmlns:xlink="http://www.w3.org/1999/xlink"
        width="28px" height="28px">
    <path fill-rule="evenodd"  fill="rgb(255, 255, 255)"
          d="M14.000,7.000 C13.034,7.000 12.250,7.784 12.250,8.750 C12.250,9.716 13.034,10.500 14.000,10.500 C14.966,10.500 15.750,9.717 15.750,8.750 C15.750,7.783 14.967,7.000 14.000,7.000 ZM14.000,12.250 C13.034,12.250 12.250,13.033 12.250,14.000 L12.250,19.250 C12.250,20.216 13.034,21.000 14.000,21.000 C14.966,21.000 15.750,20.216 15.750,19.250 L15.750,14.000 C15.750,13.034 14.967,12.250 14.000,12.250 ZM14.000,-0.000 C6.281,-0.000 -0.000,6.281 -0.000,14.000 C-0.000,21.719 6.281,28.000 14.000,28.000 C21.719,28.000 28.000,21.719 28.000,14.000 C28.000,6.281 21.719,-0.000 14.000,-0.000 ZM14.000,25.375 C7.727,25.375 2.625,20.272 2.625,14.000 C2.625,7.728 7.727,2.625 14.000,2.625 C20.272,2.625 25.375,7.728 25.375,14.000 C25.375,20.272 20.272,25.375 14.000,25.375 Z"/>
</svg>