<svg width="676" height="154" viewBox="0 0 676 154" fill="none" xmlns="http://www.w3.org/2000/svg">
<g clip-path="url(#clip0)">
<path d="M296.06 109.865C286.529 109.865 278.967 106.869 273.374 100.876C267.782 94.8839 264.986 86.6442 264.986 76.1573C264.986 66.1648 267.91 58.1349 273.758 52.0674C276.739 49.0567 280.32 46.7014 284.269 45.1532C288.219 43.6051 292.451 42.8984 296.691 43.0787C303.534 42.8555 310.285 44.6961 316.062 48.3596L312.273 57.4607C307.7 54.5097 302.387 52.898 296.939 52.809C294.227 52.7007 291.526 53.2277 289.055 54.3478C286.584 55.4679 284.411 57.1498 282.71 59.2585C279.043 64.2057 277.195 70.2601 277.479 76.4045C277.479 83.9326 279.147 89.7528 282.53 93.8652C284.288 95.9362 286.504 97.5722 289.005 98.6446C291.505 99.7169 294.221 100.196 296.939 100.045C302.615 99.9911 308.197 98.589 313.22 95.9551L314.821 105.371C309.093 108.539 302.607 110.092 296.06 109.865V109.865Z" fill="#fff"/>
<path d="M345.489 109.865C342.293 110.028 339.101 109.484 336.142 108.272C333.183 107.059 330.53 105.209 328.373 102.854C324.035 97.698 321.805 91.1029 322.127 84.382C322.127 76.5019 324.209 70.2921 328.373 65.7528C332.522 61.2584 338.408 59.0112 345.985 59.0112C349.183 58.8438 352.379 59.3813 355.345 60.5854C358.311 61.7895 360.975 63.6306 363.145 65.9775C367.485 71.1404 369.707 77.7458 369.369 84.4719C369.691 91.2112 367.435 97.8212 363.055 102.966C360.801 105.313 358.064 107.145 355.031 108.336C351.999 109.527 348.743 110.049 345.489 109.865V109.865ZM345.804 101.034C347.554 101.157 349.306 100.824 350.888 100.067C352.469 99.3108 353.826 98.1569 354.824 96.7191C357.032 92.996 358.069 88.6985 357.801 84.382C358.057 80.0093 356.98 75.6616 354.712 71.9101C353.627 70.5648 352.254 69.4792 350.693 68.7332C349.132 67.9872 347.423 67.6 345.692 67.6C343.96 67.6 342.251 67.9872 340.69 68.7332C339.129 69.4792 337.756 70.5648 336.671 71.9101C334.445 75.6902 333.423 80.0551 333.74 84.427C333.5 88.707 334.561 92.9597 336.784 96.6292C337.775 98.0857 339.125 99.264 340.705 100.051C342.284 100.838 344.04 101.207 345.804 101.124V101.034Z" fill="#fff"/>
<path d="M379.178 53.0334V43.0783H390.904V53.0334H379.178ZM379.178 108.943V60.1345H390.859V108.943H379.178Z" fill="#fff"/>
<path d="M403.012 108.944V60.1347H412.416L413.723 66.292C415.853 64.0122 418.423 62.1843 421.279 60.9178C424.135 59.6513 427.218 58.9722 430.343 58.9212C432.711 58.7422 435.089 59.091 437.304 59.9423C439.52 60.7935 441.517 62.1259 443.151 63.8426C445.993 67.101 447.413 71.865 447.413 78.0673V108.944H435.687V79.483C435.873 76.4198 435.21 73.3647 433.77 70.6516C433.002 69.6124 431.972 68.7946 430.783 68.2814C429.595 67.7682 428.292 67.578 427.005 67.7302C424.553 67.7008 422.143 68.3714 420.06 69.6628C418.115 70.809 416.547 72.4959 415.55 74.5167C414.874 78.0329 414.587 81.6123 414.693 85.1909V108.944H403.012Z" fill="#fff"/>
<path d="M474.566 109.82C468.564 110.104 462.59 108.835 457.226 106.135L458.421 97.393C460.806 98.6163 463.316 99.5807 465.907 100.269C468.605 101.055 471.396 101.478 474.206 101.528C476.317 101.638 478.416 101.139 480.249 100.09C480.962 99.6376 481.546 99.0083 481.941 98.2636C482.336 97.5189 482.53 96.6845 482.504 95.8425C482.53 95.062 482.359 94.2875 482.009 93.5891C481.659 92.8907 481.139 92.2904 480.497 91.8425C478.069 90.3351 475.473 89.1135 472.762 88.202L470.214 87.2582C466.57 86.0569 463.236 84.0696 460.45 81.438C458.371 79.0119 457.305 75.8827 457.474 72.6964C457.365 70.7294 457.747 68.7663 458.585 66.9822C459.423 65.198 460.691 63.6484 462.277 62.4717C466.29 59.8784 471.032 58.6341 475.807 58.9211C481.489 58.7904 487.121 59.9993 492.246 62.4492L489.337 70.4717C485.185 68.4368 480.636 67.3323 476.01 67.2357C474.105 67.1415 472.208 67.5443 470.507 68.4043C469.875 68.7558 469.354 69.2768 469.003 69.9083C468.652 70.5398 468.486 71.2565 468.523 71.9773C468.501 72.6848 468.666 73.3857 469.003 74.0092C469.339 74.6326 469.835 75.1564 470.44 75.5279C472.823 76.8666 475.33 77.9729 477.926 78.8312L479.076 79.2357L480.587 79.7975C484.297 80.9542 487.686 82.9544 490.487 85.6402C492.699 88.0988 493.842 91.3314 493.666 94.629C493.748 96.7584 493.339 98.8782 492.472 100.826C491.604 102.774 490.3 104.497 488.66 105.865C484.559 108.761 479.581 110.158 474.566 109.82V109.82Z" fill="#fff"/>
<path d="M503.61 108.944V43.7754H525.416C529.894 43.6794 534.356 44.3482 538.608 45.7529C542.092 46.9497 545.118 49.1955 547.267 52.1799C549.509 55.489 550.631 59.4261 550.469 63.4159C550.512 66.2271 550.101 69.027 549.251 71.708C548.433 74.1617 547.078 76.4032 545.282 78.2698C543.121 80.4111 540.441 81.9593 537.503 82.7642C533.578 83.9045 529.503 84.4425 525.416 84.3597C521.379 84.3597 518.087 84.2473 515.561 84.0001V108.944H503.61ZM524.063 75.5507C526.234 75.5822 528.401 75.3406 530.512 74.8316C532.039 74.4885 533.491 73.8717 534.797 73.0114C535.804 72.2745 536.641 71.3322 537.254 70.2473C537.821 69.2619 538.224 68.192 538.45 67.0788C538.648 65.9435 538.747 64.793 538.743 63.6406C538.841 62.1021 538.578 60.5621 537.975 59.1423C537.372 57.7226 536.446 56.4622 535.27 55.4608C532.405 53.4287 528.925 52.4444 525.416 52.6743H515.471V75.4608C515.877 75.5058 518.651 75.5507 524.063 75.5507Z" fill="#fff"/>
<path d="M570.245 109.865C566.231 110.056 562.296 108.714 559.24 106.113C557.786 104.728 556.655 103.043 555.926 101.175C555.198 99.3075 554.89 97.3031 555.024 95.3036C554.869 93.1675 555.243 91.0263 556.112 89.0674C556.981 87.1086 558.318 85.3919 560.007 84.0676C564.52 81.2378 569.698 79.6341 575.025 79.416C575.927 79.2811 576.942 79.1688 578.002 79.0564L581.61 78.6969L584.767 78.3822V75.798C584.872 74.641 584.745 73.4748 584.393 72.3674C584.04 71.26 583.47 70.2337 582.715 69.3485C581.864 68.6172 580.875 68.0618 579.807 67.7146C578.738 67.3674 577.611 67.2353 576.491 67.3261C571.416 67.5546 566.423 68.6808 561.743 70.6519C561.743 70.6519 561.202 69.2137 560.255 66.607L558.789 62.607C564.712 60.1222 571.08 58.8682 577.506 58.9216C584.106 58.9216 588.909 60.3523 591.915 63.2137C594.922 66.0751 596.425 70.7043 596.425 77.1013V108.944H587.789C587.789 108.944 587.428 107.843 586.796 105.955C586.165 104.068 585.872 103.101 585.872 102.989C583.787 105.1 581.373 106.861 578.724 108.202C576.058 109.384 573.161 109.952 570.245 109.865ZM573.402 101.618C575.9 101.672 578.361 101.001 580.483 99.6856C582.334 98.563 583.821 96.9324 584.767 94.989V85.5733L582.512 85.753L580.122 85.9328C576.501 86.0484 572.951 86.9617 569.726 88.607C568.633 89.302 567.75 90.2793 567.171 91.4347C566.591 92.5902 566.336 93.8806 566.434 95.1688C566.379 96.0502 566.513 96.9332 566.828 97.7587C567.143 98.5841 567.632 99.333 568.26 99.9553C569.707 101.128 571.54 101.721 573.402 101.618V101.618Z" fill="#fff"/>
<path d="M608.491 53.0334V43.0783H620.127V53.0334H608.491ZM608.491 108.943V60.1345H620.127V108.943H608.491Z" fill="#fff"/>
<path d="M650.566 109.865C647.675 109.986 644.797 109.412 642.176 108.192C639.554 106.972 637.265 105.141 635.503 102.854C631.608 97.4011 629.677 90.7967 630.023 84.1125C629.693 77.58 631.619 71.1319 635.48 65.8428C637.25 63.5756 639.539 61.764 642.156 60.5598C644.773 59.3556 647.641 58.7938 650.521 58.9215C657.466 58.9215 662.382 61.3934 665.269 66.2923C664.978 63.5076 664.827 60.71 664.818 57.9103V42.1799L676.499 41.4384V108.944H666.374L665.088 102.202C664.592 103.011 664.119 103.708 663.69 104.27C663.129 104.999 662.494 105.669 661.796 106.27C660.994 107.012 660.081 107.626 659.09 108.09C657.917 108.619 656.693 109.026 655.437 109.304C653.84 109.673 652.206 109.862 650.566 109.865V109.865ZM653.317 101.124C661.165 101.124 665.148 95.8129 665.269 85.1912C665.269 79.1987 664.254 74.8166 662.224 72.0451C661.183 70.6639 659.814 69.5627 658.239 68.8408C656.664 68.119 654.934 67.7992 653.204 67.9103C651.581 67.8435 649.967 68.1731 648.501 68.8702C647.035 69.5674 645.762 70.611 644.793 71.9103C642.45 75.5995 641.344 79.9357 641.636 84.2923C641.35 88.6483 642.455 92.9826 644.793 96.6743C645.725 98.0697 646.994 99.2087 648.484 99.9864C649.973 100.764 651.636 101.155 653.317 101.124Z" fill="#fff"/>
<path d="M170.388 67.5955H54.6161C50.9527 67.4446 47.4415 66.094 44.6264 63.7528C43.5059 62.5135 42.6518 61.0587 42.1166 59.4781C41.5814 57.8974 41.3765 56.2243 41.5145 54.5618C41.5145 42.8989 50.7826 41.4607 54.6837 41.3708H95.8375L84.7203 0H54.6837C35.7643 0 0 11.3933 0 54.4944C0 97.5955 35.7417 109.056 54.7063 109.124L181.482 108.944L170.388 67.5955Z" fill="#001C6C"/>
<path d="M108.083 154H149.935L144.321 133.461H155.415C174.312 133.461 210.054 121.91 210.054 78.8315C210.054 35.7529 174.38 24.4045 155.46 24.4045H73.2429L84.8562 67.5731H154.333C158.302 67.5731 168.877 66.4944 169.351 78.2697C169.779 89.3483 159.406 90.045 155.46 90.1124H90.8996L108.083 154Z" fill="#0C97FA"/>
</g>
<defs>
<clipPath id="clip0">
<rect width="676" height="154" fill="white"/>
</clipPath>
</defs>
</svg>
