<svg xmlns="http://www.w3.org/2000/svg" width="100" height="100" viewBox="0 0 26.458 26.458"><g fill="none" fill-rule="evenodd" stroke-width=".597"><path d="M7.978 18.555l.506.06c-.072.115-.12.2-.176.28-1.004 1.463-2.014 2.922-3.009 4.392-.16.235-.251.304-.498.082C2.205 21.04.518 18.19.102 14.693-.35 10.88.708 7.479 3.194 4.557 5.092 2.327 7.498.92 10.338.29c2.29-.508 4.558-.326 6.792.372 1.078.338 2.109.773 3.06 1.398.242.16.244.261.079.484a695.931 695.931 0 0 0-3.633 4.95c-.128.175-.25.304-.484.259-.304-.06-.487.082-.663.332-.79 1.122-1.603 2.227-2.434 3.375-.802-1.142-1.588-2.243-2.352-3.36-.171-.25-.342-.364-.654-.352-.725.026-1.452.008-2.185.008-.01.193.13.292.215.414 1.133 1.635 2.266 3.271 3.416 4.894.172.243.162.39-.01.624-1.164 1.594-2.31 3.201-3.507 4.867" fill="#009344"/><path d="M13.39 14.987c.816 1.16 1.606 2.265 2.373 3.386.167.244.344.332.63.325.724-.018 1.45-.006 2.264-.006-.417-.602-.792-1.15-1.172-1.694-.844-1.209-1.684-2.42-2.537-3.621-.156-.22-.166-.369.003-.599 1.075-1.465 2.13-2.945 3.19-4.42.1-.138.193-.28.295-.43-.132-.13-.292-.028-.41-.102-.047-.08.02-.131.055-.184 1.028-1.5 2.063-2.993 3.081-4.499.167-.246.28-.253.492-.061 2.238 2.016 3.83 4.445 4.478 7.412.74 3.39.227 6.618-1.578 9.595-1.957 3.227-4.795 5.28-8.455 6.058-3.353.712-6.564.208-9.545-1.568-.305-.182-.337-.317-.127-.62 1.14-1.647 2.258-3.31 3.375-4.973.131-.195.263-.338.512-.29.316.061.487-.112.657-.351.787-1.108 1.587-2.206 2.419-3.358" fill="#929497"/><path d="M7.047 13.544c0 1.32-.008 2.64.007 3.959.003.27-.08.347-.336.342a37.569 37.569 0 0 0-2.05.006c-.323.012-.41-.088-.408-.41.012-2.423.007-4.847.007-7.271 0-1.059-.188-1.262-1.227-1.28-.23-.004-.33-.05-.325-.306.018-.922-.077-.744.702-.744.696 0 1.395-.059 2.09.06.92.157 1.488.752 1.506 1.686.025 1.319.006 2.639.006 3.958zm11.937-1.446c0-.765-.016-1.425.004-2.084.027-.878.53-1.557 1.355-1.842 1.1-.381 2.213-.338 3.307.005.867.27 1.182.747 1.219 1.698.015.387.01.775 0 1.162-.02.81-.518 1.332-1.094 1.805-.65.533-1.37.977-1.966 1.58-.49.495-.703 1.087-.685 1.785.007.265.088.343.346.34.983-.013 1.966.012 2.949-.011.366-.009.458.12.454.467-.009.827.007.827-.793.827-1.567 0-3.134-.009-4.701.008-.321.003-.421-.085-.404-.409.026-.515.054-1.038-.003-1.548-.125-1.133.453-1.875 1.267-2.513.572-.45 1.129-.919 1.714-1.35.874-.642.891-1.544.752-2.476-.068-.46-.465-.517-.862-.517-.386 0-.616.177-.69.558-.01.056-.033.117-.022.17.153.686-.265 1.03-.763 1.353-.45.292-.873.624-1.384.993" fill="#fefefe"/></g></svg>