<svg xmlns="http://www.w3.org/2000/svg" xmlns:xlink="http://www.w3.org/1999/xlink" width="100" height="68.943" viewBox="0 0 26.458 18.241"><defs><linearGradient id="a" y2=".889" x2=".833" y1="-.029" x1=".286"><stop offset="0%" stop-color="#9E1D22"/><stop offset="86%" stop-color="#DA2228"/></linearGradient><linearGradient id="b" y2=".156" x2=".818" y1=".791" x1=".231"><stop offset="50%" stop-color="#9E1D22"/><stop offset="69%" stop-color="#E02228"/></linearGradient><radialGradient id="c" gradientTransform="matrix(-.94847 .31248 -.31688 -.93529 .45 .134)" r=".529" fy=".104" fx=".214" cy=".104" cx=".214"><stop offset="40%" stop-color="#EF3731"/><stop offset="100%" stop-color="#B42026"/></radialGradient><radialGradient id="d" gradientTransform="matrix(1 0 0 .92053 0 .04)" r=".522" fy=".5" fx=".502" cy=".5" cx=".502"><stop offset="40%" stop-color="#EF3731"/><stop offset="100%" stop-color="#B42026"/></radialGradient><radialGradient id="m" gradientTransform="matrix(1.03969 0 0 .91484 256.063 448.048)" r="56.111" fy="15.571" fx="49.872" cy="15.571" cx="49.872" gradientUnits="userSpaceOnUse"><stop offset="18%" stop-color="#B42026"/><stop offset="100%" stop-color="#DA2228"/></radialGradient><linearGradient id="n" y2="17.596" x2="38.836" y1="24.795" x1="42.424" gradientTransform="matrix(1.02249 0 0 .93024 256.063 448.048)" gradientUnits="userSpaceOnUse"><stop offset="0%" stop-color="#FFF"/><stop offset="0%" stop-color="#B0B8B8"/><stop offset="65%" stop-color="#FFF"/><stop offset="100%" stop-color="#FFF"/></linearGradient><linearGradient id="o" y2="20.809" x2="11.838" y1="29.06" x1="12.464" gradientTransform="matrix(1.03176 0 0 .92187 256.063 448.048)" gradientUnits="userSpaceOnUse"><stop offset="0%" stop-color="#FFF"/><stop offset="0%" stop-color="#B0B8B8"/><stop offset="65%" stop-color="#FFF"/><stop offset="100%" stop-color="#FFF"/></linearGradient><linearGradient id="p" y2="23.234" x2="38.305" y1="13.8" x1="9.707" gradientTransform="matrix(.71814 0 0 1.32446 256.443 448.048)" gradientUnits="userSpaceOnUse"><stop offset="0%" stop-color="#9E1D22"/><stop offset="52%" stop-color="#DA2228"/></linearGradient><radialGradient id="q" gradientTransform="matrix(1.01623 0 0 .93596 255.305 448.048)" r="29.599" fy="21.39" fx="8.61" cy="21.39" cx="8.61" gradientUnits="userSpaceOnUse"><stop offset="19%" stop-color="#F15A59"/><stop offset="85%" stop-color="#D52328"/></radialGradient><linearGradient xlink:href="#a" id="f" x1="14.088" y1=".346" x2="35.009" y2="35.459" gradientTransform="matrix(.94959 0 0 1.00165 253.79 448.048)" gradientUnits="userSpaceOnUse"/><linearGradient xlink:href="#a" id="e" x1="14.088" y1=".346" x2="35.009" y2="35.459" gradientTransform="matrix(.94959 0 0 1.00165 253.79 448.048)" gradientUnits="userSpaceOnUse"/><linearGradient xlink:href="#b" id="h" x1="12.466" y1="35.635" x2="37.394" y2="8.649" gradientTransform="matrix(.90056 0 0 1.05618 254.168 448.048)" gradientUnits="userSpaceOnUse"/><linearGradient xlink:href="#b" id="g" x1="12.466" y1="35.635" x2="37.394" y2="8.649" gradientTransform="matrix(.90056 0 0 1.05618 254.168 448.048)" gradientUnits="userSpaceOnUse"/><radialGradient xlink:href="#c" id="j" gradientTransform="matrix(.94452 0 0 1.00702 255.305 448.048)" cx="12.566" cy="8.784" fx="12.566" fy="8.784" r="28.847" gradientUnits="userSpaceOnUse"/><radialGradient xlink:href="#c" id="i" gradientTransform="matrix(.94452 0 0 1.00702 255.305 448.048)" cx="12.566" cy="8.784" fx="12.566" fy="8.784" r="28.847" gradientUnits="userSpaceOnUse"/><radialGradient xlink:href="#d" id="l" gradientTransform="matrix(.91258 0 0 1.04227 256.443 448.048)" cx="33.755" cy="33.581" fx="33.755" fy="33.581" r="34.54" gradientUnits="userSpaceOnUse"/><radialGradient xlink:href="#d" id="k" gradientTransform="matrix(.91258 0 0 1.04227 256.443 448.048)" cx="33.755" cy="33.581" fx="33.755" fy="33.581" r="34.54" gradientUnits="userSpaceOnUse"/></defs><g fill="none" fill-rule="evenodd" stroke-width=".975"><path d="M39.382 6.883a4.855 4.855 0 0 0-4.19-4.122l-18.12-1.283a8.757 8.757 0 0 0-6.402 2.41L5.354 9.723a10.321 10.321 0 0 0-2.211 6.69l1.901 17.966A4.855 4.855 0 0 0 9.312 38.5l18.08 1.283a8.758 8.758 0 0 0 6.403-2.566l5.315-5.678a10.165 10.165 0 0 0 2.212-6.689z" fill="url(#f)" transform="matrix(.27817 0 0 .26458 14.962 1.924)"/><path d="M25.205 8.91a1.212 1.212 0 0 1 .259-.966c.15-.144.334 0 .356.411a1.32 1.32 0 0 1-.26.967c-.15.124-.301 0-.355-.411M22.765 3.797c-.377 0-.56-.196-.356-.36.293-.185.643-.272.993-.247.378 0 .561.195.356.36a1.5 1.5 0 0 1-.993.247" fill="#fff"/><path d="M29.022 3.889a5.54 5.54 0 0 0-6.75-1.011L7.76 11.667a10.385 10.385 0 0 0-4.384 6.766l-.815 6.495c-.235 2.8.612 5.585 2.367 7.778l11.135 12.56a5.54 5.54 0 0 0 6.751 1.012l14.434-8.79a10.385 10.385 0 0 0 4.384-6.766l1.048-6.572c.235-2.8-.613-5.585-2.367-7.778z" fill="url(#h)" transform="matrix(.27817 0 0 .26458 12.803 .895)"/><path d="M23.424 5.567c-.26-.268-.486-.32-.53-.144.011.338.145.661.379.915.259.268.485.32.529.145a1.414 1.414 0 0 0-.378-.916M20.93 4.785c-.258-.268-.485-.32-.528-.144.01.338.144.661.378.915.259.268.485.32.528.145a1.374 1.374 0 0 0-.377-.916M21.697 9.734a.928.928 0 0 0-1.08-.165.52.52 0 0 0-.151.875.928.928 0 0 0 1.08.165.539.539 0 0 0 .151-.875" fill="#fff"/><g><path d="M5.238 46.433a24.011 24.011 0 0 0 14.705 9.334l16.645 2.216a11.91 11.91 0 0 0 12.416-7.777L54.32 33.91A23.38 23.38 0 0 0 52.03 16.8l-1.59-2.061a24.011 24.011 0 0 0-14.705-9.333L19.4 3.228a11.832 11.832 0 0 0-12.416 7.778L1.591 27.222A23.38 23.38 0 0 0 3.88 44.333z" fill="url(#j)" transform="matrix(.27817 0 0 .26458 6.328 -.134)"/><path d="M8.778 9.631l4.392.556c1.482.13 2.867-.718 3.357-2.058l1.35-4.044a1.906 1.906 0 0 0-.192-1.745 2.099 2.099 0 0 0-1.568-.92L11.8.865c-1.482-.132-2.867.717-3.357 2.057L7.051 6.966a1.876 1.876 0 0 0 .163 1.745c.34.525.92.866 1.564.92"/><path d="M14.908 4.353c.583.07 1.14-.25 1.35-.772a.75.75 0 0 0-.076-.662.823.823 0 0 0-.583-.367c-.583-.07-1.14.249-1.35.772a.75.75 0 0 0 .076.662.823.823 0 0 0 .583.367M19.938 12.903l1.37-4.044a4.685 4.685 0 0 0 0-3.56l-1.5-2.13c-.453-.679-1.187-.216-1.608 1.112l-1.37 4.043a4.685 4.685 0 0 0 0 3.56l1.446 2.13c.453.68 1.198.165 1.63-1.11"/><path d="M20.833 7.985c.154-.448.154-.931 0-1.379-.172-.319-.453-.144-.636.34v.072c-.154.448-.154.93 0 1.378.172.32.453.144.658-.34M18.06 10.722c.153-.448.153-.931 0-1.38-.173-.318-.454-.143-.637.34v.073c-.153.447-.153.93 0 1.378.173.32.453.144.658-.34v-.071" fill="#fff"/><g><path d="M11.93 14.529l4.37.555c1.403.196 2.159-.247 1.706-.915l-1.447-2.13a5.507 5.507 0 0 0-3.41-1.554L8.756 9.93c-1.403-.164-2.159.247-1.705.916l1.435 2.13a5.928 5.928 0 0 0 3.432 1.554"/></g></g><g><path d="M62.352 24.656A23.749 23.749 0 0 0 51.294 11.2L31.622 1.556a11.972 11.972 0 0 0-14.356 3.577L4.19 22.983A22.832 22.832 0 0 0 1.01 40.017l1.358 5.327A23.749 23.749 0 0 0 13.425 58.8l19.633 9.606a11.971 11.971 0 0 0 14.24-3.462l13.075-17.966a23.378 23.378 0 0 0 3.181-17.034z" fill="url(#l)" transform="matrix(.27817 0 0 .26458 -.148 -.134)"/><path d="M47.53 11.667L31.04 3.889a13.289 13.289 0 0 0-15.52 3.889L4.734 22.517a8.531 8.531 0 0 0-1.663 7.272 8.513 8.513 0 0 0 4.689 5.794l16.374 7.778a13.289 13.289 0 0 0 15.791-3.889L50.79 24.733a8.493 8.493 0 0 0 1.592-7.34 8.472 8.472 0 0 0-4.851-5.726" fill="url(#m)" transform="matrix(.27817 0 0 .26458 2.01 6.04)"/><path d="M44 18.978a5.23 5.23 0 0 0-6.209 1.478 3.35 3.35 0 0 0 1.009 5.21 5.23 5.23 0 0 0 6.208-1.477 3.428 3.428 0 0 0-1.203-5.211" fill="url(#n)" transform="matrix(.27817 0 0 .26458 2.01 6.04)"/><path d="M16.645 25.394a5.23 5.23 0 0 0-6.208 1.478 3.35 3.35 0 0 0 1.203 5.211 5.23 5.23 0 0 0 6.208-1.477 3.39 3.39 0 0 0-1.203-5.212" fill="url(#o)" transform="matrix(.27817 0 0 .26458 2.01 6.04)"/><g><path d="M16.296 7.233L5.51 21.973A21.539 21.539 0 0 0 .854 36.71L3.686 47.25c.931 3.383 4.462 2.294 7.76-2.372l10.786-14.74a21.537 21.537 0 0 0 4.928-14.582L24.328 4.939c-.932-3.383-4.462-2.295-7.76 2.489" fill="url(#p)" transform="matrix(.27817 0 0 .26458 -.148 -.134)"/><path d="M4.784 2.727a2.205 2.205 0 0 0-.507 1.482c.075.39.432.319.842-.144v-.073c.347-.421.526-.946.507-1.481-.075-.391-.432-.32-.842.144v.072M2.302 9.518c-.35.428-.53.96-.507 1.502.075.391.431.32.841-.144v-.072c.35-.428.53-.96.508-1.502-.076-.391-.432-.32-.842.144v.072" fill="#fff"/></g><g><path d="M26.462 10.928L10.088 3.15c-5.2-2.567-8.769-1.828-7.76 1.556L5.16 15.244a22.294 22.294 0 0 0 11.136 10.734l16.374 7.778c5.199 2.566 8.768 1.827 7.76-1.556l-2.833-10.539a22.294 22.294 0 0 0-11.135-10.733" fill="url(#q)" transform="matrix(.27817 0 0 .26458 6.328 -.134)"/><path d="M14.142 3.92c-.561-.267-.918-.195-.864.124.207.51.619.922 1.144 1.142h.076c.561.247.917.196.863-.123a2.112 2.112 0 0 0-1.144-1.08h-.075M9.997 4.26c-.529-.247-.917-.195-.863.123.207.511.618.922 1.144 1.143h.075c.53.267.918.195.864-.124a2.104 2.104 0 0 0-1.144-1.142h-.076" fill="#fff"/></g></g></g></svg>