<svg xmlns="http://www.w3.org/2000/svg" width="100" height="85.4173" viewBox="0 0 26.4583 22.6"><g fill="none" fill-rule="evenodd" stroke-width=".7166"><path fill="#000" d="M4.6102 7.8L6.6146 0h19.8437l-5.913 22.6H.7015L3.7082 11 1.804 12.5 0 13.9.5011 12l1.4031-5.2.5011-2 1.0022 1.4z"/><path d="M17.138 6.1c-1.0022 3.6 1.7037 4.1 1.0022 6.7-.2005.9-.6013 1.2-1.1025 1.2-.4008 0-.6013-.3-.4008-1.2l.3006-1h-1.3028l-.3007.9c-.5011 2-.1002 3.2 1.3029 3.2 1.403 0 2.4053-1.2 2.9064-3.2 1.0022-3.6-1.6036-4.1-1.0022-6.7.3006-1 .6013-1.3 1.1024-1.3.4009 0 .6013.3.3007 1.3l-.1003.6h1.303l.1001-.5c.6014-2 .2005-3.2-1.2026-3.2-1.4031 0-2.4053 1.2-2.9064 3.2z" fill="#ff0"/><path d="M7.3161 1h8.619l-2.0044 8H5.2115zm6.314 8.8l-2.0045 8H2.9064l2.1046-8z" fill="#fff"/><path d="M16.7369 1h8.619l-2.0044 8h-8.7192zm6.314 8.8l-2.0045 8h-8.7192l2.1046-8z" opacity=".2" fill="#fff"/><path d="M10.8239 4.6c.501 0 .6013.4.4008 1.3l-.2004.8c-.3007 1-.7015 1.4-1.3029 1.4h-.6013l.902-3.5zM9.3205 10c.7016 0 .8018.4.5012 1.6l-.3007 1.2c-.2005 1-.6013 1.3-1.1024 1.3h-.8018L8.619 10zm2.0045-7.3H9.12L5.6124 16h2.305c1.5034 0 2.5056-1.1 3.107-3.2l.3006-1.1c.3006-1.4.3006-2.4-.401-2.8.8019-.5 1.303-1.3 1.7038-2.7l.1003-.5c.501-2 .1002-3-1.4031-3zM11.0243 5c0-.1-.1002-.2-.2004-.2h-.6014l-.7015 3h.2004c.2005 0 .401 0 .5011-.2.2005-.2.401-.5.5011-1l.2005-.7c.1002-.5.1002-.8.1002-.9zm-1.3029 5.4c-.1002-.1-.2004-.2-.4009-.2h-.501l-.902 3.6h.501c.2005 0 .3007 0 .5012-.2.1002-.1.2004-.4.4008-.9l.3007-1.2c.1002-.5.2005-.9.1002-1.1zm-.6013-8h2.2049c.902 0 1.403.3 1.7037.9.3007.6.2005 1.4-.1002 2.5l-.1002.5c-.2005.7-.4009 1.3-.7016 1.7-.2004.4-.501.7-.8017.9.3006.3.4009.6.4009 1 .1002.5 0 1.2-.2005 1.9l-.3007 1.1c-.3006 1.1-.7015 1.9-1.2026 2.5-.6013.6-1.3029.9-2.1046.9H5.2114l.1003-.4L8.8194 2.6l.1003-.2z" fill="#fff"/><path d="M10.8239 4.6c.501 0 .6013.4.4008 1.3l-.2004.8c-.3007 1-.7015 1.4-1.3029 1.4h-.6013l.902-3.5zM9.3205 10c.7016 0 .8018.4.5012 1.6l-.3007 1.2c-.2005 1-.6013 1.3-1.1024 1.3h-.8018L8.619 10zm2.0045-7.3H9.12L5.6124 16h2.305c1.5034 0 2.5056-1.1 3.107-3.2l.3006-1.1c.3006-1.4.3006-2.4-.401-2.8.8019-.5 1.303-1.3 1.7038-2.7l.1003-.5c.501-2 .1002-3-1.4031-3z" fill="#2b2a29" fill-rule="nonzero"/><path fill="#ff0" d="M1.3029 12l1.403-5.2 1.9043 2.6z"/><g fill="#ff0"><path d="M9.087 19.21c.2926 0 .5121.292.439.584v.073c.2926.073.439.292.3658.584-.0732.365-.439.584-.7316.584-.2195 0-.439-.146-.439-.365-.1463.219-.439.365-.6585.365-.2926 0-.512-.219-.439-.584.0732-.292.3659-.511.7317-.584v-.073c.0732-.292.439-.584.7316-.584z"/><path d="M8.7944 21.4l-.1464-.584-.3658.584zM18.4516 19.21c.1463 0 .878.73.7316 1.241-.0732.365-.3658.584-.7316.584-.2195 0-.3658-.146-.439-.365-.1463.219-.3658.365-.5853.365-.3658 0-.5852-.219-.439-.584.1464-.584 1.2438-1.241 1.4633-1.241z"/><path d="M18.0858 21.4l-.0732-.584-.439.584zM13.2572 21.254c-.2927 0-1.0243-.73-.878-1.387.0732-.292.439-.584.8048-.584.2927 0 .439.146.439.365.2195-.219.439-.365.7316-.365s.5121.292.439.584c-.1464.73-1.317 1.387-1.5364 1.387zM4.6242 19.21c.2195.438.439.73.8048 1.095-.5122.292-.878.584-1.317 1.022-.2194-.438-.4389-.73-.8047-1.022.5121-.365.878-.657 1.3169-1.095z"/></g></g></svg>