<svg xmlns="http://www.w3.org/2000/svg" xmlns:xlink="http://www.w3.org/1999/xlink" width="100" height="100" viewBox="0 0 26.4583 26.4583"><defs><path id="a" d="M0 .0783h74.5703v72.578H0z"/><path id="b" d="M.3516 18.2809c0 9.9222 8.0859 18.0082 18.0078 18.0082 9.9218 0 18.0078-8.086 18.0078-18.0082 0-9.9215-8.086-18.007-18.0078-18.007C8.4375.2738.3516 8.3593.3516 18.2808"/><path id="d" d="M.3906.1953H.586v.1953H.3906z"/></defs><g fill="none" fill-rule="evenodd" stroke-width=".7203"><path d="M13.387 20.5038c-3.8884 0-7.045-3.1567-7.045-7.0452 0-3.8883 3.1566-7.0449 7.045-7.0449s7.045 3.1566 7.045 7.0449c0 3.8885-3.1566 7.0452-7.045 7.0452zm13.0713-9.7856l-6.342-.373 3.8885-5.0794-6.055 2.6832 1.363-5.4954-3.4579 3.1423-.3443-5.2515-3.1567 5.653-3.1997-4.7491.4879 5.9546-5.2659-3.874 2.3532 5.4665-4.9359-1.0616 4.491 4.3188L0 13.2866l5.4237 1.8796-4.5485 2.7117 6.1124-.746-3.8453 4.9787 5.811-2.7834-1.033 6.4568 3.5297-4.2903 1.4635 4.405 1.5496-4.4192 3.7019 4.6345-.5883-6.8585 5.2372 3.386-2.3819-5.9545 5.3233-.1005-5.1224-2.1664z" fill="#ffcb05"/><g transform="matrix(.36732 0 0 .36732 6.6576 6.715)"><mask fill="#fff" id="c"><use xlink:href="#b" width="100%" height="100%"/></mask><path mask="url(#c)" d="M.3516 18.2809c0 9.9222 8.0859 18.0082 18.0078 18.0082 9.9218 0 18.0078-8.086 18.0078-18.0082 0-9.9215-8.086-18.007-18.0078-18.007C8.4375.2738.3516 8.3593.3516 18.2808"/></g><g><path d="M13.2004 17.9785c-2.64-.0287-4.1036-2.8984-4.1036-2.8984l.2009.043c2.3244.531 4.2184.4592 4.4623.4448-.574.0144 1.65.0144 3.415-.3443l.2295-.043c.0143-.0144-1.3918 2.8266-4.204 2.7979m5.0936-2.4536c-.5883-.5596-.7461-1.2627-.7461-1.2627-.0287-.1147-.1005-.086-.1005-.086-.0717.0143-.043.1004-.043.1004.1291.5165.2009.6457.2009.6457-4.5485.9613-8.6377-.1005-8.6377-.1005.1865-.3013.3156-.617.3156-.617.0287-.1004-.0287-.1147-.0287-.1147-.0717-.0287-.1004.0574-.1004.0574-.4305.8178-1.033 1.1191-1.033 1.1191s-.1149.0718-.0718.1292c0 0 .0287.043.1722 0 .287-.1435.5739-.3874.5739-.3874.4591.8465 1.2052 1.65 1.2052 1.65.8179.904 1.7075 1.234 1.7075 1.234.5883.3013 1.3774.3156 1.3774.3156 3.171.1579 4.6059-3.0562 4.6059-3.0562.1434.244.5021.4879.5021.4879.1722.0574.1005-.1148.1005-.1148M12.2248 13.3726c.0574 0 .9613.0144.9613.0144.2583-.043.1435.2726.1435.2726-.0861.1148.0143.1435.0143.1435.1435 0 .201-.3013.201-.3013.043-.33-.2297-.2726-.2297-.2726l-1.0043-.0287c-.9757-.0861-.9183-1.0618-.9183-1.0618 0-.6457.617-1.2053.617-1.2053.4878-.4448 1.363-.703 1.363-.703.1148-.0574.0861-.0861.0861-.0861-.0287-.0861-.5022.0717-.5022.0717s-1.6644.4735-1.7648 1.8796c-.0287.0144-.1148 1.1622 1.033 1.277M7.8915 11.1917s.574-1.1478 1.5353-.904c.9614.244.9614 1.4206.9614 1.4206s.1721-1.3775-.904-1.6644c-1.2196-.3014-1.5927 1.1478-1.5927 1.1478M16.7158 10.4312c1.3918.1148 1.3918 1.65 1.3918 1.65s-.2153-1.3487-1.3918-1.4491c-.8179-.0717-1.2627.9326-1.2627.9326s.2583-1.2196 1.2627-1.1335M9.0681 11.1774c-.0143 0-.0143 0 0 0" fill="#000"/><g transform="matrix(.36732 0 0 .36732 -.66 26.3722)"><mask fill="#fff" id="e"><use xlink:href="#d" width="100%" height="100%"/></mask></g><path d="M9.0825 11.1774h-.0144zM9.0825 11.1774c-.6744 0-1.0044 2.0374-.2009 2.1092.7892.086 1.0474-2.181.2009-2.1092" fill="#000"/><path d="M8.896 11.4787s-.1866.1004-.2296.4161c-.043.3157-.043.3874-.043.3874s.0716.0574.1577.0287c.0861-.0143.1722-.1004.1722-.1004s-.0287-.0861.0144-.3444c.0574-.244.1148-.3874.1148-.3874l-.0861-.0287a1.6502 1.6502 0 0 1-.1005.0287" fill="#fff"/><path d="M17.2036 12.2821c-.0143-.2726-.086-.5595-.2296-.6743 0 0-.086-.0718-.1291-.0861-.043-.0144-.1291-.0287-.1291-.0287-.7031-.043-1.0188 2.1667-.3157 2.2385.4878.0572.8465-.8037.8035-1.4494" fill="#000"/><path d="M16.5293 11.7657s-.1866.1004-.2296.416c-.043.3157-.043.3875-.043.3875s.0717.0574.1578.0287c.086-.0144.1722-.1005.1722-.1005s-.0287-.086.0143-.3443c.0574-.244.1148-.3874.1148-.3874l-.086-.0287c-.0431.0143-.1005.0287-.1005.0287" fill="#fff"/></g></g></svg>