<svg width="80" height="80" viewBox="0 0 80 80" fill="none" xmlns="http://www.w3.org/2000/svg">
<rect width="80" height="80" fill="#EEEEEE"/>
<path d="M77.1821 46.1592L65.4423 39.0293C65.0272 38.7773 64.7604 38.3327 64.7308 37.8435L63.0262 11.7254C62.9076 10.0208 64.2565 8.56816 65.9611 8.53851L70.6452 8.4644C72.2757 8.44957 73.5949 7.10068 73.5949 5.47016V2.99473C73.5949 1.33455 72.246 -0.0143358 70.6007 0.000487221H68.2142C69.8744 -0.0143358 71.2232 1.33455 71.2232 2.99473V5.47016C71.2232 7.10068 69.904 8.43475 68.2735 8.4644L63.5894 8.53851C61.8848 8.55333 60.5359 10.006 60.6545 11.7254L62.3295 37.8583C62.3591 38.3475 62.6259 38.7922 63.041 39.0442L74.7808 46.174C75.2254 46.4408 75.4923 46.93 75.4923 47.4636V50.6061C75.4923 51.11 75.2403 51.5696 74.8252 51.8512L70.2301 54.9344C69.8151 55.216 69.5631 55.6755 69.5631 56.1795V77.7617C69.5631 79.0068 68.5551 80 67.3248 80H69.7113C70.9564 80 71.9496 78.992 71.9496 77.7617V56.1498C71.9496 55.6607 72.2016 55.1864 72.6166 54.9047L77.2117 51.8215C77.6268 51.5399 77.8788 51.0804 77.8788 50.5764V47.434C77.8936 46.93 77.6268 46.426 77.1821 46.1592Z" fill="black"/>
<path d="M69.5927 77.7321V56.1498C69.5927 55.6607 69.8447 55.1864 70.2597 54.9047L74.8548 51.8215C75.2699 51.5399 75.5219 51.0804 75.5219 50.5764V47.434C75.5219 46.9151 75.2551 46.426 74.8104 46.1444L63.0706 39.0145C62.6555 38.7625 62.3887 38.3178 62.3591 37.8287L60.6396 11.7254C60.521 10.0208 61.8699 8.56816 63.5746 8.53851L68.2586 8.4644C69.8891 8.44957 71.2084 7.10068 71.2084 5.47016V2.99473C71.2084 1.33455 69.8743 -0.0143358 68.1993 0.000487221H64.7752H64.7604H57.6602H55.2737C55.1848 0.000487221 55.1107 0.000487221 55.0217 0.0153102L38.2273 0.0301331C39.6948 0.222831 40.8065 1.48278 40.8065 2.99473V5.47016C40.8065 6.656 40.0802 7.42679 40.0802 7.42679C39.5465 8.04935 38.7461 8.44957 37.8567 8.4644L33.1727 8.53851C31.468 8.55333 30.1191 10.006 30.2377 11.7254L31.9275 37.8583C31.9275 38.4512 32.476 38.9404 32.639 39.0442L34.1955 39.978H36.6264H58.0604L68.4661 46.3963H44.6901C44.9569 46.678 45.1052 47.0486 45.1052 47.4488V48.0713H72.8537C72.9427 48.0713 73.002 48.1306 73.002 48.2196V49.7315C73.002 49.8204 72.9427 49.8797 72.8537 49.8797H45.1052V50.5912C45.1052 51.0952 44.8532 51.5547 44.4381 51.8364L39.843 54.9195C39.428 55.2012 39.176 55.6607 39.176 56.1647V77.7469C39.176 78.9179 38.2866 79.8666 37.1452 79.9852H44.5419C44.616 79.9852 44.6901 80 44.7494 80H49.137H67.3396C68.5847 79.9703 69.5927 78.9772 69.5927 77.7321ZM34.7143 34.4342L33.2468 11.8144C33.1875 10.9547 33.8842 10.2283 34.7439 10.2283H35.4851H53.1096C53.8952 10.2283 54.5474 10.8361 54.6067 11.6217L56.0741 34.2415C56.1334 35.1013 55.4516 35.8276 54.5919 35.8276H36.9525H36.2114C35.4109 35.8276 34.7587 35.2198 34.7143 34.4342ZM48.2032 63.4576C48.2032 62.6275 48.8702 61.9604 49.7003 61.9604H61.5438C62.3739 61.9604 63.0409 62.6275 63.0409 63.4576V71.4027C63.0409 72.2328 62.3739 72.8998 61.5438 72.8998H49.7003C48.8702 72.8998 48.2032 72.2328 48.2032 71.4027V63.4576Z" fill="white"/>
<path d="M36.2114 35.8276H36.9525H54.5919C55.4516 35.8276 56.1483 35.1013 56.0742 34.2416L54.6067 11.6218C54.5474 10.8361 53.8952 10.2284 53.1096 10.2284H35.4851H34.7439C33.8842 10.2284 33.1875 10.9547 33.2468 11.8144L34.7143 34.4343C34.7588 35.2199 35.411 35.8276 36.2114 35.8276Z" fill="black"/>
<path d="M39.1908 77.7321V56.1498C39.1908 55.6607 39.4428 55.1864 39.8578 54.9047L44.453 51.8215C44.868 51.5399 45.12 51.0804 45.12 50.5764V49.8649H72.8537C72.9427 49.8649 73.002 49.8056 73.002 49.7167V48.2047C73.002 48.1158 72.9427 48.0565 72.8537 48.0565H45.1052V47.434C45.1052 47.0337 44.9569 46.6632 44.6901 46.3815H68.481L58.0753 39.9632H36.6413H34.2103L32.6539 39.0293C32.476 38.9256 32.3278 38.7773 32.224 38.6291C32.224 38.6291 32.224 38.6291 32.224 38.6143C32.061 38.3919 31.972 38.1251 31.9424 37.8435L30.2377 11.7254C30.1192 10.0208 31.468 8.56816 33.1727 8.53851L37.8567 8.4644C38.7461 8.44957 39.5317 8.04935 40.0802 7.42679C40.5397 6.90799 40.8065 6.21131 40.8065 5.47016V2.99473C40.8065 1.48278 39.68 0.222831 38.2273 0.0301331C38.0939 0.0153102 37.9605 0.000487221 37.8271 0.000487221H24.9015C24.8866 0.000487221 24.8718 0.000487221 24.8718 0.000487221H35.4406C37.1008 -0.0143358 38.4497 1.33455 38.4497 2.99473V5.47016C38.4497 7.10068 37.1304 8.43475 35.4999 8.4644L30.8158 8.53851C29.1112 8.55333 27.7623 10.006 27.8809 11.7254L29.5707 37.8583C29.6003 38.3475 29.8672 38.7922 30.2822 39.0442L42.022 46.174C42.4667 46.4408 42.7335 46.93 42.7335 47.4636V50.6061C42.7335 51.11 42.4815 51.5696 42.0665 51.8512L37.4713 54.9344C37.0563 55.216 36.8043 55.6755 36.8043 56.1795V77.7617C36.8043 78.992 35.8112 79.9852 34.5809 80H36.9229C36.997 80 37.0711 80 37.1304 79.9852C38.3014 79.8518 39.1908 78.9031 39.1908 77.7321Z" fill="black"/>
<path d="M36.8191 77.7317V56.1495C36.8191 55.6603 37.0711 55.186 37.4862 54.9044L42.0813 51.8212C42.4963 51.5395 42.7483 51.08 42.7483 50.5761V47.4336C42.7483 46.9148 42.4815 46.4256 42.0368 46.144L30.297 39.0142C29.882 38.7622 29.6152 38.3175 29.5855 37.8283L27.8661 11.7251C27.7475 10.0204 29.0964 8.56779 30.801 8.53815L35.4851 8.46403C37.1156 8.44921 38.4348 7.10032 38.4348 5.46979V2.99436C38.4348 1.33419 37.0859 -0.014702 35.4258 0.00012101H24.857H22.515C21.5811 0.00012101 20.6769 0.311403 19.9358 0.874675L3.66017 13.4001C2.60774 14.2153 2 15.4605 2 16.7649V39.533C2 40.363 2.25199 41.1783 2.7115 41.875L9.05573 51.4654C9.51524 52.1621 9.76723 52.9774 9.76723 53.8075V77.7465C9.76723 78.9917 10.7752 79.9848 12.0055 79.9848H34.5809C34.5957 79.9848 34.5957 79.9848 34.6105 79.9848C35.826 79.9552 36.8191 78.962 36.8191 77.7317Z" fill="white"/>
<path d="M49.6854 72.8849H61.5289C62.359 72.8849 63.026 72.2179 63.026 71.3878V63.4427C63.026 62.6126 62.359 61.9456 61.5289 61.9456H49.6854C48.8553 61.9456 48.1882 62.6126 48.1882 63.4427V71.3878C48.2031 72.2179 48.8701 72.8849 49.6854 72.8849Z" fill="black"/>
</svg>
