<svg width="120" height="120" viewBox="0 0 120 120" fill="none" xmlns="http://www.w3.org/2000/svg">
<path fill-rule="evenodd" clip-rule="evenodd" d="M74.2514 20.1025C66.9089 20.1029 58.9431 21.8318 52.7253 24.4069C45.5006 27.3989 37.3875 31.78 31.5816 37.4148C34.1853 35.7689 37.3301 34.2342 41.0494 32.9615C46.6645 31.0402 57.4859 26.7023 63.7809 31.8529C70.0762 37.004 69.8682 48.6487 68.3618 57.4057C66.8555 66.1627 63.7776 77.5401 55.454 80.26C47.1305 82.9799 38.3837 75.6616 32.8649 70.1042C30.9807 68.2069 28.9154 66.1357 27.0703 63.8916C31.4863 71.1494 39.2372 77.1935 43.8473 81.0951C59.5922 94.4205 67.7719 100.031 74.0995 97.4103C86.1854 92.405 90.5675 77.3737 93.151 65.4134C95.7348 53.453 99.5082 34.7948 92.0248 26.1447C88.2874 21.8243 81.5807 20.1025 74.2538 20.1025C74.253 20.1025 74.2524 20.1025 74.2514 20.1025Z" fill="url(#paint0_linear)"/>
<mask id="mask0" mask-type="alpha" maskUnits="userSpaceOnUse" x="22" y="20" width="75" height="79">
<path d="M54.1908 23.739C59.241 22.0552 66.153 20.1027 72.8981 20.1025C73.4112 20.1025 73.9223 20.1138 74.4326 20.1373C72.6808 20.4089 70.968 20.7282 69.3505 21.0045C61.7842 22.2971 50.8014 25.4149 48.2007 33.9639C45.6003 42.5129 52.9266 51.6229 59.0607 57.9106C65.1948 64.1984 74.3814 71.052 82.1083 68.7209C89.8355 66.3893 92.5756 54.8151 94.2611 48.9981C95.5446 44.5675 96.1154 40.5766 96.1865 37.1132C96.4344 38.0382 96.6271 39.02 96.7595 40.0705C97.6402 47.0507 95.9302 56.9155 94.4004 63.7086C91.3863 77.0911 85.7413 94.3849 72.6857 97.8901C59.6304 101.395 46.7129 89.3813 38.6368 80.3517C30.561 71.3224 20.203 59.8627 23.1355 46.8439C24.6704 40.0279 34.7385 30.2255 54.1908 23.739Z" fill="white"/>
</mask>
<g mask="url(#mask0)">
<path fill-rule="evenodd" clip-rule="evenodd" d="M126.496 124.895L-7.52344 98.751L24.0276 -16.7217L158.047 9.42187L126.496 124.895Z" fill="url(#paint1_linear)"/>
</g>
<mask id="mask1" mask-type="alpha" maskUnits="userSpaceOnUse" x="22" y="20" width="75" height="79">
<path d="M54.1908 23.739C59.241 22.0552 66.153 20.1027 72.8981 20.1025C73.4112 20.1025 73.9223 20.1138 74.4326 20.1373C72.6808 20.4089 70.968 20.7282 69.3505 21.0045C61.7842 22.2971 50.8014 25.4149 48.2007 33.9639C45.6003 42.5129 52.9266 51.6229 59.0607 57.9106C65.1948 64.1984 74.3814 71.052 82.1083 68.7209C89.8355 66.3893 92.5756 54.8151 94.2611 48.9981C95.5446 44.5675 96.1154 40.5766 96.1865 37.1132C96.4344 38.0382 96.6271 39.02 96.7595 40.0705C97.6402 47.0507 95.9302 56.9155 94.4004 63.7086C91.3863 77.0911 85.7413 94.3849 72.6857 97.8901C59.6304 101.395 46.7129 89.3813 38.6368 80.3517C30.561 71.3224 20.203 59.8627 23.1355 46.8439C24.6704 40.0279 34.7385 30.2255 54.1908 23.739Z" fill="white"/>
</mask>
<g mask="url(#mask1)">
<path d="M18.2588 12.0381V103.781H113.566V12.0381H18.2588Z" fill="url(#paint2_linear)"/>
</g>
<mask id="mask2" mask-type="alpha" maskUnits="userSpaceOnUse" x="28" y="62" width="50" height="37">
<path d="M76.7306 69.0124C78.6747 78.4577 78.1615 88.0211 70.9896 94.4466C69.2053 96.0452 67.178 97.3086 64.9742 98.2897C54.6991 96.7495 45.1122 87.5919 38.6372 80.3524C35.1084 76.407 31.144 71.9977 28.043 67.197C29.4091 67.5127 30.7548 67.7939 32.0523 68.047C42.266 70.0394 55.9619 70.8586 62.4239 64.7084C63.1171 64.0486 63.6851 63.3299 64.1444 62.5654C68.025 65.7038 72.4395 68.3264 76.7306 69.0124Z" fill="white"/>
</mask>
<g mask="url(#mask2)">
<path fill-rule="evenodd" clip-rule="evenodd" d="M168.474 93.2452L30.3428 133.433L-17.9502 14.9262L120.181 -25.2617L168.474 93.2452Z" fill="url(#paint3_linear)"/>
</g>
<mask id="mask3" mask-type="alpha" maskUnits="userSpaceOnUse" x="28" y="58" width="56" height="42">
<path d="M76.7306 69.0125C87.2665 70.3718 83.9025 90.9093 76.7306 97.3348C74.9463 98.9334 68.7452 101.879 64.9742 98.2897C54.6991 96.7496 45.1121 87.5919 38.6372 80.3524C35.1084 76.4071 31.144 71.9977 28.043 67.197C29.4091 67.5127 30.4051 63.8577 31.7025 64.1108C41.9162 66.1032 43.7619 64.5048 50.2238 58.3546C50.9171 57.6948 63.6851 63.3299 64.1444 62.5654C68.025 65.7039 72.4395 68.3264 76.7306 69.0125Z" fill="white"/>
</mask>
<g mask="url(#mask3)">
<path d="M18.2588 31.2212V32.2822C18.6931 31.9445 19.1218 31.6185 19.5419 31.3046C21.0267 30.196 22.5825 28.9995 24.2081 27.8223C22.1333 28.8111 20.1444 29.969 18.2588 31.2212ZM62.5569 41.4734C64.4638 47.2988 68.886 58.5586 62.4243 64.7088C55.9623 70.859 42.2664 70.0398 32.0526 68.0473C27.6489 67.1884 22.6897 66.0058 18.2588 64.2473V96.4027C20.6067 96.9948 22.9232 97.5351 25.142 98.0544C39.0586 101.312 59.8011 104.472 70.99 94.447C82.1792 84.4222 77.1607 66.7596 71.8894 53.8242C69.2135 47.258 64.8033 37.9999 59.5403 32.5801C58.7484 31.7645 57.9376 31.0392 57.1057 30.3921C59.1962 33.356 61.1045 37.0363 62.5569 41.4734Z" fill="url(#paint4_linear)"/>
</g>
<defs>
<linearGradient id="paint0_linear" x1="100.88" y1="75.0933" x2="49.297" y2="68.3867" gradientUnits="userSpaceOnUse">
<stop stop-color="#000056"/>
<stop offset="1" stop-color="#1010CB"/>
</linearGradient>
<linearGradient id="paint1_linear" x1="114.641" y1="109.513" x2="166.183" y2="-148.341" gradientUnits="userSpaceOnUse">
<stop stop-color="#01F5FC"/>
<stop offset="1" stop-color="#1010CB"/>
</linearGradient>
<linearGradient id="paint2_linear" x1="63.3008" y1="21.0576" x2="63.3008" y2="103.781" gradientUnits="userSpaceOnUse">
<stop stop-color="#01F5FC"/>
<stop offset="1" stop-color="#1010CB"/>
</linearGradient>
<linearGradient id="paint3_linear" x1="120.009" y1="93.6005" x2="44.9269" y2="-160.66" gradientUnits="userSpaceOnUse">
<stop stop-color="#00FFFD"/>
<stop offset="1" stop-color="#1010CB"/>
</linearGradient>
<linearGradient id="paint4_linear" x1="-12.1025" y1="58.3646" x2="83.2625" y2="93.2237" gradientUnits="userSpaceOnUse">
<stop stop-color="#00FFFD"/>
<stop offset="1" stop-color="#1010CB"/>
</linearGradient>
</defs>
</svg>
