<svg xmlns="http://www.w3.org/2000/svg" width="100" height="23.371" viewBox="0 0 26.458 6.184" id="svg8"><g id="layer1" transform="translate(0 -280.679)"><g id="g55" transform="translate(0 280.698) scale(.3949)" stroke-width=".67"><path class="st0" id="Shape_2_" fill="#0089FF" d="M45.2 11.3v4.3H23.1V0h5.4v11.3z"/><path class="st0" id="Shape_3_" fill="#0089FF" d="M60.2 15.6l-8.7-7.4v7.4h-5.3V0h5.3v6.6l.1-.1L60.5 0H67l-9.3 7.7.1.1 9.2 7.8z"/><path d="M21.8 0v4.2H7.4c-1 0-1.6 0-1.8.2-.2.3-.2.9-.2 1.3h16.4v4.1H5.4c0 .4-.1 1 .1 1.3.2.2 1 .3 1.8.2h14.5v4.3H7.1c-3.4 0-5.8.3-6.8-2.3-.2-.5-.3-1.3-.3-2.1V4.8C0 3 .3 1.5 1.5.6c1.2-.9 3.9-.6 6-.6z" class="st0" id="Shape_4_" fill="#0089FF"/></g></g><style id="style10">.st0{fill:#0089FF}</style><style id="style39">.st0{fill:#0089FF}</style></svg>