<svg xmlns="http://www.w3.org/2000/svg" width="100" height="100" viewBox="0 0 26.4583 26.4583"><defs><linearGradient id="a" y2="-1.3942" x2="22.4588" y1="43.2049" x1="19.394" gradientTransform="matrix(.837 0 0 .4889 5.8277 -5.2783)" gradientUnits="userSpaceOnUse"><stop offset="0%" stop-color="#0B0A54"/><stop offset="23.1373%" stop-color="#03246D"/><stop offset="100%" stop-color="#01ACEE"/></linearGradient><linearGradient id="b" y2="85.0158" x2="22.4588" y1="-15.0441" x1="9.9445" gradientTransform="matrix(.837 0 0 .4889 5.8277 -5.2783)" gradientUnits="userSpaceOnUse"><stop offset="0%" stop-color="#553704"/><stop offset="23.1373%" stop-color="#792307"/><stop offset="100%" stop-color="#FEA702"/></linearGradient><linearGradient id="c" y2="29.4415" x2="35.9046" y1="27.9511" x1="-.3215" gradientTransform="matrix(.57446 0 0 .71234 5.8277 -5.2783)" gradientUnits="userSpaceOnUse"><stop offset="0%" stop-color="#6A0804"/><stop offset="23.1373%" stop-color="#A5080F"/><stop offset="100%" stop-color="#FD121B"/></linearGradient></defs><g fill="none" fill-rule="evenodd" stroke-width=".6397"><path d="M54.758 12.2822S46.314 0 27.379 0C11.7704 0 0 8.6999 0 13.8174c0 5.8852 11.7704 8.9558 11.7704 18.1674h20.2144c0-5.3734-17.6556-8.1881-17.6556-19.7026 0-10.491 27.379-9.7234 40.4288 0z" fill="url(#a)" transform="matrix(.4136 0 0 .4136 1.905 0)"/><path d="M54.758 51.6874s-8.444 12.2822-27.379 12.2822C11.7704 63.9696 0 55.2697 0 50.1522c0-5.8852 11.7704-9.2117 11.7704-18.1674h20.2144c0 5.3734-17.6556 8.1881-17.6556 19.7026 0 10.491 27.379 9.7234 40.4288 0z" fill="url(#b)" transform="matrix(.4136 0 0 .4136 1.905 0)"/><path d="M.2559 12.0263C0 12.7939 0 13.3057 0 13.8174c0 5.8852 11.7704 8.9558 11.7704 18.1674C11.7704 40.9405 0 44.267 0 50.1522c0 .5117 0 1.0235.2559 1.5352-1.5353-5.6293 18.935-10.491 28.4025-15.6085 2.047-1.2794 3.3264-2.5588 3.3264-4.0941 0-1.5353-1.2794-2.8147-3.3264-4.094C19.1909 22.7731-1.2794 17.9114.2559 12.0262z" fill="url(#c)" transform="matrix(.4136 0 0 .4136 1.905 0)"/></g></svg>