<svg xmlns="http://www.w3.org/2000/svg" width="100" height="62.3073" viewBox="0 0 26.4583 16.4855"><g fill-rule="nonzero" fill="none" stroke-width=".8579"><path d="M26.0225 4.0286c-.3193-.8481-.745-1.5372-1.3304-2.1203C24.1068 1.3252 23.415.848 22.5635.53 21.712.212 20.7542.053 19.6898.053a3023370191050703 3023370191050703 0 0 0-2.8204.212c-.479.053-.9047.159-1.3304.212-.4257.106-.7982.159-1.1175.265v15.7434h3.6719v-3.4986c.4257.159.8514.318 1.2771.4241.4258.106.9047.159 1.4369.159.9046 0 1.7561-.159 2.4479-.477.6918-.318 1.2772-.7952 1.7561-1.3782.479-.5831.8515-1.2722 1.0643-2.1204.2661-.795.3725-1.7492.3725-2.7564.0533-1.0071-.1064-1.9613-.4257-2.8094zm-5.907 6.414c-.3724 0-.745-.053-1.1175-.159-.3725-.106-.6918-.212-.9046-.3711v-6.573c.1596-.053.4257-.053.6918-.106.266 0 .5853-.053.9046-.053 1.0111 0 1.7562.318 2.2883 1.0071.5322.6891.745 1.5903.745 2.7034 0 2.3854-.8514 3.5516-2.6075 3.5516z" fill="#fff"/><path d="M0 6.944C0 5.778.1596 4.7707.5322 3.9226c.3725-.8481.7982-1.5902 1.3836-2.1733C2.501 1.1662 3.1398.742 3.8848.424 4.6298.106 5.428 0 6.173 0c1.8626 0 3.2994.583 4.3637 1.6963 1.0643 1.1131 1.5965 2.7564 1.5965 4.9827v.6891c0 .265-.0532.477-.0532.6891H3.7783c.1065.7421.4257 1.3782 1.0643 1.8023.6386.424 1.49.689 2.5012.689.6918 0 1.3304-.053 1.969-.159.6386-.106 1.1707-.265 1.5964-.477l.479 2.9684c-.2129.106-.479.212-.7983.318-.3193.106-.6918.1591-1.1175.2651-.4257.053-.8514.159-1.2772.159-.479.053-.9046.053-1.3836.053-1.1707 0-2.1818-.159-3.0333-.53-.8514-.371-1.5965-.7952-2.1286-1.4312-.5854-.5831-1.0111-1.3252-1.2772-2.1204C.1065 8.7994 0 7.8982 0 6.944zm8.621-1.4312c0-.318-.0533-.636-.1597-.9011-.1064-.318-.2129-.5831-.4257-.7951-.2129-.212-.4257-.424-.6918-.5831-.2661-.159-.6386-.212-1.0643-.212-.4258 0-.745.053-1.0644.212-.3192.159-.5321.318-.745.53-.2128.2121-.3725.4771-.479.7952-.1063.318-.1596.636-.2128.9011H8.621z" fill="#01a3fb"/></g></svg>