<svg xmlns="http://www.w3.org/2000/svg" xmlns:xlink="http://www.w3.org/1999/xlink" width="100" height="100" viewBox="0 0 26.4583 26.4583"><defs><path id="a" d="M0 0h74.9997v74.9997H0z"/></defs><g transform="matrix(.34926 0 0 .35278 .1321 .0001)" fill="none" fill-rule="evenodd" stroke-width=".7538"><mask fill="#fff" id="b"><use xlink:href="#a" width="100%" height="100%"/></mask><path mask="url(#b)" d="M37.4997 69.2042c-17.7273 0-32.3864-14.3182-32.3864-32.0454 0-17.7273 14.659-32.3864 32.3864-32.3864 7.159 0 13.9772 2.0454 19.7727 6.1364l-9.2046 3.409c-2.7272-1.0227-5.4545-1.7045-8.5227-1.7045-11.9318 0-21.4773 9.5455-21.4773 21.1364 0 2.7272.341 5.1136 1.3637 7.5 1.7045 4.4318 4.4318 7.8409 8.5227 10.5681 3.75 2.3864 8.1818 3.75 12.6136 3.75 11.9319.341 21.8182-9.2045 21.8182-21.1363 0-2.0455-.3409-3.75-.6818-5.4546-5.1136 1.3637-10.2273 3.75-15 6.4773-5.1136 3.0682-9.8864 6.8182-13.9773 10.9091-3.0681-2.0455-5.4545-4.7727-6.8181-7.841 10.5681-10.2272 23.5227-17.3863 37.5-21.1363v.341c4.0909 5.4545 6.4772 12.2727 6.4772 19.4317 0 17.7273-14.3182 32.0455-32.3863 32.0455m0-69.2045c-20.7955 0-37.5 16.7045-37.5 37.5 0 20.7954 16.7045 37.5 37.5 37.5 20.7954 0 37.5-16.7046 37.5-37.5 0-20.7955-17.0455-37.5-37.5-37.5" fill="#426aaf"/></g></svg>