<svg xmlns="http://www.w3.org/2000/svg" width="569.8" height="437.7"><path d="M471.6 146.3c9.6-15.2 22.7-30 40.1-31.8 47-4.9 59.6 13.1 57.9 53.5-1 22.2-16.2 42-34.5 56.9-16.6 13.5-13.3 9.1-21.2 30.2-3.8 10.2-7.5 20.5-11.1 30.7-10.3 29.6-20.5 60-29.4 90.1-19.3 65.5-8.8 60.8-73 61-89.4.3-179 1.1-268.3.3-21.9-.2-46 .7-53.5-33-8.7-39.1-15.3-78.4-23.8-117.4-7.3-33.6-2-32.8-22.1-53.3-11-11.3-20.2-25-26.2-39.3-15.2-36-3.3-79.6 41-79.2 41.7.4 44.2 32.5 59.5 53.8 4.4 6.2 7.6.2 8-4 .2-1.6-8.6-15.9-10.3-19.9-10.7-25.1-9.2-55.1 17.2-70.2 15.6-8.9 30.3-11.7 48.7-3.9 21.1 8.9 31 27.9 34.3 48.9 1.2 7.4-.1 15.6 1.1 20.2 3 11 7.8 11.7 22.2-18.1 10.2-21 6.9-14.9 2.6-36.6-4.6-23.4-4.2-48.2 9.9-65.9 25.9-32.4 79.5-21.5 91.3 17.5 4.5 14.9 3.1 31.9-.7 48.3-5.2 22.2-8.6 16.2 1.9 38 2.1 4.3 4.3 8.4 6.7 11.9 8.6 12 11.4 7.7 12-3 1.5-26.9 9.1-53.7 36.6-62.9 21.1-7.1 33.6-2.5 49.2 9.4 22.2 17 22.5 44.6 12.4 68.1-16.8 39.2-2.5 40.7 10.8 25.3 4.9-5.8 6.1-18.3 10.7-25.6z" fill-rule="evenodd" clip-rule="evenodd" fill="#fff" stroke="#ccc" stroke-width=".216" stroke-miterlimit="2.613"/><path d="M114.7 398.9C102.3 340.2 72 153.5 40.4 166.1c-14.5 5.8 31.9 101.5 92.8 49.3 34.8-29.9 36.9-113.5 5.8-95.7-16.5 9.4 49.3 104.4 95.7 72.5 14.7-10.1 81.3-142.1 43.5-142.1-34.8 0 14.5 130.5 55.1 142.1 39.7 11.4 89.9-60.9 75.5-71.9-25.5-19.5-28.2 50.2-6.3 84 34.6 53.4 132.1-9 120.7-34.8-19.3-43.5-89.6 191-101.3 229.3-2 6.5-.3 5.1-7.3 5.1-37.7.1-251.1.4-292 .1-6.6-.1-6.3 2.3-7.9-5.1z" clip-rule="evenodd" fill="none" stroke="#000" stroke-width="25" stroke-miterlimit="2.613"/></svg>