<svg width="80" height="80" viewBox="0 0 80 80" fill="none" xmlns="http://www.w3.org/2000/svg">
<g clip-path="url(#clip0)">
<path d="M75.6915 33.8608L47.662 18.3513L30.2316 15L30.5353 21.3786L19.553 28.9725L11.6537 30.8434L3 31.1306L3.05544 35.8225L23.9667 35.8102C31.4103 30.5978 32.5842 29.7287 39.7049 24.4795C46.9437 29.8441 47.3655 30.2738 55.2648 35.6776C55.2648 35.6776 63.8968 35.5942 67.5632 35.6359C72.3095 35.6899 75.7252 39.8809 75.7252 39.8809C75.73 38.8817 75.6915 33.8608 75.6915 33.8608Z" fill="#fff"/>
<path d="M12.4709 38.0175H5.16467V58.9062H12.4709C17.9115 58.9062 22.3275 54.2242 22.3275 48.4618C22.3275 42.6995 17.9115 38.0175 12.4709 38.0175ZM12.4975 53.5024H10.3159V43.6153H12.4975C15.0719 43.6153 17.1739 45.8176 17.1739 48.5453C17.1739 51.273 15.0719 53.5024 12.4975 53.5024Z" fill="#fff"/>
<path d="M66.1361 47.6712V51.3466H69.9472C69.5253 51.9825 68.9588 52.503 68.2935 52.8615C67.6282 53.2224 66.8882 53.409 66.1361 53.409C63.7184 53.409 61.4863 51.3196 61.4863 48.4495C61.4863 45.5794 63.6678 43.4925 66.1361 43.4925C66.746 43.4925 67.351 43.6152 67.9151 43.8534C68.4791 44.0915 68.9902 44.4426 69.4192 44.8846L73.0712 41.0422C72.1745 40.0871 71.0946 39.326 69.9038 38.8055C68.7106 38.285 67.4282 38.0125 66.1289 38.0076C60.6884 38.0076 56.2988 42.6872 56.2988 48.4495C56.2988 54.2143 60.686 58.8939 66.1289 58.8939C68.3634 58.8914 70.5281 58.0911 72.2444 56.6327V58.6901H75.9662V49.0388C75.9662 48.8448 75.9831 48.6533 75.9831 48.4569L75.9975 47.6688H66.1361V47.6712Z" fill="#fff"/>
<path d="M39.295 29.1567C34.5078 32.7167 28.4694 37.6173 26.1505 42.5866C25.5262 43.6693 25.1791 45.1105 25.1791 47.0378V47.1189C25.1791 49.0462 25.5262 50.4849 26.1505 51.5677C28.4694 56.537 34.5126 61.4376 39.295 65C44.2824 61.4007 50.328 56.4854 52.5625 51.4155C53.1338 50.3499 53.4472 48.9554 53.4472 47.1164C53.4496 47.1017 53.4472 47.0894 53.4472 47.0747V47.0354C53.4472 45.1965 53.1338 43.7994 52.5625 42.7364C50.328 37.6688 44.2824 32.7437 39.295 29.1567ZM47.1533 47.1066C47.1389 51.6512 43.6316 55.3953 39.295 55.3953C35.0019 55.4027 31.4994 51.6512 31.4777 47.1066H31.4826V47.0477C31.4994 42.5031 35.0043 38.7565 39.295 38.7565C43.6316 38.7565 47.1389 42.508 47.1533 47.0477V47.1066Z" fill="#fff"/>
<path d="M39.8278 52.1765L39.4276 53.0653L39.0251 52.1765C37.2148 48.1697 37.2148 45.6408 39.0251 41.6339L39.4276 40.7476L39.8278 41.6339C41.6357 45.6408 41.6357 48.1721 39.8278 52.1765Z" fill="#fff"/>
</g>
<defs>
<clipPath id="clip0">
<rect width="73" height="50" fill="white" transform="translate(3 15)"/>
</clipPath>
</defs>
</svg>
