<svg xmlns="http://www.w3.org/2000/svg" width="100" height="42.0714" viewBox="0 0 26.4583 11.1314" id="svg8"><defs id="defs2"><path id="path-1" d="M49.8124.0387v56.4129H0V.0387z"/></defs><g id="layer1" transform="translate(0 -278.2051)"><g id="Page-1" transform="matrix(.37097 0 0 .37097 -1.4839 269.1165)" fill="none" fill-rule="evenodd" stroke-width=".7132"><g id="gameart-color" fill="#0486d1" fill-rule="nonzero"><g transform="translate(4 24.5)" id="gameart"><path id="Shape" d="M50.9448.4076L50.6901 0H0v30.0065h36.6633l3.3963-5.0945h19.461l3.3113 4.7209.2547.3566h8.2361l-.9-1.3076zM31.9764 13.8909v8.4908l-.2208.1868c-2.717 2.3265-6.7926 3.5152-11.8871 3.5152-9.0852 0-14.5193-4.1265-14.5193-11.055a9.8663 9.8663 0 0 1 4.1945-8.372 17.7288 17.7288 0 0 1 10.189-2.751c5.0944 0 8.6096 1.002 11.2587 3.1417l.4925.4075-.4076.4925-1.6981 2.2416-.4076.5094-.5094-.4245c-1.6982-1.4774-3.9228-2.4624-8.7286-2.4624-6.419 0-9.6625 2.3775-9.6625 7.1833 0 4.8057 3.1586 7.2171 9.6625 7.2171a14.6381 14.6381 0 0 0 7.8965-1.6981v-3.2265H17.6099v-4.0417h14.3834zm12.4305 4.619l5.2982-7.8624 5.4002 7.8624z"/></g></g></g></g><style id="style1583"></style></svg>