<svg width="120" height="120" viewBox="0 0 120 120" fill="none" xmlns="http://www.w3.org/2000/svg">
<path d="M52.4131 30.9131L52.4697 39.4103L33.1878 52.686L33.1406 44.1982L52.4131 30.9131Z" fill="#257C6E"/>
<path d="M78.0448 39.1455L78.1014 47.6427L71.0735 52.478L71.0264 43.9808L78.0448 39.1455Z" fill="#257C6E"/>
<path d="M71.0252 43.9806L71.0723 52.4778L52.4697 39.4103L52.4131 30.9131L71.0252 43.9806Z" fill="#005648"/>
<path d="M22.037 46.1645L22.0842 54.6522C21.6314 54.34 21.2729 53.9993 20.9993 53.6303L20.9521 45.1426C21.2257 45.5021 21.5842 45.8428 22.037 46.1645Z" fill="#257C6E"/>
<path d="M20.9517 45.1339L20.9989 53.6217C20.5838 53.0634 20.3763 52.4483 20.3763 51.767L20.3291 43.2793C20.3291 43.9606 20.5366 44.5756 20.9517 45.1339Z" fill="#257C6E"/>
<path d="M51.5931 51.6351L51.6403 60.1229L44.7255 55.2592L44.6689 46.7715L51.5931 51.6351Z" fill="#005648"/>
<path d="M54.9417 49.3262L54.9888 57.8139L51.6399 60.1227L51.5928 51.635L54.9417 49.3262Z" fill="#257C6E"/>
<path d="M60.2251 53.0354L60.2723 61.5326L54.9895 57.8139L54.9424 49.3262L60.2251 53.0354Z" fill="#005648"/>
<path d="M85.7417 54.2103L85.7983 62.7074L75.9593 55.7999L75.9121 47.3027L85.7417 54.2103Z" fill="#257C6E"/>
<path d="M45.9518 62.9617L45.9989 71.4495L22.0853 54.6538L22.0381 46.166L45.9518 62.9617Z" fill="#257C6E"/>
<path d="M35.8666 62.5645L35.9137 71.0616L29.5462 75.4427L29.499 66.955L35.8666 62.5645Z" fill="#257C6E"/>
<path d="M19.7255 69.8507L19.7726 78.3385C19.3198 78.0262 18.9614 77.6761 18.6878 77.3071L18.6406 68.8193C18.9048 69.1978 19.2727 69.5385 19.7255 69.8507Z" fill="#007E6E"/>
<path d="M18.632 68.8294L18.6792 77.3171C18.2547 76.7399 18.0472 76.1059 18.0472 75.4057L18 66.918C18 67.6182 18.2075 68.2522 18.632 68.8294Z" fill="#007E6E"/>
<path d="M42.9704 70.6086L43.0176 79.1058L38.9423 76.2387L38.8857 67.751L42.9704 70.6086Z" fill="#257C6E"/>
<path d="M75.5066 54.001L75.5538 62.4982L51.4515 79.1046L51.4043 70.6074L75.5066 54.001Z" fill="#257C6E"/>
<path d="M51.4032 70.6074L51.4504 79.0952C50.2806 79.8995 48.875 80.3063 47.2242 80.3063C45.5733 80.3063 44.1678 79.9089 43.0169 79.0952L42.9697 70.6074C44.1206 71.4117 45.5167 71.8186 47.177 71.8186C48.8279 71.8186 50.2335 71.4117 51.4032 70.6074Z" fill="#257C6E"/>
<path d="M51.4038 70.6074L51.4509 79.0952C50.2812 79.8995 48.8756 80.3063 47.2248 80.3063C46.3286 80.3063 45.4985 80.1928 44.7532 79.9468L44.7061 71.459C45.4513 71.6956 46.2814 71.8186 47.1776 71.8186C48.8285 71.8186 50.234 71.4117 51.4038 70.6074Z" fill="#257C6E"/>
<path d="M44.6962 71.4684L44.7434 79.9561C44.2151 79.7858 43.7246 79.5587 43.2718 79.2748L43.2246 70.7871C43.6868 71.071 44.1774 71.2981 44.6962 71.4684Z" fill="#257C6E"/>
<path d="M43.2339 70.7872L43.281 79.2749C43.1961 79.2182 43.1018 79.1614 43.0169 79.0952L42.9697 70.6074C43.0546 70.6737 43.1395 70.7304 43.2339 70.7872Z" fill="#257C6E"/>
<path d="M45.2817 87.8101L45.3288 96.2979L19.7737 78.3478L19.7266 69.8506L45.2817 87.8101Z" fill="#007E6E"/>
<path d="M101.024 55.1738L101.08 63.671L53.7435 96.3161L53.6963 87.8189L101.024 55.1738Z" fill="#257C6E"/>
<path d="M53.6962 87.8197L53.7434 96.3074C52.5736 97.1117 51.168 97.5091 49.5172 97.4997C47.8663 97.4902 46.4702 97.0928 45.3382 96.2885L45.291 87.8008C46.423 88.5956 47.8192 89.0025 49.47 89.012C51.1209 89.0214 52.5264 88.624 53.6962 87.8197Z" fill="#257C6E"/>
<path d="M53.6971 87.8213L53.7442 96.309C52.5745 97.1133 51.1689 97.5107 49.5181 97.5013C48.6219 97.5013 47.8012 97.3783 47.056 97.1417L47.0088 88.654C47.754 88.8905 48.5747 89.0135 49.4709 89.0135C51.1218 89.023 52.5273 88.6256 53.6971 87.8213Z" fill="#257C6E"/>
<path d="M46.9983 88.6523L47.0455 97.14C46.5172 96.9697 46.0361 96.7521 45.5833 96.4682L45.5361 87.9805C45.9889 88.2643 46.4795 88.482 46.9983 88.6523Z" fill="#257C6E"/>
<path d="M45.5457 87.9799L45.5929 96.4676C45.508 96.4108 45.4231 96.3541 45.3382 96.2973L45.291 87.8096C45.3665 87.8663 45.4514 87.9231 45.5457 87.9799Z" fill="#257C6E"/>
<path d="M101.023 55.1735L53.6955 87.8186C52.5257 88.6229 51.1202 89.0203 49.4693 89.0108C47.8185 89.0014 46.4223 88.604 45.2903 87.7997L19.7258 69.8496C18.5749 69.0453 17.9995 68.0612 18.0089 66.9162C18.0089 65.7618 18.6032 64.7872 19.7635 63.9829L28.9139 57.681L35.8663 62.5636L29.4988 66.9446L45.5262 78.2048C45.5262 78.2048 45.5639 78.2521 45.6488 78.3089C45.9224 78.4982 46.7053 78.8767 48.4977 78.7063C50.3561 78.536 51.7994 77.5803 51.8748 77.533L85.7408 54.1988L75.9112 47.2913L82.9296 42.4561L101.023 55.1735Z" fill="#5BCEAA"/>
<path d="M101.023 55.1758L53.696 87.8209C52.5262 88.6252 51.1207 89.0226 49.4698 89.0132C47.819 89.0037 46.4228 88.6063 45.2908 87.802L19.7263 69.8519C19.6603 69.8046 19.5942 69.7573 19.5376 69.71C19.5187 69.691 19.4999 69.6816 19.481 69.6627C19.4338 69.6248 19.3961 69.5964 19.3584 69.5586C19.3395 69.5396 19.3206 69.5302 19.3018 69.5113C19.264 69.4734 19.2169 69.4356 19.1791 69.3977C19.1697 69.3882 19.1508 69.3693 19.1414 69.3599C19.0848 69.3125 19.0376 69.2558 18.9905 69.2085C18.981 69.199 18.9716 69.1895 18.9622 69.1801C18.9244 69.1422 18.8867 69.0949 18.849 69.0571C18.8301 69.0381 18.8207 69.0192 18.8018 69.0097C18.7735 68.9719 18.7452 68.934 18.7075 68.8962C18.698 68.8773 18.6792 68.8583 18.6697 68.8489C18.2358 68.2717 18.0094 67.6282 18.0188 66.9091L18.066 75.3968C18.066 76.0971 18.2735 76.731 18.698 77.3082C18.7075 77.3177 18.7169 77.3272 18.7169 77.3366C18.7263 77.3555 18.7452 77.3745 18.7546 77.3839C18.7829 77.4218 18.8112 77.4596 18.849 77.4975C18.8678 77.5164 18.8773 77.5353 18.8961 77.5448C18.9339 77.5826 18.9716 77.63 19.0093 77.6678C19.0188 77.6773 19.0282 77.6867 19.0376 77.6962C19.0848 77.7435 19.1414 77.8003 19.1886 77.8476C19.198 77.8571 19.2169 77.876 19.2357 77.8854C19.2735 77.9233 19.3206 77.9611 19.3584 77.999C19.3772 78.0179 19.3961 78.0274 19.415 78.0463C19.4527 78.0841 19.4999 78.1125 19.5376 78.1504C19.5565 78.1693 19.5753 78.1788 19.5942 78.1977C19.6603 78.245 19.7169 78.2923 19.7829 78.3396L45.3474 96.2897C46.4794 97.0846 47.8756 97.4914 49.5264 97.5009C51.1773 97.5104 52.5923 97.1129 53.7526 96.3086L101.089 63.6635L101.023 55.1758Z" fill="url(#paint0_linear)"/>
<path d="M32.8859 87.556L19.764 78.3397C19.698 78.2924 19.632 78.2451 19.5754 78.1978C19.5565 78.1788 19.5376 78.1694 19.5188 78.1504C19.4716 78.1126 19.4339 78.0842 19.3961 78.0464C19.3773 78.0274 19.3584 78.018 19.3395 77.999C19.3018 77.9612 19.2546 77.9233 19.2169 77.8855C19.198 77.876 19.1886 77.8571 19.1697 77.8476C19.1131 77.8003 19.066 77.7436 19.0188 77.6962C19.0094 77.6868 18.9999 77.6773 18.9905 77.6679C18.9528 77.63 18.915 77.5827 18.8773 77.5449C18.8584 77.5259 18.849 77.507 18.8301 77.4975C18.8018 77.4597 18.7735 77.4218 18.7358 77.384C18.7264 77.3651 18.7075 77.3461 18.6981 77.3367C18.6886 77.3272 18.6792 77.3178 18.6792 77.3083C18.2547 76.7311 18.0472 76.0971 18.0472 75.3969L18 66.9092C18 67.6189 18.217 68.2623 18.6509 68.849C18.6603 68.8679 18.6792 68.8868 18.6886 68.8963C18.7169 68.9341 18.7452 68.972 18.783 69.0098C18.8018 69.0287 18.8113 69.0477 18.8301 69.0571C18.8679 69.095 18.9056 69.1423 18.9433 69.1801C18.9528 69.1896 18.9622 69.1991 18.9716 69.2085C19.0188 69.2558 19.0754 69.3126 19.1226 69.3599C19.132 69.3694 19.1509 69.3883 19.1603 69.3978C19.198 69.4356 19.2452 69.4735 19.2829 69.5113C19.3018 69.5302 19.3207 69.5397 19.3395 69.5586C19.3773 69.5965 19.4244 69.6249 19.4622 69.6627C19.481 69.6816 19.4999 69.6911 19.5188 69.71C19.5848 69.7573 19.6414 69.8047 19.7074 69.852L33.3576 79.4373C33.3576 79.4373 32.7822 87.5655 32.8859 87.556Z" fill="url(#paint1_linear)"/>
<path d="M27.6406 58.5532L28.9046 57.6827L35.8665 62.5653L35.8759 64.3442L45.998 71.4504L45.9508 62.9627L22.0371 46.167L22.0843 54.6547L27.6406 58.5532Z" fill="url(#paint2_linear)"/>
<path d="M78.0438 39.1458L71.0253 43.9811L52.4132 30.9135L33.1408 44.1987L52.9132 58.08L60.2335 53.0365L54.9508 49.3273L51.6019 51.6361L44.6778 46.7724L55.0923 39.6662L75.5156 54.0112L51.4038 70.6081C50.2341 71.4124 48.8285 71.8193 47.1777 71.8193C45.5268 71.8193 44.1212 71.4219 42.9704 70.6081L38.8857 67.7505L45.9419 62.9625L22.0376 46.1669C20.8868 45.3626 20.3208 44.3785 20.3302 43.243C20.3396 42.098 20.9339 41.1234 22.0942 40.3191L46.9418 23.1923C48.0927 22.3974 49.4889 22 51.1491 22C52.8 22 54.2056 22.3974 55.3564 23.2112L78.0438 39.1458Z" fill="#58D9B5"/>
<path d="M85.7417 54.2093L85.7983 62.7065L75.9593 55.799L75.9121 47.3018L85.7417 54.2093Z" fill="url(#paint3_linear)"/>
<path d="M75.5062 54.002L51.4039 70.6084C50.2341 71.4127 48.8285 71.8196 47.1777 71.8196C46.2815 71.8196 45.4514 71.706 44.7061 71.46C44.1779 71.2897 43.6873 71.0626 43.2345 70.7787C43.1496 70.7219 43.0553 70.6652 42.9704 70.5989L38.8857 67.7508L38.9329 76.2385L43.0176 79.1056C43.1025 79.1624 43.1874 79.2286 43.2817 79.2854C43.7345 79.5692 44.225 79.7963 44.7533 79.9667C45.4986 80.2032 46.3287 80.3262 47.2249 80.3262C48.8757 80.3262 50.2907 79.9194 51.451 79.1151L75.5533 62.4992L75.5062 54.002Z" fill="url(#paint4_linear)"/>
<path d="M101.023 55.1758L53.696 87.8209C52.5262 88.6252 51.1207 89.0226 49.4698 89.0132C47.819 89.0037 46.4228 88.6063 45.2908 87.802L19.7263 69.8519C19.6603 69.8046 19.5942 69.7573 19.5376 69.71C19.5187 69.691 19.4999 69.6816 19.481 69.6627C19.4338 69.6248 19.3961 69.5964 19.3584 69.5586C19.3395 69.5396 19.3206 69.5302 19.3018 69.5113C19.264 69.4734 19.2169 69.4356 19.1791 69.3977C19.1697 69.3882 19.1508 69.3693 19.1414 69.3599C19.0848 69.3125 19.0376 69.2558 18.9905 69.2085C18.981 69.199 18.9716 69.1895 18.9622 69.1801C18.9244 69.1422 18.8867 69.0949 18.849 69.0571C18.8301 69.0381 18.8207 69.0192 18.8018 69.0097C18.7735 68.9719 18.7452 68.934 18.7075 68.8962C18.698 68.8773 18.6792 68.8583 18.6697 68.8489C18.2358 68.2717 18.0094 67.6282 18.0188 66.9091L18.066 75.3968C18.066 76.0971 18.2735 76.731 18.698 77.3082C18.7075 77.3177 18.7169 77.3272 18.7169 77.3366C18.7263 77.3555 18.7452 77.3745 18.7546 77.3839C18.7829 77.4218 18.8112 77.4596 18.849 77.4975C18.8678 77.5164 18.8773 77.5353 18.8961 77.5448C18.9339 77.5826 18.9716 77.63 19.0093 77.6678C19.0188 77.6773 19.0282 77.6867 19.0376 77.6962C19.0848 77.7435 19.1414 77.8003 19.1886 77.8476C19.198 77.8571 19.2169 77.876 19.2357 77.8854C19.2735 77.9233 19.3206 77.9611 19.3584 77.999C19.3772 78.0179 19.3961 78.0274 19.415 78.0463C19.4527 78.0841 19.4999 78.1125 19.5376 78.1504C19.5565 78.1693 19.5753 78.1788 19.5942 78.1977C19.6603 78.245 19.7169 78.2923 19.7829 78.3396L45.3474 96.2897C46.4794 97.0846 47.8756 97.4914 49.5264 97.5009C51.1773 97.5104 52.5923 97.1129 53.7526 96.3086L101.089 63.6635L101.023 55.1758Z" fill="url(#paint5_linear)"/>
<path d="M75.5062 54.002L51.4039 70.6084C50.2341 71.4127 48.8285 71.8196 47.1777 71.8196C46.2815 71.8196 45.4514 71.706 44.7061 71.46C44.1779 71.2897 43.6873 71.0626 43.2345 70.7787C43.1496 70.7219 43.0553 70.6652 42.9704 70.5989L38.8857 67.7508L38.9329 76.2385L43.0176 79.1056C43.1025 79.1624 43.1874 79.2286 43.2817 79.2854C43.7345 79.5692 44.225 79.7963 44.7533 79.9667C45.4986 80.2032 46.3287 80.3262 47.2249 80.3262C48.8757 80.3262 50.2907 79.9194 51.451 79.1151L75.5533 62.4992L75.5062 54.002Z" fill="url(#paint6_linear)"/>
<path d="M101.024 55.1754L53.6965 87.8205C52.5267 88.6248 51.1211 89.0223 49.4703 89.0128C47.8194 89.0033 46.4233 88.6059 45.2913 87.8016L19.7268 69.8515C18.5759 69.0472 18.0004 68.0631 18.0099 66.9182C18.0099 65.7638 18.6042 64.7892 19.7645 63.9849L28.9149 57.6829L35.8673 62.5655L29.4998 66.9466L45.5271 78.2068C45.5271 78.2068 45.5649 78.2541 45.6498 78.3109C45.9233 78.5001 46.7063 78.8786 48.4986 78.7083C50.357 78.538 51.8003 77.5823 51.8758 77.535L85.7417 54.2008L75.9121 47.2933L82.9306 42.458L101.024 55.1754Z" fill="#58D9B5"/>
<defs>
<linearGradient id="paint0_linear" x1="18.0019" y1="76.3423" x2="101.077" y2="76.3423" gradientUnits="userSpaceOnUse">
<stop offset="0.1888" stop-color="#005648"/>
<stop offset="0.4142" stop-color="#257C6E"/>
<stop offset="0.6854" stop-color="#005648"/>
</linearGradient>
<linearGradient id="paint1_linear" x1="18.0019" y1="77.2391" x2="33.3606" y2="77.2391" gradientUnits="userSpaceOnUse">
<stop offset="0.0366987" stop-color="#079180"/>
<stop offset="0.0766306" stop-color="#057E6E"/>
<stop offset="0.1365" stop-color="#026859"/>
<stop offset="0.1939" stop-color="#015B4C"/>
<stop offset="0.2456" stop-color="#005648"/>
<stop offset="1" stop-color="#005648"/>
</linearGradient>
<linearGradient id="paint2_linear" x1="22.0333" y1="58.8074" x2="45.9959" y2="58.8074" gradientUnits="userSpaceOnUse">
<stop offset="0.3152" stop-color="#257C6E"/>
<stop offset="0.7855" stop-color="#005648"/>
</linearGradient>
<linearGradient id="paint3_linear" x1="75.913" y1="55.003" x2="85.7953" y2="55.003" gradientUnits="userSpaceOnUse">
<stop stop-color="#005648"/>
<stop offset="0.7296" stop-color="#257C6E"/>
</linearGradient>
<linearGradient id="paint4_linear" x1="38.8885" y1="67.1597" x2="75.5574" y2="67.1597" gradientUnits="userSpaceOnUse">
<stop offset="0.0596555" stop-color="#005648"/>
<stop offset="0.0931001" stop-color="#095F51"/>
<stop offset="0.189" stop-color="#1D7466"/>
<stop offset="0.2518" stop-color="#257C6E"/>
<stop offset="0.3972" stop-color="#146B5D"/>
<stop offset="0.5378" stop-color="#005648"/>
</linearGradient>
<linearGradient id="paint5_linear" x1="18.0019" y1="76.3423" x2="101.077" y2="76.3423" gradientUnits="userSpaceOnUse">
<stop offset="0.2499" stop-color="#005648" stop-opacity="0"/>
<stop offset="0.3766" stop-color="#11AA94"/>
<stop offset="0.5773" stop-color="#005648" stop-opacity="0"/>
</linearGradient>
<linearGradient id="paint6_linear" x1="38.8885" y1="67.1597" x2="75.5574" y2="67.1597" gradientUnits="userSpaceOnUse">
<stop stop-color="#005648" stop-opacity="0"/>
<stop offset="0.2701" stop-color="#11AA94"/>
<stop offset="0.5807" stop-color="#005648" stop-opacity="0"/>
</linearGradient>
</defs>
</svg>
