<?xml version="1.0" encoding="UTF-8"?>
<svg xmlns="http://www.w3.org/2000/svg" xmlns:xlink="http://www.w3.org/1999/xlink" width="80px" height="80px" viewBox="0 0 80 80" version="1.1">
    
    <title>Hacksaw white </title>
    <desc>Created with Sketch.</desc>
    <g id="Hacksaw-white-" stroke="none" stroke-width="1" fill="none" fill-rule="evenodd">
        <g id="Group" transform="translate(17.000000, 9.000000)" fill="#FFFFFF" fill-rule="nonzero">
            <path d="M22.1004016,36.7232143 L31.7389558,36.7232143 L31.7389558,44.5982143 L47,45 L47,0.883928571 C47,0.401785714 46.7590361,0 46.3574297,0 L32.3815261,0 C31.9799197,0 31.7389558,0.321428571 31.7389558,0.883928571 L31.7389558,21.7767857 L22.1004016,21.7767857 L22.1004016,0.883928571 C22.1004016,0.401785714 21.8594378,0 21.4578313,0 L7.64257028,0 C7.24096386,0 7,0.321428571 7,0.883928571 L7,44.0357143 L22.1004016,44.4375 L22.1004016,36.7232143 Z" id="Path"/>
            <path d="M24.0789474,61.2021277 C24.0789474,61.6808511 24.3157895,62 24.7105263,62 L38.3684211,62 C38.7631579,62 39,61.6808511 39,61.2021277 L39,47.3989362 L24,47 L24.0789474,61.2021277 Z" id="Path"/>
            <path d="M0.634920635,62 L14.2857143,62 C14.6825397,62 15,61.6734694 15,61.1836735 L15,46.3265306 L0,46 L0,61.1836735 C0,61.6734694 0.238095238,62 0.634920635,62 Z" id="Path"/>
        </g>
    </g>
</svg>
