<svg xmlns="http://www.w3.org/2000/svg" width="100" height="100" viewBox="0 0 26.4583 26.4583"><defs><linearGradient id="a" y2="3.7938" x2="78.5384" y1="3.7938" x1="1.1829" gradientTransform="matrix(.48488 0 0 1.18695 -5.1504 22.2418)" gradientUnits="userSpaceOnUse"><stop offset="0%" stop-color="#EF374E"/><stop offset="100%" stop-color="#F89928"/></linearGradient><linearGradient id="b" y2="20628.73" x2="-4664.0566" y1="20628.73" x1="-5752.6944" gradientTransform="matrix(.48496 0 0 1.18677 -5.1504 22.2418)" gradientUnits="userSpaceOnUse"><stop offset="0%" stop-color="#EF374E"/><stop offset="100%" stop-color="#F89928"/></linearGradient><linearGradient id="c" y2="13214.01" x2="-2973.2107" y1="13214.01" x1="-3667.0455" gradientTransform="matrix(.76404 0 0 .75328 -5.1504 22.2418)" gradientUnits="userSpaceOnUse"><stop offset="0%" stop-color="#EF374E"/><stop offset="100%" stop-color="#F89928"/></linearGradient><linearGradient id="d" y2="13097.856" x2="-2980.5462" y1="13097.856" x1="-3670.5487" gradientTransform="matrix(.76133 0 0 .75596 -5.1504 22.2418)" gradientUnits="userSpaceOnUse"><stop offset="0%" stop-color="#EF374E"/><stop offset="100%" stop-color="#F89928"/></linearGradient><linearGradient id="e" y2="213800.92" x2="-50884.81" y1="213800.92" x1="-62846.677" gradientTransform="matrix(.6765 0 0 .85076 -5.1504 22.2418)" gradientUnits="userSpaceOnUse"><stop offset="0%" stop-color="#EF374E"/><stop offset="100%" stop-color="#F89928"/></linearGradient></defs><g fill-rule="nonzero" fill="none" stroke-width=".7586"><path d="M28.3756 10.0166c.9161.0065 1.6659-.7275 1.6788-1.6436V3.522c0-.9207-.7464-1.667-1.6671-1.667-.9207 0-1.667.7463-1.667 1.667v4.8251c-.0001.9166.7388 1.6617 1.6553 1.6695z" fill="url(#a)" transform="translate(4.5023) scale(.34876)"/><path d="M21.7049 14.4449c.9207 0 1.667-.7464 1.667-1.667V7.9526c0-.9207-.7463-1.6671-1.667-1.6671-.9207 0-1.667.7464-1.667 1.667v4.8229c0 .921.746 1.668 1.667 1.6694z" fill="url(#b)" transform="translate(4.5023) scale(.34876)"/><path d="M21.7072 3.2872c.9122.0014 1.6555-.7315 1.6671-1.6436v.0235C23.3743.7464 22.628 0 21.7073 0c-.9208 0-1.6671.7464-1.6671 1.667v-.0234c.0128.9115.7554 1.6437 1.667 1.6436z" fill="url(#c)" transform="translate(4.5023) scale(.34876)"/><path d="M35.0486 15.7316a1.6647 1.6647 0 0 0 1.667-1.6624v.0188a1.667 1.667 0 0 0-3.3341 0v-.0376a1.6669 1.6669 0 0 0 1.667 1.6812z" fill="url(#d)" transform="translate(4.5023) scale(.34876)"/><path d="M48.3875 28.0868c-.9207 0-1.667.7463-1.667 1.667v.8406c-.0667.8926-.8255 1.5738-1.72 1.5442-.8946-.0296-1.6067-.7595-1.6142-1.6545v-4.1583c-.0337-.897-.7706-1.6069-1.6682-1.6069-.8977 0-1.6346.7098-1.6683 1.6069v.0915a1.667 1.667 0 0 1-3.3342 0v-6.9735c0-.9194-.7453-1.6648-1.6647-1.6648-.9194 0-1.6647.7454-1.6647 1.6648v2.658c-.026.9128-.7612 1.646-1.6741 1.6693a1.6647 1.6647 0 0 1-1.6671-1.6624v-7.5135c0-.9214-.747-1.6683-1.6683-1.6683-.9213 0-1.6682.7469-1.6682 1.6683v6.5368c0 .9207-.7464 1.667-1.6671 1.667-.9207 0-1.667-.7463-1.667-1.667v-2.348c0-.9214-.747-1.6683-1.6683-1.6683-.9214 0-1.6683.747-1.6683 1.6683v5.0247c0 .9207-.7464 1.667-1.667 1.667-.9208 0-1.6671-.7463-1.6671-1.667v-6.983c0-.9206-.7464-1.667-1.6671-1.667-.9207 0-1.6671.7464-1.6671 1.667v10.667c0 .9207-.7464 1.667-1.667 1.667-.9208 0-1.6672-.7463-1.6672-1.667v-2.8176c0-.9213-.7469-1.6682-1.6682-1.6682-.9214 0-1.6683.7469-1.6683 1.6682v7.8517c-.0336.897-.7706 1.6068-1.6682 1.6068-.8977 0-1.6346-.7098-1.6683-1.6068V29.944c0-.9207-.7463-1.667-1.667-1.667-.9207 0-1.6671.7463-1.6671 1.667L0 32.5268v28.8804l25.0226 14.4566 25.0226-14.4472V29.7562c.0026-.9185-.7392-1.6656-1.6577-1.6694zM36.812 56.4248h-7.861v-5.9851H21.092v5.9827h-7.8588V37.6877h7.8588v6.2974h7.8587v-6.2974h7.8611z" fill="url(#e)" transform="translate(4.5023) scale(.34876)"/></g></svg>