<svg xmlns="http://www.w3.org/2000/svg" width="100" height="82.7295" viewBox="0 0 26.4583 21.8888"><defs><linearGradient id="a" y2="7.0112" x2="80.5297" y1="12.0184" x1="70.1956" gradientTransform="matrix(.4969 0 0 1.02272 9.886 22.4647)" gradientUnits="userSpaceOnUse"><stop offset="0%" stop-opacity="0"/><stop offset="100%" stop-opacity=".5"/></linearGradient><linearGradient id="b" y2="16.2962" x2="14.0202" y1="26.3615" x1="19.3167" gradientTransform="matrix(.82757 0 0 .61407 9.886 22.4647)" gradientUnits="userSpaceOnUse"><stop offset="0%" stop-opacity="0"/><stop offset="100%" stop-opacity=".5"/></linearGradient><linearGradient id="c" y2="64.1464" x2="31.2765" y1="45.199" x1="44.693" gradientTransform="matrix(.91796 0 0 .5536 9.886 22.4647)" gradientUnits="userSpaceOnUse"><stop offset="0%" stop-opacity="0"/><stop offset="100%" stop-opacity=".5"/></linearGradient><linearGradient id="d" y2="46.2377" x2="35.8896" y1="58.845" x1="27.2956" gradientTransform="matrix(.85895 0 0 .59163 9.886 22.4647)" gradientUnits="userSpaceOnUse"><stop offset="0%" stop-opacity="0"/><stop offset="100%" stop-opacity=".5"/></linearGradient><linearGradient id="e" y2="58.2692" x2="7.8499" y1="58.2692" x1="25.4444" gradientTransform="matrix(.93888 0 0 .54127 9.886 22.4647)" gradientUnits="userSpaceOnUse"><stop offset="0%" stop-opacity="0"/><stop offset="100%" stop-opacity=".5"/></linearGradient><linearGradient id="f" y2="48.6731" x2="22.5844" y1="57.3203" x1="11.9275" gradientTransform="matrix(.7334 0 0 .69292 9.886 22.4647)" gradientUnits="userSpaceOnUse"><stop offset="0%" stop-opacity="0"/><stop offset="100%" stop-opacity=".5"/></linearGradient><linearGradient id="g" y2="3.6675" x2="9.9046" y1="11.1314" x1="9.9046" gradientTransform="matrix(.81172 0 0 .62605 9.886 22.4647)" gradientUnits="userSpaceOnUse"><stop offset="0%" stop-opacity="0"/><stop offset="100%" stop-opacity=".5"/></linearGradient></defs><g fill="none" fill-rule="evenodd" stroke-width=".7129"><path d="M5.207.2121v9.711H2.95V.2122zM2.265.1939v9.7293H0V.1939zm21.3368 0V6.06s-3.7464-4.1797-4.26-4.6493A5.4146 5.4146 0 0 0 15.5511.002c-1.951 0-3.1704.7783-3.8294 1.4269a5.3835 5.3835 0 0 0-1.5126 3.6815 4.9295 4.9295 0 0 0 1.523 3.6064 5.3965 5.3965 0 0 0 3.8112 1.427c1.6423 0 2.8747-.5527 3.7853-1.427a4.9295 4.9295 0 0 0 1.3777-2.4051l3.1782 3.614h1.92V.1914zm-5.9153 7.0518a2.9733 2.9733 0 0 1-2.1716.8302 2.9006 2.9006 0 0 1-2.9914-2.9836 2.9707 2.9707 0 0 1 .864-2.1975 3.02 3.02 0 0 1 2.143-.8173 3.1523 3.1523 0 0 1 2.1534.8302 3.0433 3.0433 0 0 1 .851 2.182 2.8954 2.8954 0 0 1-.8484 2.156z" fill="#6c2186" fill-rule="nonzero"/><path d="M7.952 5.9433a3.0718 3.0718 0 0 0 1.3621-.7369 2.6464 2.6464 0 0 0 .7628-1.9795 2.955 2.955 0 0 0-.851-2.1872C8.7563.604 7.9806.1836 6.7326.1836H2.95v1.72h3.1393c.2932 0 .8795 0 1.2453.2829.3077.2541.4762.6394.454 1.0378.013.347-.1196.6837-.3657.9288-.3814.3788-.9392.3995-1.3492.3995h-.5189v1.5567l2.6464 3.8009h2.7553zm13.3667 10.095v1.9225h2.5504a2.3921 2.3921 0 0 1-.7447 1.2168c-.2335.1998-.7783.5526-1.816.5526a2.815 2.815 0 0 1-2.099-.8042 4.2238 4.2238 0 0 1-1.1727-2.4155 4.2238 4.2238 0 0 1 1.1727-2.4154 2.8124 2.8124 0 0 1 2.099-.8017c1.0377 0 1.5722.358 1.816.5578.3077.272.54.6187.6746 1.0066l2.0185-.9729a4.9995 4.9995 0 0 0-.9107-1.3491c-1.1519-1.1883-2.4673-1.4062-3.697-1.4062-1.2298 0-2.5816.2024-3.7958 1.4373a5.0955 5.0955 0 0 0-.5189.6305v.0156a3.3365 3.3365 0 0 0-.4851-.589c-1.0378-1.004-2.3947-1.4996-4.0137-1.4996-2.0755 0-3.3572.8199-4.0577 1.5126a3.1912 3.1912 0 0 0-.48.646l-.0207-.0363a4.7997 4.7997 0 0 0-.4307-.4592C6.1307 11.568 4.6856 11.376 3.3157 11.376H0v10.2792h3.3728c.8691 0 2.6593-.109 4.0915-1.5566.112-.107.2185-.2196.319-.3373.1579.2173.3313.4228.519.6149.7005.6953 1.9925 1.5125 4.0603 1.5125 1.619 0 2.9707-.493 4.0136-1.497a3.557 3.557 0 0 0 .4878-.589v.013c.1565.224.33.4357.5189.6331 1.2142 1.235 2.5504 1.4347 3.7957 1.4347 1.2453 0 2.5322-.2153 3.6841-1.4036 1.152-1.1882 1.5827-3.0874 1.5827-4.3379v-.109zm-14.913 1.165c-.0986.2594-.3814 1.2271-1.0014 1.7434-.7784.6486-1.8655.6876-2.3636.6876H2.387V13.353h.6538c.7316 0 1.7409.1167 2.5192.8873.4048.4021.7784 1.1363.9314 2.2156 0 .1064.0312.2128.0493.3166-.0544.179-.096.3243-.1349.4306zm8.733.9599a2.9136 2.9136 0 0 1-.4956.6642 3.3495 3.3495 0 0 1-2.2883.8795 3.2016 3.2016 0 0 1-2.2701-.8795 2.6671 2.6671 0 0 1-.327-.3788 6.3227 6.3227 0 0 1-.7783-1.9277 6.2838 6.2838 0 0 1 .7784-1.9277 2.6671 2.6671 0 0 1 .3269-.3788 3.1964 3.1964 0 0 1 2.2701-.8795 3.3495 3.3495 0 0 1 2.2883.8795 3.033 3.033 0 0 1 .4956.6642c.247.4016.43.8393.5422 1.2972.026.1116.052.2232.0753.3347-.0234.109-.0493.2205-.0753.3321-.11.466-.293.9117-.5422 1.3206z" fill="#6c2186" fill-rule="nonzero"/><path d="M55.8245 17.0843l-7.5635-8.689s3.621 4.7744.3075 10.052l2.943 5.5154a12.6804 12.6804 0 0 0 4.313-6.8784z" fill="url(#a)" transform="translate(-.0104 -.0006) scale(.37115)"/><path d="M15.106 16.623a15.6233 15.6233 0 0 0 6.3752-.5034l8.0668 10.7161h-7.4097z" fill="url(#b)" transform="translate(-.0104 -.0006) scale(.37115)"/><path d="M48.4986 43.5216c.042.3005.084.629.1398.9646a11.485 11.485 0 0 1 3.1597-6.508 7.5985 7.5985 0 0 1 5.662-2.16c2.7962 0 4.1943.9647 4.8933 1.503a6.41 6.41 0 0 1 1.8245 2.7122l5.4384-2.6214a13.5822 13.5822 0 0 0-2.4536-3.635c-3.1037-3.2015-6.6477-3.7886-9.9611-3.7886-3.3134 0-6.9554.5452-10.2268 3.8726a13.729 13.729 0 0 0-1.3981 1.6986v.042a21.3064 21.3064 0 0 1 2.922 7.92z" fill="url(#c)" transform="translate(-.0104 -.0006) scale(.37115)"/><path d="M43.0602 47.3383c-.2097-.9437-.3775-1.9014-.5802-2.852-.063.2935-.1328.594-.2027.8947a12.4427 12.4427 0 0 1-1.461 3.4951 7.8501 7.8501 0 0 1-1.3351 1.7895 9.0245 9.0245 0 0 1-6.1655 2.3697 8.626 8.626 0 0 1-6.1165-2.3697 7.186 7.186 0 0 1-.8808-1.0206 17.0353 17.0353 0 0 1-2.097-5.1937c-.2727-1.1045-.3845-2.957-.797-4.411l-5.4524 6.2914c.9297 3.3064 2.5235 6.6617 4.4249 8.57 1.9014 1.9084 5.3615 4.0754 10.9328 4.0754 4.362 0 8.0109-1.3282 10.814-4.0334a9.5277 9.5277 0 0 0 1.3212-1.5868 16.588 16.588 0 0 1-2.4047-6.0186z" fill="url(#d)" transform="translate(-.0104 -.0006) scale(.37115)"/><path d="M57.4672 43.214v5.1798h6.8714a6.445 6.445 0 0 1-2.0062 3.2784c-.6291.5383-2.097 1.489-4.8932 1.489a7.5845 7.5845 0 0 1-5.6551-2.167c-2.4466-2.3697-3.0408-5.4105-3.3064-7.4726-.3426-2.4257-1.8874-7.1581-4.327-9.4999-2.7961-2.6982-6.452-4.0334-10.807-4.0334-5.5922 0-9.0524 2.209-10.9398 4.0754a12.0793 12.0793 0 0 0-1.3002 1.7126 17.0143 17.0143 0 0 1 1.461 2.936 49.7149 49.7149 0 0 1 1.6077 5.774 16.8186 16.8186 0 0 1 2.139-5.1939 7.6893 7.6893 0 0 1 .8808-1.0206 8.633 8.633 0 0 1 6.1235-2.3697 9.0245 9.0245 0 0 1 6.1585 2.3697 7.962 7.962 0 0 1 1.3351 1.7896 12.233 12.233 0 0 1 1.461 3.4951c.3006 1.2583.5103 2.5095.7829 3.7538a14.5258 14.5258 0 0 0 2.4466 6.0606c.4216.6013.889 1.1692 1.398 1.6986 3.2715 3.3274 6.8715 3.8656 10.2269 3.8656 3.3553 0 6.8225-.5801 9.9262-3.7817s4.264-8.3184 4.264-11.6878v-.2936z" fill="url(#e)" transform="translate(-.0104 -.0006) scale(.37115)"/><path d="M17.287 46.3526c-.2656.699-1.0276 3.3064-2.6983 4.6975-2.097 1.7476-5.026 1.8524-6.3681 1.8524h-.1678a19.9852 19.9852 0 0 0-.9856 5.4525h2.0481c2.3418 0 7.165-.2936 11.0237-4.1942a12.401 12.401 0 0 0 .8598-.9158 19.0765 19.0765 0 0 1-3.3343-8.0528c-.1608.4824-.2727.8738-.3775 1.1604z" fill="url(#f)" transform="translate(-.0104 -.0006) scale(.37115)"/><path d="M21.3187 16.0383v1.9225h2.5504a2.3921 2.3921 0 0 1-.7447 1.2168c-.2335.1998-.7783.5526-1.816.5526a2.815 2.815 0 0 1-2.099-.8042 4.2238 4.2238 0 0 1-1.1727-2.4155c-.0233.1246-.039.2439-.0545.3555a7.9339 7.9339 0 0 1-1.1182 2.9369v.013c.1565.224.33.4356.5189.633 1.2142 1.235 2.5504 1.4347 3.7957 1.4347 1.2453 0 2.5322-.2153 3.6841-1.4036 1.152-1.1882 1.5827-3.0874 1.5827-4.3379v-.109z" fill="#6c2186"/><path fill="url(#g)" d="M14.0575 9.8563H7.9759V5.1658h6.0816z" transform="translate(-.0104 -.0006) scale(.37115)"/></g></svg>