<svg xmlns="http://www.w3.org/2000/svg" width="100" height="100" viewBox="0 0 26.4583 26.4583"><g fill-rule="nonzero" fill="none" stroke-width=".5494"><path d="M4.9902 2.2007a2.3267 2.3267 0 0 1 1.5875.5963 2.0915 2.0915 0 0 1 .672 1.68 2.083 2.083 0 0 1-.672 1.6798 2.3267 2.3267 0 0 1-1.5875.6048 2.3183 2.3183 0 0 1-1.5875-.6048 2.0747 2.0747 0 0 1-.672-1.6799 2.0747 2.0747 0 0 1 .672-1.6799 2.3183 2.3183 0 0 1 1.5875-.5963m0-2.2007a4.477 4.477 0 0 0-3.007 1.1927A4.1997 4.1997 0 0 0 .5805 4.435a4.1997 4.1997 0 0 0 1.3943 3.2506 4.4937 4.4937 0 0 0 3.0154 1.1423 4.477 4.477 0 0 0 3.0154-1.1423A4.1997 4.1997 0 0 0 9.4 4.4433 4.1997 4.1997 0 0 0 8.014 1.2011 4.4853 4.4853 0 0 0 4.9902 0M6.2585 10.9193v15.287H3.5791V10.8186a4.6869 4.6869 0 0 0 1.3271.1932 4.5952 4.5952 0 0 0 1.3355-.2016z" fill="#fcaf1c"/><path d="M23.0239 7.0136c-.21-2.6375-1.2852-4.6365-3.9646-4.6365-1.8183-.125-3.3938 1.2475-3.5194 3.0658v.294c0 5.8124 10.3398 5.8796 10.3398 14.1614 0 4.099-2.3519 6.56-6.602 6.56-4.0317 0-6.4592-2.965-6.5264-7.274h2.5702c.0672 3.0323 1.4952 4.9222 4.2418 4.9222 2.3182 0 3.8133-1.4951 3.8133-4.2418 0-5.8796-10.3397-6.5263-10.3397-13.8759C13.0369 2.3518 15.5567 0 19.244 0c3.6874 0 6.1316 2.5198 6.35 6.9884z" fill="#898989"/></g></svg>