<svg width="120" height="120" viewBox="0 0 120 120" fill="none" xmlns="http://www.w3.org/2000/svg">
<path d="M58.3355 24.4956C58.3355 24.4956 83.7489 31.0843 88.4551 32.3392C93.1613 33.5942 94.8084 34.9276 94.6515 40.7319C94.4947 46.5362 94.1809 64.7335 93.8672 69.7534C93.5534 74.8517 93.3181 77.7539 90.8866 79.7148C88.4551 81.6757 77.3956 90.6175 74.0228 93.3627C70.5716 96.108 66.5713 97.0492 60.6886 94.9315C54.8059 92.8137 35.589 86.0681 31.9024 84.4994C28.1375 82.9307 26.8825 79.4011 26.6472 74.6164C26.4119 69.9103 25.3922 47.7912 25.0785 43.6341C24.7648 39.4769 26.6472 35.3983 33.7065 32.2608C40.7658 29.1233 43.511 27.8684 48.7663 25.5937C53.9431 23.3191 58.3355 24.4956 58.3355 24.4956Z" fill="url(#paint0_linear)"/>
<path d="M88.4555 32.3402C92.142 33.4383 92.3773 34.7717 88.6908 36.6542L72.9251 44.8115C69.6307 46.5371 64.6892 48.0274 61.0027 46.9293L29.8635 37.5954C26.177 36.4973 28.9222 34.4579 33.9422 32.2617L47.6685 26.2221C52.9238 23.6337 55.0416 23.6337 58.3359 24.575L88.4555 32.3402Z" fill="url(#paint1_linear)"/>
<path d="M67.2772 90.0687C67.2772 93.7552 64.2966 95.9514 60.6101 94.9318L31.824 84.4997C28.1375 83.48 26.6472 79.4013 26.6472 75.7148L25 43.7128C25 40.0263 26.4903 38.2223 30.1768 39.2419L60.6885 48.8112C64.3751 49.8308 67.2772 53.0467 67.2772 56.7332V90.0687Z" fill="url(#paint2_linear)"/>
<path d="M93.8676 69.7552C93.8676 73.5986 93.7107 77.0498 90.887 79.7166L74.0232 93.3646C70.1798 95.4039 68.9248 92.894 68.9248 89.0506L69.4739 56.6563C69.4739 52.813 70.4935 49.1265 74.3369 47.0871L91.7498 37.4394C94.7304 35.4001 94.7304 36.8119 94.7304 40.7338L93.8676 69.7552Z" fill="url(#paint3_linear)"/>
<path d="M35.9805 34.614C35.9805 36.1043 38.8042 37.3593 42.2554 37.3593C45.7066 37.3593 48.5303 36.1043 48.5303 34.614C48.5303 33.1237 45.7066 31.8687 42.2554 31.8687C38.8042 31.7903 35.9805 33.0453 35.9805 34.614Z" fill="url(#paint4_linear)"/>
<path d="M42.3332 32.1832C45.6275 32.1832 48.3728 33.2813 48.6081 34.7716C48.6081 34.6932 48.6865 34.6147 48.6865 34.5363C48.6865 33.046 45.8628 31.791 42.4116 31.791C38.9604 31.791 36.1367 33.046 36.1367 34.5363C36.1367 34.6147 36.1367 34.6932 36.2151 34.7716C36.2936 33.3597 38.9604 32.1832 42.3332 32.1832Z" fill="#E50012"/>
<path d="M42.3338 33.2036C45.236 33.2036 47.6675 34.0664 48.3734 35.2429C48.4518 35.0861 48.5303 34.9292 48.5303 34.6939C48.295 33.282 45.6281 32.1055 42.2554 32.1055C38.9611 32.1055 36.2158 33.2036 35.9805 34.6939C35.9805 34.8507 36.0589 35.0076 36.1374 35.2429C37.0002 34.1448 39.3532 33.2036 42.3338 33.2036Z" fill="#CCCCCC"/>
<path d="M53.5508 34.614C53.5508 36.1043 56.3745 37.3593 59.8257 37.3593C63.2769 37.3593 66.1006 36.1043 66.1006 34.614C66.1006 33.1237 63.2769 31.8687 59.8257 31.8687C56.3745 31.7903 53.5508 33.0453 53.5508 34.614Z" fill="url(#paint5_linear)"/>
<path d="M59.8254 32.1832C63.1197 32.1832 65.865 33.2813 66.1003 34.7716C66.1003 34.6932 66.1787 34.6147 66.1787 34.5363C66.1787 33.046 63.355 31.791 59.9038 31.791C56.4526 31.791 53.6289 33.046 53.6289 34.5363C53.6289 34.6147 53.6289 34.6932 53.7073 34.7716C53.8642 33.3597 56.531 32.1832 59.8254 32.1832Z" fill="#E50012"/>
<path d="M59.826 33.2036C62.7282 33.2036 65.1597 34.0664 65.8656 35.2429C65.9441 35.0861 66.0225 34.9292 66.0225 34.6939C65.7872 33.282 63.1203 32.1055 59.7476 32.1055C56.3748 32.1055 53.708 33.2036 53.4727 34.6939C53.4727 34.8507 53.5511 35.0076 53.6295 35.2429C54.4923 34.1448 56.9239 33.2036 59.826 33.2036Z" fill="#CCCCCC"/>
<path d="M71.2773 34.6156C71.2773 36.1059 74.0226 37.2825 77.3954 37.2825C80.7681 37.2825 83.5134 36.1059 83.5134 34.6156C83.5134 33.1253 80.7681 31.9488 77.3954 31.9488C74.0226 31.8704 71.2773 33.1253 71.2773 34.6156Z" fill="url(#paint6_linear)"/>
<path d="M77.3963 32.262C80.6122 32.262 83.2791 33.3601 83.436 34.772C83.436 34.6935 83.5144 34.6151 83.5144 34.6151C83.5144 33.1248 80.7691 31.9482 77.3963 31.9482C74.0236 31.9482 71.2783 33.1248 71.2783 34.6151C71.2783 34.6935 71.2783 34.772 71.3568 34.772C71.5136 33.3601 74.1805 32.262 77.3963 32.262Z" fill="#E50012"/>
<path d="M77.3954 33.2824C80.2191 33.2824 82.5722 34.1452 83.2781 35.2433C83.3565 35.0864 83.435 34.9295 83.435 34.7727C83.1997 33.3608 80.6113 32.2627 77.3954 32.2627C74.1795 32.2627 71.5127 33.3608 71.2773 34.7727C71.2773 34.9295 71.3558 35.0864 71.4342 35.2433C72.2186 34.1452 74.5717 33.2824 77.3954 33.2824Z" fill="#CCCCCC"/>
<path d="M53.9421 73.5978C53.3931 72.4213 52.4518 70.6957 51.9812 69.7544C51.5106 68.8132 51.4321 67.5582 51.9028 66.9307C52.2949 66.3817 53.3146 65.1267 54.1774 64.107L59.5895 57.5968C60.4523 56.5771 60.0602 55.479 58.8836 55.0868L52.5303 53.0475C51.2753 52.6553 50.2556 52.42 49.785 53.1259C49.0791 54.0672 48.6869 54.7731 47.9025 55.8712L47.1182 56.9693C46.3338 57.989 45.1572 59.7146 44.3729 60.8127L42.8826 62.852C42.0982 63.8717 41.9413 65.6757 42.5688 66.8523L50.6478 83.4024C51.2753 84.8142 51.9812 85.677 53.8637 86.3045L59.7464 88.4223C61.0014 88.8145 61.472 88.2654 60.9229 87.0889L53.9421 73.5978Z" fill="url(#paint7_linear)"/>
<path d="M42.0204 79.5586L41.2361 66.9304L40.687 51.1647C40.4517 49.5959 38.5692 48.4978 38.5692 48.4978C36.8436 47.9488 34.7259 47.1644 32.9218 46.6154C30.7256 46.2232 30.7256 48.0272 30.7256 48.0272C31.0393 54.3021 31.9021 70.46 32.1375 76.4212V76.5781C32.1375 76.8918 32.4512 78.3821 34.0199 79.1665C35.6671 79.7939 38.0986 80.4999 39.6674 81.1274C39.8242 81.1274 42.0204 81.5195 42.0204 79.5586Z" fill="url(#paint8_linear)"/>
<path d="M42.8046 63.6364L44.2949 61.5971C45.0793 60.5774 46.3343 58.8518 47.0402 57.7537L47.8246 56.6556C48.6089 55.6359 49.0011 54.8515 49.707 53.9103C50.1776 53.2044 51.1973 53.4397 52.4523 53.8319L58.8057 55.8712C59.4331 56.0281 59.8253 56.4203 59.9038 56.8909C60.1391 56.1065 59.7469 55.4006 58.8057 55.0868L52.4523 53.0475C51.1973 52.6553 50.1776 52.42 49.707 53.1259C49.0011 54.0672 48.6089 54.7731 47.8246 55.8712L47.0402 56.9693C46.2558 57.989 45.0793 59.7146 44.2949 60.8127L42.8046 62.852C42.2556 63.558 42.0203 64.5776 42.0987 65.5189C42.1771 64.8914 42.4125 64.1855 42.8046 63.6364Z" fill="#E50012"/>
<path d="M32.8437 77.3624V77.2055C32.6084 71.2444 31.7456 55.0865 31.4318 48.8116C31.4318 48.8116 31.3534 47.0075 33.628 47.3997C35.4321 47.9488 37.5499 48.7331 39.2755 49.2822C39.2755 49.2822 39.5892 49.4391 39.9029 49.7528C39.2755 48.9685 38.4911 48.4978 38.4911 48.4978C36.7655 47.9488 34.6477 47.1644 32.8437 46.6154C30.6475 46.2232 30.6475 48.0272 30.6475 48.0272C30.9612 54.3021 31.824 70.46 32.0593 76.4212V76.5781C32.0593 76.8918 32.2946 77.9899 33.3927 78.7743C33.0006 78.2252 32.8437 77.5977 32.8437 77.3624Z" fill="#E50012"/>
<path d="M90.024 71.8714C90.024 71.793 90.024 71.7145 89.9456 71.6361L86.8866 55.6351C86.8866 55.3998 86.8081 55.2429 86.8081 55.0076C86.7297 54.537 86.6513 53.9879 86.5728 53.5173C86.4944 52.8898 86.3375 52.2623 86.2591 51.7133C86.1807 51.1642 86.1022 50.6152 85.9454 50.0661C85.8669 49.6739 85.7885 49.2817 85.71 48.8896C85.71 48.7327 85.7101 48.5758 85.5532 48.4189C85.2394 48.0268 84.6119 47.8699 84.1413 47.9483C83.9844 47.9483 83.8276 48.0268 83.7491 48.0268C83.6707 48.0268 83.5138 48.1836 83.4354 48.1836C83.0432 48.4189 82.651 48.6542 82.2588 48.8111C82.102 48.8896 81.9451 48.968 81.7882 49.0464C80.3764 49.9092 79.9842 51.478 79.9842 51.478C79.8273 52.4192 79.592 53.5173 79.5136 53.9879L78.9645 56.9685L73.7093 84.1859L73.3171 85.9115V85.99C73.2387 86.3037 73.1602 87.1665 73.6308 87.3234C74.023 87.4018 74.2583 87.1665 74.5721 86.9312C74.8858 86.6959 75.1211 86.4606 75.4349 86.3037C75.6702 86.1468 76.1408 85.7546 77.0036 85.1272C77.788 84.4997 77.9448 83.5584 77.9448 83.5584C78.4939 80.1072 79.043 76.8129 79.592 73.9108L84.6904 70.1458C85.161 72.8126 85.5532 75.1657 85.8669 77.2835C85.8669 77.2835 85.9454 77.911 86.7297 77.5188C87.3572 77.0482 88.1416 76.4207 88.8475 75.8717C89.5534 75.3226 90.024 75.0089 90.3378 74.1461C90.4162 73.5186 90.1809 72.4989 90.024 71.8714ZM83.2785 64.3415L81.396 65.6749C81.0823 65.9102 80.847 65.7534 80.9254 65.3612L81.396 62.8512C81.4745 62.459 81.6314 61.7531 81.6314 61.3609L82.4941 56.4979C82.5726 56.1057 82.651 56.1057 82.7295 56.4979L83.7491 63.165C83.8276 63.5572 83.5923 64.1062 83.2785 64.3415Z" fill="url(#paint9_linear)"/>
<path d="M90.0232 71.8714C90.0232 71.793 90.0232 71.7145 89.9448 71.6361L86.8858 55.6351C86.8858 55.3998 86.8073 55.2429 86.8073 55.0076C86.7289 54.537 86.6505 53.9879 86.572 53.5173C86.4936 52.8898 86.3367 52.2623 86.2583 51.7133C86.1799 51.1642 86.1014 50.6152 85.9446 50.0661C85.8661 49.6739 85.7877 49.2817 85.7092 48.8896C85.7092 48.7327 85.7093 48.5758 85.5524 48.4189C85.2386 48.0268 84.6111 47.8699 84.1405 47.9483C83.9836 47.9483 83.8268 48.0268 83.7483 48.0268C83.6699 48.0268 83.513 48.1836 83.4346 48.1836C83.0424 48.4189 82.6502 48.6542 82.258 48.8111C82.1012 48.8896 81.9443 48.968 81.7874 49.0464C80.3756 49.9092 79.9834 51.478 79.9834 51.478C79.9834 51.5564 79.9834 51.5564 79.9834 51.6348C80.2187 51.0858 80.6893 50.223 81.6306 49.6739C81.7874 49.5955 81.9443 49.517 82.1012 49.4386C82.4933 49.2033 82.8855 48.968 83.2777 48.8111C83.3561 48.8111 83.513 48.7327 83.5915 48.6542C83.7483 48.5758 83.8268 48.5758 83.9837 48.5758C84.4543 48.4974 85.0818 48.6542 85.3955 49.0464C85.5524 49.2033 85.5524 49.3602 85.5524 49.517C85.6308 49.9092 85.7092 50.3014 85.7877 50.6936C85.8661 51.2426 85.9446 51.7917 86.1014 52.3408C86.1799 52.9682 86.3367 53.5957 86.4152 54.1448C86.4936 54.6154 86.5721 55.1645 86.6505 55.6351C86.6505 55.8704 86.7289 56.0273 86.7289 56.2626L89.7879 72.2636C89.7879 72.342 89.7879 72.4205 89.8664 72.4989C89.9448 73.048 90.1801 73.9892 90.1017 74.6167C90.1801 74.4598 90.2586 74.3814 90.2586 74.2245C90.4154 73.5186 90.1801 72.4989 90.0232 71.8714Z" fill="#C90018"/>
<defs>
<linearGradient id="paint0_linear" x1="5.42674" y1="22.7338" x2="101.168" y2="84.4408" gradientUnits="userSpaceOnUse">
<stop offset="0.2085" stop-color="#EFA26F"/>
<stop offset="0.4736" stop-color="#D2000E"/>
<stop offset="1" stop-color="#7D0000"/>
</linearGradient>
<linearGradient id="paint1_linear" x1="26.0666" y1="35.6088" x2="128.077" y2="35.6088" gradientUnits="userSpaceOnUse">
<stop stop-color="#EFA26F"/>
<stop offset="0.5586" stop-color="#D2000E"/>
<stop offset="1" stop-color="#7D0000"/>
</linearGradient>
<linearGradient id="paint2_linear" x1="25.6551" y1="46.9615" x2="86.4433" y2="104.22" gradientUnits="userSpaceOnUse">
<stop stop-color="#EFA26F"/>
<stop offset="0.5586" stop-color="#D2000E"/>
<stop offset="1" stop-color="#7D0000"/>
</linearGradient>
<linearGradient id="paint3_linear" x1="9.83195" y1="20.4878" x2="105.132" y2="79.315" gradientUnits="userSpaceOnUse">
<stop offset="0.4721" stop-color="#D2000E"/>
<stop offset="0.7683" stop-color="#7D0000"/>
</linearGradient>
<linearGradient id="paint4_linear" x1="42.3002" y1="32.4845" x2="42.3002" y2="37.1606" gradientUnits="userSpaceOnUse">
<stop stop-color="#9E9E9F"/>
<stop offset="0.0899497" stop-color="#B6B6B6"/>
<stop offset="0.2184" stop-color="#D0D0D1"/>
<stop offset="0.3592" stop-color="#E5E5E5"/>
<stop offset="0.5166" stop-color="#F4F4F4"/>
<stop offset="0.7042" stop-color="#FCFCFC"/>
<stop offset="1" stop-color="white"/>
</linearGradient>
<linearGradient id="paint5_linear" x1="59.8465" y1="32.4845" x2="59.8465" y2="37.1606" gradientUnits="userSpaceOnUse">
<stop stop-color="#9E9E9F"/>
<stop offset="0.0899497" stop-color="#B6B6B6"/>
<stop offset="0.2184" stop-color="#D0D0D1"/>
<stop offset="0.3592" stop-color="#E5E5E5"/>
<stop offset="0.5166" stop-color="#F4F4F4"/>
<stop offset="0.7042" stop-color="#FCFCFC"/>
<stop offset="1" stop-color="white"/>
</linearGradient>
<linearGradient id="paint6_linear" x1="77.3817" y1="32.5437" x2="77.3817" y2="37.0911" gradientUnits="userSpaceOnUse">
<stop stop-color="#9E9E9F"/>
<stop offset="0.0899497" stop-color="#B6B6B6"/>
<stop offset="0.2184" stop-color="#D0D0D1"/>
<stop offset="0.3592" stop-color="#E5E5E5"/>
<stop offset="0.5166" stop-color="#F4F4F4"/>
<stop offset="0.7042" stop-color="#FCFCFC"/>
<stop offset="1" stop-color="white"/>
</linearGradient>
<linearGradient id="paint7_linear" x1="43.8174" y1="62.3203" x2="48.2621" y2="65.327" gradientUnits="userSpaceOnUse">
<stop stop-color="#9E9E9F"/>
<stop offset="0.0899497" stop-color="#B6B6B6"/>
<stop offset="0.2184" stop-color="#D0D0D1"/>
<stop offset="0.3592" stop-color="#E5E5E5"/>
<stop offset="0.5166" stop-color="#F4F4F4"/>
<stop offset="0.7042" stop-color="#FCFCFC"/>
<stop offset="1" stop-color="white"/>
</linearGradient>
<linearGradient id="paint8_linear" x1="30.9113" y1="63.886" x2="38.0921" y2="63.886" gradientUnits="userSpaceOnUse">
<stop stop-color="#9E9E9F"/>
<stop offset="0.0899497" stop-color="#B6B6B6"/>
<stop offset="0.2184" stop-color="#D0D0D1"/>
<stop offset="0.3592" stop-color="#E5E5E5"/>
<stop offset="0.5166" stop-color="#F4F4F4"/>
<stop offset="0.7042" stop-color="#FCFCFC"/>
<stop offset="1" stop-color="white"/>
</linearGradient>
<linearGradient id="paint9_linear" x1="89.5537" y1="65.1995" x2="70.8428" y2="69.4939" gradientUnits="userSpaceOnUse">
<stop offset="0.0314322" stop-color="#9E9E9F"/>
<stop offset="0.0867085" stop-color="#B6B6B6"/>
<stop offset="0.1656" stop-color="#D0D0D1"/>
<stop offset="0.2522" stop-color="#E5E5E5"/>
<stop offset="0.3489" stop-color="#F4F4F4"/>
<stop offset="0.4642" stop-color="#FCFCFC"/>
<stop offset="0.646" stop-color="white"/>
</linearGradient>
</defs>
</svg>
