<svg xmlns="http://www.w3.org/2000/svg" width="100" height="57.5945" viewBox="0 0 26.4583 15.2385"><path d="M.6836 4.2187c.3798 0 .6836-.3068.6836-.6903S1.0634 2.838.6836 2.838C.3038 2.838 0 3.1449 0 3.5284s.3038.6903.6836.6903zm.4558 1.9943c0-.358.3038-.6647.6582-.6647h2.304c.3545 0 .6584.3068.6584.6647 0 .358-.3039.6648-.6583.6648h-2.304c-.3545 0-.6583-.3068-.6583-.6648zM3.2155.6648c0-.358.3038-.6648.6583-.6648h2.304c.3545 0 .6583.3068.6583.6648 0 .358-.3038.6647-.6583.6647h-2.304c-.3798 0-.6583-.3068-.6583-.6647zM15.546 15.213c-.1773 0-.3039-.1279-.2532-.2813L19.6222.358c.0506-.1535.2279-.2813.4304-.2813h6.4057L18.179 5.2159l6.7602.1278c.3798.0256.6836.3324.6583.6648 0 .0767-.0253.1534-.0507.2301l-2.2787 8.3352c-.0253.358-.405.6647-.8355.6647zm-2.7092-9.6647c.2785-.1023.5064-.358.5317-.6392.0253-.3836-.3038-.6904-.7342-.6904H4.1523c-.3798 0-.6836-.3068-.6583-.6903.0253-.3835.3545-.6903.7596-.6903h8.4818c.4305 0 .8103-.3069.8356-.6904.0253-.3835-.3039-.6903-.7343-.6903H9.4693c-.4304 0-.7596-.3068-.7343-.6904.0254-.3835.4052-.6903.8356-.6903h8.7857c.1772 0 .3038.1278.2531.2813l-4.2282 14.5737c-.0507.1534-.2279.2813-.4051.2813H8.0008c-.1772 0-.3038-.1279-.2532-.2813l1.114-3.8863h.2786c.4304 0 .8102-.3068.8355-.6904.0253-.3835-.3039-.6903-.709-.6903H7.773c-.3798 0-.6836-.3068-.6583-.6903.0254-.3835.3545-.6904.7596-.6904h3.1902c.2785-.1022.5064-.358.5317-.6392.0253-.3835-.3038-.6903-.7343-.6903h-4.127c-.3797 0-.6836-.3068-.6582-.6903.0253-.3836.3544-.6904.7595-.6904h6.0006z" fill="#651153" fill-rule="evenodd" stroke-width=".7464"/></svg>