<svg xmlns="http://www.w3.org/2000/svg" width="100" height="100" viewBox="0 0 26.4583 26.4583" id="svg8"><defs id="defs2"><linearGradient id="linearGradient-1" y2="-.015" x2="31.4456" y1="62.982" x1="31.4456" gradientTransform="matrix(.8524 0 0 .62942 17.2866 17.6833)" gradientUnits="userSpaceOnUse"><stop id="stop1177" offset="0%" stop-color="#725826"/><stop id="stop1179" offset="21.41%" stop-color="#D4C879"/><stop id="stop1181" offset="38.83%" stop-color="#CCB853"/><stop id="stop1183" offset="50.35%" stop-color="#684E21"/><stop id="stop1185" offset="69.2%" stop-color="#F6F09A"/><stop id="stop1187" offset="83.66%" stop-color="#AC9541"/><stop id="stop1189" offset="100%" stop-color="#684E21"/></linearGradient><linearGradient id="linearGradient-2" y2="31.4835" x2="63.2368" y1="31.4835" x1="-.3457" gradientTransform="matrix(.8524 0 0 .62942 17.2866 17.6833)" gradientUnits="userSpaceOnUse"><stop id="stop1192" offset="0%" stop-color="#89702B"/><stop id="stop1194" offset="20.03%" stop-color="#E6D54E"/><stop id="stop1196" offset="24.61%" stop-color="#D9CE7D"/><stop id="stop1198" offset="44.89%" stop-color="#725826"/><stop id="stop1200" offset="66.29%" stop-color="#F4EA59"/><stop id="stop1202" offset="70.59%" stop-color="#F7F09B"/><stop id="stop1204" offset="99.96%" stop-color="#684E21"/></linearGradient><linearGradient id="linearGradient-3" y2="33.5008" x2="36.3947" y1="8.8401" x1="36.3947" gradientTransform="matrix(.54423 0 0 .98582 17.2866 17.6833)" gradientUnits="userSpaceOnUse"><stop id="stop1207" offset="0%" stop-color="#725826"/><stop id="stop1209" offset="27.92%" stop-color="#ECE37F"/><stop id="stop1211" offset="59.72%" stop-color="#F6EF88"/><stop id="stop1213" offset="100%" stop-color="#684E21"/></linearGradient><linearGradient id="linearGradient-1-9" y2="91.9%" x2="23.1106%" y1="8.1562%" x1="76.9456%"><stop id="stop1342" offset="0%" stop-color="#31B7E6"/><stop id="stop1344" offset="100%" stop-color="#21E31B"/></linearGradient></defs><g id="layer1" transform="translate(0 -270.5417)"><g id="g1565" transform="matrix(.53023 0 0 .42565 -7.7943 266.34)" stroke-width=".5569"><path id="path1559" d="M14.8 9.9h21.7c8.8-.4 17.9 3.4 23.3 10.5 3.4 4.4 4.6 10.1 4.8 15.6-4.1.1-8.2 0-12.4 0-.1-4.9-2.3-10.2-6.9-12.4-5.7-2.6-12.1-1.3-18.1-1.5-.1 4.6 0 9.3-.1 13.9H14.8V9.9z" class="st0" fill="#fffc00"/><path id="path1561" d="M14.8 39.1C18.9 39 23 39 27 39v32.4H14.7c.1-10.8.1-21.5.1-32.3z" class="st0" fill="#fffc00"/><path id="path1563" d="M52.1 39.5h12.4c.1 10.8 0 21.5 0 32.3-4.1.4-8.3.2-12.5 0 0-10.8-.1-21.6.1-32.3z" class="st0" fill="#fffc00"/></g></g><style id="style1088">.st0{fill:#011e4c}</style><style id="style1553">.st0{fill:#fffc00}</style></svg>