<svg width="80" height="80" viewBox="0 0 80 80" fill="none" xmlns="http://www.w3.org/2000/svg">
<rect width="80" height="80" fill="#D3D3D3"/>
<path d="M30.86 7.80067C34.9691 9.64349 38.0988 13.0033 39.9997 17.0317C42.1669 12.3958 46.0167 8.70681 50.9312 7.09138C56.1769 5.32322 62.1699 5.7712 67.1971 8.02806C71.7806 10.0745 75.5655 13.7364 77.7395 18.2433C81.6336 26.2492 80.4289 36.4068 74.6474 43.2147C72.2209 46.0451 68.552 48.397 64.7501 48.6312C65.7637 47.8099 66.7841 47.0836 67.6442 46.0858C69.8387 43.5948 71.1322 40.2791 71.4837 37.0041C71.8045 33.9938 71.3472 30.8003 69.7363 28.1905C67.9309 25.2684 64.634 23.3917 61.245 22.981C59.4259 22.7197 57.6785 23.0319 55.9209 23.4833C57.3031 24.291 58.6137 25.1191 59.6205 26.3918C61.8662 29.1068 62.46 32.9757 61.1597 36.2405C60.3884 38.2564 58.9515 39.8277 57.1939 41.0563C58.4055 43.6695 59.6683 46.2589 60.8457 48.8891C57.8116 49.259 55.2656 48.6583 52.6377 47.1718C52.4807 48.4241 52.1633 49.2862 51.5046 50.3552C52.1121 52.2557 52.9619 53.2942 54.5762 54.4481C53.3237 54.6687 52.1428 54.7264 50.8732 54.6925C51.5558 56.1755 52.409 57.2751 53.5967 58.3883C52.5455 58.5138 51.5183 58.5749 50.4637 58.5681C50.4739 58.8329 50.4807 59.0976 50.491 59.3623C51.9346 60.041 53.3851 60.713 54.8322 61.3884C55.7707 59.3759 56.7059 57.3634 57.6478 55.3508C59.9549 56.4063 62.2621 57.4584 64.5692 58.5172C63.6545 60.4856 62.7467 62.454 61.8389 64.4258C61.5215 65.0367 61.2553 65.6679 60.5522 65.9191C59.5795 66.2652 58.7468 65.8817 57.8594 65.5016C55.3646 64.3443 52.8698 63.1735 50.3613 62.04C50.5865 63.9133 51.0712 65.3862 51.9858 67.0424C51.0848 66.9609 50.0507 66.9575 49.2043 66.6148C48.4262 66.2992 47.8323 65.6815 47.2248 65.1283C47.2146 67.358 47.4399 69.4655 48.1395 71.5934C45.6105 71.0606 43.7539 70.2767 41.6584 68.7766C42.3546 69.995 42.9553 71.1489 44.0645 72.0618C44.7027 72.6048 45.4194 72.9408 46.1566 73.3209C42.7198 73.4668 39.4981 73.3073 36.5391 71.3695C34.0238 69.7574 32.6245 67.2189 31.9419 64.3783C31.4402 65.5966 31.1126 66.7403 30.8737 68.0402C28.4198 65.505 28.041 61.816 29.215 58.5919C28.273 58.5546 27.3345 58.4969 26.396 58.3815C27.6041 57.2615 28.4266 56.1925 29.1194 54.6992C27.8601 54.723 26.6758 54.6653 25.4301 54.4515C27.0717 53.2603 27.8567 52.2795 28.5017 50.345C27.826 49.2692 27.512 48.4275 27.3584 47.1549C24.7032 48.6855 22.2186 49.2488 19.1436 48.8891C20.3347 46.2657 21.5872 43.6729 22.8022 41.0597C21.5974 40.1671 20.4882 39.2067 19.693 37.9204C17.8262 35.0221 17.6555 31.1974 19.2357 28.1396C20.2869 26.0252 22.0411 24.6032 24.0786 23.4833C22.2595 23.0116 20.4507 22.7061 18.5668 23.0048C14.3655 23.5783 10.5874 26.3171 9.21203 30.3828C7.02437 36.8208 9.468 44.8369 15.2631 48.6244C11.6488 48.4275 8.13015 46.2589 5.73771 43.6491C-1.38159 35.7484 -1.98226 23.0048 4.53296 14.5611C10.4509 6.70788 21.8636 3.77226 30.86 7.80067Z" fill="black"/>
<path d="M48.2658 23.3269C46.986 23.992 45.7642 24.6538 44.7608 25.7093C43.5867 26.8734 42.8393 28.3089 42.2932 29.8531C40.6721 29.5375 39.3343 29.5273 37.7166 29.8463C37.1841 28.4209 36.5323 27.0804 35.4777 25.9604C34.4299 24.7828 33.116 24.0328 31.7235 23.3269C32.9453 22.0644 34.29 20.9818 35.9692 20.3743C40.2626 18.7453 45.2317 19.8618 48.2658 23.3269Z" fill="white"/>
<path d="M25.9045 26.3482C28.1331 25.5677 30.6928 26.0428 32.4709 27.587C34.5425 29.3348 35.3412 32.2568 34.4367 34.8089C33.4914 37.5647 30.7064 39.4516 27.7782 39.2751C24.6486 39.1496 21.9353 36.7026 21.495 33.6211C20.9934 30.4988 22.9114 27.3732 25.9045 26.3482Z" fill="white"/>
<path d="M49.7811 26.3132C52.4261 25.4241 55.426 26.3302 57.1393 28.5124C58.8082 30.5826 59.0437 33.5793 57.7195 35.8837C56.4089 38.2322 53.6923 39.5965 51.0132 39.2265C47.9757 38.8566 45.4945 36.3079 45.2249 33.2773C44.8938 30.2229 46.8528 27.2601 49.7811 26.3132Z" fill="white"/>
<path d="M31.877 28.8581C33.191 30.2122 33.3241 31.8548 33.2695 33.6569C32.6722 32.6082 32.2149 31.6104 31.2218 30.8638C29.4334 29.4825 26.8225 29.4757 25.0274 30.8502C24.0171 31.5867 23.5598 32.5946 22.9899 33.6603C22.8772 31.8582 23.0445 30.1918 24.3653 28.8411C26.3516 26.703 29.901 26.7098 31.877 28.8581Z" fill="black"/>
<path d="M55.7093 28.9226C56.9755 30.2733 57.1052 31.8786 57.0096 33.6468C56.4021 32.5472 55.9448 31.5155 54.8697 30.7722C53.1087 29.4962 50.6104 29.5063 48.863 30.8028C47.8084 31.5358 47.3511 32.5573 46.8016 33.6637C46.6071 31.8379 46.8392 30.1308 48.1907 28.7835C50.2043 26.6725 53.7742 26.7404 55.7093 28.9226Z" fill="black"/>
<path d="M38.1705 32.6568C39.4162 32.2564 40.6141 32.4159 41.8666 32.6501C42.0339 34.8933 42.6345 37.0144 44.0816 38.7792C45.3034 40.3777 46.9553 41.294 48.7368 42.1492C46.7129 41.7963 45.0201 41.2261 43.184 40.3234C45.0816 42.6617 47.0781 43.9343 50.0166 44.664C50.0166 45.3971 50.0337 46.1301 50.0132 46.8632C50.1497 48.7501 47.7539 50.0465 47.9109 51.9131C47.9177 53.9901 47.9348 56.0671 47.9245 58.1441C45.7198 57.1259 43.5185 56.101 41.3137 55.0829C41.3137 53.3283 41.3103 51.5737 41.3137 49.8192C42.4195 48.7535 43.5628 47.7184 44.655 46.6392C45.1669 46.0928 45.7061 45.6346 45.6447 44.8133C45.2556 43.9785 44.2761 44.0701 43.498 44.0192C41.1021 44.0192 38.7063 44.0158 36.3104 44.0192C35.6381 44.0599 34.8429 44.0192 34.3617 44.5758C34.017 45.3563 34.5357 45.8756 35.0169 46.422C36.2046 47.6234 37.4708 48.7535 38.6892 49.9277C38.6858 51.6484 38.6926 53.3656 38.6824 55.0863C36.4777 56.101 34.2798 57.1226 32.0784 58.1441C32.0375 55.7549 32.1501 53.3453 32.0375 50.9662C31.6006 49.8158 30.4334 48.9028 30.0683 47.715C29.9147 46.7206 29.9966 45.6821 29.9795 44.6776C32.8361 43.9208 34.6825 42.6617 36.4674 40.3369C34.7985 41.1209 33.1945 41.7012 31.389 42.0949C33.6347 41.0564 35.5903 39.6819 36.7985 37.4726C37.7131 35.9692 37.8974 34.3503 38.1705 32.6568Z" fill="white"/>
<path d="M36.2148 45.0276C37.1534 44.8206 38.0953 44.8138 39.051 44.8206C40.6584 44.8409 42.1772 44.7154 43.771 45.031C42.7505 46.0966 41.4673 46.1408 40.0714 46.1917C38.6482 46.1781 37.3001 46.0389 36.2148 45.0276Z" fill="white"/>
<path d="M39.9964 57.2676C42.556 58.3807 45.0713 59.6093 47.6105 60.7699C45.4433 62.7417 42.6857 63.8277 39.737 63.7395C36.9657 63.7056 34.4265 62.6026 32.3822 60.7767C34.918 59.6093 37.4367 58.3841 39.9964 57.2676Z" fill="white"/>
</svg>
