<?xml version="1.0" encoding="UTF-8"?>
<svg xmlns="http://www.w3.org/2000/svg" xmlns:xlink="http://www.w3.org/1999/xlink" width="80px" height="80px" viewBox="0 0 80 80" version="1.1">
    
    <title>pgsoft_logo_white </title>
    <desc>Created with Sketch.</desc>
    <g id="pgsoft_logo_white-" stroke="none" stroke-width="1" fill="none" fill-rule="evenodd">
        <g id="Group" transform="translate(6.000000, 25.000000)" fill="#FFFFFF">
            <g>
                <g id="Rectangle">
                    <rect x="25.0686567" y="0.151219512" width="2.71492537" height="2.69674797"/>
                    <rect x="0" y="3.27642276" width="2.71492537" height="2.69674797"/>
                    <rect x="3.12089552" y="28.1772358" width="2.71492537" height="2.69674797"/>
                    <rect x="18.8014925" y="21.9520325" width="2.71492537" height="2.69674797"/>
                </g>
                <path d="M8.98208955,0.151219512 L6.26716418,0.151219512 L6.26716418,2.84796748 L8.98208955,2.84796748 L8.98208955,0.151219512 Z M5.8358209,0.151219512 L3.12089552,0.151219512 L3.12089552,2.84796748 L5.8358209,2.84796748 L5.8358209,0.151219512 Z M9.3880597,2.84796748 L12.1029851,2.84796748 L12.1029851,0.151219512 L9.3880597,0.151219512 L9.3880597,2.84796748 Z M15.2492537,0.151219512 L12.5343284,0.151219512 L12.5343284,2.84796748 L15.2492537,2.84796748 C15.2492537,2.84796748 15.2492537,0.151219512 15.2492537,0.151219512 Z M18.3701493,0.151219512 L15.6552239,0.151219512 L15.6552239,2.84796748 L18.3701493,2.84796748 L18.3701493,0.151219512 Z M24.6373134,0.151219512 L21.9223881,0.151219512 L21.9223881,2.84796748 L24.6373134,2.84796748 L24.6373134,0.151219512 L24.6373134,0.151219512 Z M3.12089552,5.97317073 L5.8358209,5.97317073 L5.8358209,3.27642276 L3.12089552,3.27642276 L3.12089552,5.97317073 Z M0,9.07317073 L2.71492537,9.07317073 L2.71492537,6.37642276 L0,6.37642276 L0,9.07317073 Z M3.12089552,9.07317073 L5.8358209,9.07317073 L5.8358209,6.37642276 L3.12089552,6.37642276 L3.12089552,9.07317073 Z M0,12.198374 L2.71492537,12.198374 L2.71492537,9.50162602 L0,9.50162602 L0,12.198374 Z M3.12089552,12.198374 L5.8358209,12.198374 L5.8358209,9.50162602 L3.12089552,9.50162602 L3.12089552,12.198374 Z M0,15.298374 L2.71492537,15.298374 L2.71492537,12.601626 L0,12.601626 L0,15.298374 Z M3.12089552,15.298374 L5.8358209,15.298374 L5.8358209,12.601626 L3.12089552,12.601626 L3.12089552,15.298374 Z M0,18.4235772 L2.71492537,18.4235772 L2.71492537,15.7268293 L0,15.7268293 L0,18.4235772 Z M3.12089552,18.4235772 L5.8358209,18.4235772 L5.8358209,15.7268293 L3.12089552,15.7268293 L3.12089552,18.4235772 Z M0,21.5235772 L2.71492537,21.5235772 L2.71492537,18.8268293 L0,18.8268293 L0,21.5235772 Z M3.12089552,21.5235772 L5.8358209,21.5235772 L5.8358209,18.8268293 L3.12089552,18.8268293 L3.12089552,21.5235772 Z M0,24.6487805 L2.71492537,24.6487805 L2.71492537,21.9520325 L0,21.9520325 L0,24.6487805 Z M3.12089552,24.6487805 L5.8358209,24.6487805 L5.8358209,21.9520325 L3.12089552,21.9520325 L3.12089552,24.6487805 Z M6.26716418,21.5235772 L8.98208955,21.5235772 L8.98208955,18.8268293 L6.26716418,18.8268293 L6.26716418,21.5235772 Z M6.26716418,24.6487805 L8.98208955,24.6487805 L8.98208955,21.9520325 L6.26716418,21.9520325 L6.26716418,24.6487805 Z M9.3880597,21.5235772 L12.1029851,21.5235772 L12.1029851,18.8268293 L9.3880597,18.8268293 L9.3880597,21.5235772 Z M9.3880597,24.6487805 L12.1029851,24.6487805 L12.1029851,21.9520325 L9.3880597,21.9520325 L9.3880597,24.6487805 Z M12.5343284,21.5235772 L15.2492537,21.5235772 L15.2492537,18.8268293 L12.5343284,18.8268293 L12.5343284,21.5235772 Z M12.5343284,24.6487805 L15.2492537,24.6487805 L15.2492537,21.9520325 L12.5343284,21.9520325 L12.5343284,24.6487805 Z M15.6552239,21.5235772 L18.3701493,21.5235772 L18.3701493,18.8268293 L15.6552239,18.8268293 L15.6552239,21.5235772 Z M15.6552239,24.6487805 L18.3701493,24.6487805 L18.3701493,21.9520325 L15.6552239,21.9520325 L15.6552239,24.6487805 Z M21.9223881,21.5235772 L24.6373134,21.5235772 L24.6373134,18.8268293 L21.9223881,18.8268293 L21.9223881,21.5235772 Z M0,27.7487805 L2.71492537,27.7487805 L2.71492537,25.0520325 L0,25.0520325 L0,27.7487805 Z M0,30.8739837 L2.71492537,30.8739837 L2.71492537,28.1772358 L0,28.1772358 L0,30.8739837 Z M3.12089552,27.7487805 L5.8358209,27.7487805 L5.8358209,25.0520325 L3.12089552,25.0520325 L3.12089552,27.7487805 Z M6.26716418,5.97317073 L8.98208955,5.97317073 L8.98208955,3.27642276 L6.26716418,3.27642276 L6.26716418,5.97317073 Z M9.3880597,5.97317073 L12.1029851,5.97317073 L12.1029851,3.27642276 L9.3880597,3.27642276 L9.3880597,5.97317073 Z M12.5343284,5.97317073 L15.2492537,5.97317073 L15.2492537,3.27642276 L12.5343284,3.27642276 L12.5343284,5.97317073 Z M15.6552239,5.97317073 L18.3701493,5.97317073 L18.3701493,3.27642276 L15.6552239,3.27642276 L15.6552239,5.97317073 Z M18.8014925,2.84796748 L21.5164179,2.84796748 L21.5164179,0.151219512 L18.8014925,0.151219512 L18.8014925,2.84796748 Z M18.8014925,21.5235772 L21.5164179,21.5235772 L21.5164179,18.8268293 L18.8014925,18.8268293 L18.8014925,21.5235772 Z M18.8014925,5.97317073 L21.5164179,5.97317073 L21.5164179,3.27642276 L18.8014925,3.27642276 L18.8014925,5.97317073 Z M21.9223881,5.97317073 L24.6373134,5.97317073 L24.6373134,3.27642276 L21.9223881,3.27642276 L21.9223881,5.97317073 Z M25.0686567,5.97317073 L27.7835821,5.97317073 L27.7835821,3.27642276 L25.0686567,3.27642276 L25.0686567,5.97317073 Z M21.9223881,9.07317073 L24.6373134,9.07317073 L24.6373134,6.37642276 L21.9223881,6.37642276 L21.9223881,9.07317073 Z M25.0686567,9.07317073 L27.7835821,9.07317073 L27.7835821,6.37642276 L25.0686567,6.37642276 L25.0686567,9.07317073 Z M28.1895522,6.37642276 L28.1895522,9.07317073 L30.9044776,9.07317073 L30.9044776,6.37642276 L28.1895522,6.37642276 Z M25.0686567,12.198374 L27.7835821,12.198374 L27.7835821,9.50162602 L25.0686567,9.50162602 L25.0686567,12.198374 Z M28.1895522,12.198374 L30.9044776,12.198374 L30.9044776,9.50162602 L28.1895522,9.50162602 L28.1895522,12.198374 Z M25.0686567,15.298374 L27.7835821,15.298374 L27.7835821,12.601626 L25.0686567,12.601626 L25.0686567,15.298374 Z M28.1895522,15.298374 L30.9044776,15.298374 L30.9044776,12.601626 L28.1895522,12.601626 L28.1895522,15.298374 Z M25.0686567,18.4235772 L27.7835821,18.4235772 L27.7835821,15.7268293 L25.0686567,15.7268293 L25.0686567,18.4235772 Z M25.0686567,21.5235772 L27.7835821,21.5235772 L27.7835821,18.8268293 L25.0686567,18.8268293 L25.0686567,21.5235772 Z M21.9223881,18.4235772 L24.6373134,18.4235772 L24.6373134,15.7268293 L21.9223881,15.7268293 L21.9223881,18.4235772 Z M28.1895522,18.4235772 L30.9044776,18.4235772 L30.9044776,15.7268293 L28.1895522,15.7268293 L28.1895522,18.4235772 Z" id="Shape"/>
            </g>
            <g transform="translate(37.044776, 0.000000)">
                <path d="M0.0507462687,12.198374 L2.76567164,12.198374 L2.76567164,9.50162602 L0.0507462687,9.50162602 L0.0507462687,12.198374 Z M0.0507462687,15.298374 L2.76567164,15.298374 L2.76567164,12.601626 L0.0507462687,12.601626 L0.0507462687,15.298374 Z M0.0507462687,18.4235772 L2.76567164,18.4235772 L2.76567164,15.7268293 L0.0507462687,15.7268293 L0.0507462687,18.4235772 Z M0.0507462687,21.5235772 L2.76567164,21.5235772 L2.76567164,18.8268293 L0.0507462687,18.8268293 L0.0507462687,21.5235772 Z M0.0507462687,24.6487805 L2.76567164,24.6487805 L2.76567164,21.9520325 L0.0507462687,21.9520325 L0.0507462687,24.6487805 Z M3.17164179,9.07317073 L5.88656716,9.07317073 L5.88656716,6.37642276 L3.17164179,6.37642276 L3.17164179,9.07317073 Z M3.17164179,5.97317073 L5.88656716,5.97317073 L5.88656716,3.27642276 L3.17164179,3.27642276 L3.17164179,5.97317073 Z M6.31791045,9.07317073 L9.03283582,9.07317073 L9.03283582,6.37642276 L6.31791045,6.37642276 L6.31791045,9.07317073 Z M6.31791045,5.97317073 L9.03283582,5.97317073 L9.03283582,3.27642276 L6.31791045,3.27642276 L6.31791045,5.97317073 Z M12.1537313,3.27642276 L9.43880597,3.27642276 L9.43880597,5.97317073 L12.1537313,5.97317073 L12.1537313,3.27642276 Z M9.43880597,2.84796748 L12.1537313,2.84796748 L12.1537313,0.151219512 L9.43880597,0.151219512 L9.43880597,2.84796748 Z M12.5850746,5.97317073 L15.3,5.97317073 L15.3,3.27642276 L12.5850746,3.27642276 L12.5850746,5.97317073 Z M12.5850746,2.84796748 L15.3,2.84796748 L15.3,0.151219512 L12.5850746,0.151219512 L12.5850746,2.84796748 Z M15.7059701,5.97317073 L18.4208955,5.97317073 L18.4208955,3.27642276 L15.7059701,3.27642276 L15.7059701,5.97317073 Z M18.4208955,0.151219512 L15.7059701,0.151219512 L15.7059701,2.84796748 L18.4208955,2.84796748 L18.4208955,0.151219512 Z M21.5671642,3.27642276 L18.8522388,3.27642276 L18.8522388,5.97317073 L21.5671642,5.97317073 L21.5671642,3.27642276 Z M18.8522388,2.84796748 L21.5671642,2.84796748 L21.5671642,0.151219512 L18.8522388,0.151219512 L18.8522388,2.84796748 Z M3.17164179,12.198374 L5.88656716,12.198374 L5.88656716,9.50162602 L3.17164179,9.50162602 L3.17164179,12.198374 Z M3.17164179,15.298374 L5.88656716,15.298374 L5.88656716,12.601626 L3.17164179,12.601626 L3.17164179,15.298374 Z M3.17164179,18.4235772 L5.88656716,18.4235772 L5.88656716,15.7268293 L3.17164179,15.7268293 L3.17164179,18.4235772 Z M15.7059701,15.298374 L18.4208955,15.298374 L18.4208955,12.601626 L15.7059701,12.601626 L15.7059701,15.298374 Z M15.7059701,18.4235772 L18.4208955,18.4235772 L18.4208955,15.7268293 L15.7059701,15.7268293 L15.7059701,18.4235772 Z M21.5671642,12.601626 L18.8522388,12.601626 L18.8522388,15.298374 L21.5671642,15.298374 L21.5671642,12.601626 Z M21.5671642,15.7268293 L18.8522388,15.7268293 L18.8522388,18.4235772 L21.5671642,18.4235772 L21.5671642,15.7268293 Z M21.9731343,15.298374 L24.6880597,15.298374 L24.6880597,12.601626 L21.9731343,12.601626 L21.9731343,15.298374 Z M21.9731343,18.4235772 L24.6880597,18.4235772 L24.6880597,15.7268293 L21.9731343,15.7268293 L21.9731343,18.4235772 Z M21.9731343,24.6487805 L24.6880597,24.6487805 L24.6880597,21.9520325 L21.9731343,21.9520325 L21.9731343,24.6487805 Z M25.119403,15.298374 L27.8343284,15.298374 L27.8343284,12.601626 L25.119403,12.601626 L25.119403,15.298374 Z M25.119403,18.4235772 L27.8343284,18.4235772 L27.8343284,15.7268293 L25.119403,15.7268293 L25.119403,18.4235772 Z M21.9731343,5.97317073 L24.6880597,5.97317073 L24.6880597,3.27642276 L21.9731343,3.27642276 L21.9731343,5.97317073 Z M21.9731343,9.07317073 L24.6880597,9.07317073 L24.6880597,6.37642276 L21.9731343,6.37642276 L21.9731343,9.07317073 Z M25.119403,5.97317073 L27.8343284,5.97317073 L27.8343284,3.27642276 L25.119403,3.27642276 L25.119403,5.97317073 Z M25.119403,9.07317073 L27.8343284,9.07317073 L27.8343284,6.37642276 L25.119403,6.37642276 L25.119403,9.07317073 Z M3.17164179,21.5235772 L5.88656716,21.5235772 L5.88656716,18.8268293 L3.17164179,18.8268293 L3.17164179,21.5235772 Z M3.17164179,24.6487805 L5.88656716,24.6487805 L5.88656716,21.9520325 L3.17164179,21.9520325 L3.17164179,24.6487805 Z M6.31791045,24.6487805 L9.03283582,24.6487805 L9.03283582,21.9520325 L6.31791045,21.9520325 L6.31791045,24.6487805 Z M6.31791045,27.7487805 L9.03283582,27.7487805 L9.03283582,25.0520325 L6.31791045,25.0520325 L6.31791045,27.7487805 Z M6.31791045,30.8739837 L9.03283582,30.8739837 L9.03283582,28.1772358 L6.31791045,28.1772358 L6.31791045,30.8739837 Z M12.1537313,25.0520325 L9.43880597,25.0520325 L9.43880597,27.7487805 L12.1537313,27.7487805 L12.1537313,25.0520325 Z M9.43880597,30.8739837 L12.1537313,30.8739837 L12.1537313,28.1772358 L9.43880597,28.1772358 L9.43880597,30.8739837 Z M12.5850746,27.7487805 L15.3,27.7487805 L15.3,25.0520325 L12.5850746,25.0520325 L12.5850746,27.7487805 Z M12.5850746,30.8739837 L15.3,30.8739837 L15.3,28.1772358 L12.5850746,28.1772358 L12.5850746,30.8739837 Z M15.7059701,27.7487805 L18.4208955,27.7487805 L18.4208955,25.0520325 L15.7059701,25.0520325 L15.7059701,27.7487805 Z M15.7059701,30.8739837 L18.4208955,30.8739837 L18.4208955,28.1772358 L15.7059701,28.1772358 L15.7059701,30.8739837 Z M21.5671642,25.0520325 L18.8522388,25.0520325 L18.8522388,27.7487805 L21.5671642,27.7487805 L21.5671642,25.0520325 Z M18.8522388,30.8739837 L21.5671642,30.8739837 L21.5671642,28.1772358 L18.8522388,28.1772358 L18.8522388,30.8739837 Z M21.9731343,27.7487805 L24.6880597,27.7487805 L24.6880597,25.0520325 L21.9731343,25.0520325 L21.9731343,27.7487805 Z M25.119403,27.7487805 L27.8343284,27.7487805 L27.8343284,25.0520325 L25.119403,25.0520325 L25.119403,27.7487805 Z M25.119403,21.5235772 L27.8343284,21.5235772 L27.8343284,18.8268293 L25.119403,18.8268293 L25.119403,21.5235772 Z M25.119403,24.6487805 L27.8343284,24.6487805 L27.8343284,21.9520325 L25.119403,21.9520325 L25.119403,24.6487805 Z M28.2402985,15.7268293 L28.2402985,18.4235772 L30.9552239,18.4235772 L30.9552239,15.7268293 L28.2402985,15.7268293 Z M28.2402985,21.5235772 L30.9552239,21.5235772 L30.9552239,18.8268293 L28.2402985,18.8268293 L28.2402985,21.5235772 Z" id="Shape"/>
                <g id="Rectangle">
                    <rect x="0.0507462687" y="6.37642276" width="2.71492537" height="2.69674797"/>
                    <rect x="6.31791045" y="0.151219512" width="2.71492537" height="2.69674797"/>
                    <rect x="3.17164179" y="25.0520325" width="2.71492537" height="2.69674797"/>
                    <rect x="21.9731343" y="28.1772358" width="2.71492537" height="2.69674797"/>
                    <rect x="28.2402985" y="12.601626" width="2.71492537" height="2.69674797"/>
                    <rect x="28.2402985" y="21.9520325" width="2.71492537" height="2.69674797"/>
                </g>
            </g>
        </g>
    </g>
</svg>
