<svg xmlns="http://www.w3.org/2000/svg" width="100" height="100" viewBox="0 0 26.458 26.458"><g fill="none" fill-rule="evenodd" stroke-width=".692"><path d="M.605 0l6.219 6.486a17.932 17.932 0 0 1 12.852 0C21.749 4.4 23.822 2.169 25.895 0v14.494a3.767 3.767 0 0 1-.83 2.086c-1.368 2.085-3.068 3.795-4.643 5.651a14.566 14.566 0 0 1-2.86 3.129 7.448 7.448 0 0 1-4.354 1.084 7.55 7.55 0 0 1-4.249-1.043 14.357 14.357 0 0 1-2.943-3.211c-1.43-1.731-3.006-3.358-4.312-5.193a4.686 4.686 0 0 1-1.14-2.649V.021z" fill="#fad307"/><path d="M4.544 13.86c2.218 1.647 4.374 3.4 6.53 5.13l-3.276-.876c-.394-.125-.912-.167-1.098-.605-.705-1.23-1.493-2.419-2.073-3.67zM15.903 18.99c2.073-1.73 4.312-3.462 6.53-5.11-.58 1.169-1.327 2.232-1.97 3.358-.186.271-.31.647-.684.71-1.285.375-2.59.709-3.876 1.042z" fill="#000"/></g></svg>