<?xml version="1.0" encoding="UTF-8"?>
<svg width="80px" height="80px" viewBox="0 0 80 80" version="1.1" xmlns="http://www.w3.org/2000/svg" xmlns:xlink="http://www.w3.org/1999/xlink">
    <!-- Generator: Sketch 53.2 (72643) - https://sketchapp.com -->
    <title>Red Tiger color</title>
    <desc>Created with Sketch.</desc>
    <g id="Red-Tiger-color" stroke="none" stroke-width="1" fill="none" fill-rule="evenodd">
        <path d="M50.9962237,28.787136 C51.0706258,29.9434887 51.7364046,31.2798465 53.2268468,30.5425456 C55.4181088,29.458675 54.6145661,27.5779818 54.611206,26.985165 C54.1105518,27.0619672 53.2527675,27.0682073 52.8039548,27.2626128 C52.1900174,27.5280603 51.4627969,28.1055167 50.9962237,28.787136 M25.1254117,27.8112684 C25.1609327,28.8696983 25.0769303,30.0510117 26.7368173,30.5929471 C27.7198851,30.9135961 28.9271192,29.5820385 28.9938411,28.6440919 C28.3381426,27.8112684 27.6747638,27.4541382 27.0598664,27.2232517 C25.5137426,26.6424353 25.1479723,26.5315521 25.1254117,27.8112684 M34.398794,38.4075682 C34.398794,38.4075682 33.2731622,39.073827 33.2731622,39.9997732 C33.2731622,41.2862096 33.6086917,41.5305365 33.8616589,41.7662232 C34.3935139,42.2611172 36.7230198,42.3820806 37.1127908,42.3892808 C40.4589655,42.4492825 41.8154839,42.396481 45.1582985,42.2726375 C45.8730387,42.2462368 46.3597725,42.0163103 46.8546665,41.442214 C47.1537149,41.0956442 47.226197,40.4111449 46.8450662,39.6829643 C46.6463406,39.3032735 46.4312945,38.7094967 46.023763,38.4094882 C45.7962365,38.8006993 46.1072853,40.0333742 44.2376324,40.7173935 C43.4408099,41.0082818 41.2797887,41.1873268 40.3989638,41.1839667 C36.3106881,41.1681263 34.3546328,40.6093905 34.398794,38.4075682 M31.3900689,36.0766222 C29.5266562,36.0612618 29.0437625,37.2065742 28.6266307,38.3734872 C28.071735,39.9258511 29.8679458,41.5214163 27.0598664,42.3566399 C28.176858,43.2945865 29.5612172,45.6432929 31.3363074,47.1342151 C28.2752608,47.7903937 27.0262654,45.3692052 24.9694072,44.269494 C25.5780645,47.8244746 28.8733577,48.2795275 30.8212528,50.0805385 C30.7353304,50.2341428 30.7449307,50.2178223 30.6590082,50.3709467 C28.7984756,49.9067735 26.9792241,49.4531607 24.6905194,48.8824246 C26.3336058,52.009713 29.5876179,50.4669494 31.5892746,52.1172361 C29.6697002,53.3489509 27.9003702,52.6759719 26.1425604,52.4858865 C25.7700699,52.4460454 25.3644584,52.7239733 24.9737274,52.855497 C25.2156542,53.2183872 25.3798189,53.7027209 25.7158284,53.9201671 C26.5486519,54.4577823 27.4184365,55.0198782 28.354463,55.293966 C29.1608858,55.5301327 30.1487538,55.6074148 30.935016,55.3626079 C33.4464471,54.5811458 35.9146769,53.6508795 38.3661063,52.6918123 C38.7885183,52.5266877 39.2517314,51.9799522 39.3371738,51.5397797 C39.4907781,50.7477573 39.3069329,49.8971733 39.3827751,49.0816302 C39.4941382,47.871516 38.9334824,47.1567757 37.8481716,46.847167 C35.4668243,46.1679478 33.5395697,44.83399 32.0918488,42.9052954 C31.5158325,42.1377537 30.9830174,40.7399542 30.9642969,39.780407 C30.9412562,38.5846932 31.2292644,37.3745789 31.3900689,36.0766222 M54.2012744,42.6816091 C51.8348074,41.9971097 51.7810459,40.4413857 51.6706428,38.8890218 C51.642322,38.4915706 51.537199,37.9995566 51.2779916,37.7389093 C50.6578141,37.1158516 49.9253134,36.6041571 49.2379339,36.0473414 C49.1616118,36.7966426 49.0132876,37.5473838 49.028648,38.295245 C49.0459285,39.1117481 49.2940955,39.9268112 49.2854553,40.7404342 C49.2806551,41.1882869 49.0252879,41.8435054 48.7420799,42.1905552 C47.0663525,44.2450133 45.1534984,45.9874626 42.5695852,46.9033286 C42.0041292,47.1034942 41.2793087,47.7591928 41.2097068,48.2828876 C41.076743,49.2837159 41.0993036,50.3051848 41.1237843,51.2340111 C41.1420248,51.9069901 41.5649168,52.501727 42.1932546,52.7422138 C44.7238862,53.7084811 47.0697126,54.621947 49.4424197,55.4600507 C50.0328364,55.6688566 50.8253388,55.7346184 51.3850347,55.5133322 C52.4660253,55.0856401 53.480774,54.4573023 54.4523215,53.8059239 C54.8281721,53.5539167 55.0120173,53.0143815 55.283705,52.6054099 C54.8785735,52.4470054 54.5353638,52.5583686 54.1158319,52.4801264 C52.9397987,52.2612402 51.3005523,52.3476426 50.5205302,51.583461 C52.2168982,50.9306425 54.2574359,51.3501744 55.4181088,48.898745 C53.2460473,49.4363602 51.4411963,49.8827729 49.6094644,50.3359057 C49.5149018,50.1611807 49.5259421,50.1813413 49.4308994,50.0075764 C51.2443907,48.227686 54.7052886,47.9535983 54.8521728,44.4197383 C53.0137208,45.6221723 51.7460049,47.7995139 48.7689607,47.0847737 C50.617973,45.5861713 52.1448962,44.3486963 54.2012744,42.6816091 M48.9350453,65.5624165 C48.4583919,63.3764347 48.9403255,62.8820207 50.8699801,63.5698801 C51.5861604,63.8252474 52.1439361,64.5241471 52.775634,65.0180811 C53.1078034,65.2782485 53.444773,65.5331357 54.1158319,66.0496303 C51.9293701,58.9454293 46.3703328,56.708086 37.9936158,57.1703391 C31.2009436,57.5452297 26.7804985,61.5456629 26.4737698,65.9473874 C27.1899501,65.3982519 27.6507631,64.520307 28.3765437,64.061414 C29.0994441,63.6039611 30.2423564,62.9535427 30.9590167,63.4460366 C31.4419104,63.777726 30.9854175,65.295049 31.2215842,66.1753939 C35.3833019,68.6522639 40.2948009,68.4112971 40.1776776,65.5604965 C40.1867978,67.7397581 41.5394761,67.7032771 42.6958288,67.7205576 C45.107417,67.7565586 47.3951618,66.9990972 48.9350453,65.5624165 M27.7146049,10.977192 C25.9044737,12.0433022 22.8655077,12.9836488 21.2185811,12.7479621 C19.5361335,12.5079553 17.5863183,12.4340333 15.9547522,11.9564197 C15.4497779,11.8085756 14.888162,11.8541769 14.2833449,12.2021867 C15.4276973,12.8012436 19.4377307,14.5297726 19.3945295,14.6310554 C18.9452368,14.476491 16.689173,13.9940774 16.0521949,13.7742312 C16.4534863,15.4240379 16.8000561,16.8477581 17.1456659,18.2719584 C17.2949501,18.221557 17.4442343,18.1706756 17.5935185,18.1202741 C17.3223109,19.7115192 16.9128593,21.294604 16.8144565,22.8968893 C16.6944531,24.8486245 17.3443915,26.5013113 18.9759577,27.8439093 C20.7606482,29.3117908 22.1435673,31.3019271 24.0113001,32.6267646 C25.8535923,33.9333616 28.0952557,34.6370615 31.0276587,34.0701654 C30.3061982,33.3568653 29.9356278,32.7952494 29.413853,32.5178015 C28.4855067,32.0248276 27.4865985,31.6374566 26.48097,31.3225677 C22.5448586,30.0913329 20.4515194,26.9971653 18.7685918,23.5780286 C18.3250592,22.6765631 18.4820237,21.4794092 18.3629803,20.4180992 L18.9130759,20.2606547 C19.2495654,20.9509142 19.5966152,21.6363736 19.9196644,22.3328733 C20.4563195,23.4897061 21.1566594,24.0047606 22.6221408,24.0148409 C25.8871932,24.0378816 29.0327222,24.5860571 30.8188528,27.9682328 C31.7284785,29.6914816 32.8238695,31.3700891 34.7132029,32.1621115 C34.8639272,32.0699489 34.5912795,30.2146964 34.2677503,29.2729097 C35.7855533,28.6536922 35.1855363,27.7752673 34.3767134,26.9040427 C33.2746022,25.7174491 32.1580906,24.5452559 30.9906976,23.3068209 C32.1686509,22.9703314 33.6403726,22.0837463 33.6101317,21.8590999 L27.2273911,21.8590999 C27.222591,21.7957381 27.2168308,21.7318963 27.2115507,21.6680545 C29.0696833,21.331565 32.7792282,20.0105676 32.7758681,19.6870385 C29.8117843,17.8697071 26.2942447,19.0495804 23.0935142,18.5129253 C23.0810338,18.2676383 23.0834339,18.3151597 23.0704735,18.0703527 C25.1143713,17.5447379 27.1625893,17.0364035 29.200247,16.488708 C31.1865432,15.9549329 35.0597728,14.3708881 35.0180116,14.1448017 L26.6379345,14.1448017 C29.273209,12.9572481 31.5998349,11.2459996 34.6493611,11.3064814 C37.8217709,11.3703232 41.0095411,11.506167 44.1656304,11.2700003 C47.6999704,11.0055128 50.4830892,12.6831603 53.5604562,14.1404815 L45.1496582,14.1404815 C45.1088571,14.3665679 49.0900897,15.9746134 51.1291874,16.523749 C53.1198038,17.0599241 55.1209804,17.5586583 57.0832759,18.2805987 C53.8758251,19.0855815 50.4014868,17.8207457 47.155155,19.8968044 C48.9009644,21.8706203 51.2117498,20.9197134 53.3238095,21.790458 L46.5584981,21.790458 C46.5143369,22.0107842 47.9922987,22.9612111 49.1529715,23.3389818 C47.9711781,24.5985375 46.8282657,25.8436927 45.6546325,27.058127 C44.7685275,27.974953 44.7094858,28.7362545 45.9263202,29.2508291 C45.5955909,30.1551747 45.2898222,32.0915495 45.4443866,32.2211531 C46.1706471,31.6451368 46.9866702,31.1502428 47.6010876,30.4719836 C48.3047875,29.6943616 48.9446456,28.8120967 49.4092988,27.8746301 C51.0216644,24.6263782 54.1014315,24.0412417 57.1293572,24.0052407 C59.064772,23.9822 59.9340766,23.3773829 60.480812,21.7371765 C60.655057,21.2130017 60.9915465,20.7421083 61.3510767,20.0643292 C62.1325388,21.9939838 61.503721,23.3413819 60.7568198,24.8702251 C58.783484,28.9128995 55.3960282,30.9270365 51.3413534,32.2350735 C50.617973,32.4678801 50.0366765,33.1403791 49.3896182,33.6098324 C49.3896182,33.6098324 51.3317532,34.3423331 52.1304958,34.1700083 C55.5861135,33.4255072 58.5093963,31.8169817 60.445291,28.7208941 C60.6420966,28.4064852 61.0328277,27.9495123 61.3021153,27.694145 C63.2672909,25.8249722 63.9618705,22.7994465 63.1103264,20.2112133 C62.8751198,19.4955131 61.4648399,18.4159625 63.4410558,17.9450692 C63.4938573,17.9321088 63.5231381,17.7439435 63.5332184,17.6345004 C63.6431415,16.453187 63.7463444,15.2709135 63.8754681,13.8236726 C62.9317614,14.3281669 61.9189327,14.5168122 60.8235417,15.1024288 C62.1123782,13.8663938 63.9364298,12.7465221 66.0614499,12.3418707 C66.0782504,12.179146 63.8663478,11.5858493 62.7666367,11.6909722 C60.7899408,11.8800976 58.8343654,12.4503537 56.8639097,12.4839547 C55.5064313,12.5074753 53.0698823,10.9930325 53.1476445,11.0045528 C59.1478143,11.9180187 64.6290894,10.1837296 69.9558001,7.69581919 C72.1715428,6.66090991 74.3546446,7.91566541 74.2908028,10.3675748 C74.2068004,13.5937461 73.6235839,16.6888736 70.9739089,18.9655781 C70.5078157,19.3654294 69.9831609,20.7339481 69.9831609,20.7339481 L72.317947,19.5319941 C72.6165154,22.4888778 70.2946897,23.0375333 68.1859901,23.8943575 C67.8062993,23.0725743 67.5192512,22.178789 67.0032366,21.4462883 C66.7262687,21.0531571 66.0552098,20.9379539 65.5622358,20.6969871 C65.3318293,21.1832408 64.9262178,21.6627744 64.9079773,22.1562283 C64.8695762,23.2069781 64.9900596,24.2711682 65.1220634,25.3199979 C65.4700732,28.0959164 64.4346839,30.2473373 62.2650225,31.9283448 C62.000535,32.1328306 61.8037295,32.4241989 61.5723629,32.6781261 C62.5616709,33.4989493 62.5616709,33.4989493 64.5873282,32.5850034 C64.1836368,33.5815116 64.0439529,34.9677908 63.3042519,35.469405 C62.4959091,36.0175806 61.1321905,35.7478129 60.0103987,35.8342154 C60.1380823,37.1686531 60.1380823,37.1686531 63.7722652,38.0686786 C63.6066605,38.6816559 63.4415358,39.2898331 63.273051,39.9104907 C62.9303213,41.1743665 61.4422792,41.7355023 60.3608086,40.9967614 C58.2453888,39.5519206 56.1659699,38.4872504 53.3862113,39.3613552 C55.6422751,40.6444315 57.897859,41.9275078 60.3132873,43.3013066 C59.4065416,44.5824629 59.5903868,45.3178437 60.9320248,46.0052231 C62.2261414,46.6676419 62.4685483,50.3901472 61.3150756,51.4687377 C60.1020813,52.6039699 59.806393,59.9289771 59.9940783,59.997139 C60.4227304,59.2343975 61.0035468,57.1948198 61.3174757,56.2371927 C62.0538165,53.9955292 62.5616709,52.892458 63.7741852,51.4615375 C64.65069,50.4271083 66.4373006,47.0266921 64.0545132,45.4157665 C64.0545132,45.4157665 64.4918055,44.5128609 65.1043029,42.9408164 C66.0585699,40.4903471 66.805951,39.6460032 68.0583064,37.3126572 C68.1586293,37.1254519 69.5588289,35.0949944 69.703313,34.9313098 C69.703313,34.9313098 66.4017796,45.1003975 66.3590584,45.6394528 C66.9782759,45.4820083 69.5290681,44.3419761 69.7877954,44.4758999 C68.9516117,47.3142202 68.2786327,50.2149423 67.2192427,52.9678202 C66.1593727,55.7226181 64.7020515,58.3242917 63.4184952,60.9931672 C63.6469816,61.1880527 65.8588842,60.2486662 66.5702643,59.4355232 C70.2870095,55.188363 71.7155299,50.0133366 72.178743,44.5368616 C72.3606682,42.3806406 72.2080239,40.1960988 72.5737942,37.9400349 C73.1075693,39.9791326 73.9331927,41.9942297 74.1069576,44.0635682 C74.3556046,47.0334122 74.9988228,48.5819361 74.087277,53.0350221 C74.0805568,53.420953 73.8986317,53.845285 73.6850256,54.1793744 C70.9676688,58.4279746 68.2301513,62.6640945 65.4854336,66.922295 L64.9986999,64.8174354 C64.7721335,64.7838345 64.7615732,64.7819144 64.5350067,64.7483135 C64.2580389,65.2417674 63.9465101,65.7189009 63.7132235,66.2325155 C62.7632766,68.3224946 60.6060956,72.3896497 60.4577714,72.3243678 C60.4577714,70.3030307 60.4760119,68.2816935 60.4491311,66.2608363 C60.4371308,65.3176096 60.4596914,64.166057 59.1454143,64.1689371 C57.864258,64.1718172 57.8239369,65.2811286 57.8090564,66.249316 C57.792736,67.3490271 57.8056963,68.4496982 57.8056963,69.8086167 C56.1923707,68.9057111 54.9448154,68.0748076 53.5916571,67.4853509 C52.103615,66.8373326 50.6933351,66.5963658 49.2936155,68.1036084 C48.0619006,69.430366 46.3693728,70.0140625 44.3657961,69.9022193 C41.6364388,69.750535 38.8566802,69.7817359 36.1522837,70.1407861 C33.8395782,70.4484748 32.1993718,69.3646041 30.8116526,68.0306464 C29.5319363,66.8003715 28.317982,66.7898112 26.9811442,67.3384668 C25.5305431,67.9332036 24.183625,68.7794675 22.5376584,69.6497322 C22.4694965,68.5068198 22.5314183,67.3015057 22.2818112,66.1648336 C22.1219667,65.4352129 21.5771513,64.306221 21.0750571,64.2318189 C19.8236616,64.0470136 19.693578,65.2004863 19.6863778,66.181634 C19.6705373,68.2879336 19.6815776,70.3937532 19.4425309,72.7011785 C18.1656947,70.0822244 16.8893386,67.4632703 15.6125025,64.8447962 C15.3883362,64.8678369 15.3849761,64.8683169 15.1612897,64.8913575 C14.9846447,65.5888173 14.8079997,66.286277 14.5915136,67.1402212 C12.8293837,64.1626969 11.1589365,61.339737 9.48752919,58.5177372 C9.39776665,58.3660529 9.28496346,58.2263689 9.20768127,58.0684445 C8.22413344,56.0389471 6.29591888,53.7008009 5.92438837,52.1546771 C4.78819622,47.4313435 5.72134262,42.5270447 7.9860467,37.9664357 C7.9860467,39.0239056 7.98748674,40.0808955 7.98556669,41.1383654 C7.98460666,42.2563171 7.90396438,43.3795489 7.98892679,44.4903003 C8.40749863,49.9293342 9.87010001,55.0179582 13.4428411,59.2723185 C14.2003025,60.1747441 15.3854561,60.7181194 16.6474118,61.1947729 C13.7994912,55.7523789 11.3322214,50.3066249 10.6357217,44.6189439 L13.4538814,45.6130521 C13.1677933,44.6189439 12.9935484,43.5729943 12.5711364,42.641768 C11.9053576,41.1758065 11.3394216,37.6376264 10.3918748,34.4604165 C11.6744711,37.0520098 13.05211,39.7304856 14.358227,41.7033414 C15.4454578,43.3459479 16.9546205,45.6716137 16.7462946,45.8492187 C15.6801844,46.7924454 14.6279946,49.2587552 16.1352373,51.5791409 C17.1351056,53.1185444 18.1330538,54.4400218 18.8372337,56.2194322 C19.4881322,57.8649187 19.6882978,57.8202775 20.2767945,60.527074 C20.4937606,59.6265686 20.6248043,57.7449153 20.613764,57.4007456 C20.5936034,56.7575274 20.225433,52.7321335 18.9898781,51.6108218 C17.4768752,50.2379829 18.0408912,46.6897225 19.6494167,45.3706452 C20.1399906,44.9688738 19.9023839,43.3032267 19.9023839,43.3032267 C22.1608478,42.00623 24.4197917,40.7092333 26.7003362,39.3992762 C25.2482951,38.2866048 23.3368811,38.932223 19.7602999,41.1983671 C18.6538685,41.899667 17.1787868,41.2218878 16.8821384,39.9464917 L16.4189253,37.9577954 C16.9997417,37.872353 17.8863268,37.8891535 18.6481084,37.587705 C19.3441281,37.3121772 19.9043039,36.6934397 20.7472078,36.0574217 C18.9913181,35.7410927 17.5944786,35.7895741 16.5734897,35.1943573 C15.9590723,34.8357871 15.9293115,33.4744686 15.6245028,32.5235617 C16.7074135,32.8552511 17.5416771,33.1101383 18.3754607,33.3655055 L18.635628,32.8365305 C17.820565,31.8880237 16.8701381,31.0235192 16.2187596,29.9737295 C14.8252802,27.727746 14.5924736,25.2652763 15.1224086,22.6717629 C15.2448121,22.073186 14.8286403,21.365166 14.6611156,20.7075474 C14.0289377,21.1222791 13.2714763,21.4304478 12.802983,21.9834235 C12.3844112,22.4768774 12.2845683,23.240579 12.0200808,23.9490791 C10.0414649,22.956411 7.51371334,22.6357619 7.8799637,19.5847956 L10.1926691,20.7541087 C10.1926691,20.7541087 9.68049465,19.3971103 9.21776156,18.998219 C6.52344532,16.6735132 5.93062855,13.5313443 5.89510754,10.234131 C5.86966682,7.89598485 8.09308973,6.59130794 10.1629083,7.69869927 C14.1172602,9.81411913 18.4532229,10.6282222 22.7815053,11.3813635 C24.2162659,11.6314505 25.7767901,11.1600772 27.7146049,10.977192" id="Fill-1" fill="#C63539"></path>
    </g>
</svg>