<svg xmlns="http://www.w3.org/2000/svg" width="100" height="100" viewBox="0 0 26.458 26.458"><g fill="#da291c" fill-rule="nonzero" stroke-width=".694"><path d="M11.002 19.56c-.035-.052-.008-.21-.017-.237-.009-.026 0-.096 0-.114 0-.026.017-.035.009-.053-.01-.026-.018-.052-.01-.079.01-.017-.008-.035-.017-.044-.008-.017-.008-.035 0-.061.018-.026.035-.044.044-.08.009-.017.009-.025-.009-.034-.035-.027-.035-.062-.026-.106.009-.035.018-.131 0-.158-.009 0-.009.018-.017.018l-.018-.009-.009.009c-.026.035-.034.07-.07.105-.034.027-.043.044-.07.08a.208.208 0 0 0-.017.07.336.336 0 0 1-.026.158c-.026.087-.035.184-.061.272-.017.061-.035.114-.035.175l.358 1.054c-.009-.052-.009-.114-.017-.167l.008-.026c0-.035-.008-.061-.008-.114 0-.08.008-.246 0-.316v-.009-.009-.009-.008-.01-.008-.009c0-.035-.01-.052-.01-.079 0-.035.01-.07.018-.088.009-.035 0-.043 0-.061 0-.018 0-.026.009-.044zM13.36 7.47c0 .088.017.202.06.342-.008.14-.008.255-.008.343-.07 2.344-.113 4.03-.13 5.066-.01.905.052 1.853.043 2.59 0 .133-.053.133-.053.264 0 .123.053.246.053.36-.018.896-.035 1.642-.053 2.222-.008.132-.096.079-.096.202-.017.606.07 1.141.062 1.422 0 .106-.044.29-.131.466a.97.97 0 0 1-.166.246c.009 0 .026.061.06.184 0 .061-.017.088-.051.088l.026.158c0 .026-.105.105-.026.105H13v.14l-.026.159c.017 0 .026.026.035.088l-.035.22.06.104.167.141.087.14.078.185-.13.334v.403c.008.15.017.264.017.334.017.36.052.905.096 1.633.026.053-.105.817-.087.931h-2.461v-.052c-.01 0-.01.008-.01.026l-.052-.026h-.078l-.114.026c0-.018-.07-.044-.21-.088-.017 0-.025.035-.025.114h-.026l-.035-.026c0 .017-.01.026-.027.026h-.052a.896.896 0 0 0-.236.035c-.043 0-.113-.061-.218-.184h-.104a.595.595 0 0 1-.192-.035.478.478 0 0 1-.166.061v-.026c-.184-.026-.27-.062-.27-.105-.01 0-.01.008-.01.035-.078 0-.113-.053-.113-.158h-.087v.114h-.192l.026.061c-.079 0-.149.062-.218.185h-.14l-.13-.027c-.018.018-.053.027-.106.027H7.52v.061a1.247 1.247 0 0 0-.218-.061.652.652 0 0 1-.21.035h-.157l-.157-.035-.009.061-.157-.026c-.017 0-.035.009-.06.026 0-.017-.01-.026-.027-.026h-.026l-.035.026v-.026l-.262.026-.105-.026a.66.66 0 0 1-.183.026.856.856 0 0 1-.21-.026l-.13.026-.157-.026c-.027.017-.044.026-.062.026a.147.147 0 0 1-.087-.026l-.13.026H3.583l-.218-.026c0 .017-.01.026-.027.026l-.13-.026h-.027a.14.14 0 0 0-.078.026.147.147 0 0 0-.088-.026H2.86a.403.403 0 0 1-.166-.035.352.352 0 0 1-.165.035h-.681l-.035.026c0-.017-.009-.026-.026-.026h-.131c-.079 0-.2-.009-.367-.035 0 .026-.008.035-.026.035 0-.027-.009-.035-.026-.035H.974l-.13.035c0-.027-.097-.035-.298-.035-.122 0-.183-.035-.183-.114l-.035.026v-.088H.241l-.061.062a.497.497 0 0 0-.087-.185h.06a.974.974 0 0 0-.078-.29c0-.087 0-.202.009-.342l-.009-.062c.026-.333.053-.5.079-.5a.31.31 0 0 0-.035-.088v-.65c0-.044.009-.061.035-.061a7.784 7.784 0 0 1-.035-.404l.026-.185a.288.288 0 0 1-.026-.087c0-.106.009-.211.026-.316l-.026-.158c0-.018.009-.08.026-.185-.035-.053-.052-.158-.061-.316.009-.114.009-.22.009-.316V22l-.01-.052h.14V.233C.286.233.312.198.312.128L.573.102c.043 0 .096.017.165.061A.474.474 0 0 0 .922.102l.035.026c.078-.018.122-.026.13-.026.053 0 .088.008.114.026l.131-.026h.524l.13.026c.018-.018.053-.026.105-.026h.35l.139.026c0-.018.009-.026.026-.026l.035.026.131-.026h.68L3.61.075c0 .018.061.035.192.053.026-.018.044-.026.061-.026l.105.026a.226.226 0 0 1 .06-.026l.132.026.052-.026a.572.572 0 0 0 .262.061l.105-.035c0 .026.008.035.026.035.009 0 .026-.009.06-.035.07.026.114.035.132.035.122-.026.192-.035.21-.035l.087.07h.087v-.07l.105.035h.052l.035-.035c0 .035.061.053.183.061l.079-.026.166.035c.026 0 .06-.017.104-.061 0 .026.009.035.026.035h.062c.026 0 .034-.018.034-.062a.584.584 0 0 0 .184.062c0-.044.008-.062.035-.062 0 .062.035.088.104.088.018 0 .027-.017.027-.061.192-.027.305-.035.34-.035.044 0 .061.026.061.087l.131-.026.044.035a.896.896 0 0 1 .192-.026h.218l.157.026.009-.061.113.035h.218l.157.026c0-.017.01-.026.027-.026l.13.026.192-.026.105.026a.197.197 0 0 1 .114-.026h.035c.104 0 .183.017.235.061 0-.026.018-.044.061-.061V.26h.061c.07-.062.123-.088.158-.088.34.044.523.061.55.061.008 0 .008.018.008.053h.087V.233h.315a1.4 1.4 0 0 0 .296-.035.112.112 0 0 0 .088.035l.078-.035a.453.453 0 0 0 .183.035h.035v.053a.286.286 0 0 1 .166-.053h.053l.078.088h.131V.26h.026c.026 0 .035.026.035.087h.052c0-.061.018-.087.062-.087l.026-.062h.06c.062.035.088.08.088.132h.035a.112.112 0 0 0 .087-.035l.035.035.236-.088V.33h-.035v.026h.061c0-.061.035-.088.105-.088h.026l.13.027.219-.027h.061l.035-.026v.044h.061V.198h.061V.26c0 .044-.017.061-.06.061v.053c.06 0 .086.017.086.061h.035l.053-.026-.01-.123c.018 0 .027-.009.027-.026.07.061.122.087.166.087.035 0 .052-.017.052-.061.07 0 .114.07.131.22 0 .078.044.131.14.158 0-.044.017-.062.052-.062 0 .184.018.272.061.272a1.895 1.895 0 0 0-.052.378c.017 0 .026.009.026.026h-.035v.325c.035 0 .061.07.079.22l-.035.026v1.168c-.148 2.063-.218 3.152-.218 3.266l-.009.062h.009c0 .026 0 .035-.009.035l.035.114v.026l-.105.194c0 .061.009.087.035.087h.026l.035-.035c0 .106.026.158.087.158l-.06.158c.008 0 .026.01.06.036 0 .043-.026.07-.087.087v.053l.157-.026h.009v.237zm-.75 15.086s0-.01 0 0c0-.01 0-.01 0 0v-.01-.008c-.01-.114-.106-.097-.175-.193l-.01-.009v-.017c-.008 0-.008-.01-.017-.01-.008-.026-.017-.06-.026-.078.018 0 .035 0 .035-.01.009-.052-.009-.087-.009-.122 0-.044-.017-.07-.026-.132-.009-.07-.017-.088-.017-.123 0-.052-.009-.052-.009-.105-.009-.193-.035-.351-.035-.58 0-.017-.009-.123-.035-.14-.026-.026-.017-.088-.017-.105-.009-.053 0-.062-.009-.08-.026-.043-.009-.07-.017-.105v-.035c0-.097.008-.167 0-.325 0-.07-.01-.132-.018-.193l-.026-.176c-.018-.087-.018-.175-.026-.263v-.044c0-.044-.009-.088-.018-.132 0-.026-.017-.017-.017-.061v-.035s0-.01-.009-.01v-.017c0-.008-.009-.008-.009-.017h.018c.009 0 .017 0 .017-.009.018-.009 0-.035 0-.044 0-.026-.008-.044-.008-.07-.018-.176-.062-.5-.062-.72 0-.106-.026-.185-.034-.343 0-.026-.01-.07-.01-.087-.008-.053.018-.167.018-.167 0-.053 0-.097.026-.15.035-.079.044-.149.062-.237.017-.07.017-.149.034-.22.01-.026.018-.06.018-.06l-.018-.01v-.043c.018-.08.027-.158.035-.237a.5.5 0 0 1 .027-.158c.017-.044.034-.088.043-.141a.67.67 0 0 0-.009-.263c-.008-.062-.034-.123-.043-.194a.415.415 0 0 0-.035-.14l-.035-.08a.753.753 0 0 0-.026-.219c-.018-.026-.026-.061-.053-.052-.026.008-.043.008-.06.008-.018 0-.036 0-.044.01-.018.008-.035 0-.053 0-.017 0-.017.017-.026.008-.017 0-.035-.009-.052.009-.018.017-.009.017-.026.044-.018.026.008.061.017.088.009.017.018.07.035.087.017.018.026 0 .052.018.027.017.053.026.053.044.008.026.008.044.017.07.018.07.009.15 0 .22-.009.096 0 .184-.017.28a.324.324 0 0 0 .008.159c.01.017 0 .035-.008.052-.018.035-.035.08-.061.114-.027.036-.044.08-.061.115-.018.035-.027.07-.044.105v.009l-.018-.009s-.026.105-.06.158a.427.427 0 0 1-.097.123c-.026.018-.087.044-.113.009-.009.009-.009.009-.026.017a.533.533 0 0 1-.044-.14.067.067 0 0 0 .018-.035v-.018c0-.017-.01-.044-.01-.061.018 0 .027-.053.027-.07 0-.027.009-.08 0-.106 0-.018-.009-.026-.017-.035h-.018v-.035c0-.009-.009-.018-.017-.035v-.035c0 .008.008.017.008.026 0-.009-.008-.018-.008-.026.008.008.008.026.008.043a.127.127 0 0 0-.017-.061c0-.009 0-.018-.009-.026-.009-.018-.035-.053-.043-.08a.278.278 0 0 1 .043.053c-.026-.061-.026-.088-.087-.105l.017-.018c-.017.01-.026.01-.043.018.008-.009.008-.018 0-.035.008.044-.096.017-.122.009-.044 0-.07 0-.114-.018l.018.018c-.018 0-.035 0-.044-.018 0 .018.009.026.026.035h-.017.008c-.017 0-.035.009-.052.018-.017 0-.026 0-.035-.01.009.018.009.018.026.036-.026.018-.052.035-.06.07-.01 0-.01.01-.018.01h.017v.008l.018-.018h.017c-.009.027-.026.044-.035.07h-.009.01v.01s-.01 0-.01.008h.01c-.01.018-.018.026-.018.044 0-.009.008-.009.008-.018.01 0 .01-.008.018-.008 0 .008-.009.017-.009.035l.018-.018c.008.088.008.097.035.176h.008c-.008 0-.008 0-.017.009-.009.008 0 .017.009.035.017.026.043.07.052.088.009.017.044.061.061.052v.018c.009.026.017.053.026.07l.009.009c.009.009.017.009.026.009v.008a.272.272 0 0 1 .026.115h-.017v.052s0 .009-.009.018c-.009 0-.009 0-.009.009v.008l-.008.01c-.01.008-.035.008-.053.017-.035.017-.052 0-.078.035a3.216 3.216 0 0 0-.149.044c-.035.009-.06.052-.078.088-.053.096-.044.166-.079.263l-.026.114c-.009.018-.009.035-.017.053-.01.017-.027.061-.027.061l.01.01s-.01.025-.01.034c-.026.08-.052.15-.07.228-.008.053-.017.106-.043.15-.026.044-.026.079-.044.131-.008.01-.008.027-.008.036l-1.484-4.408c1.204-.615 1.903-2.24 2.103-4.891v-.843c0-2.205-1.187-3.82-3.56-4.848h-.14v.237l-.367-.237H2.248l-.34.237c0-.158-.052-.237-.166-.237l-.183.43v4.61c0 .159.061.238.183.238l-.183.404v2.098l.183.43c-.122 0-.183.07-.183.211.122 0 .183.062.183.194H1.56l.183.43-.183.43c.122.281.183.483.183.615 0 .158-.06.237-.183.237l.183 1.054v3.758c0 .14-.06.21-.183.21l.183.405v2.748c.035.272.14.404.323.404h3.081v-6.91h.506l.89 3.038.995 3.477.367.193h3.84l-.358-1.063c.009-.035.009-.061.018-.105.017-.105.035-.272.035-.413 0-.061-.027-.052-.027-.07.01-.044.027-.105.044-.167.009-.052 0-.123 0-.14 0-.035.018-.228.026-.36v-.009c0-.018.009-.044.009-.061 0-.036.009-.053.009-.053.008-.114.017-.228.087-.307.148.193.105.201.175.412.034.15.07.29.096.483.008.044.026.08.026.123.008.062.008.158.008.22.01.175.044.404.096.606.018.052 0 .087 0 .14 0 .062.035.114.044.167.009.123.009.14.052.21.01 0 .01 0 .018-.008 0 .017-.009.035-.009.061V22.44l.079.044h.043c.044.035.053.07.07.088a.163.163 0 0 0 .096.044h.026c.061.009.114 0 .149-.017.035.008.06-.01.052-.044zM8.191 9.857L5.478 8.04a.293.293 0 0 0-.149-.044.291.291 0 0 0-.288.29v3.626c0 .158.131.29.288.29a.41.41 0 0 0 .149-.035l2.714-1.81a.303.303 0 0 0 .148-.254.282.282 0 0 0-.148-.246zM26.038 7.746c-.352-2.35-2.241-3.639-5.668-3.858-1.907.053-3.594.096-5.044.14.114 6.936.132 10.865.053 11.777l.14-.053-.166 2.175.14-.053c-.035.404-.053 2.079-.053 5.025l4.183.053v-6.086c.246-.053 1.063-.132 2.46-.237 2.285-.386 3.665-1.859 4.13-4.437.194-1.017.22-1.911.088-2.7zm-2.997 2.947l-3.137 2.078a.333.333 0 0 1-.5-.29V8.317a.333.333 0 0 1 .5-.29l3.146 2.08a.328.328 0 0 1 .167.289.34.34 0 0 1-.176.298z"/></g></svg>