<svg id="Layer_1" data-name="Layer 1" xmlns="http://www.w3.org/2000/svg" xmlns:xlink="http://www.w3.org/1999/xlink" viewBox="0 0 512 512"><defs><linearGradient id="linear-gradient" x1="527.09" y1="15.84" x2="527.09" y2="605.52" gradientTransform="translate(-271.09)" gradientUnits="userSpaceOnUse"><stop offset="0" stop-color="#fa3f04"/><stop offset="0.21" stop-color="#f73d04"/><stop offset="0.38" stop-color="#ec3804"/><stop offset="0.55" stop-color="#db2f03"/><stop offset="0.71" stop-color="#c22203"/><stop offset="0.86" stop-color="#a21203"/><stop offset="1" stop-color="#7e0002"/></linearGradient><radialGradient id="radial-gradient" cx="522.78" cy="253.55" r="278.44" gradientTransform="translate(-271.09)" gradientUnits="userSpaceOnUse"><stop offset="0" stop-color="#fa3f04"/><stop offset="0.32" stop-color="#f83e04"/><stop offset="0.49" stop-color="#f03a04"/><stop offset="0.62" stop-color="#e23304"/><stop offset="0.74" stop-color="#cf2903"/><stop offset="0.84" stop-color="#b61c03"/><stop offset="0.94" stop-color="#980d02"/><stop offset="1" stop-color="#7e0002"/></radialGradient><linearGradient id="linear-gradient-2" x1="293.34" y1="255.34" x2="758.92" y2="255.34" xlink:href="#linear-gradient"/></defs><title>pinterest-other</title><g id="_Group_" data-name="&lt;Group&gt;"><circle id="_Path_" data-name="&lt;Path&gt;" cx="256" cy="256" r="255.02" fill="url(#linear-gradient)"/><path id="_Path_2" data-name="&lt;Path&gt;" d="M488.39,248.39c4.29,134.43-105.57,244.3-240,240-121.74-3.89-220.9-103-224.78-224.78-4.29-134.43,105.57-244.3,240-240C385.35,27.49,484.51,126.65,488.39,248.39Z" fill="url(#radial-gradient)"/></g><path id="_Compound_Path_" data-name="&lt;Compound Path&gt;" d="M255,488.13c-128.36,0-232.79-104.43-232.79-232.79S126.68,22.55,255,22.55,487.83,127,487.83,255.34,383.4,488.13,255,488.13Zm0-463.71C127.71,24.42,24.12,128,24.12,255.34S127.71,486.26,255,486.26,486,382.67,486,255.34,382.37,24.42,255,24.42Z" fill="url(#linear-gradient-2)"/><path d="M256,149.61a106.39,106.39,0,0,0-42.7,203.83c-.3-7.44-.06-16.36,1.84-24.43,2.05-8.65,13.69-58,13.69-58a40.72,40.72,0,0,1-3.41-16.82c0-15.76,9.15-27.53,20.53-27.53,9.67,0,14.35,7.26,14.35,16,0,9.73-6.21,24.28-9.39,37.75-2.67,11.29,5.66,20.49,16.77,20.49,20.16,0,33.74-25.88,33.74-56.56,0-23.31-15.7-40.76-44.26-40.76-32.27,0-52.38,24.06-52.38,50.94,0,9.28,2.74,15.81,7,20.87,2,2.33,2.25,3.26,1.52,5.92-.49,2-1.67,6.67-2.16,8.54a3.66,3.66,0,0,1-5.32,2.67c-14.87-6.06-21.79-22.34-21.79-40.64,0-30.22,25.48-66.46,76-66.46,40.61,0,67.36,29.39,67.36,61,0,41.73-23.22,72.91-57.41,72.91-11.49,0-22.29-6.21-26-13.25,0,0-6.18,24.51-7.48,29.24-2.26,8.19-6.68,16.4-10.71,22.79A106.39,106.39,0,1,0,256,149.61Z" fill="#fff"/><path id="_Path_3" data-name="&lt;Path&gt;" d="M324.07,185.7a433.15,433.15,0,0,1,161.21,30.92C466.85,107,371.52,23.48,256.66,23.48c-128,0-231.85,103.81-231.85,231.85A232.94,232.94,0,0,0,29.32,301,432.79,432.79,0,0,1,324.07,185.7Z" fill="#fff" opacity="0.1"/></svg>