<svg width="120" height="120" viewBox="0 0 120 120" fill="none" xmlns="http://www.w3.org/2000/svg">
<rect width="120" height="120" fill="white"/>
<path d="M51.2 71.4359C49.3 66.7359 46.6 60.8359 42.9 54.8359L43 54.9359L45.5 57.4359C45.7 57.6359 46.1 57.8359 46.4 57.8359C46.5 57.8359 46.7 57.8359 46.8 57.7359C47.3 57.5359 47.6 57.1359 47.6 56.7359L48.7 46.9359C48.7 46.7359 48.7 46.6359 48.7 46.4359L48 44.0359C47.9 43.5359 47.4 43.1359 46.8 43.1359C46.7 43.1359 46.6 43.1359 46.5 43.1359C46.6 42.7359 46.6 42.4359 46.7 42.0359C46.8 41.5359 46.6 41.1359 46.2 40.8359C46.2 40.8359 46.1 40.8359 46.1 40.7359C46.1 40.3359 46 39.9359 45.7 39.7359C45.8 39.5359 45.9 39.1359 45.9 38.8359L45.5 36.7359C45.4 36.3359 45.2 36.0359 44.8 35.8359C34.3 30.7359 21.2 26.9359 21.1 26.9359C20.9 26.9359 20.8 26.9359 20.7 26.9359C20.6 26.9359 20.4 26.9359 20.3 27.0359L19.2 27.4359C18.8 27.5359 18.5 27.8359 18.4 28.2359C16.1 27.6359 14.7 27.4359 14.6 27.3359C14.5 27.3359 14.5 27.3359 14.4 27.3359C14 27.3359 13.6 27.5359 13.4 27.8359C13.4 27.8359 12.5 29.0359 11.7 30.8359C11.3 30.7359 11.1 30.6359 11.1 30.6359C11 30.6359 10.8 30.5359 10.7 30.5359C10.5 30.5359 10.3 30.5359 10.1 30.6359C9.8 30.8359 9.6 31.1359 9.5 31.4359L8.9 33.6359C8.8 34.2359 9 34.8359 9.5 35.0359C9.9 35.2359 11.1 36.0359 12.7 37.1359L12.4 37.8359C12.3 38.2359 12.4 38.7359 12.7 39.0359C14 40.5359 22.5 48.5359 23.1 49.1359C24.6 50.6359 26 52.3359 27.4 54.0359C27.2 54.1359 27.1 54.2359 26.9 54.4359L26.2 55.5359C25.1 53.3359 23.9 51.0359 23.3 49.6359C23.1 49.2359 22.8 49.0359 22.4 48.9359C22.3 48.9359 22.2 48.9359 22.2 48.9359C21.9 48.9359 21.6 49.0359 21.3 49.3359C20.6 50.0359 19.6 51.1359 18.5 52.6359L18.1 52.0359C17.9 51.6359 17.5 51.4359 17.1 51.4359C16.7 51.4359 16.3 51.6359 16.1 52.0359V51.9359L15.8 51.3359C15.7 51.0359 15.4 50.7359 15 50.6359C14.9 50.6359 14.8 50.6359 14.7 50.6359C14.4 50.6359 14.2 50.7359 14 50.8359L10.9 52.9359C10.5 53.2359 10.3 53.6359 10.4 54.1359L10.7 56.0359C10.8 56.4359 11.1 56.8359 11.5 57.0359L11.4 57.1359C11.2 57.4359 11.1 57.7359 11.2 58.1359L12.4 63.1359C12.5 63.6359 13 64.0359 13.5 64.1359H13.6C14.1 64.1359 14.5 63.8359 14.7 63.4359L14.8 63.1359C15.6 64.4359 16.9 66.6359 19 69.3359C22.1 73.4359 27.5 79.7359 35.4 86.0359C35.6 86.2359 35.9 86.3359 36.2 86.3359H37.5C39.2 87.6359 41 88.8359 42.6 89.8359C42.7 89.9359 42.9 89.9359 43 89.9359C43 89.9359 44.2 90.1359 46 90.1359C48.5 90.1359 52.1 89.7359 55.6 87.7359C56.1 87.4359 56.3 86.9359 56.2 86.4359C55.9 85.9359 54.5 79.8359 51.2 71.4359Z" fill="#102417"/>
<path d="M50.7996 69.5359C47.8996 62.1359 42.7996 51.7359 35.1996 42.8359L42.9996 47.1359L43.7996 47.5359L44.1996 46.7359C44.8996 45.2359 45.7996 42.7359 46.2996 39.7359L46.3996 39.2359L45.9996 38.9359C45.8996 38.8359 45.7996 38.8359 45.6996 38.7359V38.6359H45.7996V38.4359L45.8996 38.1359L45.6996 38.0359L45.4996 36.7359L45.0996 34.6359L44.9996 34.2359L44.5996 34.0359C34.1996 28.9359 21.0996 25.1359 20.9996 25.1359L20.6996 25.0359L20.3996 25.1359L19.3996 25.6359L17.5996 26.2359C15.7996 25.8359 14.6996 25.6359 14.5996 25.5359L14.0996 25.4359L13.7996 25.8359C13.7996 25.8359 12.8996 27.0359 11.9996 28.9359L11.8996 29.0359C11.2996 28.8359 10.8996 28.6359 10.8996 28.6359L9.99961 28.3359L9.79961 29.2359L9.29961 31.6359L9.09961 32.2359L9.69962 32.5359C10.0996 32.7359 11.3996 33.6359 13.1996 34.8359L12.8996 35.7359L12.7996 36.2359L13.0996 36.6359C14.3996 38.0359 22.9996 46.2359 23.4996 46.7359C24.9996 48.3359 26.4996 50.0359 27.8996 51.8359L27.3996 52.6359L26.3996 54.0359L26.1996 54.3359C24.8996 51.9359 23.6996 49.3359 22.8996 47.7359L22.3996 46.6359L21.4996 47.4359C20.6996 48.2359 19.5996 49.4359 18.3996 51.2359L17.5996 50.0359L16.8996 48.9359L16.1996 50.0359L15.4996 51.1359L15.2996 51.3359L15.0996 50.8359L15.1996 50.7359L15.5996 50.3359L15.3996 49.8359L15.0996 49.2359L14.6996 48.3359L13.8996 48.8359L10.7996 50.9359L10.3996 51.2359L10.4996 51.7359L10.7996 53.7359L11.0996 55.5359L11.5996 54.9359L11.4996 55.1359L11.2996 55.4359L11.3996 55.8359L12.5996 60.9359L13.1996 63.3359L14.1996 61.1359L14.6996 60.0359C15.2996 61.1359 16.6996 63.6359 19.1996 66.9359C22.2996 71.0359 27.5996 77.3359 35.4996 83.5359L35.6996 83.7359H37.3996C39.1996 85.1359 40.8996 86.3359 42.5996 87.2359L42.6996 87.3359H42.7996C42.7996 87.3359 43.9996 87.5359 45.6996 87.5359C48.0996 87.5359 51.6996 87.1359 54.9996 85.1359L55.4996 84.8359L55.3996 84.2359C55.4996 84.1359 54.0996 77.8359 50.7996 69.5359ZM19.6996 26.3359L20.7996 25.9359C20.7996 25.9359 33.7996 29.6359 44.2996 34.7359L44.6996 36.8359L44.7996 37.2359C44.7996 37.2359 34.7996 30.9359 19.7996 26.6359L20.3996 26.4359C20.0996 26.4359 19.8996 26.4359 19.6996 26.3359ZM11.3996 52.0359V51.6359L14.4996 49.5359L14.7996 50.1359L14.6996 50.2359L14.7996 50.4359L11.6996 53.8359L11.3996 52.0359ZM13.2996 60.9359L12.0996 55.9359L12.1996 55.8359L12.0996 55.5359L14.6996 51.8359L15.8996 54.7359L15.7996 54.9359L15.8996 55.1359L13.2996 60.9359ZM42.9996 86.7359C41.1996 85.7359 39.3996 84.4359 37.6996 83.1359H35.9996C20.7996 71.1359 14.9996 59.2359 14.9996 59.2359C14.9996 59.1359 15.0996 59.1359 15.0996 59.0359C15.0996 58.9359 15.0996 58.9359 15.0996 58.9359C15.4996 57.8359 16.0996 56.7359 16.7996 55.6359C16.8996 55.7359 16.8996 55.9359 16.9996 56.1359C18.0996 58.8359 19.7996 62.3359 21.5996 64.7359L21.6996 64.5359C21.2996 63.8359 19.1996 59.9359 17.4996 55.2359C17.4996 55.1359 17.3996 55.0359 17.3996 54.9359C17.3996 54.8359 17.4996 54.8359 17.4996 54.7359C17.4996 54.6359 17.4996 54.6359 17.3996 54.5359V54.4359L16.2996 51.8359L16.3996 51.6359L16.2996 51.4359L16.9996 50.3359L18.4996 52.6359C19.8996 50.3359 21.1996 48.7359 22.0996 47.8359C23.7996 51.5359 28.5996 60.4359 28.5996 60.4359L28.7996 60.0359V59.9359L26.9996 54.6359L27.0996 54.4359L26.9996 54.2359L27.9996 52.8359L38.6996 74.4359L42.4996 77.1359L42.8996 75.8359C41.3996 72.5359 33.7996 56.3359 23.8996 46.2359C23.8996 46.1359 14.7996 37.6359 13.4996 36.2359L13.5996 35.9359C13.5996 35.9359 13.5996 35.9359 13.5996 35.8359L13.9996 34.7359C12.9996 34.0359 10.6996 32.4359 9.99961 32.0359L10.0996 31.6359L10.6996 29.4359C10.6996 29.4359 11.4996 29.7359 12.4996 30.0359L14.2996 30.6359V30.4359L12.6996 29.6359C12.6996 29.5359 12.7996 29.4359 12.7996 29.3359L12.6996 29.2359C13.4996 27.3359 14.3996 26.2359 14.3996 26.2359C14.3996 26.2359 18.5996 26.9359 24.3996 28.9359C36.8996 33.0359 44.7996 38.3359 44.7996 38.3359C44.7996 38.4359 44.6996 38.5359 44.6996 38.6359C44.7996 38.6359 44.7996 38.7359 44.7996 38.7359C44.7996 38.8359 44.6996 38.9359 44.6996 39.0359C44.8996 39.2359 45.1996 39.3359 45.3996 39.5359C45.3996 39.6359 45.3996 39.7359 45.2996 39.8359C45.2996 39.8359 45.2996 39.8359 45.3996 39.8359C44.9996 42.8359 43.9996 45.2359 43.3996 46.6359L33.7996 41.3359L33.6996 41.9359V42.1359C49.3996 59.5359 54.7996 84.2359 54.7996 84.2359C54.7996 84.4359 54.8996 84.5359 54.8996 84.5359C49.1996 87.8359 42.9996 86.7359 42.9996 86.7359ZM29.1996 53.5359C35.7996 62.5359 40.6996 72.8359 42.0996 75.8359V75.9359L39.3996 73.9359L29.1996 53.5359Z" fill="url(#paint0_linear)"/>
<path d="M42.9994 51.6359L42.8994 52.1359L43.2994 52.5359L45.7994 55.0359L46.9994 56.2359L47.1994 54.5359L48.2994 44.7359V44.5359V44.3359L47.5994 41.9359L46.7994 39.2359L45.9994 41.9359L42.9994 51.6359ZM47.3994 44.5359V44.7359L47.4994 44.9359L46.3994 54.7359L43.8994 52.2359L43.9994 51.9359L43.8994 51.8359L46.7994 42.1359L47.3994 44.5359Z" fill="url(#paint1_linear)"/>
<path d="M35.9996 82.7359H37.6996C39.3996 84.1359 41.1996 85.3359 42.9996 86.3359C42.9996 86.3359 44.0996 86.5359 45.6996 86.5359C47.9996 86.5359 51.3996 86.1359 54.5996 84.3359C53.9996 81.6359 48.2996 58.8359 33.4996 42.5359L33.5996 42.2359C33.5996 42.2359 33.5996 42.2359 33.4996 42.1359L33.5996 41.6359L33.6996 41.0359L43.2996 46.3359C43.8996 45.0359 44.7996 42.7359 45.1996 39.8359C44.9996 39.6359 44.6996 39.5359 44.4996 39.3359C44.4996 39.2359 44.5996 39.1359 44.5996 39.0359C44.5996 39.0359 44.4996 39.0359 44.4996 38.9359C44.4996 38.8359 44.5996 38.7359 44.5996 38.6359C43.6996 38.0359 35.9996 33.1359 24.2996 29.2359C18.4996 27.3359 14.2996 26.5359 14.2996 26.5359C14.2996 26.5359 13.4996 27.5359 12.7996 29.1359L14.1996 29.9359V30.5359V30.9359L12.3996 30.5359C11.3996 30.1359 10.5996 29.9359 10.5996 29.9359L10.0996 31.8359C10.7996 32.2359 13.1996 33.8359 14.1996 34.5359L14.0996 34.8359C14.0996 34.8359 14.0996 34.8359 14.1996 34.8359L13.7996 35.9359C15.1996 37.5359 23.9996 45.8359 24.0996 45.9359C34.0996 56.2359 41.6996 72.7359 43.0996 75.7359L42.9996 75.9359C42.9996 75.9359 42.9996 76.0359 43.0996 76.0359L42.5996 77.5359L38.7996 74.8359L27.9996 53.2359L27.0996 54.5359L28.8996 59.8359L28.7996 60.0359L28.8996 60.2359L28.7996 60.5359L28.5996 60.9359C28.5996 60.9359 23.7996 52.0359 22.0996 48.3359C21.1996 49.2359 19.7996 50.7359 18.4996 53.1359L16.9996 50.8359L16.3996 51.6359L17.4996 54.2359C17.4996 54.3359 17.3996 54.3359 17.3996 54.4359L17.4996 54.6359C17.4996 54.6359 17.4996 54.7359 17.3996 54.7359V54.8359C19.2996 60.0359 21.6996 64.2359 21.6996 64.2359L21.5996 64.4359C21.5996 64.5359 21.6996 64.5359 21.6996 64.5359L21.4996 64.9359C19.6996 62.4359 17.9996 59.0359 16.7996 56.3359C16.6996 56.1359 16.6996 56.0359 16.5996 55.8359C15.9996 56.8359 15.4996 57.9359 14.9996 58.9359C15.5996 60.0359 21.4996 71.3359 35.9996 82.7359Z" fill="url(#paint2_linear)"/>
<path d="M45.8 86.6359C44.2 86.6359 43.1 86.4359 43.1 86.4359C41.3 85.4359 39.5 84.1359 37.8 82.8359H36.1C21.5 71.3359 15.6 60.0359 15.1 58.9359C15.1 59.0359 15 59.1359 15 59.1359C15 59.1359 20.7 71.0359 36 83.0359H37.7C39.4 84.4359 41.2 85.6359 43 86.6359C43 86.6359 49.2 87.7359 54.7 84.6359C54.7 84.6359 54.7 84.5359 54.6 84.3359C51.4 86.2359 48 86.6359 45.8 86.6359Z" fill="url(#paint3_linear)"/>
<path d="M45.8 86.6359C44.2 86.6359 43.1 86.4359 43.1 86.4359C41.3 85.4359 39.5 84.1359 37.8 82.8359H36.1C21.5 71.3359 15.6 60.0359 15.1 58.9359C15.1 59.0359 15 59.1359 15 59.1359C15 59.1359 20.7 71.0359 36 83.0359H37.7C39.4 84.4359 41.2 85.6359 43 86.6359C43 86.6359 49.2 87.7359 54.7 84.6359C54.7 84.6359 54.7 84.5359 54.6 84.3359C51.4 86.2359 48 86.6359 45.8 86.6359Z" fill="url(#paint4_linear)"/>
<path d="M33.7996 41.1359L33.6996 41.7359L33.5996 42.2359C33.5996 42.2359 33.5996 42.2359 33.6996 42.3359V42.1359L33.7996 41.5359L43.3996 46.8359C43.9996 45.5359 44.9996 43.0359 45.3996 40.0359C45.3996 40.0359 45.3996 40.0359 45.2996 40.0359C44.7996 42.8359 43.8996 45.2359 43.3996 46.5359L33.7996 41.1359Z" fill="url(#paint5_linear)"/>
<path d="M33.7996 41.1359L33.6996 41.7359L33.5996 42.2359C33.5996 42.2359 33.5996 42.2359 33.6996 42.3359V42.1359L33.7996 41.5359L43.3996 46.8359C43.9996 45.5359 44.9996 43.0359 45.3996 40.0359C45.3996 40.0359 45.3996 40.0359 45.2996 40.0359C44.7996 42.8359 43.8996 45.2359 43.3996 46.5359L33.7996 41.1359Z" fill="url(#paint6_linear)"/>
<path d="M17.3998 54.8359V54.7359C17.3998 54.8359 17.2998 54.8359 17.2998 54.9359C17.2998 55.0359 17.3998 55.1359 17.3998 55.2359C19.0998 59.9359 21.2998 63.9359 21.5998 64.5359L21.6998 64.3359C21.6998 64.2359 19.2998 60.0359 17.3998 54.8359Z" fill="url(#paint7_linear)"/>
<path d="M17.3998 54.8359V54.7359C17.3998 54.8359 17.2998 54.8359 17.2998 54.9359C17.2998 55.0359 17.3998 55.1359 17.3998 55.2359C19.0998 59.9359 21.2998 63.9359 21.5998 64.5359L21.6998 64.3359C21.6998 64.2359 19.2998 60.0359 17.3998 54.8359Z" fill="url(#paint8_linear)"/>
<path d="M10.1 31.8359L10 32.2359C10.7 32.5359 13.1 34.2359 14 34.9359L14.1 34.6359C13.2 33.8359 10.8 32.2359 10.1 31.8359Z" fill="url(#paint9_linear)"/>
<path d="M10.1 31.8359L10 32.2359C10.7 32.5359 13.1 34.2359 14 34.9359L14.1 34.6359C13.2 33.8359 10.8 32.2359 10.1 31.8359Z" fill="url(#paint10_linear)"/>
<path d="M16.3998 51.6359L16.2998 51.8359L17.3998 54.4359C17.3998 54.3359 17.4998 54.3359 17.4998 54.2359L16.3998 51.6359Z" fill="url(#paint11_linear)"/>
<path d="M16.3998 51.6359L16.2998 51.8359L17.3998 54.4359C17.3998 54.3359 17.4998 54.3359 17.4998 54.2359L16.3998 51.6359Z" fill="url(#paint12_linear)"/>
<path d="M44.7992 39.1359C44.7992 39.0359 44.8992 38.9359 44.8992 38.8359C44.8992 38.8359 44.8992 38.8359 44.7992 38.7359C44.7992 38.8359 44.6992 38.9359 44.6992 39.0359C44.6992 39.1359 44.6992 39.1359 44.7992 39.1359Z" fill="url(#paint13_linear)"/>
<path d="M44.7992 39.1359C44.7992 39.0359 44.8992 38.9359 44.8992 38.8359C44.8992 38.8359 44.8992 38.8359 44.7992 38.7359C44.7992 38.8359 44.6992 38.9359 44.6992 39.0359C44.6992 39.1359 44.6992 39.1359 44.7992 39.1359Z" fill="url(#paint14_linear)"/>
<path d="M14.1992 30.1359L12.7992 29.3359C12.7992 29.4359 12.6992 29.5359 12.6992 29.6359L14.1992 30.5359V30.7359V30.1359Z" fill="url(#paint15_linear)"/>
<path d="M14.1992 30.1359L12.7992 29.3359C12.7992 29.4359 12.6992 29.5359 12.6992 29.6359L14.1992 30.5359V30.7359V30.1359Z" fill="url(#paint16_linear)"/>
<path d="M23.9996 45.9359C23.9996 45.9359 15.0996 37.5359 13.6996 35.9359L13.5996 36.2359C14.8996 37.6359 23.8996 46.1359 23.9996 46.2359C33.8996 56.3359 41.4996 72.6359 42.9996 75.8359L43.0996 75.6359C41.5996 72.7359 33.9996 56.2359 23.9996 45.9359Z" fill="url(#paint17_linear)"/>
<path d="M23.9996 45.9359C23.9996 45.9359 15.0996 37.5359 13.6996 35.9359L13.5996 36.2359C14.8996 37.6359 23.8996 46.1359 23.9996 46.2359C33.8996 56.3359 41.4996 72.6359 42.9996 75.8359L43.0996 75.6359C41.5996 72.7359 33.9996 56.2359 23.9996 45.9359Z" fill="url(#paint18_linear)"/>
<path d="M27.1 54.5359L27 54.6359L28.8 60.0359L28.9 59.8359L27.1 54.5359Z" fill="url(#paint19_linear)"/>
<path d="M27.1 54.5359L27 54.6359L28.8 60.0359L28.9 59.8359L27.1 54.5359Z" fill="url(#paint20_linear)"/>
<path d="M44.2998 35.2359C33.7998 30.0359 20.7998 26.4359 20.7998 26.4359L20.2998 26.6359C34.3998 30.7359 43.8998 36.5359 44.5998 37.0359L44.2998 35.2359Z" fill="url(#paint21_linear)"/>
<path d="M44.5992 37.3359L44.4992 36.9359C43.8992 36.4359 34.3992 30.6359 20.2992 26.5359L19.6992 26.7359C34.6992 30.9359 44.5992 37.3359 44.5992 37.3359Z" fill="url(#paint22_linear)"/>
<path d="M44.5992 37.3359L44.4992 36.9359C43.8992 36.4359 34.3992 30.6359 20.2992 26.5359L19.6992 26.7359C34.6992 30.9359 44.5992 37.3359 44.5992 37.3359Z" fill="url(#paint23_linear)"/>
<path d="M43.8994 51.9359L46.2994 54.3359L47.3994 44.7359L46.7994 42.5359L43.8994 51.9359Z" fill="url(#paint24_linear)"/>
<path d="M43.8998 51.9359L43.7998 52.2359L46.2998 54.7359L47.3998 44.9359V44.7359L46.2998 54.3359L43.8998 51.9359Z" fill="url(#paint25_linear)"/>
<path d="M43.8998 51.9359L43.7998 52.2359L46.2998 54.7359L47.3998 44.9359V44.7359L46.2998 54.3359L43.8998 51.9359Z" fill="url(#paint26_linear)"/>
<path d="M14.5994 50.3359L14.4994 49.9359L11.3994 51.9359L11.6994 53.6359L14.5994 50.3359Z" fill="url(#paint27_linear)"/>
<path d="M14.5994 50.3359L11.6994 53.6359L11.3994 51.9359V52.0359L11.6994 53.9359L14.6994 50.5359L14.5994 50.3359Z" fill="url(#paint28_linear)"/>
<path d="M14.5994 50.3359L11.6994 53.6359L11.3994 51.9359V52.0359L11.6994 53.9359L14.6994 50.5359L14.5994 50.3359Z" fill="url(#paint29_linear)"/>
<path d="M15.8992 54.9359L14.7992 52.1359L12.1992 55.8359L13.3992 60.6359L15.8992 54.9359Z" fill="url(#paint30_linear)"/>
<path d="M15.8992 54.9359L13.3992 60.6359L12.1992 55.8359V55.9359L13.2992 60.9359L15.9992 55.1359L15.8992 54.9359Z" fill="url(#paint31_linear)"/>
<path d="M15.8992 54.9359L13.3992 60.6359L12.1992 55.8359V55.9359L13.2992 60.9359L15.9992 55.1359L15.8992 54.9359Z" fill="url(#paint32_linear)"/>
<path d="M114.8 57.2359C115.5 56.5359 115.2 55.8359 115 55.7359C114.9 55.6359 113.3 54.9359 112 54.5359C110.7 54.0359 110.2 53.6359 110.2 53.4359C110.2 53.2359 111.2 53.3359 112 53.6359C112.8 53.9359 113.7 53.9359 114.4 54.4359C115.1 54.9359 116.1 55.4359 116.3 55.3359C116.4 55.1359 116.7 54.3359 117 53.7359C117.3 53.1359 117.6 52.6359 117.6 52.2359C117.7 51.9359 118 51.2359 117.7 51.0359C117.4 50.8359 116.1 51.0359 115.7 51.1359C115.3 51.2359 114.4 51.0359 115.2 50.6359C116 50.2359 117.3 50.3359 117.6 50.1359C117.8 49.9359 118 49.7359 118 49.3359C118 48.9359 118.3 46.7359 118.6 46.1359C118.9 45.5359 118.6 45.4359 117.7 45.5359C116.8 45.6359 114.4 45.8359 113.9 45.8359C113.4 45.8359 112.8 46.1359 112.6 47.4359C112.4 48.7359 112 48.2359 111.9 47.6359C111.9 47.5359 111.9 47.4359 111.9 47.3359L111.5 44.2359C110.6 41.0359 106.8 40.8359 104.3 39.6359C103.8 39.4359 103.1 39.3359 102.7 38.9359C102.1 38.3359 101.6 37.6359 102 37.0359L102.9 35.4359C103.3 34.7359 104.5 33.5359 105.2 32.8359C105.8 32.1359 104.8 31.8359 103.5 31.4359C102.2 31.0359 101.5 30.5359 101.4 30.2359C101.3 29.8359 102.7 30.2359 103.2 30.2359C103.6 30.1359 105.5 31.2359 106 31.4359C106.5 31.6359 106.7 30.5359 107.6 29.6359C108.4 28.6359 108.8 26.2359 109 25.9359C109.2 25.6359 108.3 25.5359 107.6 25.4359C106.9 25.3359 106.4 24.8359 107.8 24.7359C109.2 24.5359 109.6 23.8359 109.6 23.3359C109.6 22.7359 109.8 20.1359 110 19.1359C110.2 18.1359 110 17.7359 109.4 18.1359C108.7 18.5359 106.2 18.6359 105.8 18.7359C105.3 18.8359 105.2 18.9359 104.9 19.1359C104.7 19.3359 104.8 20.8359 104.3 21.7359C103.8 22.6359 103.7 21.6359 103.8 21.1359C103.9 20.7359 104.2 19.2359 103.9 18.8359C103.6 18.5359 102.9 18.8359 102.5 18.9359C102.1 19.0359 101.6 19.3359 100.8 19.6359C100.1 19.9359 99.2 20.2359 99 20.4359C98.8 20.6359 99.4 21.8359 99.9 22.5359C100.4 23.3359 100.4 24.3359 100.8 25.2359C101.1 26.2359 101.3 27.2359 101.1 27.3359C100.8 27.3359 100.4 26.8359 99.9 25.3359C99.4 23.8359 98.6 22.0359 98.5 21.9359C98.4 21.7359 98 20.9359 96.8 22.1359C95.6 23.3359 95.1 24.0359 94.6 24.3359C94.4 24.4359 94 24.9359 93.5 25.5359L91.5 23.1359L90.6 22.0359L89.2 22.5359L82.2 25.0359L75.8 24.8359L74.1 24.7359L73.8 25.7359H73L71.2 25.6359L70.8 27.3359L70.4 29.2359L58.7 28.6359L56.6 27.9359C56.7 27.7359 56.8 27.4359 57 27.0359C57.4 26.1359 57.2 26.1359 56.6 25.4359C56 24.7359 55.1 23.0359 54.6 22.1359C54 21.2359 53.4 22.2359 52.6 23.5359C51.8 24.7359 51 25.3359 50.5 25.4359C50.1 25.5359 51 24.0359 51 23.5359C51.1 23.0359 52.8 21.3359 53.2 20.8359C53.6 20.3359 52.5 19.7359 51.7 18.5359C50.9 17.3359 48.4 16.1359 48.1 15.8359C47.8 15.5359 47.4 16.4359 47.1 17.1359C46.8 17.8359 46.1 18.2359 46.3 16.6359C46.5 15.2359 46.1 14.6359 45.6 14.3359C45.5 14.3359 45.4 14.2359 45.4 14.2359C45.2 14.1359 44.5 13.9359 43.8 13.6359C43.8 13.6359 43.7 13.7359 43.6 13.7359C43.2 13.8359 42 14.7359 41.9 14.8359C41.5 15.1359 41.6 14.8359 41.8 14.4359C42 14.0359 42.5 13.5359 43.2 13.3359C42.3 12.9359 41.4 12.6359 40.9 12.3359C39.9 11.8359 39.4 11.8359 39.5 12.7359C39.6 13.0359 39.5 13.5359 39.4 14.0359C39.4 14.3359 39.3 14.6359 39.3 14.9359C39.2 15.4359 39.1 15.9359 39 16.3359C39.6 16.7359 40.1 17.1359 40 17.3359C39.9 17.4359 39.5 17.4359 38.9 17.2359C38.9 17.5359 39 17.7359 39.1 18.0359C39.3 18.3359 41 18.7359 41.8 19.5359C42.6 20.3359 41.5 20.1359 41 19.9359C40.5 19.7359 39 18.8359 38.6 19.0359C38.3 19.1359 38.2 19.7359 38.2 20.1359C38.2 20.3359 38.2 20.4359 38.2 20.5359C38.2 20.6359 38.2 20.6359 38.2 20.7359C38.2 21.1359 38.3 21.8359 38.4 22.5359C38.5 23.4359 38.5 24.5359 38.7 24.7359C38.8 25.0359 40.3 24.7359 41.3 24.4359C42.2 24.1359 43.1 24.3359 44.2 24.3359C44.3 24.3359 44.5 24.3359 44.6 24.3359C45.7 24.2359 47 24.4359 47 24.7359C47 24.9359 46.6 25.1359 45.9 25.2359C45.5 25.3359 45 25.3359 44.4 25.3359C42.6 25.3359 40.4 25.6359 40.2 25.6359C40 25.6359 38.9 25.8359 39.9 27.5359C40 27.7359 40.2 28.0359 40.3 28.2359C32.6 25.2359 26 23.3359 25.6 23.2359L24.3 22.8359L23.7 22.6359L23.1 22.8359L20.4 23.7359C19.4 23.5359 18.7 23.3359 18.7 23.3359L16.2 22.8359L14.9 22.6359L14.1 23.6359L12.6 25.6359L11.6 25.2359L9.5 24.4359L8.9 26.6359L6.4 36.9359L6 38.6359L7.5 39.3359L10 40.5359L9.9 40.8359L10.7 41.7359L12.2 43.5359C12.4 43.7359 12.9 44.3359 15.6 46.9359L8.9 51.4359L7.7 52.2359L8 53.6359L12.7 73.2359L13.5 76.6359L16.1 74.2359L17.5 72.9359C18.9 74.8359 20.5 76.9359 22.5 79.1359C21.2 79.3359 21.6 80.2359 21.7 80.3359C21.8 80.5359 22.8 82.4359 23.7 84.0359C24.7 85.5359 24.8 86.3359 24.6 86.5359C24.4 86.7359 23.6 85.8359 23 84.8359C22.4 83.8359 21.5 83.1359 21.2 82.1359C20.9 81.1359 20.3 79.7359 20 79.7359C19.7 79.8359 18.8 80.4359 18 80.7359C17.2 81.1359 16.5 81.4359 16.2 81.6359C15.9 81.8359 15.3 82.2359 15.2 82.5359C15.2 82.6359 15.1 82.7359 15.2 82.7359C15.3 83.2359 16.9 84.0359 17.3 84.2359C17.7 84.4359 18.5 85.3359 17.4 85.1359C16.3 84.9359 15 83.7359 14.6 83.7359C14.2 83.7359 14 83.8359 13.6 84.1359C13.2 84.5359 11.2 86.5359 10.5 86.9359C9.7 87.2359 10 87.6359 11 88.2359C11.2 88.3359 11.5 88.5359 11.9 88.7359C13.1 89.5359 14.7 90.6359 15 90.9359C15.5 91.3359 16.4 91.5359 17.6 90.4359C18.8 89.3359 18.9 90.1359 18.4 90.8359C18 91.5359 17.5 92.3359 17.9 92.4359C18.3 92.5359 20.7 93.9359 22.2 93.9359C23.6 93.9359 24.7 94.5359 24.9 93.9359C25.1 93.3359 25.5 90.9359 25.9 90.6359C26.3 90.3359 27 88.7359 27.2 89.1359C27.4 89.5359 27.3 90.5359 26.8 91.8359C26.2 93.2359 25.7 94.3359 26.8 94.2359C27.8 94.2359 29.6 94.0359 30.5 94.1359C30.6 94.1359 30.6 94.1359 30.7 94.1359C31 94.1359 31 94.2359 31.4 94.2359C32.1 94.2359 32.4 93.4359 32.4 93.4359C32.8 92.8359 32.9 92.5359 33 91.9359C33 91.5359 33.2 90.4359 33.4 89.4359C33.7 89.7359 34.1 90.5359 34.4 90.2359C34.7 89.9359 35 88.9359 35.4 87.8359C37.8 90.3359 41.6 92.0359 45.9 92.0359C46 92.0359 46.1 92.0359 46.1 92.0359C47.5 92.0359 48.9 91.8359 50.2 91.5359L55.4 88.9359C55.8 88.5359 56.5 89.1359 56.3 89.6359C56.2 89.7359 56.2 89.8359 56.1 89.9359C56 90.1359 55.9 90.4359 55.8 90.7359C55.8 90.8359 55.8 90.8359 55.8 90.9359C55.8 91.7359 55.9 92.3359 56.4 93.0359C56.6 93.2359 56.8 93.3359 57 93.5359C57.3 93.7359 57.5 93.9359 57.8 94.1359C57.9 94.2359 58.1 94.3359 58.2 94.4359L58.6 94.2359L59.7 93.7359C59.9 93.6359 60.1 93.4359 60.2 93.4359C60.5 93.2359 60.6 93.0359 60.7 92.7359C60.7 92.7359 60.7 92.7359 60.7 92.6359C60.7 92.6359 60.7 92.6359 60.8 92.6359C61.2 92.6359 60.2 94.0359 60 94.4359C60 94.5359 59.9 94.5359 59.9 94.6359V94.7359C59.9 94.7359 59.9 94.8359 59.8 94.8359C59.8 94.9359 59.7 94.9359 59.7 95.0359V95.1359C59.6 95.2359 59.6 95.3359 59.5 95.4359L59.2 96.1359C59 96.5359 59.1 97.0359 59.4 97.4359C59.7 97.7359 60 97.8359 60.3 97.8359H60.4V101.636C61.1 102.236 61.8 102.636 61.9 102.836C62.2 103.136 62.7 102.336 63 101.636C63.3 100.936 64.1 100.636 63.7 102.236C63.2 103.836 63.8 104.436 64.4 104.736C65 105.036 67.7 106.436 68.7 107.036C69.7 107.636 70.2 107.736 70.1 106.836C70 105.936 71 103.236 71.1 102.736C71.2 102.236 71.2 102.036 71 101.636C70.8 101.236 69.2 100.736 68.5 99.8359C67.8 98.9359 68.9 99.2359 69.3 99.5359C69.7 99.8359 71.1 100.836 71.6 100.736C72.1 100.636 72.1 99.6359 72.2 99.2359C72.3 98.8359 72.2 98.0359 72.2 97.2359C72.2 96.3359 72.3 95.2359 72.2 94.9359C72.1 94.6359 70.6 94.7359 69.6 94.9359C68.6 95.1359 67.5 94.7359 66.4 94.6359C65.3 94.5359 64 94.2359 64.1 93.9359C64.2 93.6359 64.9 93.4359 66.7 93.5359C68.5 93.7359 70.7 93.6359 70.9 93.6359C71.1 93.6359 72.2 93.5359 71.4 91.8359C71.3 91.7359 71.3 91.6359 71.2 91.4359H72.1C77.4 94.6359 83.7 96.2359 89.9 95.9359C90.3 95.9359 90.6 95.8359 91 95.8359C91 96.1359 91 96.3359 91.1 96.4359C91.2 96.8359 91.2 97.7359 91.7 97.8359C92.1 97.9359 93.4 96.9359 93.8 96.6359C94.2 96.3359 95.2 96.0359 94.6 96.8359C94 97.6359 92.5 98.3359 92.3 98.6359C92.1 98.9359 92.1 99.2359 92.3 99.6359C92.5 100.036 93.5 102.536 93.5 103.336C93.5 104.136 93.9 104.136 94.8 103.436C95.7 102.736 98.1 101.336 98.6 101.036C99.1 100.736 99.6 100.136 99.1 98.6359C98.6 97.1359 99.3 97.4359 99.7 98.0359C100.1 98.6359 100.6 99.4359 100.8 99.1359C101 98.8359 103.2 97.3359 103.7 96.0359C104.2 94.8359 105.1 94.1359 104.7 93.6359C104.3 93.2359 102.4 91.9359 102.2 91.5359C102.1 91.1359 101 89.8359 101.4 89.8359C101.8 89.8359 102.6 90.2359 103.6 91.2359C104.6 92.2359 105.3 93.1359 105.7 92.1359C105.7 92.0359 105.8 91.8359 105.9 91.7359L106.4 90.0359L106.3 86.4359L105.4 77.7359C105.1 77.1359 104.7 76.5359 104.3 75.9359C103.9 75.4359 103.1 74.8359 103.5 74.4359C105 72.9359 106.7 71.7359 107.8 70.3359C107.9 70.2359 107.9 70.2359 108 70.1359C109.3 68.1359 110.7 66.5359 111.2 64.1359C111.3 63.7359 111.3 63.2359 111.4 62.8359C111.4 62.4359 111.4 61.9359 111.5 61.5359C111.5 61.2359 111.5 60.9359 111.6 60.6359C111.6 60.2359 111.5 59.9359 111.5 59.6359L114.8 57.2359ZM103.9 25.8359C104.6 25.6359 106.5 26.2359 106.8 26.3359C107.6 26.7359 107.2 27.2359 106.8 27.0359C106.7 26.9359 103.7 26.2359 103.3 26.4359C103.1 26.5359 103.4 25.9359 103.9 25.8359ZM101.8 21.9359C102.2 22.0359 102.8 22.8359 103 24.0359C103.2 25.1359 102.5 24.9359 102.5 24.9359C101.9 24.9359 101.9 24.0359 101.6 23.3359C101.3 22.6359 101.4 21.9359 101.8 21.9359ZM97.1 27.4359C97.4 27.8359 97.7 29.5359 97.8 30.5359L97.2 29.8359C97.2 29.1359 96.7 28.2359 96.6 27.7359C96.5 27.2359 96.8 26.9359 97.1 27.4359ZM96.9 87.0359C97 87.0359 97.1 87.0359 97.2 87.0359C97.5 87.2359 97.8 87.4359 98.2 87.5359C97.6 87.7359 97.1 87.7359 96.9 87.7359C96.2 87.6359 96.4 87.1359 96.9 87.0359ZM96.4 94.9359C95.2 95.2359 94.1 95.1359 93.9 94.7359C93.6 94.3359 94.4 94.0359 95.1 94.0359C95.9 93.9359 96.7 93.5359 97 94.1359C97 94.0359 97.6 94.5359 96.4 94.9359ZM96.4 92.1359C95.3 92.2359 94.4 92.7359 93.4 92.5359C92.4 92.4359 91 92.4359 90.9 92.6359C90.8 92.8359 90.9 93.5359 91 94.2359C90.7 93.7359 90.5 93.1359 90.7 92.4359C90 91.8359 89.9 90.8359 90.2 90.0359C90.7 90.8359 91.4 91.4359 92.1 91.4359C92.3 91.4359 94.4 91.3359 96 91.0359C97.7 90.8359 98.4 91.0359 98.5 91.2359C98.6 91.6359 97.5 92.0359 96.4 92.1359ZM100.4 97.3359C99.7 96.8359 99.3 95.9359 99.2 95.4359C99.2 94.9359 99.2 94.6359 99.5 95.0359C99.6 95.2359 100.5 96.7359 100.9 97.0359C101.3 97.4359 101.1 97.8359 100.4 97.3359ZM100.8 32.4359C100.4 32.2359 99 32.0359 99.2 31.7359C99.4 31.4359 99.9 31.3359 99.9 31.3359C101.3 32.2359 101.2 32.6359 100.8 32.4359ZM106.9 50.0359C107.2 50.6359 107.5 51.3359 107.4 51.5359C107.3 51.9359 107.7 53.2359 107.4 53.0359C107.1 52.9359 106.6 52.2359 106.3 51.1359C106.2 50.9359 106.2 50.6359 106.1 50.4359L106.9 50.0359ZM106.6 54.3359C106.6 54.3359 106.5 54.8359 106.2 54.9359C105.9 55.0359 105.8 53.9359 105.6 53.5359C105.4 53.1359 105.8 53.1359 106.6 54.3359ZM107.2 60.0359L106.7 59.5359C107 59.6359 107.2 59.7359 107.5 59.8359C107.3 59.9359 107.3 60.0359 107.2 60.0359ZM109.7 62.3359C109.6 62.6359 109.2 63.7359 109.2 63.9359L108.9 63.6359L109 63.1359L109.3 62.0359L108.9 61.6359C109.1 61.3359 109.3 61.1359 109.5 61.2359C109.5 61.2359 109.5 61.2359 109.6 61.2359C109.8 61.4359 109.8 62.0359 109.7 62.3359ZM109.6 57.3359C109.1 57.2359 108.2 56.7359 107.6 56.7359C107 56.7359 106.1 56.4359 105.5 56.8359C105.5 56.8359 106 56.2359 106.6 56.2359C107.2 56.1359 109.4 56.5359 109.9 56.8359C110.4 57.1359 110.1 57.4359 109.6 57.3359ZM111.2 50.2359C111 50.6359 110.9 50.8359 110.9 50.4359C110.9 50.2359 110.8 48.7359 110.6 48.3359C110.6 48.2359 110.5 48.1359 110.6 48.0359L110.8 47.9359C110.9 47.9359 111 48.0359 111.2 48.3359C111.4 49.0359 111.3 49.8359 111.2 50.2359ZM113.7 52.8359C113.1 52.6359 112.3 52.5359 112.3 52.0359C112.3 52.0359 112 51.4359 113.1 51.6359C114.1 51.8359 114.9 52.3359 114.9 52.7359C114.9 53.1359 114.3 53.0359 113.7 52.8359Z" fill="url(#paint33_linear)"/>
<path d="M104.585 45.4002C104.785 44.8002 104.685 44.2002 104.385 43.6002C103.585 42.2002 101.285 41.1002 97.2852 40.1002L97.3852 39.7002C97.4852 39.5002 97.3852 39.3002 97.3852 39.2002C97.2852 39.0002 97.1852 38.9002 96.9852 38.9002C94.5852 38.4002 91.8852 38.0002 88.9852 37.6002C89.0852 37.4002 89.1852 37.2002 89.2852 36.9002C89.3852 36.7002 89.3852 36.4002 89.2852 36.2002C89.0852 35.8002 88.6852 35.6002 88.4852 35.5002C88.3852 35.5002 88.2852 35.5002 88.1852 35.5002C87.9852 35.5002 87.6852 35.6002 87.5852 35.9002C87.3852 36.4002 87.0852 36.9002 86.8852 37.4002C86.2852 37.3002 85.6852 37.3002 85.0852 37.2002V37.1002H85.5852C85.7852 37.1002 85.9852 36.9002 86.0852 36.7002L88.2852 31.3002C88.3852 31.1002 88.3852 30.9002 88.1852 30.7002C88.0852 30.5002 87.8852 30.4002 87.6852 30.4002H83.7852L89.4852 29.9002C89.6852 29.9002 89.8852 29.8002 89.9852 29.5002C90.0852 29.3002 89.9852 29.0002 89.8852 28.9002L88.3852 27.1002C88.2852 27.0002 88.0852 26.9002 87.8852 26.9002H87.7852L80.4852 28.7002C80.4852 28.6002 80.3852 28.5002 80.2852 28.4002C80.1852 28.3002 79.9852 28.2002 79.8852 28.2002H79.7852L78.5852 28.4002C78.2852 28.4002 78.0852 28.6002 78.0852 28.9002L77.7852 29.9002L75.8852 29.8002C75.5852 29.8002 75.3852 30.0002 75.2852 30.3002C74.9852 31.7002 74.5852 33.6002 74.2852 36.0002C64.1852 35.2002 55.9852 35.2002 55.8852 35.2002C55.6852 35.2002 55.4852 35.3002 55.3852 35.4002C55.2852 35.5002 55.1852 35.7002 55.2852 35.9002L55.4852 36.9002H54.2852C53.9852 36.9002 53.7852 37.1002 53.6852 37.3002L53.1852 38.5002C53.0852 38.7002 53.0852 38.9002 53.1852 39.1002C53.2852 39.3002 53.4852 39.4002 53.6852 39.4002C54.1852 39.4002 55.5852 39.5002 57.0852 39.6002L52.0852 39.8002C51.8852 39.8002 51.6852 39.9002 51.5852 40.2002C51.4852 40.4002 51.4852 40.7002 51.6852 40.8002L54.8852 44.5002C54.9852 44.6002 55.1852 44.7002 55.3852 44.7002C55.4852 44.7002 64.0852 44.9002 72.9852 45.4002C72.9852 45.7002 72.8852 45.9002 72.8852 46.2002C72.6852 46.2002 72.5852 46.1002 72.3852 46.1002C71.6852 46.1002 71.3852 46.5002 71.3852 46.9002C71.2852 49.7002 71.1852 52.5002 71.0852 55.3002C70.8852 55.3002 70.6852 55.4002 70.4852 55.4002C70.3852 55.4002 70.2852 55.5002 70.1852 55.5002C70.1852 55.3002 70.0852 55.2002 70.0852 55.0002C70.0852 54.9002 69.9852 54.7002 69.8852 54.6002L68.7852 58.3002L66.6852 63.4002C66.5852 63.6002 66.6852 63.8002 66.7852 64.0002C66.8852 64.2002 67.0852 64.2002 67.2852 64.2002H67.3852L70.5852 63.9002C70.4852 64.0002 70.3852 64.2002 70.3852 64.3002C70.2852 65.7002 70.1852 66.9002 70.0852 68.0002C70.0852 68.2002 70.0852 68.4002 70.1852 68.5002V68.6002C61.8852 70.9002 53.9852 72.8002 53.8852 72.8002C53.6852 72.8002 53.5852 73.0002 53.4852 73.2002V73.1002C53.1852 72.6002 52.7852 72.1002 52.3852 71.7002L52.2852 71.8002C52.6852 72.6002 52.9852 73.3002 53.3852 74.1002C53.4852 74.0002 53.5852 74.0002 53.6852 73.8002C53.6852 73.9002 53.7852 73.9002 53.7852 74.0002L54.5852 74.8002L57.3852 78.1002C57.4852 78.2002 57.6852 78.3002 57.8852 78.3002L61.7852 78.0002C59.2852 78.9002 55.9852 79.8002 53.0852 80.2002C52.7852 80.2002 52.6852 80.4002 52.5852 80.6002C52.4852 80.8002 52.5852 81.1002 52.7852 81.2002C53.0852 81.5002 55.7852 84.1002 56.5852 84.7002C56.6852 84.8002 56.7852 84.8002 56.9852 84.8002C57.0852 84.8002 57.0852 84.8002 57.1852 84.8002C57.5852 84.7002 60.3852 83.8002 64.4852 82.4002C64.4852 82.5002 64.3852 82.5002 64.3852 82.6002C64.3852 82.9002 64.5852 83.1002 64.7852 83.2002L66.0852 83.7002C66.1852 83.7002 66.1852 83.7002 66.2852 83.7002C66.3852 83.7002 66.3852 83.7002 66.4852 83.7002C66.5852 83.7002 81.8852 79.6002 93.9852 73.8002C94.1852 73.7002 94.2852 73.5002 94.3852 73.3002L94.8852 70.9002C94.8852 70.7002 94.7852 70.4002 94.5852 70.3002C94.4852 70.2002 94.3852 70.2002 94.1852 70.2002C94.0852 70.2002 93.9852 70.2002 93.8852 70.3002C93.7852 70.4002 83.2852 76.7002 67.5852 81.3002C78.1852 77.5002 93.5852 71.3002 98.6852 65.3002L98.3852 66.5002C98.4852 66.4002 98.5852 66.3002 98.6852 66.2002C98.8852 66.0002 99.1852 65.7002 99.3852 65.5002C99.4852 65.4002 99.5852 65.2002 99.6852 65.1002L100.785 63.1002L99.9852 63.3002C100.685 62.1002 101.985 59.7002 102.285 58.0002C102.285 57.6002 102.185 57.3002 101.985 56.9002C100.985 55.7002 97.0852 55.2002 92.3852 55.0002C96.3852 54.3002 102.785 51.3002 104.585 45.4002ZM82.1852 46.3002C82.2852 46.3002 82.3852 46.3002 82.4852 46.3002C81.9852 47.5002 81.5852 48.7002 81.0852 49.8002V49.9002C81.3852 48.7002 81.7852 47.5002 82.1852 46.3002ZM92.1852 62.6002C91.2852 63.1002 89.4852 63.9002 86.3852 65.1002L86.0852 64.6002C85.9852 64.4002 85.7852 64.3002 85.5852 64.3002C85.4852 64.3002 85.3852 64.3002 85.3852 64.3002C83.6852 64.9002 81.4852 65.7002 78.7852 66.5002C79.0852 65.6002 79.3852 64.6002 79.7852 63.5002C85.8852 62.9002 89.9852 62.6002 92.1852 62.6002ZM91.9852 48.4002C91.6852 49.2002 89.2852 50.6002 83.5852 52.4002C84.0852 51.2002 84.3852 50.3002 84.5852 49.7002C84.6852 49.5002 84.6852 49.2002 84.4852 49.0002L84.0852 48.6002C84.3852 47.9002 84.5852 47.2002 84.8852 46.5002C90.9852 47.3002 91.7852 48.0002 91.8852 48.1002C92.0852 48.3002 92.0852 48.3002 91.9852 48.4002Z" fill="#102417"/>
<path d="M80.0859 30.6002C80.1859 30.6002 80.1859 30.5002 80.0859 30.6002V30.6002Z" fill="#102417"/>
<path d="M53.7857 75.7002L56.4857 79.0002C56.5857 79.1002 56.6857 79.2002 56.8857 79.3002C55.4857 79.7002 53.9857 80.0002 52.5857 80.2002C52.0857 80.3002 51.6857 80.6002 51.5857 81.0002C51.4857 81.5002 51.5857 82.0002 51.8857 82.3002C52.3857 82.8002 54.9857 85.3002 55.7857 85.8002C55.9857 85.9002 56.2857 86.0002 56.4857 86.0002C56.5857 86.0002 56.7857 86.0002 56.8857 85.9002C56.8857 85.9002 59.5857 85.1002 63.4857 83.8002C63.5857 84.1002 63.8857 84.3002 64.1857 84.4002L65.4857 84.9002C65.5857 84.9002 65.7857 85.0002 65.8857 85.0002C65.9857 85.0002 66.0857 85.0002 66.1857 85.0002C66.2857 85.0002 81.5857 80.9002 93.8857 75.1002C94.2857 74.9002 94.4857 74.6002 94.5857 74.2002L94.9857 71.8002C94.9857 71.7002 94.9857 71.6002 94.9857 71.5002C94.9857 70.9002 94.5857 70.5002 94.0857 70.3002C95.2857 69.5002 96.3857 68.7002 97.1857 67.9002C97.6857 67.5002 97.9857 67.2002 98.3857 66.9002C98.4857 66.8002 98.5857 66.7002 98.6857 66.6002L99.0857 64.8002L100.086 64.5002L100.786 63.2002C101.486 61.9002 102.286 60.2002 102.386 58.9002C102.486 58.4002 102.286 57.8002 101.886 57.4002C100.986 56.3002 98.6857 55.8002 94.7857 55.5002C94.8857 55.5002 94.9857 55.4002 95.0857 55.4002C100.386 53.1002 103.886 49.8002 105.086 45.8002C105.286 45.0002 105.186 44.2002 104.786 43.5002C103.986 42.0002 101.786 40.9002 97.8857 39.8002C97.8857 39.6002 97.8857 39.3002 97.7857 39.1002C97.5857 38.8002 97.2857 38.6002 96.9857 38.5002C94.7857 38.0002 92.3857 37.6002 89.7857 37.3002C89.8857 36.9002 89.8857 36.6002 89.7857 36.2002C89.5857 35.7002 89.1857 35.4002 88.6857 35.1002C88.4857 35.0002 88.3857 35.0002 88.1857 35.0002C87.8857 35.0002 87.5857 35.1002 87.3857 35.3002L88.8857 31.6002C88.9857 31.3002 88.9857 31.0002 88.8857 30.8002H89.3857C89.8857 30.8002 90.2857 30.5002 90.3857 30.0002C90.5857 29.6002 90.4857 29.1002 90.1857 28.7002L88.7857 26.8002C88.4857 26.5002 88.1857 26.3002 87.7857 26.3002C87.6857 26.3002 87.5857 26.3002 87.4857 26.3002L80.5857 28.0002C80.5857 28.0002 80.5857 28.0002 80.5857 27.9002C80.3857 27.7002 79.9857 27.5002 79.6857 27.5002C79.5857 27.5002 79.5857 27.5002 79.4857 27.5002L78.2857 27.7002C77.7857 27.8002 77.3857 28.1002 77.2857 28.6002L77.1857 29.1002L75.7857 29.0002C75.1857 29.0002 74.6857 29.4002 74.5857 30.0002C74.2857 31.3002 73.9857 33.1002 73.5857 35.2002C63.6857 34.5002 55.7857 34.4002 55.6857 34.4002C55.2857 34.4002 54.9857 34.6002 54.6857 34.8002C54.3857 35.1002 54.3857 35.5002 54.3857 35.8002L54.4857 36.2002H53.9857C53.4857 36.2002 53.0857 36.5002 52.8857 37.0002L52.3857 38.2002C52.2857 38.5002 52.2857 38.8002 52.3857 39.1002H51.8857C51.3857 39.1002 50.9857 39.4002 50.7857 39.8002C50.5857 40.2002 50.6857 40.8002 50.9857 41.1002L54.1857 44.8002C54.3857 45.1002 54.7857 45.2002 55.0857 45.2002C55.1857 45.2002 62.6857 45.4002 70.8857 45.8002C70.5857 46.1002 70.3857 46.5002 70.3857 46.8002C70.2857 49.3002 70.1857 51.8002 70.0857 54.4002C69.9857 54.2002 69.8857 54.1002 69.7857 53.9002C69.5857 54.4002 69.3857 54.9002 69.1857 55.3002C69.3857 56.0002 69.1857 56.7002 68.4857 57.5002L66.7857 60.8002L65.7857 63.2002C65.5857 63.6002 65.6857 64.0002 65.9857 64.4002C66.1857 64.7002 66.5857 64.9002 66.9857 64.9002H67.0857L69.3857 64.7002C69.2857 65.9002 69.1857 67.0002 69.0857 68.0002V68.3002C60.9857 70.5002 53.4857 72.4002 53.3857 72.4002H53.2857C53.0857 72.1002 52.7857 71.8002 52.5857 71.5002C52.4857 71.5002 52.3857 71.6002 52.2857 71.6002C52.1857 71.6002 51.6857 71.9002 51.5857 71.9002L53.7857 75.7002ZM87.8857 27.5002L89.3857 29.3002L80.6857 30.1002L80.3857 29.4002L87.8857 27.5002ZM93.2857 73.9002C80.9857 79.7002 65.8857 83.7002 65.8857 83.7002L64.5857 83.2002C82.0857 78.5002 93.7857 71.4002 93.7857 71.4002L93.2857 73.9002ZM101.186 58.6002C100.886 60.7002 98.6857 64.3002 98.6857 64.3002C92.9857 73.7002 56.4857 84.8002 56.4857 84.8002C55.7857 84.3002 52.7857 81.4002 52.7857 81.4002C56.8857 80.9002 61.7857 79.1002 64.1857 78.2002V77.7002L57.4857 78.2002L54.6857 74.9002L53.8857 74.0002C53.8857 74.0002 61.9857 72.0002 70.5857 69.6002C70.5857 69.4002 70.6857 69.1002 70.6857 68.8002C70.5857 68.7002 70.5857 68.6002 70.5857 68.5002C70.6857 67.3002 70.7857 66.0002 70.8857 64.8002L71.1857 64.7002L72.1857 64.5002L75.2857 63.7002L75.3857 63.4002V63.3002L72.1857 63.6002L71.2857 63.7002H70.9857L67.1857 64.1002L70.3857 56.2002C70.6857 56.2002 71.0857 56.1002 71.4857 56.0002C71.6857 53.0002 71.7857 50.1002 71.8857 47.1002C71.8857 46.9002 72.0857 46.9002 72.2857 46.9002C72.6857 46.9002 73.0857 47.1002 73.0857 47.4002C73.0857 48.1002 73.0857 48.8002 72.9857 49.5002C73.1857 48.0002 73.3857 46.5002 73.5857 45.0002C64.3857 44.4002 55.2857 44.2002 55.2857 44.2002L52.0857 40.5002L63.1857 40.0002L62.8857 39.4002C62.8857 39.4002 54.8857 38.9002 53.6857 38.8002L54.1857 37.6002L56.0857 37.5002L55.7857 35.8002C55.7857 35.8002 64.2857 35.9002 74.7857 36.7002C75.1857 34.2002 75.5857 32.0002 75.8857 30.4002L78.2857 30.5002L78.6857 29.0002L79.7857 28.8002L79.4857 30.6002L78.7857 34.5002H78.8857L79.5857 31.4002V31.2002L86.3857 31.0002H86.4857H87.5857L85.3857 36.4002L84.4857 36.5002C84.3857 36.9002 84.1857 37.3002 84.0857 37.7002C85.0857 37.8002 86.0857 37.9002 87.0857 38.1002C87.3857 37.5002 87.6857 36.8002 87.9857 36.2002C88.2857 36.3002 88.5857 36.6002 88.4857 36.8002C88.2857 37.3002 88.0857 37.8002 87.8857 38.2002C90.8857 38.6002 93.8857 39.1002 96.6857 39.7002L96.2857 40.7002C101.286 41.9002 104.386 43.4002 103.786 45.4002C101.086 54.2002 87.1857 56.4002 87.1857 56.4002C92.0857 56.4002 101.486 56.5002 101.186 58.6002Z" fill="#102417"/>
<path d="M75.8857 67.0002C76.1857 66.1002 76.3857 65.2002 76.6857 64.3002C76.7857 63.9002 76.8857 63.6002 76.9857 63.2002C76.8857 63.2002 76.7857 63.2002 76.6857 63.2002C76.3857 64.5002 76.1857 65.8002 75.8857 67.0002Z" fill="#102417"/>
<path d="M82.5859 53.4002C88.3859 51.7002 93.4859 49.5002 92.5859 47.9002C92.0859 47.1002 88.8859 46.4002 84.5859 46.0002C84.1859 47.0002 83.7859 47.9002 83.4859 48.8002L84.0859 49.5002C83.7859 50.3002 83.1859 51.7002 82.5859 53.4002ZM84.9859 48.7002L84.8859 48.6002C85.0859 48.2002 85.1859 47.8002 85.3859 47.4002C88.9859 47.9002 90.5859 48.3002 91.1859 48.5002C90.4859 49.1002 88.6859 50.1002 84.6859 51.5002C84.8859 50.9002 85.0859 50.4002 85.2859 50.1002C85.3859 49.6002 85.3859 49.0002 84.9859 48.7002Z" fill="#102417"/>
<path d="M92.6861 62.0002H92.1861C89.5861 62.0002 84.3861 62.5002 79.2861 63.0002C78.6861 64.8002 78.1861 66.4002 77.7861 67.6002C80.6861 66.7002 83.3861 65.8002 85.4861 65.0002L85.9861 66.0002C91.9861 63.7002 94.9861 62.1002 92.6861 62.0002ZM86.6861 64.4002C86.4861 64.0002 86.0861 63.8002 85.5861 63.8002C85.4861 63.8002 85.2861 63.8002 85.1861 63.9002C83.7861 64.4002 81.9861 65.1002 79.7861 65.7002C79.8861 65.2002 80.0861 64.7002 80.2861 64.2002C83.9861 63.8002 86.9861 63.6002 89.1861 63.4002C88.4861 63.7002 87.6861 64.0002 86.6861 64.4002Z" fill="#102417"/>
<path d="M81.6855 50.1002C82.1855 48.7002 82.7856 47.3002 83.3856 45.9002C82.8856 45.8002 82.2856 45.8002 81.7856 45.7002C80.8856 48.5002 79.9855 51.4002 79.1855 54.4002C79.5855 54.3002 79.8856 54.2002 80.2856 54.1002C80.6856 52.7002 81.1855 51.4002 81.6855 50.1002Z" fill="#102417"/>
<path d="M99.0004 62.9358C99.0004 62.9358 101.3 59.3358 101.5 57.2358C101.7 55.1358 92.4004 55.0358 87.7004 54.8358C87.7004 54.8358 101.6 52.6358 104.3 43.8358C104.9 41.8358 101.7 40.3358 96.8004 39.1358L97.2004 38.1358C94.4004 37.5358 91.4004 37.0358 88.4004 36.6358C88.6004 36.1358 88.8004 35.6358 89.0004 35.2358C89.1004 35.0358 88.8004 34.7358 88.5004 34.6358C88.2004 35.2358 87.9004 35.9358 87.6004 36.5358C86.6004 36.4358 85.6004 36.3358 84.6004 36.1358C84.7004 35.7358 84.9004 35.3358 85.0004 34.9358L85.9004 34.8358L88.1004 29.4358H87.0004H86.9004L80.1004 29.6358V29.8358L79.4004 32.9358H79.3004L80.0004 29.0358L80.3004 27.2358L79.1004 27.4358L78.7004 28.9358L76.3004 28.8358C75.9004 30.4358 75.6004 32.6358 75.2004 35.1358C64.7004 34.3358 56.2004 34.2358 56.2004 34.2358L56.5004 35.9358L54.6004 36.0358L54.1004 37.2358C55.3004 37.3358 63.3004 37.8358 63.3004 37.8358L63.6004 38.4358L52.4004 39.0358L55.6004 42.7358C55.6004 42.7358 64.7004 42.9358 73.9004 43.5358C73.7004 45.0358 73.5004 46.5358 73.3004 48.0358C73.3004 47.3358 73.3004 46.6358 73.4004 45.9358C73.4004 45.4358 72.2004 45.2358 72.2004 45.7358C72.1004 48.7358 72.0004 51.6358 71.8004 54.6358C71.4004 54.7358 71.0004 54.7358 70.7004 54.8358L67.5004 62.7358L71.3004 62.3358H71.6004L72.5004 62.2358L75.7004 61.9358V62.0358L75.6004 62.3358L72.5004 63.1358L71.5004 63.3358L71.2004 63.4358C71.1004 64.6358 71.0004 65.9358 70.9004 67.1358C70.9004 67.2358 70.9004 67.3358 71.0004 67.4358C71.0004 67.7358 70.9004 68.0358 70.9004 68.2358C62.4004 70.6358 54.3004 72.6358 54.3004 72.6358L55.1004 73.5358L57.9004 76.8358L64.6004 76.3358V76.8358C62.2004 77.7358 57.3004 79.5358 53.2004 80.0358C53.2004 80.0358 56.2004 82.9358 56.9004 83.4358C56.8004 83.4358 93.3004 72.3358 99.0004 62.9358ZM85.0004 44.5358C89.3004 45.0358 92.5004 45.6358 93.0004 46.5358C93.9004 48.1358 88.8004 50.2358 83.0004 52.0358C83.6004 50.3358 84.1004 48.9358 84.5004 48.1358L83.9004 47.4358C84.2004 46.4358 84.6004 45.5358 85.0004 44.5358ZM82.1004 44.2358C82.7004 44.3358 83.2004 44.3358 83.7004 44.4358C83.1004 45.8358 82.6004 47.2358 82.0004 48.7358C81.5004 50.0358 81.0004 51.4358 80.5004 52.7358C80.1004 52.8358 79.8004 52.9358 79.4004 53.0358C80.3004 49.9358 81.2004 47.0358 82.1004 44.2358ZM77.1004 62.9358C76.8004 63.8358 76.5004 64.7358 76.3004 65.6358C76.6004 64.4358 76.9004 63.1358 77.2004 61.8358C77.3004 61.8358 77.4004 61.8358 77.5004 61.8358C77.3004 62.2358 77.2004 62.5358 77.1004 62.9358ZM86.4004 64.6358L85.9004 63.6358C83.8004 64.4358 81.1004 65.3358 78.2004 66.2358C78.6004 65.0358 79.1004 63.4358 79.7004 61.6358C85.1004 61.1358 90.7004 60.6358 93.1004 60.6358C95.3004 60.7358 92.3004 62.3358 86.4004 64.6358Z" fill="url(#paint34_linear)"/>
<path d="M89.7002 27.8358L88.3002 26.1358L80.7002 27.9358L81.0002 28.7358L89.7002 27.8358Z" fill="url(#paint35_linear)"/>
<path d="M66.2004 82.4358C66.2004 82.4358 81.4004 78.3358 93.6004 72.5358L94.1004 70.0358C94.1004 70.0358 82.4004 77.2358 64.9004 81.8358L66.2004 82.4358Z" fill="url(#paint36_linear)"/>
<path d="M92.9 60.2358H92.4C89.8 60.2358 84.6 60.7358 79.5 61.2358C78.9 63.0358 78.4 64.6358 78 65.8358C80.9 64.9358 83.6 64.0358 85.7 63.2358L86.2 64.2358C92.2 62.0358 95.1 60.3358 92.9 60.2358ZM86.7 63.2358L86.5 62.9358L86.1 62.3358L85.4 62.5358C83.8 63.1358 81.7 63.8358 79.3 64.6358C79.6 63.7358 79.9 62.9358 80.1 62.0358C85.4 61.5358 89.1 61.2358 91.4 61.1358C90.6 61.6358 89.1 62.2358 86.7 63.2358Z" fill="url(#paint37_linear)"/>
<path d="M76.0996 65.3358C76.3996 64.4358 76.5996 63.5358 76.8996 62.6358C76.9996 62.2358 77.0996 61.9358 77.1996 61.5358C77.0996 61.5358 76.9996 61.5358 76.8996 61.5358C76.5996 62.8358 76.3996 64.0358 76.0996 65.3358Z" fill="url(#paint38_linear)"/>
<path d="M53.7 73.1358L54.3 73.7358L57.1 77.0358L57.4 77.3358H57.8L60 77.1358C57.8 77.8358 55.2 78.5358 52.9 78.8358L51.2 79.0358L52.4 80.2358C52.7 80.5358 55.4 83.2358 56.2 83.7358L56.5 83.9358L56.9 83.8358C56.9 83.8358 59.4 83.0358 63.1 81.8358L64.4 82.3358L65.7 82.8358L66 82.9358L66.3 82.8358C66.4 82.8358 81.7 78.6358 93.9 72.9358L94.3 72.7358L94.4 72.3358L94.9 69.8358L95.2 67.9358L93.6 68.9358C93.5 69.0358 87 73.0358 76.5 76.9358C87.5 72.4358 94.8 68.4358 98.3 64.8358L100.3 61.9358C101 60.6358 102.1 58.4358 102.3 56.9358C102.4 56.5358 102.2 56.0358 101.9 55.7358C100.9 54.5358 97.5 54.0358 93.2 53.8358C93.9 53.6358 94.6 53.3358 95.2 53.0358C100.4 50.7358 103.8 47.5358 105 43.6358C105.2 42.9358 105.1 42.3358 104.8 41.7358C104 40.3358 101.8 39.1358 97.8 38.1358V38.0358L98.1 37.1358L97.1 36.9358C94.7 36.4358 92.1 36.0358 89.3 35.6358C89.4 35.5358 89.4 35.3358 89.5 35.2358C89.6 34.9358 89.6 34.6358 89.5 34.3358C89.3 33.8358 88.8 33.5358 88.6 33.4358L87.9 33.1358L87.5 33.8358C87.3 34.2358 87.1 34.7358 86.8 35.2358C86.6 35.2358 86.4 35.1358 86.2 35.1358L86.3 34.7358L88.5 29.3358L89 28.2358H89.4L91 28.1358L90 26.9358L88.5 25.1358L88.2 24.7358L87.7 24.8358L80.7 26.5358L80.8 25.9358L79.7 26.1358L78.5 26.3358L78 26.4358L77.9 26.9358L77.7 27.8358L76 27.7358H75.3L75.2 28.4358C74.9 29.8358 74.6 31.7358 74.2 34.0358C64.1 33.2358 56 33.1358 56 33.1358H55L55.2 34.1358L55.3 34.9358H54.3H53.8L53.6 35.4358L53.1 36.6358L52.7 37.6358L53.6 37.7358L52.2 37.8358L50.5 37.9358L51.6 39.2358L54.8 42.9358L55.1 43.2358H55.5C55.6 43.2358 64.1 43.4358 72.8 43.9358C72.8 44.0358 72.8 44.1358 72.8 44.2358C72.7 44.2358 72.6 44.2358 72.5 44.2358C71.7 44.2358 71.3 44.7358 71.2 45.3358C71.1 48.0358 71 50.8358 70.9 53.5358C70.8 53.5358 70.6 53.5358 70.5 53.6358H70.4C70.4 53.5358 70.4 53.5358 70.3 53.4358L66.7 62.1358L66.2 63.4358L67.6 63.3358L70.4 63.0358V63.2358C70.3 64.6358 70.2 65.8358 70.1 66.9358C70.1 67.1358 70.1 67.3358 70.2 67.4358C62 69.7358 54.2 71.6358 54.1 71.6358L53.7 71.7358C53.4 71.8358 53.2 71.9358 52.9 72.0358C53 72.1358 53.1 72.2358 53.1 72.3358L53.7 73.1358ZM88.1 25.7358L89.6 27.5358L80.9 28.3358L80.6 27.6358L88.1 25.7358ZM93.9 69.7358L93.4 72.2358C81.2 78.0358 66 82.1358 66 82.1358L64.7 81.6358C82.3 76.9358 93.9 69.7358 93.9 69.7358ZM101.4 56.8358C101.1 58.9358 98.9 62.5358 98.9 62.5358C93.2 71.9358 56.8 83.0358 56.8 83.0358C56.1 82.5358 53.1 79.6358 53.1 79.6358C57.2 79.1358 62.1 77.3358 64.5 76.4358V75.9358L57.8 76.4358L55 73.1358L54.2 72.2358C54.2 72.2358 62.3 70.2358 70.9 67.8358C70.9 67.6358 71 67.3358 71 67.0358C70.9 66.9358 70.9 66.8358 70.9 66.7358C71 65.5358 71.1 64.2358 71.2 63.0358L71.5 62.9358L72.5 62.7358L75.6 61.9358L75.7 61.6358V61.5358L72.5 61.8358L71.6 61.9358H71.3L67.5 62.3358L70.7 54.4358C71 54.4358 71.4 54.3358 71.8 54.2358C72 51.2358 72.1 48.3358 72.2 45.3358C72.2 45.1358 72.4 45.1358 72.6 45.1358C73 45.1358 73.4 45.3358 73.4 45.6358C73.4 46.3358 73.4 47.0358 73.3 47.7358C73.5 46.2358 73.7 44.7358 73.9 43.2358C64.7 42.6358 55.6 42.4358 55.6 42.4358L52.4 38.7358L63.4 38.2358L63.1 37.6358C63.1 37.6358 55.1 37.1358 53.9 37.0358L54.4 35.8358L56.3 35.7358L56 34.0358C56 34.0358 64.4 34.1358 74.9 34.9358C75.3 32.4358 75.7 30.2358 76 28.6358L78.4 28.7358L78.8 27.2358L80 27.0358L79.7 28.8358L79 32.7358H79.1L79.8 29.6358V29.4358L86.6 29.2358H86.7H87.8L85.5 34.5358L84.6 34.6358C84.5 35.0358 84.3 35.4358 84.2 35.8358C85.2 35.9358 86.2 36.0358 87.2 36.2358C87.5 35.6358 87.8 34.9358 88.1 34.3358C88.4 34.4358 88.7 34.7358 88.6 34.9358C88.4 35.4358 88.2 35.9358 88 36.3358C91 36.7358 94 37.2358 96.8 37.8358L96.4 38.8358C101.4 40.0358 104.5 41.5358 103.9 43.5358C101.2 52.3358 87.3 54.5358 87.3 54.5358C92.3 54.6358 101.7 54.7358 101.4 56.8358Z" fill="url(#paint39_linear)"/>
<path d="M81.9004 48.3358C82.4004 46.9358 83.0004 45.5358 83.6004 44.0358C83.1004 43.9358 82.5004 43.9358 82.0004 43.8358C81.1004 46.6358 80.3004 49.5358 79.4004 52.5358C79.8004 52.4358 80.1004 52.3358 80.5004 52.2358C80.9004 50.9358 81.4004 49.6358 81.9004 48.3358Z" fill="url(#paint40_linear)"/>
<path d="M82.7998 51.6358C88.5998 49.9358 93.6998 47.7358 92.6998 46.1358C92.1998 45.3358 89.0998 44.6358 84.7998 44.1358C84.3998 45.1358 83.9998 46.0358 83.6998 46.9358L84.2998 47.6358C83.8998 48.5358 83.3998 49.9358 82.7998 51.6358ZM85.2998 45.0358C90.5998 45.7358 91.7998 46.3358 91.9998 46.5358C91.8998 46.7358 90.9998 48.0358 84.0998 50.3358C84.4998 49.3358 84.7998 48.5358 84.9998 48.1358L85.1998 47.6358L84.7998 47.2358L84.4998 46.9358C84.8998 46.2358 85.0998 45.6358 85.2998 45.0358Z" fill="url(#paint41_linear)"/>
<path d="M42.9861 54.4003L45.4861 56.9003C45.5861 57.0003 45.7861 57.1003 45.8861 57.1003C45.9861 57.1003 45.9861 57.1003 46.0861 57.1003C46.2861 57.0003 46.4861 56.8003 46.4861 56.6003L47.5861 46.8003C47.5861 46.7003 47.5861 46.6003 47.5861 46.6003L46.8861 44.2003C46.7861 43.9003 46.5861 43.7003 46.2861 43.7003C45.9861 43.7003 45.7861 43.9003 45.6861 44.1003L42.7861 53.8003C42.7861 54.0003 42.7861 54.2003 42.9861 54.4003Z" fill="#102417"/>
<path d="M50.1862 71.7003C47.1862 64.1003 41.8862 53.3003 33.8862 44.3003L42.7862 49.2003C42.8862 49.3003 42.9862 49.3003 43.0862 49.3003C43.1862 49.3003 43.1862 49.3003 43.2862 49.3003C43.4862 49.2003 43.5862 49.1003 43.6862 49.0003C44.3862 47.5003 45.2862 45.1003 45.7862 42.1003C45.7862 41.9003 45.6862 41.7003 45.4862 41.5003C45.3862 41.4003 45.1862 41.3003 45.0862 41.2003L45.1862 41.0003C45.2862 40.8003 45.1862 40.5003 44.8862 40.3003C44.8862 40.3003 44.5862 40.1003 44.1862 39.8003H44.2862C44.3862 39.8003 44.5862 39.8003 44.6862 39.7003C44.8862 39.6003 44.9862 39.3003 44.9862 39.1003L44.5862 37.0003C44.5862 36.8003 44.4862 36.6003 44.2862 36.5003C33.6862 31.4003 20.6862 27.6003 20.4862 27.6003C20.4862 27.6003 20.3862 27.6003 20.2862 27.6003C20.1862 27.6003 20.1862 27.6003 20.0862 27.6003L18.9862 28.0003C18.6862 28.1003 18.5862 28.3003 18.5862 28.6003C18.5862 28.8003 18.6862 29.0003 18.8862 29.1003C15.9862 28.3003 14.1862 28.0003 14.0862 28.0003H13.9862C13.7862 28.0003 13.5862 28.1003 13.4862 28.2003C13.4862 28.2003 12.5862 29.4003 11.7862 31.3003C11.7862 31.4003 11.6862 31.5003 11.7862 31.7003C10.9862 31.4003 10.4862 31.2003 10.4862 31.2003C10.3862 31.2003 10.3862 31.2003 10.2862 31.2003C10.1862 31.2003 10.0862 31.2003 9.98616 31.3003C9.78616 31.3003 9.68617 31.5003 9.68617 31.6003L9.08617 33.8003C8.98617 34.1003 9.18616 34.4003 9.38616 34.5003C9.78616 34.7003 11.1862 35.6003 12.9862 36.9003L12.6862 37.9003C12.5862 38.1003 12.6862 38.3003 12.7862 38.5003C14.0862 40.0003 22.8862 48.2003 23.1862 48.5003C32.7862 58.5003 40.2862 74.2003 41.9862 77.9003L41.7862 78.3003L38.7862 76.1003L28.1862 54.8003C28.0862 54.6003 27.8862 54.5003 27.6862 54.4003C27.4862 54.4003 27.2862 54.5003 27.1862 54.7003L26.1862 56.1003C26.0862 56.3003 26.0862 56.5003 26.0862 56.6003L26.6862 58.3003C25.1862 55.4003 23.2862 51.8003 22.3862 49.8003C22.2862 49.6003 22.0862 49.5003 21.8862 49.4003H21.7862C21.5862 49.4003 21.4862 49.5003 21.3862 49.6003C20.5862 50.4003 19.3862 51.7003 18.1862 53.6003L17.2862 52.2003C17.1862 52.0003 16.9862 51.9003 16.7862 51.9003C16.5862 51.9003 16.3862 52.0003 16.2862 52.2003L15.5862 53.3003C15.4862 53.5003 15.4862 53.7003 15.5862 53.9003L16.5862 56.3003C16.4862 56.5003 16.4862 56.7003 16.4862 56.8003L16.5862 57.0003H16.4862H16.3862C16.3862 56.9003 16.3862 56.7003 16.3862 56.6003L15.1862 53.7003C15.0862 53.5003 14.8862 53.3003 14.6862 53.3003H14.5862L15.0862 52.7003C15.2862 52.5003 15.2862 52.2003 15.1862 52.0003L14.8862 51.4003C14.7862 51.2003 14.6862 51.1003 14.4862 51.1003C14.3862 51.1003 14.3862 51.1003 14.2862 51.1003C14.1862 51.1003 13.9862 51.1003 13.8862 51.2003L10.7862 53.3003C10.5862 53.4003 10.4862 53.7003 10.4862 53.9003L10.7862 55.8003C10.7862 56.0003 10.9862 56.3003 11.1862 56.3003C11.2862 56.3003 11.2862 56.3003 11.3862 56.3003C11.5862 56.3003 11.6862 56.2003 11.8862 56.1003L13.3862 54.4003L11.3862 57.3003C11.2862 57.4003 11.2862 57.6003 11.2862 57.8003L12.4862 62.8003C12.5862 63.1003 12.7862 63.3003 12.9862 63.3003H13.0862C13.2862 63.3003 13.5862 63.2003 13.6862 62.9003L14.3862 61.4003C15.3862 63.2003 21.4862 74.2003 35.3862 85.2003C35.4862 85.3003 35.6862 85.3003 35.7862 85.3003H37.2862C39.0862 86.7003 40.7862 87.9003 42.4862 88.8003C42.5862 88.8003 42.5862 88.8003 42.6862 88.9003C42.6862 88.9003 43.7862 89.1003 45.4862 89.1003C47.8862 89.1003 51.3862 88.7003 54.6862 86.9003C54.8862 86.8003 55.0862 86.5003 54.9862 86.2003C54.8862 86.2003 53.4862 80.0003 50.1862 71.7003Z" fill="#102417"/>
<path d="M50.7859 71.3003C48.8859 66.6003 46.1859 60.7003 42.4859 54.7003L42.5859 54.8003L45.0859 57.3003C45.2859 57.5003 45.6859 57.7003 45.9859 57.7003C46.0859 57.7003 46.2859 57.7003 46.3859 57.6003C46.8859 57.4003 47.1859 57.0003 47.1859 56.6003L48.2859 46.8003C48.2859 46.6003 48.2859 46.5003 48.2859 46.3003L47.5859 43.9003C47.4859 43.4003 46.9859 43.0003 46.3859 43.0003C46.2859 43.0003 46.1859 43.0003 46.0859 43.0003C46.1859 42.6003 46.1859 42.3003 46.2859 41.9003C46.3859 41.4003 46.1859 41.0003 45.7859 40.7003C45.7859 40.7003 45.6859 40.7003 45.6859 40.6003C45.6859 40.2003 45.5859 39.8003 45.2859 39.6003C45.3859 39.4003 45.4859 39.0003 45.4859 38.7003L45.0859 36.6003C44.9859 36.2003 44.7859 35.9003 44.3859 35.7003C33.9859 30.6003 20.8859 26.9003 20.7859 26.9003C20.5859 26.9003 20.4859 26.9003 20.3859 26.9003C20.2859 26.9003 20.0859 26.9003 19.9859 27.0003L18.8859 27.4003C18.4859 27.5003 18.1859 27.8003 18.0859 28.2003C15.7859 27.6003 14.3859 27.4003 14.2859 27.3003C14.1859 27.3003 14.1859 27.3003 14.0859 27.3003C13.6859 27.3003 13.2859 27.5003 13.0859 27.8003C13.0859 27.8003 12.1859 29.0003 11.3859 30.8003C10.8859 30.6003 10.6859 30.5003 10.6859 30.5003C10.5859 30.5003 10.3859 30.4003 10.2859 30.4003C10.0859 30.4003 9.88594 30.4003 9.68594 30.5003C9.38594 30.7003 9.18594 31.0003 9.08594 31.3003L8.48594 33.5003C8.38594 34.1003 8.58594 34.7003 9.08594 34.9003C9.48594 35.1003 10.6859 35.9003 12.2859 37.0003L12.0859 37.6003C11.9859 38.0003 12.0859 38.5003 12.3859 38.8003C13.6859 40.3003 22.1859 48.3003 22.7859 48.9003C24.2859 50.4003 25.6859 52.1003 27.0859 53.8003C26.8859 53.9003 26.7859 54.0003 26.5859 54.2003L25.7859 55.4003C24.6859 53.2003 23.4859 50.9003 22.8859 49.5003C22.6859 49.1003 22.3859 48.9003 21.9859 48.8003C21.8859 48.8003 21.7859 48.8003 21.7859 48.8003C21.4859 48.8003 21.1859 48.9003 20.8859 49.2003C20.1859 49.9003 19.1859 51.0003 18.0859 52.5003L17.6859 51.9003C17.4859 51.5003 17.0859 51.3003 16.6859 51.3003C16.2859 51.3003 15.8859 51.5003 15.6859 51.9003V51.8003L15.3859 51.2003C15.2859 50.9003 14.9859 50.6003 14.5859 50.5003C14.4859 50.5003 14.3859 50.5003 14.2859 50.5003C13.9859 50.5003 13.7859 50.6003 13.5859 50.7003L10.4859 52.8003C10.0859 53.1003 9.88594 53.5003 9.98594 54.0003L10.2859 55.9003C10.3859 56.3003 10.6859 56.7003 11.0859 56.9003H10.7859C10.5859 57.2003 10.4859 57.5003 10.5859 57.9003L11.7859 62.9003C11.8859 63.4003 12.3859 63.8003 12.8859 63.9003H12.9859C13.4859 63.9003 13.8859 63.6003 14.0859 63.2003L14.1859 62.9003C14.9859 64.2003 16.2859 66.4003 18.3859 69.1003C21.4859 73.2003 26.8859 79.5003 34.7859 85.8003C34.9859 86.0003 35.2859 86.1003 35.5859 86.1003H36.8859C38.5859 87.4003 40.3859 88.6003 41.9859 89.6003C42.0859 89.7003 42.2859 89.7003 42.3859 89.7003C42.3859 89.7003 43.5859 89.9003 45.3859 89.9003C47.8859 89.9003 51.4859 89.5003 54.9859 87.5003C55.4859 87.2003 55.6859 86.7003 55.5859 86.2003C55.4859 85.8003 54.1859 79.7003 50.7859 71.3003ZM42.2859 53.6003C42.1859 53.9003 42.1859 54.2003 42.2859 54.5003C40.5859 51.8003 38.6859 49.0003 36.5859 46.4003L42.4859 49.6003C42.6859 49.7003 42.8859 49.7003 43.0859 49.7003C43.1859 49.7003 43.3859 49.7003 43.4859 49.6003L42.2859 53.6003ZM46.3859 44.3003L47.0859 46.7003L45.9859 56.5003L43.4859 54.0003L46.3859 44.3003ZM20.3859 28.1003C20.3859 28.1003 33.3859 31.8003 43.8859 36.9003L44.2859 39.0003C44.2859 39.0003 34.2859 32.7003 19.2859 28.5003L20.3859 28.1003ZM11.2859 55.7003L10.9859 53.8003L14.0859 51.7003L14.3859 52.3003L11.2859 55.7003ZM12.9859 62.7003L11.7859 57.7003L14.3859 54.0003L15.5859 56.9003L12.9859 62.7003ZM45.3859 88.6003C43.7859 88.6003 42.6859 88.4003 42.6859 88.4003C40.8859 87.4003 39.0859 86.1003 37.3859 84.8003H35.6859C20.4859 72.8003 14.6859 61.0003 14.6859 61.0003C15.0859 59.9003 15.6859 58.8003 16.3859 57.7003C16.4859 57.8003 16.4859 58.0003 16.5859 58.2003C17.6859 60.9003 19.3859 64.4003 21.2859 66.8003L21.4859 66.4003C21.4859 66.4003 19.0859 62.2003 17.1859 57.0003C17.1859 56.9003 17.0859 56.8003 17.0859 56.7003C17.1859 56.6003 17.1859 56.5003 17.2859 56.4003L16.0859 53.7003L16.7859 52.6003L18.2859 54.9003C19.6859 52.6003 20.9859 51.0003 21.8859 50.2003C23.5859 53.9003 28.3859 62.8003 28.3859 62.8003L28.5859 62.4003L28.6859 62.1003L26.7859 56.6003L27.7859 55.2003L38.2859 76.5003L42.0859 79.2003L42.5859 77.7003C41.1859 74.7003 33.5859 58.2003 23.5859 48.0003C23.5859 48.0003 14.4859 39.4003 13.1859 38.0003L13.6859 36.5003C12.7859 35.9003 10.2859 34.2003 9.58594 33.8003L10.1859 31.6003C10.1859 31.6003 10.9859 31.9003 11.9859 32.2003L13.7859 33.0003V32.4003L12.3859 31.5003C13.1859 29.6003 13.9859 28.5003 13.9859 28.5003C13.9859 28.5003 18.1859 29.2003 23.9859 31.2003C36.4859 35.3003 44.3859 40.6003 44.3859 40.6003C44.2859 40.8003 44.2859 41.0003 44.1859 41.2003C44.4859 41.4003 44.6859 41.6003 44.9859 41.8003C44.5859 44.8003 43.5859 47.2003 42.9859 48.6003L33.3859 43.3003L33.2859 43.9003L33.1859 44.4003C48.8859 61.7003 54.2859 86.4003 54.2859 86.4003C51.0859 88.2003 47.6859 88.6003 45.3859 88.6003ZM31.7859 60.6003C36.0859 67.1003 39.2859 73.6003 40.7859 76.8003L39.2859 75.7003L31.7859 60.6003Z" fill="#102417"/>
<path d="M44.3002 35.5359C33.8002 30.3359 20.8002 26.7359 20.8002 26.7359L19.7002 27.1359C34.7002 31.3359 44.7002 37.7359 44.7002 37.7359L44.3002 35.5359Z" fill="url(#paint42_linear)"/>
<path d="M14.5004 50.2359L11.4004 52.3359L11.6004 54.3359L14.7004 50.9359L14.5004 50.2359Z" fill="url(#paint43_linear)"/>
<path d="M14.8006 52.5359L12.1006 56.2359L13.3006 61.3359L16.0006 55.4359L14.8006 52.5359Z" fill="url(#paint44_linear)"/>
<path d="M33.6 42.4359L33.8 41.8359L43.4 47.1359C44 45.8359 45 43.3359 45.4 40.3359C45.1 40.1359 44.9 39.9359 44.6 39.7359C44.7 39.5359 44.7 39.3359 44.8 39.1359C44.8 39.1359 36.9 33.8359 24.4 29.7359C18.6 27.8359 14.4 27.0359 14.4 27.0359C14.4 27.0359 13.5 28.1359 12.7 29.9359L14.2 30.8359V31.4359L12.4 30.8359C11.4 30.4359 10.6 30.2359 10.6 30.2359L10 32.4359C10.7 32.8359 13.2 34.5359 14.1 35.1359L13.6 36.6359C14.9 38.0359 23.9 46.5359 24 46.6359C34 56.8359 41.7 73.4359 43 76.3359L42.5 77.8359L38.7 75.1359L27.9 53.5359L26.9 54.9359L28.8 60.4359L28.7 60.7359L28.5 61.1359C28.5 61.1359 23.7 52.2359 22 48.5359C21.1 49.4359 19.7 50.9359 18.4 53.3359L16.9 51.0359L16.2 52.1359L17.4 54.8359C17.3 54.9359 17.3 55.0359 17.2 55.1359C17.2 55.2359 17.3 55.3359 17.3 55.4359C19.2 60.6359 21.6 64.8359 21.6 64.8359L21.4 65.2359C19.6 62.7359 17.9 59.3359 16.7 56.6359C16.6 56.4359 16.6 56.3359 16.5 56.1359C15.9 57.2359 15.3 58.3359 14.8 59.4359C14.8 59.4359 20.5 71.3359 35.8 83.3359H37.5C39.2 84.7359 41 85.9359 42.8 86.9359C42.8 86.9359 49 88.0359 54.5 84.9359C54.5 84.9359 49.1 60.2359 33.4 42.8359L33.6 42.4359Z" fill="url(#paint45_linear)"/>
<path d="M46.2998 55.0359L47.3998 45.2359L46.6998 42.9359L43.7998 52.5359L46.2998 55.0359Z" fill="url(#paint46_linear)"/>
<path d="M50.7006 69.8359C47.8006 62.4359 42.7006 52.0359 35.1006 43.1359L42.9006 47.4359L43.7006 47.8359L44.1006 47.0359C44.8006 45.5359 45.7006 43.0359 46.2006 40.0359L46.3006 39.5359L45.9006 39.2359C45.8006 39.1359 45.7006 39.1359 45.6006 39.0359V38.9359H45.7006V38.7359L45.8006 38.4359L45.6006 38.3359L45.4006 37.0359L45.0006 34.9359L44.9006 34.5359L44.5006 34.3359C34.1006 29.2359 21.0006 25.4359 20.9006 25.4359L20.6006 25.3359L20.3006 25.4359L19.4006 25.9359L17.6006 26.5359C15.8006 26.1359 14.7006 25.9359 14.6006 25.8359L14.1006 25.7359L13.8006 26.1359C13.8006 26.1359 12.9006 27.3359 12.0006 29.2359L11.9006 29.3359C11.3006 29.1359 10.9006 28.9359 10.9006 28.9359L10.0006 28.6359L9.80059 29.5359L9.20059 31.7359L9.10059 32.6359L9.70059 32.9359C10.1006 33.1359 11.4006 34.0359 13.2006 35.2359L12.9006 36.1359L12.8006 36.6359L13.1006 37.0359C14.4006 38.4359 23.0006 46.6359 23.5006 47.1359C25.0006 48.7359 26.5006 50.4359 27.9006 52.2359L27.4006 53.0359L26.4006 54.4359L26.2006 54.7359C24.9006 52.3359 23.7006 49.7359 22.9006 48.1359L22.4006 46.9359L21.5006 47.7359C20.7006 48.5359 19.6006 49.7359 18.4006 51.5359L17.6006 50.3359L16.9006 49.2359L16.2006 50.3359L15.5006 51.4359V51.6359L15.3006 51.1359L15.4006 51.0359L15.8006 50.6359L15.6006 50.1359L15.2006 49.6359L14.8006 48.7359L14.0006 49.2359L10.9006 51.3359L10.5006 51.6359L10.6006 52.1359L10.9006 54.1359L11.2006 55.9359L11.7006 55.3359L11.6006 55.5359L11.4006 55.8359L11.5006 56.2359L12.7006 61.3359L13.3006 63.7359L14.3006 61.5359L14.8006 60.4359C15.4006 61.5359 16.8006 64.0359 19.3006 67.3359C22.4006 71.4359 27.7006 77.7359 35.6006 83.9359L35.8006 84.1359H37.5006C39.3006 85.5359 41.0006 86.7359 42.7006 87.6359L42.8006 87.7359H42.9006C42.9006 87.7359 44.1006 87.9359 45.8006 87.9359C48.2006 87.9359 51.8006 87.5359 55.1006 85.5359L55.6006 85.2359L55.5006 84.6359C55.4006 84.4359 54.0006 78.1359 50.7006 69.8359ZM20.8006 26.2359C20.8006 26.2359 33.8006 29.9359 44.3006 35.0359L44.7006 37.1359C44.7006 37.1359 34.8006 30.8359 19.8006 26.5359L20.8006 26.2359ZM11.4006 51.9359L14.5006 49.8359L14.8006 50.4359L11.7006 53.8359L11.4006 51.9359ZM13.3006 60.9359L12.1006 55.8359L14.7006 52.1359L15.9006 55.0359L13.3006 60.9359ZM45.7006 86.9359C44.1006 86.9359 43.0006 86.7359 43.0006 86.7359C41.2006 85.7359 39.4006 84.4359 37.7006 83.1359H36.0006C20.7006 71.0359 15.0006 59.1359 15.0006 59.1359C15.4006 58.0359 16.0006 56.9359 16.7006 55.8359C16.8006 55.9359 16.8006 56.1359 16.9006 56.3359C18.0006 59.0359 19.7006 62.5359 21.5006 64.9359L21.7006 64.5359C21.7006 64.5359 19.3006 60.2359 17.4006 55.1359C17.4006 55.0359 17.3006 54.9359 17.3006 54.8359C17.4006 54.7359 17.4006 54.6359 17.5006 54.5359L16.3006 51.8359L17.0006 50.7359L18.5006 53.0359C19.9006 50.7359 21.2006 49.1359 22.1006 48.2359C23.8006 51.9359 28.6006 60.8359 28.6006 60.8359L28.8006 60.4359L28.9006 60.1359L27.0006 54.6359L28.0006 53.2359L38.7006 74.8359L42.5006 77.5359L43.0006 76.0359C41.6006 73.0359 34.0006 56.5359 24.0006 46.2359C24.0006 46.2359 14.9006 37.6359 13.7006 36.2359L14.2006 34.7359C13.3006 34.1359 10.8006 32.3359 10.1006 32.0359L10.7006 29.8359C10.7006 29.8359 11.5006 30.1359 12.5006 30.4359L14.3006 31.0359V30.4359L12.7006 29.6359C13.5006 27.7359 14.4006 26.6359 14.4006 26.6359C14.4006 26.6359 18.6006 27.3359 24.4006 29.3359C36.9006 33.4359 44.8006 38.7359 44.8006 38.7359C44.7006 38.9359 44.7006 39.1359 44.6006 39.3359C44.9006 39.5359 45.1006 39.7359 45.4006 39.9359C45.0006 42.9359 44.0006 45.3359 43.4006 46.7359L33.8006 41.4359L33.7006 42.0359L33.6006 42.5359C49.2006 59.9359 54.6006 84.6359 54.6006 84.6359C51.4006 86.5359 48.0006 86.9359 45.7006 86.9359ZM29.2006 53.8359C35.8006 62.8359 40.7006 73.1359 42.1006 76.1359V76.2359L39.4006 74.2359L29.2006 53.8359Z" fill="url(#paint47_linear)"/>
<path d="M43.0004 51.9359L42.9004 52.4359L43.3004 52.8359L45.8004 55.3359L47.0004 56.5359L47.2004 54.8359L48.3004 45.0359V44.8359V44.6359L47.6004 42.2359L46.8004 39.5359L46.0004 42.2359L43.0004 51.9359ZM47.4004 44.8359L46.3004 54.6359L43.8004 52.1359L46.7004 42.4359L47.4004 44.8359Z" fill="url(#paint48_linear)"/>
<defs>
<linearGradient id="paint0_linear" x1="52.656" y1="64.5919" x2="53.4351" y2="69.2669" gradientUnits="userSpaceOnUse">
<stop stop-color="#FCAF17"/>
<stop offset="1" stop-color="#F15A22"/>
</linearGradient>
<linearGradient id="paint1_linear" x1="76.157" y1="60.6659" x2="76.9362" y2="65.3409" gradientUnits="userSpaceOnUse">
<stop stop-color="#FCAF17"/>
<stop offset="1" stop-color="#F15A22"/>
</linearGradient>
<linearGradient id="paint2_linear" x1="32.3639" y1="32.8535" x2="32.3639" y2="89.3821" gradientUnits="userSpaceOnUse">
<stop stop-color="#FFF200"/>
<stop offset="0.163" stop-color="#FFED00"/>
<stop offset="0.3349" stop-color="#FFE300"/>
<stop offset="0.5109" stop-color="#FFD400"/>
<stop offset="0.6885" stop-color="#FEBF0F"/>
<stop offset="0.8556" stop-color="#FAA61A"/>
</linearGradient>
<linearGradient id="paint3_linear" x1="22.0429" y1="69.7079" x2="22.8263" y2="74.3855" gradientUnits="userSpaceOnUse">
<stop stop-color="#FCAF17"/>
<stop offset="1" stop-color="#F15A22"/>
</linearGradient>
<linearGradient id="paint4_linear" x1="34.8195" y1="32.8535" x2="34.8195" y2="89.3821" gradientUnits="userSpaceOnUse">
<stop stop-color="#FFF200"/>
<stop offset="0.163" stop-color="#FFED00"/>
<stop offset="0.3349" stop-color="#FFE300"/>
<stop offset="0.5109" stop-color="#FFD400"/>
<stop offset="0.6885" stop-color="#FEBF0F"/>
<stop offset="0.8556" stop-color="#FAA61A"/>
</linearGradient>
<linearGradient id="paint5_linear" x1="81.533" y1="59.7734" x2="82.3129" y2="64.444" gradientUnits="userSpaceOnUse">
<stop stop-color="#FCAF17"/>
<stop offset="1" stop-color="#F15A22"/>
</linearGradient>
<linearGradient id="paint6_linear" x1="39.4933" y1="32.8535" x2="39.4933" y2="89.3821" gradientUnits="userSpaceOnUse">
<stop stop-color="#FFF200"/>
<stop offset="0.163" stop-color="#FFED00"/>
<stop offset="0.3349" stop-color="#FFE300"/>
<stop offset="0.5109" stop-color="#FFD400"/>
<stop offset="0.6885" stop-color="#FEBF0F"/>
<stop offset="0.8556" stop-color="#FAA61A"/>
</linearGradient>
<linearGradient id="paint7_linear" x1="36.838" y1="67.2372" x2="37.6179" y2="71.9078" gradientUnits="userSpaceOnUse">
<stop stop-color="#FCAF17"/>
<stop offset="1" stop-color="#F15A22"/>
</linearGradient>
<linearGradient id="paint8_linear" x1="19.5218" y1="32.8535" x2="19.5218" y2="89.3821" gradientUnits="userSpaceOnUse">
<stop stop-color="#FFF200"/>
<stop offset="0.163" stop-color="#FFED00"/>
<stop offset="0.3349" stop-color="#FFE300"/>
<stop offset="0.5109" stop-color="#FFD400"/>
<stop offset="0.6885" stop-color="#FEBF0F"/>
<stop offset="0.8556" stop-color="#FAA61A"/>
</linearGradient>
<linearGradient id="paint9_linear" x1="74.5163" y1="60.944" x2="75.2962" y2="65.6146" gradientUnits="userSpaceOnUse">
<stop stop-color="#FCAF17"/>
<stop offset="1" stop-color="#F15A22"/>
</linearGradient>
<linearGradient id="paint10_linear" x1="12.0858" y1="32.8535" x2="12.0858" y2="89.3821" gradientUnits="userSpaceOnUse">
<stop stop-color="#FFF200"/>
<stop offset="0.163" stop-color="#FFED00"/>
<stop offset="0.3349" stop-color="#FFE300"/>
<stop offset="0.5109" stop-color="#FFD400"/>
<stop offset="0.6885" stop-color="#FEBF0F"/>
<stop offset="0.8556" stop-color="#FAA61A"/>
</linearGradient>
<linearGradient id="paint11_linear" x1="45.6628" y1="65.7626" x2="46.442" y2="70.4376" gradientUnits="userSpaceOnUse">
<stop stop-color="#FCAF17"/>
<stop offset="1" stop-color="#F15A22"/>
</linearGradient>
<linearGradient id="paint12_linear" x1="16.9014" y1="32.8535" x2="16.9014" y2="89.3821" gradientUnits="userSpaceOnUse">
<stop stop-color="#FFF200"/>
<stop offset="0.163" stop-color="#FFED00"/>
<stop offset="0.3349" stop-color="#FFE300"/>
<stop offset="0.5109" stop-color="#FFD400"/>
<stop offset="0.6885" stop-color="#FEBF0F"/>
<stop offset="0.8556" stop-color="#FAA61A"/>
</linearGradient>
<linearGradient id="paint13_linear" x1="89.001" y1="58.5252" x2="89.7809" y2="63.1958" gradientUnits="userSpaceOnUse">
<stop stop-color="#FCAF17"/>
<stop offset="1" stop-color="#F15A22"/>
</linearGradient>
<linearGradient id="paint14_linear" x1="44.7573" y1="32.8535" x2="44.7573" y2="89.3823" gradientUnits="userSpaceOnUse">
<stop stop-color="#FFF200"/>
<stop offset="0.163" stop-color="#FFED00"/>
<stop offset="0.3349" stop-color="#FFE300"/>
<stop offset="0.5109" stop-color="#FFD400"/>
<stop offset="0.6885" stop-color="#FEBF0F"/>
<stop offset="0.8556" stop-color="#FAA61A"/>
</linearGradient>
<linearGradient id="paint15_linear" x1="80.8904" y1="59.8833" x2="81.6703" y2="64.5539" gradientUnits="userSpaceOnUse">
<stop stop-color="#FCAF17"/>
<stop offset="1" stop-color="#F15A22"/>
</linearGradient>
<linearGradient id="paint16_linear" x1="13.4778" y1="32.8535" x2="13.4778" y2="89.3821" gradientUnits="userSpaceOnUse">
<stop stop-color="#FFF200"/>
<stop offset="0.163" stop-color="#FFED00"/>
<stop offset="0.3349" stop-color="#FFE300"/>
<stop offset="0.5109" stop-color="#FFD400"/>
<stop offset="0.6885" stop-color="#FEBF0F"/>
<stop offset="0.8556" stop-color="#FAA61A"/>
</linearGradient>
<linearGradient id="paint17_linear" x1="49.1593" y1="65.1805" x2="49.9392" y2="69.8511" gradientUnits="userSpaceOnUse">
<stop stop-color="#FCAF17"/>
<stop offset="1" stop-color="#F15A22"/>
</linearGradient>
<linearGradient id="paint18_linear" x1="28.3035" y1="32.8535" x2="28.3035" y2="89.3821" gradientUnits="userSpaceOnUse">
<stop stop-color="#FFF200"/>
<stop offset="0.163" stop-color="#FFED00"/>
<stop offset="0.3349" stop-color="#FFE300"/>
<stop offset="0.5109" stop-color="#FFD400"/>
<stop offset="0.6885" stop-color="#FEBF0F"/>
<stop offset="0.8556" stop-color="#FAA61A"/>
</linearGradient>
<linearGradient id="paint19_linear" x1="46.7811" y1="65.575" x2="47.5602" y2="70.25" gradientUnits="userSpaceOnUse">
<stop stop-color="#FCAF17"/>
<stop offset="1" stop-color="#F15A22"/>
</linearGradient>
<linearGradient id="paint20_linear" x1="27.9498" y1="32.8535" x2="27.9498" y2="89.3821" gradientUnits="userSpaceOnUse">
<stop stop-color="#FFF200"/>
<stop offset="0.163" stop-color="#FFED00"/>
<stop offset="0.3349" stop-color="#FFE300"/>
<stop offset="0.5109" stop-color="#FFD400"/>
<stop offset="0.6885" stop-color="#FEBF0F"/>
<stop offset="0.8556" stop-color="#FAA61A"/>
</linearGradient>
<linearGradient id="paint21_linear" x1="32.4113" y1="32.8535" x2="32.4113" y2="89.3821" gradientUnits="userSpaceOnUse">
<stop stop-color="#FFF200"/>
<stop offset="0.163" stop-color="#FFED00"/>
<stop offset="0.3349" stop-color="#FFE300"/>
<stop offset="0.5109" stop-color="#FFD400"/>
<stop offset="0.6885" stop-color="#FEBF0F"/>
<stop offset="0.8556" stop-color="#FAA61A"/>
</linearGradient>
<linearGradient id="paint22_linear" x1="92.0939" y1="58.0077" x2="92.8738" y2="62.6783" gradientUnits="userSpaceOnUse">
<stop stop-color="#FCAF17"/>
<stop offset="1" stop-color="#F15A22"/>
</linearGradient>
<linearGradient id="paint23_linear" x1="32.1511" y1="32.8535" x2="32.1511" y2="89.3821" gradientUnits="userSpaceOnUse">
<stop stop-color="#FFF200"/>
<stop offset="0.163" stop-color="#FFED00"/>
<stop offset="0.3349" stop-color="#FFE300"/>
<stop offset="0.5109" stop-color="#FFD400"/>
<stop offset="0.6885" stop-color="#FEBF0F"/>
<stop offset="0.8556" stop-color="#FAA61A"/>
</linearGradient>
<linearGradient id="paint24_linear" x1="45.6546" y1="32.8535" x2="45.6546" y2="89.3821" gradientUnits="userSpaceOnUse">
<stop stop-color="#FFF200"/>
<stop offset="0.163" stop-color="#FFED00"/>
<stop offset="0.3349" stop-color="#FFE300"/>
<stop offset="0.5109" stop-color="#FFD400"/>
<stop offset="0.6885" stop-color="#FEBF0F"/>
<stop offset="0.8556" stop-color="#FAA61A"/>
</linearGradient>
<linearGradient id="paint25_linear" x1="72.851" y1="61.2222" x2="73.6309" y2="65.8928" gradientUnits="userSpaceOnUse">
<stop stop-color="#FCAF17"/>
<stop offset="1" stop-color="#F15A22"/>
</linearGradient>
<linearGradient id="paint26_linear" x1="45.6314" y1="32.8535" x2="45.6314" y2="89.3821" gradientUnits="userSpaceOnUse">
<stop stop-color="#FFF200"/>
<stop offset="0.163" stop-color="#FFED00"/>
<stop offset="0.3349" stop-color="#FFE300"/>
<stop offset="0.5109" stop-color="#FFD400"/>
<stop offset="0.6885" stop-color="#FEBF0F"/>
<stop offset="0.8556" stop-color="#FAA61A"/>
</linearGradient>
<linearGradient id="paint27_linear" x1="13.0531" y1="32.8535" x2="13.0531" y2="89.3821" gradientUnits="userSpaceOnUse">
<stop stop-color="#FFF200"/>
<stop offset="0.163" stop-color="#FFED00"/>
<stop offset="0.3349" stop-color="#FFE300"/>
<stop offset="0.5109" stop-color="#FFD400"/>
<stop offset="0.6885" stop-color="#FEBF0F"/>
<stop offset="0.8556" stop-color="#FAA61A"/>
</linearGradient>
<linearGradient id="paint28_linear" x1="44.4018" y1="65.9695" x2="45.1845" y2="70.6515" gradientUnits="userSpaceOnUse">
<stop stop-color="#FCAF17"/>
<stop offset="1" stop-color="#F15A22"/>
</linearGradient>
<linearGradient id="paint29_linear" x1="13.0767" y1="32.8535" x2="13.0767" y2="89.3821" gradientUnits="userSpaceOnUse">
<stop stop-color="#FFF200"/>
<stop offset="0.163" stop-color="#FFED00"/>
<stop offset="0.3349" stop-color="#FFE300"/>
<stop offset="0.5109" stop-color="#FFD400"/>
<stop offset="0.6885" stop-color="#FEBF0F"/>
<stop offset="0.8556" stop-color="#FAA61A"/>
</linearGradient>
<linearGradient id="paint30_linear" x1="14.068" y1="32.8535" x2="14.068" y2="89.3821" gradientUnits="userSpaceOnUse">
<stop stop-color="#FFF200"/>
<stop offset="0.163" stop-color="#FFED00"/>
<stop offset="0.3349" stop-color="#FFE300"/>
<stop offset="0.5109" stop-color="#FFD400"/>
<stop offset="0.6885" stop-color="#FEBF0F"/>
<stop offset="0.8556" stop-color="#FAA61A"/>
</linearGradient>
<linearGradient id="paint31_linear" x1="35.9573" y1="67.386" x2="36.7372" y2="72.0566" gradientUnits="userSpaceOnUse">
<stop stop-color="#FCAF17"/>
<stop offset="1" stop-color="#F15A22"/>
</linearGradient>
<linearGradient id="paint32_linear" x1="14.068" y1="32.8535" x2="14.068" y2="89.3821" gradientUnits="userSpaceOnUse">
<stop stop-color="#FFF200"/>
<stop offset="0.163" stop-color="#FFED00"/>
<stop offset="0.3349" stop-color="#FFE300"/>
<stop offset="0.5109" stop-color="#FFD400"/>
<stop offset="0.6885" stop-color="#FEBF0F"/>
<stop offset="0.8556" stop-color="#FAA61A"/>
</linearGradient>
<linearGradient id="paint33_linear" x1="62.319" y1="107.535" x2="62.319" y2="12.0157" gradientUnits="userSpaceOnUse">
<stop stop-color="#002100"/>
<stop offset="0.5627" stop-color="#244C29"/>
<stop offset="1" stop-color="#3C6C40"/>
</linearGradient>
<linearGradient id="paint34_linear" x1="78.4223" y1="29.4196" x2="78.4223" y2="86.4441" gradientUnits="userSpaceOnUse">
<stop stop-color="#FFF200"/>
<stop offset="0.163" stop-color="#FFED00"/>
<stop offset="0.3349" stop-color="#FFE300"/>
<stop offset="0.5109" stop-color="#FFD400"/>
<stop offset="0.6885" stop-color="#FEBF0F"/>
<stop offset="0.8556" stop-color="#FAA61A"/>
</linearGradient>
<linearGradient id="paint35_linear" x1="85.1974" y1="29.4196" x2="85.1974" y2="86.4441" gradientUnits="userSpaceOnUse">
<stop stop-color="#FFF200"/>
<stop offset="0.163" stop-color="#FFED00"/>
<stop offset="0.3349" stop-color="#FFE300"/>
<stop offset="0.5109" stop-color="#FFD400"/>
<stop offset="0.6885" stop-color="#FEBF0F"/>
<stop offset="0.8556" stop-color="#FAA61A"/>
</linearGradient>
<linearGradient id="paint36_linear" x1="79.4846" y1="29.4196" x2="79.4846" y2="86.4441" gradientUnits="userSpaceOnUse">
<stop stop-color="#FFF200"/>
<stop offset="0.163" stop-color="#FFED00"/>
<stop offset="0.3349" stop-color="#FFE300"/>
<stop offset="0.5109" stop-color="#FFD400"/>
<stop offset="0.6885" stop-color="#FEBF0F"/>
<stop offset="0.8556" stop-color="#FAA61A"/>
</linearGradient>
<linearGradient id="paint37_linear" x1="55.9151" y1="49.897" x2="56.695" y2="54.5676" gradientUnits="userSpaceOnUse">
<stop stop-color="#FCAF17"/>
<stop offset="1" stop-color="#F15A22"/>
</linearGradient>
<linearGradient id="paint38_linear" x1="48.8975" y1="51.0677" x2="49.6774" y2="55.7383" gradientUnits="userSpaceOnUse">
<stop stop-color="#FCAF17"/>
<stop offset="1" stop-color="#F15A22"/>
</linearGradient>
<linearGradient id="paint39_linear" x1="60.5535" y1="49.1209" x2="61.3334" y2="53.7915" gradientUnits="userSpaceOnUse">
<stop stop-color="#FCAF17"/>
<stop offset="1" stop-color="#F15A22"/>
</linearGradient>
<linearGradient id="paint40_linear" x1="77.0619" y1="46.3656" x2="77.8418" y2="51.0362" gradientUnits="userSpaceOnUse">
<stop stop-color="#FCAF17"/>
<stop offset="1" stop-color="#F15A22"/>
</linearGradient>
<linearGradient id="paint41_linear" x1="80.9147" y1="45.7188" x2="81.6946" y2="50.3894" gradientUnits="userSpaceOnUse">
<stop stop-color="#FCAF17"/>
<stop offset="1" stop-color="#F15A22"/>
</linearGradient>
<linearGradient id="paint42_linear" x1="32.1285" y1="33.2316" x2="32.1285" y2="90.2561" gradientUnits="userSpaceOnUse">
<stop stop-color="#FFF200"/>
<stop offset="0.163" stop-color="#FFED00"/>
<stop offset="0.3349" stop-color="#FFE300"/>
<stop offset="0.5109" stop-color="#FFD400"/>
<stop offset="0.6885" stop-color="#FEBF0F"/>
<stop offset="0.8556" stop-color="#FAA61A"/>
</linearGradient>
<linearGradient id="paint43_linear" x1="13.0541" y1="33.2316" x2="13.0541" y2="90.2561" gradientUnits="userSpaceOnUse">
<stop stop-color="#FFF200"/>
<stop offset="0.163" stop-color="#FFED00"/>
<stop offset="0.3349" stop-color="#FFE300"/>
<stop offset="0.5109" stop-color="#FFD400"/>
<stop offset="0.6885" stop-color="#FEBF0F"/>
<stop offset="0.8556" stop-color="#FAA61A"/>
</linearGradient>
<linearGradient id="paint44_linear" x1="14.0458" y1="33.2316" x2="14.0458" y2="90.2561" gradientUnits="userSpaceOnUse">
<stop stop-color="#FFF200"/>
<stop offset="0.163" stop-color="#FFED00"/>
<stop offset="0.3349" stop-color="#FFE300"/>
<stop offset="0.5109" stop-color="#FFD400"/>
<stop offset="0.6885" stop-color="#FEBF0F"/>
<stop offset="0.8556" stop-color="#FAA61A"/>
</linearGradient>
<linearGradient id="paint45_linear" x1="32.3171" y1="33.2316" x2="32.3171" y2="90.2561" gradientUnits="userSpaceOnUse">
<stop stop-color="#FFF200"/>
<stop offset="0.163" stop-color="#FFED00"/>
<stop offset="0.3349" stop-color="#FFE300"/>
<stop offset="0.5109" stop-color="#FFD400"/>
<stop offset="0.6885" stop-color="#FEBF0F"/>
<stop offset="0.8556" stop-color="#FAA61A"/>
</linearGradient>
<linearGradient id="paint46_linear" x1="45.6078" y1="33.2316" x2="45.6078" y2="90.2561" gradientUnits="userSpaceOnUse">
<stop stop-color="#FFF200"/>
<stop offset="0.163" stop-color="#FFED00"/>
<stop offset="0.3349" stop-color="#FFE300"/>
<stop offset="0.5109" stop-color="#FFD400"/>
<stop offset="0.6885" stop-color="#FEBF0F"/>
<stop offset="0.8556" stop-color="#FAA61A"/>
</linearGradient>
<linearGradient id="paint47_linear" x1="52.6569" y1="64.9153" x2="53.4368" y2="69.5859" gradientUnits="userSpaceOnUse">
<stop stop-color="#FCAF17"/>
<stop offset="1" stop-color="#F15A22"/>
</linearGradient>
<linearGradient id="paint48_linear" x1="76.1342" y1="60.9893" x2="76.9169" y2="65.6713" gradientUnits="userSpaceOnUse">
<stop stop-color="#FCAF17"/>
<stop offset="1" stop-color="#F15A22"/>
</linearGradient>
</defs>
</svg>
