<svg id="Layer_1" data-name="Layer 1" xmlns="http://www.w3.org/2000/svg" viewBox="0 0 512 512"><title>stumbleupon-flat</title><path d="M502.62,1.3H256.74C115,1.3,0,114.39,0,256.09V502c0,5.91,4.93,8.71,10.84,8.71h245.9C398.44,510.7,512,397.81,512,256.09V10.19C512,4.3,508.53,1.3,502.62,1.3Z" fill="#ff312e"/><path d="M233.25,303.89v-97c0-9,3.11-19.6,19.69-19.6s20.63,10.64,20.63,19.6v18.5l19.31,10.45,30.42-10.45v-18.5c0-38.1-30.78-69.11-70.37-69.11s-70.16,31-70.16,69.11v97c0,8.94-5.81,20.15-20.15,20.15s-20.23-11.21-20.23-20.15V265.78H92.57v38.12C92.57,342,124.75,373,164.32,373S233.25,342,233.25,303.89Z" fill="#fff"/><path d="M363.93,303.89c0,8.94-5.53,19.95-20.44,19.95S323,312.84,323,303.89V265.29l-29.8,10.41-19.59-10.41v39.93c0,38.1,28.34,67.76,67.91,67.76s71.77-31,71.77-69.09V265.29H363.93Z" fill="#fff"/></svg>