<svg xmlns="http://www.w3.org/2000/svg" width="100" height="100" viewBox="0 0 26.458 26.458"><g fill="#e6642b" fill-rule="evenodd" stroke-width=".688"><path d="M9.53 5.32c-.235-.67-.465-1.33-.65-2.003a18.198 18.198 0 0 1-.438-2.101C8.382.82 8.392.81 8.77.678A13.238 13.238 0 0 1 11.12.08c.372-.057.39-.045.441.336a15.662 15.662 0 0 0 1.345 4.598c.078.165.12.436.297.444.227.011.256-.275.337-.448A15.237 15.237 0 0 0 14.873.458c.056-.43.068-.44.5-.375.804.119 1.581.346 2.348.608.35.119.343.133.288.512a18.823 18.823 0 0 1-.948 3.703c-.05.136-.198.297-.052.425.115.1.262-.03.386-.081 1.253-.52 2.35-1.275 3.315-2.225l.132-.131c.353-.35.352-.349.747-.02.587.489 1.15 1.002 1.643 1.589.248.296.246.3-.011.57-1.88 1.966-4.148 3.257-6.787 3.905-.122.03-.245.052-.364.088-.285.086-.305.148-.087.37.722.737 1.52 1.383 2.378 1.954.268.178.278.17.59-.121a16.397 16.397 0 0 1 4.454-2.96c.481-.218.978-.406 1.474-.59.336-.124.392-.095.53.24.311.748.577 1.512.747 2.307.076.357.072.374-.292.502-.795.281-1.56.627-2.29 1.051-.471.274-.925.575-1.363.9-.122.09-.315.163-.296.33.025.208.26.193.412.24 1.117.355 2.261.576 3.43.666.881.068.71.04.64.786-.065.698-.2 1.386-.399 2.06-.105.359-.115.373-.488.345a17.974 17.974 0 0 1-3.761-.682c-3.113-.913-5.806-2.532-8.101-4.82-.449-.447-.367-.497-.849-.011a18.659 18.659 0 0 1-8.677 4.992c-1.011.264-2.04.438-3.082.518-.48.037-.474.023-.609-.425-.216-.72-.324-1.458-.408-2.2-.056-.496-.047-.512.477-.549a15.416 15.416 0 0 0 3.351-.596c.194-.057.386-.12.577-.188.165-.058.184-.167.056-.276a6.883 6.883 0 0 0-.557-.424C2.895 11.737 1.8 11.152.614 10.74c-.412-.144-.416-.15-.318-.563.179-.759.408-1.502.726-2.216.177-.397.183-.407.588-.267A16.697 16.697 0 0 1 5.407 9.58a18.186 18.186 0 0 1 2.126 1.673c.298.269.298.265.629.044a14.106 14.106 0 0 0 2.13-1.74c.077-.077.156-.153.226-.236.11-.133.06-.23-.088-.283-.087-.031-.18-.05-.27-.07C7.476 8.35 5.178 7.05 3.26 5.08l-.13-.135c-.116-.116-.138-.235-.021-.367a15.355 15.355 0 0 1 1.992-1.9c.15-.117.251-.05.36.062.369.38.751.745 1.167 1.074a10.225 10.225 0 0 0 2.576 1.498c.083.033.168.086.327.008"/><path d="M13.18 26.399c-.39 0-.78.016-1.167-.005-.344-.019-.392-.083-.393-.434-.005-1.183-.015-2.366.005-3.548a1.458 1.458 0 0 0-.337-.979c-1.29-1.656-2.564-3.326-3.84-4.993-.326-.426-.32-.43.177-.668.646-.31 1.278-.644 1.886-1.025.46-.289.463-.283.78.131a6061.5 6061.5 0 0 0 2.585 3.37c.345.45.354.448.688.011l2.64-3.445c.27-.35.276-.355.634-.13.686.432 1.402.808 2.134 1.154.318.151.328.2.114.479-1.322 1.73-2.642 3.463-3.977 5.183a1.282 1.282 0 0 0-.291.852c.012 1.183.005 2.365.004 3.548-.001.426-.015.462-.43.49-.402.027-.808.006-1.212.006v.003"/></g></svg>