<svg xmlns="http://www.w3.org/2000/svg" width="100" height="100" viewBox="0 0 26.458 26.458"><g transform="matrix(.47416 0 0 .47416 -5.737 -5.974)" stroke-width=".558"><linearGradient gradientTransform="scale(-.558) rotate(45 -1735.474 727.465)" y2="-1058.276" x2="-1138.85" y1="-995.879" x1="-1104.633" gradientUnits="userSpaceOnUse" id="a"><stop offset=".011" stop-color="#91550f"/><stop offset=".069" stop-color="#c69c3a"/><stop offset=".148" stop-color="#c69c3a"/><stop offset=".219" stop-color="#e2c975"/><stop offset=".307" stop-color="#e2c975"/><stop offset=".407" stop-color="#fdec9e"/><stop offset=".528" stop-color="#bf922f"/><stop offset=".676" stop-color="#fdec9e"/><stop offset=".745" stop-color="#e2c975"/><stop offset=".836" stop-color="#c69c3a"/><stop offset=".916" stop-color="#c69c3a"/><stop offset="1" stop-color="#91550f"/></linearGradient><path d="M53 38.2c0 1.5 1 2.1 2.1 1.5 1.2-.6 2.1-2.3 2.1-3.8s-1-2.1-2.1-1.5c-1.2.7-2.1 2.4-2.1 3.8zm-.1 12c0 1.5 1 2.1 2.1 1.5 1.2-.6 2.1-2.3 2.1-3.8s-1-2.1-2.1-1.5c-1.1.6-2.1 2.3-2.1 3.8zm-4.4-3.7c0 1.5 1 2.1 2.1 1.5 1.2-.6 2.1-2.3 2.1-3.8s-1-2.1-2.1-1.5c-1.2.6-2.1 2.3-2.1 3.8zM43.8 43c0 1.5 1 2.1 2.1 1.5 1.2-.6 2.1-2.3 2.1-3.8s-1-2.1-2.1-1.5c-1.1.6-2.1 2.3-2.1 3.8zm0 12c0 1.5 1 2.1 2.1 1.5 1.2-.6 2.1-2.3 2.1-3.8s-1-2.1-2.1-1.5c-1.2.6-2.2 2.3-2.1 3.8zm0 0c0 1.5 1 2.1 2.1 1.5 1.2-.6 2.1-2.3 2.1-3.8s-1-2.1-2.1-1.5c-1.2.6-2.2 2.3-2.1 3.8zm0-12c0 1.5 1 2.1 2.1 1.5 1.2-.6 2.1-2.3 2.1-3.8s-1-2.1-2.1-1.5c-1.1.6-2.1 2.3-2.1 3.8zm4.7 3.5c0 1.5 1 2.1 2.1 1.5 1.2-.6 2.1-2.3 2.1-3.8s-1-2.1-2.1-1.5c-1.2.6-2.1 2.3-2.1 3.8zm4.4 3.7c0 1.5 1 2.1 2.1 1.5 1.2-.6 2.1-2.3 2.1-3.8s-1-2.1-2.1-1.5c-1.1.6-2.1 2.3-2.1 3.8zm.1-12c0 1.5 1 2.1 2.1 1.5 1.2-.6 2.1-2.3 2.1-3.8s-1-2.1-2.1-1.5c-1.2.7-2.1 2.4-2.1 3.8zm0 0c0 1.5 1 2.1 2.1 1.5 1.2-.6 2.1-2.3 2.1-3.8s-1-2.1-2.1-1.5c-1.2.7-2.1 2.4-2.1 3.8zm-.1 12c0 1.5 1 2.1 2.1 1.5 1.2-.6 2.1-2.3 2.1-3.8s-1-2.1-2.1-1.5c-1.1.6-2.1 2.3-2.1 3.8zm-4.4-3.7c0 1.5 1 2.1 2.1 1.5 1.2-.6 2.1-2.3 2.1-3.8s-1-2.1-2.1-1.5c-1.2.6-2.1 2.3-2.1 3.8zM43.8 43c0 1.5 1 2.1 2.1 1.5 1.2-.6 2.1-2.3 2.1-3.8s-1-2.1-2.1-1.5c-1.1.6-2.1 2.3-2.1 3.8zm0 12c0 1.5 1 2.1 2.1 1.5 1.2-.6 2.1-2.3 2.1-3.8s-1-2.1-2.1-1.5c-1.2.6-2.2 2.3-2.1 3.8zM31.5 41.3c0 1.5 1 3.2 2.2 4 1.2.8 2.1.2 2.1-1.3s-1-3.2-2.2-4c-1.2-.7-2.1-.1-2.1 1.3zm-4.7 2.8c0 1.5 1 3.2 2.2 4 1.2.8 2.1.2 2.1-1.3s-1-3.2-2.2-4c-1.2-.7-2.1-.2-2.1 1.3zm-4.7 2.8c0 1.5 1 3.2 2.2 4 1.2.8 2.1.2 2.1-1.3s-1-3.2-2.2-4c-1.2-.7-2.1-.2-2.1 1.3zm0 0c0 1.5 1 3.2 2.2 4 1.2.8 2.1.2 2.1-1.3s-1-3.2-2.2-4c-1.2-.7-2.1-.2-2.1 1.3zm4.7-2.8c0 1.5 1 3.2 2.2 4 1.2.8 2.1.2 2.1-1.3s-1-3.2-2.2-4c-1.2-.7-2.1-.2-2.1 1.3zm4.7-2.8c0 1.5 1 3.2 2.2 4 1.2.8 2.1.2 2.1-1.3s-1-3.2-2.2-4c-1.2-.7-2.1-.1-2.1 1.3zM43.8 55c0 1.5 1 2.1 2.1 1.5 1.2-.6 2.1-2.3 2.1-3.8s-1-2.1-2.1-1.5c-1.2.6-2.2 2.3-2.1 3.8zM48 40.7c0-1.5-1-2.1-2.1-1.5-1.2.6-2.1 2.3-2.1 3.8s1 2.1 2.1 1.5c1.2-.6 2.1-2.3 2.1-3.8zm.5 5.8c0 1.5 1 2.1 2.1 1.5 1.2-.6 2.1-2.3 2.1-3.8s-1-2.1-2.1-1.5c-1.2.6-2.1 2.3-2.1 3.8zm4.4 3.7c0 1.5 1 2.1 2.1 1.5 1.2-.6 2.1-2.3 2.1-3.8s-1-2.1-2.1-1.5c-1.1.6-2.1 2.3-2.1 3.8zM57.2 36c0-1.5-1-2.1-2.1-1.5-1.2.5-2.1 2.3-2.1 3.7 0 1.5 1 2.1 2.1 1.5 1.2-.6 2.1-2.3 2.1-3.7zM22.1 46.9c0 1.5 1 3.2 2.2 4 1.2.8 2.1.2 2.1-1.3s-1-3.2-2.2-4c-1.2-.7-2.1-.2-2.1 1.3zm4.7-2.8c0 1.5 1 3.2 2.2 4 1.2.8 2.1.2 2.1-1.3s-1-3.2-2.2-4c-1.2-.7-2.1-.2-2.1 1.3zm4.7-2.8c0 1.5 1 3.2 2.2 4 1.2.8 2.1.2 2.1-1.3s-1-3.2-2.2-4c-1.2-.7-2.1-.1-2.1 1.3zM43.8 55c0 1.5 1 2.1 2.1 1.5 1.2-.6 2.1-2.3 2.1-3.8s-1-2.1-2.1-1.5c-1.2.6-2.2 2.3-2.1 3.8zM48 40.7c0-1.5-1-2.1-2.1-1.5-1.2.6-2.1 2.3-2.1 3.8s1 2.1 2.1 1.5c1.2-.6 2.1-2.3 2.1-3.8zm.5 5.8c0 1.5 1 2.1 2.1 1.5 1.2-.6 2.1-2.3 2.1-3.8s-1-2.1-2.1-1.5c-1.2.6-2.1 2.3-2.1 3.8zm4.4 3.7c0 1.5 1 2.1 2.1 1.5 1.2-.6 2.1-2.3 2.1-3.8s-1-2.1-2.1-1.5c-1.1.6-2.1 2.3-2.1 3.8zM57.2 36c0-1.5-1-2.1-2.1-1.5-1.2.5-2.1 2.3-2.1 3.7 0 1.5 1 2.1 2.1 1.5 1.2-.6 2.1-2.3 2.1-3.7zM53 38.2c0 1.5 1 2.1 2.1 1.5 1.2-.6 2.1-2.3 2.1-3.8s-1-2.1-2.1-1.5c-1.2.7-2.1 2.4-2.1 3.8zm-.1 12c0 1.5 1 2.1 2.1 1.5 1.2-.6 2.1-2.3 2.1-3.8s-1-2.1-2.1-1.5c-1.1.6-2.1 2.3-2.1 3.8zm-4.4-3.7c0 1.5 1 2.1 2.1 1.5 1.2-.6 2.1-2.3 2.1-3.8s-1-2.1-2.1-1.5c-1.2.6-2.1 2.3-2.1 3.8zM43.8 43c0 1.5 1 2.1 2.1 1.5 1.2-.6 2.1-2.3 2.1-3.8s-1-2.1-2.1-1.5c-1.1.6-2.1 2.3-2.1 3.8zm0 12c0 1.5 1 2.1 2.1 1.5 1.2-.6 2.1-2.3 2.1-3.8s-1-2.1-2.1-1.5c-1.2.6-2.2 2.3-2.1 3.8zM31.5 41.3c0 1.5 1 3.2 2.2 4 1.2.8 2.1.2 2.1-1.3s-1-3.2-2.2-4c-1.2-.7-2.1-.1-2.1 1.3zm-4.7 2.8c0 1.5 1 3.2 2.2 4 1.2.8 2.1.2 2.1-1.3s-1-3.2-2.2-4c-1.2-.7-2.1-.2-2.1 1.3zm-4.7 2.8c0 1.5 1 3.2 2.2 4 1.2.8 2.1.2 2.1-1.3s-1-3.2-2.2-4c-1.2-.7-2.1-.2-2.1 1.3zm0 0c0 1.5 1 3.2 2.2 4 1.2.8 2.1.2 2.1-1.3s-1-3.2-2.2-4c-1.2-.7-2.1-.2-2.1 1.3zm4.7-2.8c0 1.5 1 3.2 2.2 4 1.2.8 2.1.2 2.1-1.3s-1-3.2-2.2-4c-1.2-.7-2.1-.2-2.1 1.3zm4.7-2.8c0 1.5 1 3.2 2.2 4 1.2.8 2.1.2 2.1-1.3s-1-3.2-2.2-4c-1.2-.7-2.1-.1-2.1 1.3zM43.8 55c0 1.5 1 2.1 2.1 1.5 1.2-.6 2.1-2.3 2.1-3.8s-1-2.1-2.1-1.5c-1.2.6-2.2 2.3-2.1 3.8zm0-12c0 1.5 1 2.1 2.1 1.5 1.2-.6 2.1-2.3 2.1-3.8s-1-2.1-2.1-1.5c-1.1.6-2.1 2.3-2.1 3.8zm4.7 3.5c0 1.5 1 2.1 2.1 1.5 1.2-.6 2.1-2.3 2.1-3.8s-1-2.1-2.1-1.5c-1.2.6-2.1 2.3-2.1 3.8zm4.4 3.7c0 1.5 1 2.1 2.1 1.5 1.2-.6 2.1-2.3 2.1-3.8s-1-2.1-2.1-1.5c-1.1.6-2.1 2.3-2.1 3.8zm.1-12c0 1.5 1 2.1 2.1 1.5 1.2-.6 2.1-2.3 2.1-3.8s-1-2.1-2.1-1.5c-1.2.7-2.1 2.4-2.1 3.8z" fill="url(#a)"/><linearGradient gradientTransform="scale(-.558) rotate(45 -1735.474 727.465)" y2="-1060.857" x2="-1134.143" y1="-998.461" x1="-1099.926" gradientUnits="userSpaceOnUse" id="b"><stop offset=".011" stop-color="#91550f"/><stop offset=".069" stop-color="#c69c3a"/><stop offset=".148" stop-color="#c69c3a"/><stop offset=".219" stop-color="#e2c975"/><stop offset=".307" stop-color="#e2c975"/><stop offset=".407" stop-color="#fdec9e"/><stop offset=".528" stop-color="#bf922f"/><stop offset=".676" stop-color="#fdec9e"/><stop offset=".745" stop-color="#e2c975"/><stop offset=".836" stop-color="#c69c3a"/><stop offset=".916" stop-color="#c69c3a"/><stop offset="1" stop-color="#91550f"/></linearGradient><path d="M37.2 28.8c1.5.7 3.9.7 5.5 0 1.8-.8 1.8-2.1 0-3-1.5-.7-3.9-.7-5.5 0-1.8.9-1.8 2.2 0 3z" fill="url(#b)"/><linearGradient gradientTransform="scale(-.558) rotate(45 -1735.474 727.465)" y2="-1060.371" x2="-1138.071" y1="-997.975" x1="-1103.853" gradientUnits="userSpaceOnUse" id="c"><stop offset=".011" stop-color="#91550f"/><stop offset=".069" stop-color="#c69c3a"/><stop offset=".148" stop-color="#c69c3a"/><stop offset=".219" stop-color="#e2c975"/><stop offset=".307" stop-color="#e2c975"/><stop offset=".407" stop-color="#fdec9e"/><stop offset=".528" stop-color="#bf922f"/><stop offset=".676" stop-color="#fdec9e"/><stop offset=".745" stop-color="#e2c975"/><stop offset=".836" stop-color="#c69c3a"/><stop offset=".916" stop-color="#c69c3a"/><stop offset="1" stop-color="#91550f"/></linearGradient><path d="M12.1 40.5c0 3.7.7 7.4 2.2 10.8 1.4 3.3 3.4 6.3 6 8.9 2.6 2.6 5.5 4.6 8.9 6 3.4 1.5 7.1 2.2 10.8 2.2 3.7 0 7.4-.7 10.8-2.2 3.3-1.4 6.3-3.4 8.9-6 2.6-2.6 4.6-5.5 6-8.9 1.5-3.4 2.2-7.1 2.2-10.8 0-3.7-.7-7.4-2.2-10.8-1.4-3.3-3.4-6.3-6-8.9-2.6-2.6-5.5-4.6-8.9-6-3.4-1.5-7.1-2.2-10.8-2.2-3.7 0-7.4.7-10.8 2.2-3.3 1.4-6.3 3.4-8.9 6-2.6 2.6-4.6 5.5-6 8.9-1.5 3.4-2.2 7.1-2.2 10.8zm48 10.7L40.8 62.3V40L60 29v22.2zM39.9 38.5L20.6 27.4l19.3-8.1 19.4 8.1zm-.8 23.8L19.8 51.2V28.9l19.3 11.2z" fill="url(#c)"/></g></svg>