<svg version="1" xmlns="http://www.w3.org/2000/svg" width="842.667" height="842.667" viewBox="0 0 632.000000 632.000000"><path d="M171.5 31.6c2.8 2.5 9.3 8.5 14.5 13.2 5.2 4.7 33.4 32.5 62.5 61.7C305 163 313.2 171 314.8 171c.6 0 1.2.3 1.4.8.2.4 3.9 3.6 8.3 7.2 4.4 3.5 8.2 6.7 8.5 7 .3.3 2.1 1.7 4.2 3.2 2 1.5 4.2 3.3 5 4 .7.7 6.9 5.8 13.8 11.3 9.2 7.4 15.5 11.5 24 15.7 12.6 6.2 30 12.4 43.2 15.4 1 .2 2.8.6 4.1.9 1.2.3 5.2 1.2 9 1.9 7.1 1.5 7.6 1.5 8 1.7.1.1 2 .3 4.2.4 2.2.2 6.9.8 10.5 1.4 5.7.8 10.9 1.4 22.5 2.6 1.7.2 6.6.6 11 .9 12.9 1.1 25.9 2.3 31 3 1.7.2 6.1.7 9.8 1.1 3.7.3 7.6.8 8.6 1 1 .2 4.2.6 7.2 1 3 .3 7.2.8 9.4 1.1 2.2.3 6.3.7 9 .9 2.8.2 7.7.6 11 .9 6.3.6 18.3 1.6 25 2.1 2.2.1 8.1.6 13 1 5 .4 9.2.7 9.5.7 2.2.1 1.5-.8-4.1-5.3-3.5-2.7-6.8-5.6-7.4-6.3-.5-.6-2-1.9-3.3-2.8-1.2-.8-3.9-3.1-6-5-3.3-3-27.1-22.9-39.1-32.7-2.5-2-5.8-4.8-7.5-6.2-1.7-1.4-4-3.3-5.1-4.2-1.1-.9-6.7-5.5-12.5-10.3-11.1-9.2-13-10.7-28-23.1-5.2-4.3-10-8.2-10.6-8.8-.6-.5-2.6-2.1-4.4-3.5-1.8-1.4-4.1-3.2-5-4-3.8-3.3-22.2-18.4-31.5-26-3.7-3-7.3-6-7.9-6.5-.6-.6-3.3-2.8-6.1-5-4.8-3.8-7.1-5.8-12.5-10.6-10.6-9.3-24.8-16.9-45.5-24.4-7.1-2.6-14.1-4.9-15.4-5.2-1.4-.2-2.8-.6-3.3-.9-.4-.3-1.7-.7-2.7-.9-1.1-.2-4.6-1-7.8-1.9-3.2-.8-7.1-1.8-8.8-2.2-1.6-.4-3.4-.8-4-1-1.5-.3-46.6-9.5-49.5-10-1.4-.3-3.3-.7-4.2-1-.9-.3-2.6-.7-3.7-.9-1.2-.3-2.9-.7-3.8-.9-4.6-1.2-21.3-4.9-25.3-5.6-2.5-.5-6.5-1.3-9-1.9-5.5-1.2-10.6-2.2-14-2.6-1.4-.2-9.2-1.5-17.5-3-14.8-2.6-17.8-3.1-23.2-3.9-1.6-.2-5.5-.9-8.8-1.5-3.3-.6-7.7-1.3-9.9-1.6-2.1-.2-5.7-.7-8-1l-4.1-.6 5 4.7zm88.7 25.3c11.1 3.8 20.8 10 28.7 18.1 4.3 4.3 10.1 12.5 10.1 14.2 0 1.6-7.7 4-13.5 4.3-14.1.5-30-7.6-47.7-24.5-9-8.6-9.2-8.9-7.3-10.4 5.9-4.6 19.2-5.4 29.7-1.7zm143.1 30.2c15.6 5.5 29 15.9 35.2 27.2l2.6 4.7-3.8 1.6c-10.2 4.3-31.1-3.3-46.8-17-7.2-6.3-12.9-14.4-11.3-16.3 2.9-3.5 14.4-3.6 24.1-.2zM380 166.6c6.8 2 13.9 5.1 16.4 7.3 1 .9 2.1 1.6 2.5 1.5 1.5-.3 9.5 6.1 16.3 13.1 3.9 3.9 9.8 13 9.8 15 0 2.1-6.1 4.6-12.1 4.9-17.9.9-43.9-13.5-55.9-30.9-1.7-2.5-3.2-5.8-3.3-7.3-.2-2.4.3-2.9 4.7-4.3 5.7-1.9 13.4-1.6 21.6.7zm141.5 22.1c4.9.9 16.6 6.7 22.5 11.2 7.1 5.4 17.1 15.2 20.7 20.3 2.7 3.9 2.7 4.1.8 5.4-7.2 5.3-25.9 3.4-34.8-3.6-1.4-1.1-3-2-3.6-2-.6 0-1.1-.5-1.1-1 0-.6-.5-1-1.1-1-.6 0-1.6-.6-2.3-1.3-.7-.6-2.8-2.3-4.6-3.7-4.1-3.1-20-18.8-20-19.8 0-1.2 5.5-4.1 9.6-5.1 3.7-.8 7.5-.7 13.9.6zM140.5 40.8c-6.9 1.2-14.3 6.4-19 13.3-1.7 2.4-3.3 4.6-3.7 4.9-1.2 1-12.2 24.8-19.3 42-1.5 3.6-3.1 7.2-3.6 8-.5.8-1.2 2.2-1.5 3-.3.8-2.2 5.3-4.2 10s-3.7 8.7-3.7 9c-.1.3-1 2.5-2.2 5-1.1 2.5-3.5 7.9-5.3 12-1.8 4.1-4.2 9.7-5.5 12.5-1.2 2.7-4.2 9.5-6.5 15s-5.8 13.3-7.6 17.3c-1.9 4.1-3.4 7.5-3.4 7.7 0 .9-17.3 39.1-18.2 40.2-.6.7-.8 1.3-.5 1.3.4 0-1.8 4.8-4.7 10.7C10 296.2 4.2 309.6 2.4 319.5c-.3 1.6-.9 4.8-1.4 7-1.9 8.3.3 32.6 3.2 36.2.6.7.8 1.3.5 1.3-1.7 0 14.3 30.1 17.7 33.6.6.6 2 2.7 3.1 4.7s2.3 3.7 2.7 3.7c.4 0 1.4 1.2 2.2 2.7.8 1.6 2.6 4.1 4 5.8 1.4 1.6 2.6 3.3 2.6 3.7 0 .4.6 1.3 1.3 2 .7.7 6.2 8 12.2 16.3 6 8.2 14.3 19.6 18.4 25.2 4.2 5.5 8.5 11.3 9.6 12.9 1.1 1.5 3.2 4.3 4.7 6.3s3.1 4.1 3.5 4.6c.5.6 2.1 2.8 3.8 5 1.6 2.2 3.3 4.1 3.7 4.3.4.2.8 1 .8 1.8s.7 1.7 1.5 2c.8.3 1.7 1.4 2 2.3.3 1 1.3 2.6 2.3 3.7 3.2 3.7 8.2 10.3 8.2 10.9 0 .4.6 1.3 1.3 2 2.6 3 3.8 4.6 11.8 15.7 4.5 6.2 8.6 12.3 9.2 13.5.6 1.3 1.4 2.3 1.9 2.3.4 0 .8.5.8 1.1 0 1.6 10 13.9 15.8 19.4 15.3 14.7 28.1 12 43.5-9.1 2-2.9 3.7-5.5 3.7-6 0-.4.6-1.5 1.4-2.3.7-.9 4.2-7 7.6-13.6 6.6-12.7 16.6-31.6 18.4-35 .6-1.1 1.7-2.8 2.5-3.8.8-.9 1.1-1.7.7-1.7-.4 0 .1-1.2 1.2-2.8 1-1.5 4.5-7.7 7.7-13.7 3.2-6.1 7.7-14.6 10-19s6.5-12.3 9.3-17.6c12-22.6 17.5-33 22.4-42.9 2.9-5.8 5.5-10.7 5.8-11 .3-.3 2.7-4.8 5.4-10 7.4-14.5 12-23 22.7-41.5 15.5-27.2 21.3-39.3 26.5-55.4 3-9.4 3.7-14.3 3.8-26.1 0-13.8-1.7-21.6-7.7-33.5-3.1-6.2-9-15.9-11-18.1-.7-.7-2.3-2.7-3.7-4.5-7.8-10.4-23.3-25.7-58.4-57.9-9.7-8.8-42.2-41.5-59-59.3-12.7-13.5-37-34.5-46.6-40.4-3.6-2.2-12-4.1-15.5-3.5zm10.5 73.7c6.6 3.4 12.2 11.2 14.6 20.4 1.2 4.5 1.2 19.3 0 24.4-3.9 16.6-15.3 30-27.6 32.4-1.3.2-2.6.6-2.8.8-1 1-10.1-3.2-12.7-5.9-6.2-6.3-8.5-14.5-8-28 .7-22 11.1-41.9 23.6-45.4 3.9-1.1 9.3-.6 12.9 1.3zm108.6 117.8c3.9 1 9.8 4.4 13.6 8 3.8 3.5 9.2 13.1 10.2 17.7.3 1.4.8 3.6 1.1 5 .8 3.3.9 17.7.1 21.6-3.1 16.1-15.6 29.7-29.3 31.7-7.5 1.2-17.6-5-22.2-13.4-11.5-21.4-9.1-49 5.5-63.5 6.8-6.8 13.2-9 21-7.1zM160 264.9c17.2 10.6 22.5 47.1 9.6 65.6-3.6 5.1-5 6.5-9.8 9.6-8.2 5.3-18.7 3.5-25.2-4.2-2.9-3.5-8-12.9-7-12.9.4 0 .2-.6-.4-1.3-.6-.6-1-1.5-1.1-2 0-.4-.3-2.9-.7-5.5-2.1-12.7 1-30.5 6.6-38.7 7.9-11.5 19.5-15.9 28-10.6zm-92.9 28.9c6.2 2.5 13.8 12.6 15.5 20.5 1.1 4.9.5 17.6-1.1 23.7-3.2 12.5-11 23.7-19.5 28-4.4 2.3-7.6 1.9-14-1.6-8.3-4.6-13-14.1-13.5-27.3-.8-23.2 11.9-45.4 25.5-44.7 2.5.2 5.7.8 7.1 1.4zm101.6 125.3c5.4 2.6 10.7 8.7 14.2 16.4 3.1 6.6 5.5 15.1 4.6 16.5-.3.5-.1 1.1.4 1.4 1.2.8.6 16.1-.8 21.6-3.6 13.5-12.6 22.9-23.6 24.7-7.6 1.2-19.3-8.7-25-21.2-5.6-12.2-6.5-24.9-2.6-37.4 2.2-7 7.6-15.8 10.4-16.7.9-.3 1.7-.9 1.7-1.4 0-1 5.1-3.9 9-5.1 4.3-1.3 7.2-1 11.7 1.2zM420.8 254.5c-.2.1-2.8.5-5.8.8-3 .4-8.2 1.5-11.4 2.7-5.6 1.9-20.5 9.4-21.6 10.8-.3.4-2.5 2.4-5 4.4-7.3 5.9-9.3 7.9-15.1 14.8-13.7 16.4-18.8 25.2-43 72.5-18 35.4-19.8 38.8-23.7 46-1.6 2.7-5.3 9.7-8.4 15.5-3 5.8-6.4 12.1-7.5 14-1.1 2-3.9 7.1-6.3 11.5-2.3 4.4-5.5 10.2-7 13-3.7 6.8-10.7 19.9-13.9 26-1.4 2.7-2.8 5.2-3.1 5.5-.3.3-1.4 2.3-2.5 4.5s-3.2 6.1-4.7 8.8c-1.5 2.6-2.5 4.7-2.2 4.7.3 0-.3 1.2-1.4 2.7-1 1.6-3.2 5.5-4.9 8.8-1.7 3.3-5 9.4-7.2 13.5-13.4 24.5-20 41-20.8 51.5-.6 9 1.4 12.9 8.3 16.5 4.3 2.2 6.1 2.5 17.4 2.6 6.9.1 15-.2 18-.7 10.1-1.6 18.2-2.6 27-3.4 3.6-.3 8.1-.8 10-1 1.9-.2 8.1-.7 13.8-1 5.6-.4 11-.8 12-.9.9-.2 6-.7 11.2-1.1 5.2-.3 11.5-.8 14-1 2.5-.2 8.6-.7 13.5-1 5-.3 11-.7 13.5-1 2.5-.2 8.3-.7 13-1.1 15-1.1 13.4-1 29.5-3 3.5-.4 8-1.2 18.2-3 1.6-.3 4.6-1 6.8-1.6 2.2-.6 4.5-1.1 5-1.3 4.6-1 13.8-5.9 21-11 7.1-5 9-6.7 17-14.5 5.8-5.7 8.6-8.8 15.9-17.7 3.7-4.6 16.8-25.3 23.6-37.3 6.5-11.5 6.7-11.9 30-51.9 11.9-20.7 22.7-39.3 23.9-41.3 1.1-2.1 7.5-13 14.1-24.3 6.6-11.4 12-21 12-21.6 0-.5.4-.9.9-.9s1.1-.8 1.4-1.8c.6-1.9 4.5-8.7 11.1-19.7 2.3-3.9 4.5-7.7 4.9-8.5.4-.8 1.5-2.9 2.6-4.5 1-1.7 2.8-4.8 4.1-7 1.2-2.2 3.7-6.5 5.6-9.6 1.9-3.1 3.4-6.2 3.4-6.8 0-.6.4-1.1.9-1.1 1 0 1.9-2.9 2.7-8.7.6-4.2-1.1-13.9-2.5-14.8-.8-.5-4.1-1-11.1-2-2.5-.3-7.1-1-10.3-1.6-3.3-.6-7.3-1.2-9-1.4-4.9-.6-11-1.5-13.7-2-1.4-.2-4.5-.7-7-1-2.5-.4-5.8-.8-7.5-1.1-1.6-.3-4.6-.8-6.5-1.1-1.9-.2-4.6-.6-6-.8-1.4-.2-4.7-.7-7.5-1-2.7-.4-6.1-.8-7.5-1-1.4-.2-4.7-.6-7.5-.9-8.7-1-12.9-1.5-15.5-2-1.4-.3-4.4-.8-6.5-1-11.7-1.3-16.1-1.8-16.5-2.1-.3-.2-3.3-.7-6.5-1-3.3-.4-6.9-.9-8-1.1-1.1-.3-6.9-1.1-13-1.9-6-.9-12.6-1.8-14.5-2.1-7.8-1.2-33.4-2.6-34.2-1.9zm6.4 60.2c1.7 1 4.4 3.5 6.1 5.5 2.6 3.3 3 4.4 3 10.5 0 5.7-.6 8.1-3.5 14.3-3.2 7-10.5 17.1-15.2 21.3-1.2 1-3.2 2.8-4.6 4-7.8 6.9-19 11.9-26.2 11.9-11.4-.1-19.8-8.2-19.8-19 0-15.5 16.1-36.6 35.2-46.3 10-5 18.8-5.8 25-2.2zm144.9 10.6c9.9 5.3 9.7 18.6-.6 34.7-15.3 23.7-39.6 33.2-50 19.6-7.4-9.7-1.7-27 13.6-41.5 13.7-13 27.6-17.9 37-12.8zm-194.6 84.9c11.9 8 8.4 27.1-8.5 45.2-6.2 6.7-15.7 13.3-22.7 15.7-19.2 6.7-33.7-6.7-27.5-25.7.8-2.7 1.8-5.1 2.1-5.4.3-.3 1.3-1.8 2.1-3.5 1.4-2.6 14.1-16.1 18.3-19.3 6.4-4.8 17.2-9.5 23.7-10.4 3.9-.5 8.8.8 12.5 3.4zm143.1.3c9.3 3.9 11.3 12.6 5.6 24.5-1.4 3-3.2 6.1-3.9 6.8-.7.7-1.3 1.7-1.3 2 0 1.1-10 11.3-15 15.3-6.7 5.4-16.5 10-22.4 10.5-11.3 1.1-17.7-7.5-15.2-20.2.5-2.5 4.6-11.7 5.5-12.4.3-.3 1.9-2.4 3.5-4.7 2.5-3.8 8.5-9.8 14.4-14.5 2.7-2.2 14.2-8 14.2-7.3 0 .3.8.1 1.8-.4 2.5-1.5 8.7-1.3 12.8.4zm-48.7 82c5.9 1.9 9.3 8.9 7.9 16.4-.8 4.7-4.9 13.4-7.4 15.8-.8.8-1.4 1.8-1.4 2.3 0 .5-3.2 4-7.2 7.9-15.9 15.9-33 19.1-40.6 7.6-3.9-5.9-3.4-12.4 1.7-21.7 2.4-4.3 10.9-13.9 15.7-17.8 6.1-4.8 15.3-9.6 20.4-10.5 1.9-.3 3.6-.8 3.8-1 .5-.4 4.2 0 7.1 1zm-150.2 4.1c4.6.4 10.2 3.8 13.6 8.2 2.4 3.1 2.8 4.3 2.3 7.5-2.7 17-19.4 37.1-37.2 44.7-6.3 2.7-15.4 3.4-19.9 1.6-16.7-7-14.8-27.6 4.5-46.8 5.1-5.1 14.6-11.9 16.7-12 .4 0 1.7-.5 2.8-1.1 2.8-1.5 11.8-3.5 12.9-2.9.5.3 2.4.6 4.3.8z"/></svg>