<svg xmlns="http://www.w3.org/2000/svg" width="100" height="100" viewBox="0 0 26.4583 26.4583"><g fill="#77a007" fill-rule="evenodd" stroke-width=".6966"><path d="M19.378 13.486h-.8244l-1.2646.0053-7.7967-.0036c-.0763.3126-.0763.3557-.0763.7216 0 .3954.0345.605.1387.9664h7.669c-.5195 1.7304-2.1114 2.9901-3.995 2.9901-2.3053 0-4.174-1.8867-4.174-4.2141 0-2.3275 1.8687-4.2142 4.174-4.2142 1.905 0 3.512 1.2885 4.0125 3.0493h2.0928a6.2647 6.2647 0 0 0-.3353-1.1632l-.5399.221a5.7005 5.7005 0 0 0-.9425-1.558 5.6508 5.6508 0 0 0-1.3806-1.1793l.3106-.5215a6.1339 6.1339 0 0 0-2.2836-.8352l-.0726.52a5.5832 5.5832 0 0 0-1.808.045 5.6011 5.6011 0 0 0-1.7017.6174l-.2802-.5138a6.2564 6.2564 0 0 0-1.9974 1.7106l.4694.3673a5.7076 5.7076 0 0 0-.8654 1.6032 5.7397 5.7397 0 0 0-.3213 1.7967l-.5686-.009c-.0002.0212-.0005.0424-.0005.0637 0 .8513.1682 1.663.4726 2.4032l.5125-.2115a5.7017 5.7017 0 0 0 .9425 1.5582c.406.4783.8736.8718 1.3806 1.1792l-.2736.461a6.133 6.133 0 0 0 2.3368.8247l.0718-.5262a5.585 5.585 0 0 0 1.8078-.045 5.6047 5.6047 0 0 0 1.7019-.6175l.257.4685a6.2598 6.2598 0 0 0 1.888-1.6203l-.426-.335a5.708 5.708 0 0 0 .8653-1.6032 5.7423 5.7423 0 0 0 .3212-1.7967l.5644.0105a6.1531 6.1531 0 0 0 .0018-.15c0-.3041-.0216-.173-.063-.4656"/><path d="M13.4778 20.1686c-3.5401.1141-6.4331-2.8068-6.3202-6.3808C7.26 10.551 9.871 7.915 13.077 7.8117c3.5401-.1141 6.4331 2.8068 6.3202 6.3807-.1024 3.2367-2.7135 5.8728-5.9194 5.9762zM16.0228.378C15.9456.1701 15.7023 0 15.4824 0h-4.41c-.22 0-.4637.17-.5416.3776L.8828 26.0807c-.0779.2077.0382.3776.2582.3776h5.6772c.22 0 .516-.139.6577-.3087 0 0 3.0898-3.7003 5.8015-3.7003s5.8015 3.7003 5.8015 3.7003c.1417.1698.4377.3087.6577.3087h5.5799c.2199 0 .3367-.1701.2594-.378z" fill-rule="nonzero"/></g></svg>