<svg width="80" height="80" xmlns="http://www.w3.org/2000/svg"><defs><linearGradient x1="-3.0241%" y1="68.808%" x2="92.4819%" y2="11.7519%" id="a"><stop stop-color="#B5DAF4" offset="0%"/><stop stop-color="#2AB2E7" offset="27.4%"/><stop stop-color="#2B357F" offset="100%"/></linearGradient><linearGradient x1="102.9382%" y1="31.4375%" x2="7.5739%" y2="88.2659%" id="b"><stop stop-color="#B5DAF4" offset="0%"/><stop stop-color="#2AB2E7" offset="27.4%"/><stop stop-color="#2B357F" offset="100%"/></linearGradient></defs><g fill-rule="nonzero" fill="none"><path d="M10.1405 9.9452c13.44-13.32 35.1-13.26 48.42.18 2.46 2.52 2.46 6.54-.06 9.06-2.52 2.52-6.54 2.46-9.06-.06-8.34-8.4-21.96-8.46-30.36-.12-8.4 8.34-8.46 21.96-.12 30.36-2.46-2.52-6.54-2.52-9.06 0-2.52 2.46-2.52 6.54-.06 9.06-13.2-13.5-13.14-35.16.3-48.48z" fill="url(#a)" transform="translate(6 5.8)"/><path d="M10.0205 49.3052c.18-.18.3-.3.48-.42.3-.24.6-.42.9-.6.06-.06.12-.06.18-.12 1.86-.96 4.08-.96 5.88 0h.06c.18.12.36.18.54.3h.06c.18.12.36.24.48.36s.3.24.42.36l.06.06c8.34 8.4 21.96 8.46 30.36.12 8.4-8.34 8.46-21.96.12-30.36 2.46 2.52 6.54 2.52 9.06 0 2.52-2.46 2.52-6.54.06-9.06 13.32 13.44 13.26 35.1-.18 48.42s-35.1 13.26-48.42-.18c-2.58-2.34-2.58-6.36-.06-8.88z" fill="url(#b)" transform="translate(6 5.8)"/></g></svg>