<svg xmlns="http://www.w3.org/2000/svg" width="340" height="238.037"><defs><linearGradient id="a" x1="51.034" y1="154.244" x2="57.034" y2="158.427" gradientTransform="matrix(39.281 0 0 -27.501 -1952.33 4444.852)" gradientUnits="userSpaceOnUse"><stop offset="0" stop-color="#f507ec"/><stop offset=".09" stop-color="#ee0cec"/><stop offset=".22" stop-color="#da19ed"/><stop offset=".38" stop-color="#b92fef"/><stop offset=".57" stop-color="#8b4df1"/><stop offset=".77" stop-color="#5173f4"/><stop offset=".98" stop-color="#0aa2f8"/><stop offset="1" stop-color="#02a7f8"/></linearGradient></defs><path d="M302.513 154.719l-14.109-31.342q-58.477-3.285-118.097-3.333-59.62-.052-118.702 3.376l-14.126 31.299q65.306-4.142 132.828-4.207 67.124 0 132.206 4.207zM238.894 13.425L233.268.978Q201.939.004 170.316 0q-31.628 0-63.558 1.004l-5.617 12.42c22.902-.76 45.943-1.237 69.175-1.237s45.875.476 68.578 1.238zm37.98 84.357l-27.991-62.078q-39.054-1.428-78.567-1.471-39.508-.052-79.164 1.471L63.16 97.834q53.063-2.791 107.156-2.787 54.089 0 106.559 2.735zm54.574 121.213q-47-3.7-94.995-5.193l8.154 18.523q48.285 1.713 95.393 5.66zm-18.74-41.66q-70.304-4.764-142.392-4.76-72.097 0-142.99 4.813L18.8 196.43q74.434-5.596 151.516-5.67 76.797 0 150.919 5.523zM0 238.038q47.039-3.934 95.298-5.695l8.249-18.523q-47.805 1.506-94.97 5.176L0 238.029z" fill="url(#a)"/></svg>