<svg xmlns="http://www.w3.org/2000/svg" width="100" height="100" viewBox="0 0 26.4583 26.4583"><defs><linearGradient id="a" y2="39.4968" x2="78.9937" y1="39.4968" gradientTransform="matrix(.77019 0 0 .8102 -12.87 7.1428)" gradientUnits="userSpaceOnUse"><stop offset="0%" stop-color="#B80101"/><stop offset="100%" stop-color="#FD1515"/></linearGradient></defs><g transform="matrix(.3392 0 0 .33073 0 0)" fill="none" fill-rule="evenodd" stroke-width=".7899"><ellipse ry="40" rx="39" cy="40" cx="39" fill="url(#a)"/><path d="M36.1238 55.933h5.181c.2 0 .3619-.1627.3619-.3636V31.6268h3.619c2.4286-4.4498 6.762-6.1244 6.762-6.1244h-25.143s3.762 1.1962 5.143 6.1244h3.7142v23.9426c0 .201.162.3636.362.3636z" fill="#f7f6f6"/><path d="M64.7143 33.732l2.4762-4.7846s-3.3334-3.3493-9.2381-3.3493c-8.5714 0-13.3334 6.7942-13.619 15.6938C44.057 50 49.9523 56.22 57.4761 56.3158c7.5238.0957 10.8571-3.6364 10.8571-3.6364V39.225c0-.2871-.2285-.5263-.5143-.5263l-8.4857-.1723c-.2952-.0096-.5333.2297-.5333.5168l-.0762 4.5837c-.0095.2966.2286.5359.5238.5359h2.6572c.2857 0 .5238.2392.5238.5263v5.024s-11.6762 5.1674-11.9048-9.2824c-.0952-6.0287 4.0952-9.0909 7.7143-9.2823 3.3714-.1818 6.4762 2.5838 6.4762 2.5838z" fill="#f7f6f6"/><path d="M39.0095.2967C17.6285.2967.2952 18.067.2952 40s17.3334 39.7033 38.7143 39.7033c21.381 0 38.7143-17.7703 38.7143-39.7033S60.3905.2967 39.0095.2967zm0 2.2966c20.1429 0 36.4667 16.7464 36.4667 37.4067 0 7.2823-2.0286 14.0766-5.5333 19.8278-1.4381.823-6.2477 2.976-17.1905 2.823-13.0476-.1819-16.9714-3.1867-29.0667-3.1867-6.9524 0-12.7238 1.8756-14.2571 2.421C5.0952 55.7322 2.5429 48.1723 2.5429 40c0-20.6603 16.3238-37.4067 36.4666-37.4067zm-16.7428 60.957c6.2095 0 21.0476 7.1865 34.8952 8.909-3.2476 1.914-6.8095 3.3302-10.5905 4.1531-16.1619-10.0957-22.9047-13.0622-24.3047-13.0622zm12.181 13.5693c-6.6667-.8517-12.7715-3.5502-17.8191-7.5885 1.5428-.1722 6.1428.6794 9.4285 2.287 2.581 1.2537 5.581 2.9666 8.3905 5.3015zm27.8094-8.287c-9.9904.7176-24.3047-5.4068-33.2761-6.6125 9.781-.6603 26.7714 4.6029 39.5428-.2297-1.8095 2.536-3.9143 4.8421-6.2667 6.8421z" fill="#f7f6f6" fill-rule="nonzero"/><path d="M28.0952 38.8995c1.8096-1.4354 2.8096-2.5359 2.8096-5.8851 0-3.6364-3.5238-7.512-10.0477-7.512-7.9047 0-10 5.1675-10 5.1675v22.201s3.9048 3.0621 9.619 3.0621c3.343 0 12.3334.0957 12.3334-9.9043 0-4.1148-3.0952-5.7895-4.7143-7.1292zm-10.5714-5.2631s.8095-2.3445 3.2381-2.3924c1.9048-.0383 3.5238 1.244 3.5238 2.7751 0 1.7225-1.2857 2.9665-2.5238 2.9665-1.0571 0-2.9143.1244-3.8286.1053-.2285 0-.4095-.1914-.4095-.421zm8.1905 14.1148c-.4762 3.6364-6.762 2.6794-8 1.7895-.1143-.0766-.1905-.1914-.1905-.335v-6.6794c0-.2105.1714-.3828.381-.3828 0 0 5.7142-.7655 7.4285 1.6747.5524.7942.581 2.4115.381 3.933z" fill="#f7f6f6" fill-rule="nonzero"/><path fill="#f7f6f6" d="M48.5714 10.0574l-5.4476 4.3445 1.8667 6.7273-5.8-3.8565L33.4 21.1292l1.8571-6.7273-5.4476-4.3445 6.9524-.3062 2.4286-6.5455 2.438 6.5455zM27.2857 14.9665l-2.3333 2.421 1.3143 3.1101-3.019-1.4832-2.543 2.22.4763-3.3397-2.8858-1.7416 3.3048-.5837.7619-3.2919 1.5714 2.9857zM14.2667 21.6842l-1.0857 1.8086 1.238 1.713-2.0476-.4785-1.238 1.7129-.181-2.1053-2-.6507 1.9333-.823v-2.1148l1.381 1.5885zM64.2381 21.6842l1.0857 1.8086-1.238 1.713 2.0475-.4785 1.2381 1.7129.181-2.1053 2-.6507-1.9334-.823v-2.1148l-1.3809 1.5885zM51.3429 14.9665l2.3333 2.421-1.3143 3.1101 3.019-1.4832 2.5334 2.22-.4667-3.3397 2.8857-1.7416-3.3143-.5837-.7523-3.2919-1.581 2.9857z"/></g></svg>