<svg xmlns="http://www.w3.org/2000/svg" width="100" height="100" viewBox="0 0 26.4583 26.4583"><path d="M3.6738 0h19.1107c.3851 0 .6973.3469.6973.7747v24.909c0 .4278-.3122.7746-.6973.7746H3.6738c-.385 0-.6972-.3468-.6972-.7747V.7747C2.9766.347 3.2887 0 3.6738 0zM7.757 22.1118h6.0995c1.8303-.0163 3.2115-.4616 4.1438-1.336.9323-.8745 1.3985-2.182 1.3985-3.9228 0-.9599-.2099-1.7733-.6296-2.4403-.4197-.667-1.0217-1.1225-1.8061-1.3665.695-.3092 1.2213-.789 1.579-1.4398.3578-.6508.5367-1.4357.5367-2.3549 0-1.5943-.504-2.8104-1.512-3.6482-1.008-.8378-2.4786-1.2567-4.412-1.2567H7.7568zm3.6226-7.5527h2.5389c1.2453.0082 1.868.7524 1.868 2.2329 0 .6426-.1754 1.1408-.5263 1.4946-.351.3539-.8532.5308-1.5069.5308h-2.3737zm0-2.8063V7.6531h1.7751c.812 0 1.4002.1648 1.7649.4942.3646.3294.547.8683.547 1.6167 0 .6507-.1686 1.1428-.5057 1.4763-.3372.3336-.9014.5044-1.6926.5125z" fill="#ffc927" fill-rule="evenodd" stroke-width=".72"/></svg>