<svg xmlns="http://www.w3.org/2000/svg" viewBox="0 0 1000 1000" width="100" height="100"><path fill="#EC1C24" d="M786.5 488.8H996v248.6c-30.2 22.1-62.3 38.2-96.4 48.1-34.1 10-69.7 15-106.9 15-48.5 0-92.7-7.6-132.4-22.8-39.8-15.2-73.8-36.2-102.1-63.1-28.3-26.8-50.1-58.6-65.5-95.4-15.4-36.8-23-76.8-23-119.9 0-43.9 7.3-84.3 21.8-121.1 14.6-36.8 35.4-68.5 62.5-95.2 27.1-26.7 59.8-47.4 98.2-62.3 38.4-14.8 81.3-22.2 128.8-22.2 24.5 0 47.6 2 69.1 6.1 21.6 4 41.4 9.6 59.6 16.6 18.2 7 34.8 15.4 49.9 25.1 15.1 9.7 28.6 20.2 40.4 31.5L960.4 338c-6.2 9.4-14.2 15.2-24.1 17.4-9.8 2.2-20.4-.3-31.7-7.3-10.8-6.5-21-12.1-30.5-16.8-9.6-4.7-19.3-8.5-29.3-11.5s-20.5-5.1-31.5-6.5c-11.1-1.4-23.4-2-37.2-2-25.6 0-48.7 4.5-69.1 13.5-20.5 9-37.9 21.8-52.4 38.2-14.4 16.4-25.5 36.2-33.4 59.2-7.8 23-11.7 48.7-11.7 77 0 31.3 4.3 59 12.9 83.3 8.6 24.3 20.8 44.7 36.6 61.5s34.6 29.4 56.6 38.2c22 8.8 46.3 13.1 73 13.1 16.4 0 31.3-1.6 44.7-4.9 13.3-3.2 26.3-7.5 39-12.9v-89.3H814c-8.6 0-15.4-2.3-20.2-6.9-4.9-4.6-7.3-10.4-7.3-17.4v-75.1zM216.4 212.3c40.6 0 75.2 3.8 103.8 11.3 28.5 7.5 51.8 18.2 69.8 31.9s31.2 30.4 39.4 50.1c8.2 19.7 12.3 41.6 12.3 65.8 0 13.2-1.9 25.9-5.7 38.2-3.8 12.3-9.7 23.7-17.8 34.3-8.1 10.6-18.4 20.4-31.1 29.3-12.7 8.9-27.9 16.6-45.6 23 38.8 9.4 67.4 24.6 86 45.6 18.6 21 27.9 48.2 27.9 81.6 0 25-4.8 48.3-14.5 69.8s-23.9 40.3-42.6 56.3c-18.7 16-41.8 28.5-69.2 37.5-27.5 9-58.8 13.5-94.1 13.5H0V212.3h216.4zm-79.9 102.1v145.3h71.1c15.1 0 28.7-1.1 40.8-3.2 12.1-2.1 22.4-5.9 30.9-11.3s14.9-12.8 19.4-22.2c4.4-9.4 6.7-21.3 6.7-35.5 0-14-1.8-25.6-5.2-34.9-3.5-9.3-8.9-16.8-16.2-22.4-7.3-5.6-16.5-9.7-27.7-12.1-11.2-2.4-24.4-3.6-39.8-3.6h-80zm96.1 383.2c18 0 32.8-2.3 44.2-6.9 11.4-4.6 20.4-10.5 26.8-17.8 6.5-7.3 10.9-15.5 13.3-24.6 2.4-9.1 3.6-18.4 3.6-27.9 0-10.8-1.4-20.5-4.2-29.1-2.8-8.6-7.7-15.9-14.5-21.8-6.9-5.9-15.9-10.5-27.3-13.7-11.3-3.2-25.6-4.8-42.8-4.8h-95.3v146.6h96.2z"/></svg>