<svg xmlns="http://www.w3.org/2000/svg" xmlns:xlink="http://www.w3.org/1999/xlink" width="100" height="100" viewBox="0 0 26.4583 26.4583"><defs><path id="a" d="M0 .0387h49.8124v56.4129H0z"/></defs><g fill="none" fill-rule="evenodd" stroke-width=".5641"><g transform="translate(1.5478 -.0181) scale(.46901)"><mask fill="#fff" id="b"><use xlink:href="#a" width="100%" height="100%"/></mask><path mask="url(#b)" d="M49.1147 21.8054c-1.672-7.6398-6.9301-14.1828-13.5592-18.1828C30.3512.6333 24.2222-.3828 18.2921.1925 11.776.8108 5.6308 3.9775 1.1093 8.6602c-.8387.785-1.3978 2-.9516 3.1398.5054 1.871 3.2957 2.6129 4.5.9839 3.5591-3.8172 8.3548-6.4893 13.5591-7.1344 5.9678-.7205 12.2366.5699 17.027 4.3172 6.2956 4.7473 9.9892 12.7311 9.0483 20.6236-.4731 6.3387-4.086 12.0807-9.0323 15.9355-4.7742 3.7097-11.0376 5.1452-16.9838 4.3495-4.7043-.5753-9.1452-2.7742-12.5162-6.0914-.9408-.7742-1.7365-2.172-3.1613-1.8602-2.1612.1236-3.2473 3.0322-1.7741 4.5698 3.8817 4.2151 9.0806 7.3441 14.7473 8.4087 6.7634 1.2311 14.0376.4677 20.043-3.0484 4.6828-2.8925 8.6935-6.957 11.2473-11.8549 3.0054-5.8656 3.6344-12.7957 2.2527-19.1935" fill="#5bf495"/></g><path d="M10.3842 6.2701c-.121-1.2406-2.1837-1.3919-2.4257-.1437-.1261 1.7247-.0353 3.4646-.048 5.197-.0302.658.4943 1.3339 1.1751 1.344 1.2986.015 2.6048-.106 3.8983.0428 1.0263.2497 1.8383 1.1625 2.0476 2.1887.2799 1.2737-.4438 2.6729-1.6416 3.1772-1.465.222-2.9628.0832-4.4354.2398-.4035.0477-.7868.31-.9355.6957-.406.7565.2673 1.7979 1.1145 1.7629 1.2431.0302 2.4888.0703 3.7345.0426 1.8533-.063 3.5302-1.2785 4.3925-2.8847.57-1.0944.643-2.388.4489-3.5907-.401-2.0828-2.2114-3.848-4.332-4.1026-1.0163-.1664-2.03.0958-2.9806.4387.005-1.4675.0605-2.9401-.0126-4.4077" fill="#5bf495"/><path d="M9.3857 16.6514c.8422.5245 2.0475-.3051 1.9214-1.268-.0454-.9913-1.334-1.5534-2.1055-.9358-.759.5295-.648 1.8054.184 2.2038" fill="#5bf495"/></g></svg>