<svg xmlns="http://www.w3.org/2000/svg" width="100" height="49.0449" viewBox="0 0 26.4583 12.9765"><g fill-rule="nonzero" fill="none" stroke-width=".7276"><path d="M2.943 12.6049a55.033 55.033 0 0 0 5.8225-.48A33.0833 33.0833 0 0 0 17.309 9.92a10.4135 10.4135 0 0 0 3.4047-2.1597 3.4138 3.4138 0 0 0 1.0414-1.8744 2.8388 2.8388 0 0 0-.7199-2.2638 8.1135 8.1135 0 0 0-2.5988-1.9876A21.1485 21.1485 0 0 0 14.606.095 1.7114 1.7114 0 0 1 14.3435 0a4.849 4.849 0 0 1 1.1274.1358 30.8467 30.8467 0 0 1 6.5605 1.811 10.3501 10.3501 0 0 1 3.3957 2.0828 3.0924 3.0924 0 0 1 1.0232 1.9152 2.5581 2.5581 0 0 1-.5614 1.811 6.9227 6.9227 0 0 1-2.3408 1.888 21.9046 21.9046 0 0 1-5.3109 1.956 48.871 48.871 0 0 1-9.3721 1.304 62.2095 62.2095 0 0 1-7.3212-.077C1.0278 12.7904.5116 12.7361 0 12.6908c.0407-.1268.1449-.0634.2173-.0634H2.685a.5886.5886 0 0 0 .258-.0226z" fill="#e31e13"/><path d="M18.8756 7.8509c-1.3083.0172-2.3836-1.028-2.4034-2.3363-.0199-1.3083 1.0232-2.3856 2.3314-2.408 1.3083-.0226 2.3877 1.0184 2.4128 2.3265.0152 1.3117-1.0293 2.3906-2.3408 2.4178zM9.6079 6.3612h-1.471c-.186 0-.2024-.0547-.1586-.2132.2078-.7875.2023-.7875 1.0171-.7875h1.8484c.1093 0 .2132 0 .1695.164-.3208 1.8452-2.0588 3.0946-3.91 2.8108-1.1309-.1613-1.9366-1.181-1.8319-2.3186C5.428 4.1224 6.9507 2.63 8.8478 2.5114A2.4827 2.4827 0 0 1 11.035 3.545c.0875.1203.104.1968-.0492.257a1.318 1.318 0 0 0-.153.082 2.0561 2.0561 0 0 1-.6016.3281c-.2297.0383-.3062-.2625-.4758-.3937a1.892 1.892 0 0 0-2.0944 0 2.521 2.521 0 0 0-1.3233 2.2202c-.0015.7191.5565 1.3154 1.2741 1.3616a2.1491 2.1491 0 0 0 1.996-1.039zM2.0888 7.2471h1.7116c.2023 0 .268 0 .1969.2516-.2297.7491-.2242.7491-1.0008.7491H.9787c-.1969 0-.2734 0-.2024-.2515.5031-1.6843.9971-3.3704 1.482-5.0583a.3336.3336 0 0 1 .3992-.2898h2.51c.186 0 .2242.0328.1695.2242-.2187.782-.2187.782-1.028.782h-.9515c-.1586 0-.2461.0328-.2899.1968-.0601.2516-.1367.5031-.2187.7437-.082.2406 0 .2078.1695.2078h1.4984c.1859 0 .2515 0 .1914.2352-.2133.7546-.2078.76-.9844.76h-1.039a.1913.1913 0 0 0-.2242.1587c-.0984.3718-.2187.7382-.3226 1.0937-.0164.0546-.0274.1093-.0492.1968zM13.1733 3.6543h-1.1866c.0875-.3117.175-.596.2515-.8804.0328-.1093.1094-.1148.2023-.1148h3.2428l-.257.9132c-.0273.104-.1148.082-.1914.082h-.7765c-.2297 0-.257.093-.3008.2516-.3882 1.3234-.782 2.6467-1.1593 3.9756-.0765.2734-.175.3827-.4812.3718-.6836-.0273-.6836 0-.4922-.6617z" fill="#e31e13"/><path d="M4.3012 12.6049c-.077.068-.1675.0407-.2535.0407H1.5892c-.0815 0-.1766-.0362-.249.0408a2.0646 2.0646 0 0 1-.6248-.0815z" fill="#eb5d56"/></g></svg>