<svg version="1.1" id="Layer_1" xmlns="http://www.w3.org/2000/svg" x="0" y="0" viewBox="0 0 80 80" xml:space="preserve"><style>.st0{fill:#fff}</style><path class="st0" d="M26.1 37.5c.9-2.4 1.6-4.9 1.9-7.5h-.2c-3.5 0-11.4 2.7-16.9 2.7-.5 0-1.1 0-1.6-.1 2.7 9.9 2.5 24.2 1.9 34.7l-.1 1.6h6.8c-2-5.2-2.9-10.7-2.8-16.2v-1.1c2.1-.3 4-1.3 6 1.3l.4-7.5c-1.8 1.3-4 1.8-6.2 1.5-.9-2.2-.3-7.6.3-10 3.2-1 6.9-2.1 10.5.6zm18-.6l2.5-.7-.6-3.8c-15.1 2.3-17.2 2.7-17.2 2.9l.9 4.8 1.7-.3c.4 9.9-1.8 24.8-3.4 29.1l4.5 1.5 2.5-13 6.2-1 2.2 13.5 5.3-1.2c-4-9.8-4.7-28.2-4.6-31.8zm-3.7 13.9c-1.7.3-3.4.5-5.2.5l-.1-10.9c.1-.1.3-.1.4-.1 1.5-.3 3.1-.5 4.6-.6 0 3.8.2 7.3.2 11l.1.1zm29.3-19c-1.5.1-2.9.4-4.3.7v1.1c0 6.5.4 16.2.4 22.9-3.2-3.7-8.6-14.7-9.8-20.8h-4.8c1 11.4-.8 21.1-2.3 28.9l6 1.5c-.6-6.9.2-9.6.5-16.8.2.5 9.3 15.1 11 18.2h3.7c-.5-11.7-1.7-24-.4-35.7z"/><path class="st0" d="M65 21.6c-.4-1.2-1-1.3-1-1.3.1.5.2.9.3 1.4.3 1.4.5 2.8.7 4.2.1 1.2.3 5.6.4 6.7l1.7.3c0-2.1-.9-6.2-1.1-7.3-.3-1.4-.6-2.7-1-4z"/><path class="st0" d="M69.2 26.6c.1-2.6-.2-5.3-.8-7.8-.4-1.5-1.6-2.6-3.1-3-1.6-.1-3.3.3-4.7 1.1-2 1.1-4.6 2.3-6.6 1.6-2.1-.7-3.9-1.9-5.5-3.5-1.4-1.8-3.4-3.1-5.7-3.5-2.6-.5-5.9-.5-7.8.6-2.6 1.3-4.6 3.5-5.7 6.1-1.3 3.2-1.1 6-1.7 7.8-.4 1.2-1.8 1.5-4.2 2.1-1.5.4-8.3 1-9.9 1.3-1.7.2-3.4.9-4.9 1.9-.9.8.4 0 .4 0 1.4-.7 3-1.1 4.6-1.3 3.7-.5 7.3-.6 10.4-1 2.5-.3 4-.1 4.4-2.4.4-2.3.8-6.3 1.5-7.9.7-1.6 2.7-4.8 5.2-5.7 2.4-.7 5-.8 7.4-.2 1.9.8 3.7 1.9 5.1 3.3 1.3 1.3 4.2 3.3 6.1 3.4 2.4.3 4.9-.3 7-1.6 1.3-1 3.1-1.3 4.7-.8.7.4 1.6 1.1 1.9 3.4.4 2.9.7 6 1 8.4.1 1 .3 2.9.4 3.6l1-.6c-.3-1.9-.5-3.5-.5-5.3z"/><path class="st0" d="M31.6 26.3c.9 1.2 3.9 4.9 7.7 5.4s4.5-2.3 4.9-2.8c1.5-2.5 2.8-5.1 4-7.8.4-1.1.5-3.7-1.1-2.7s-2.7 2-4 2.9c-1.1.8-1.9 1.5-3.1 2.3-.7.5-1.5.8-2.3.8-1.5 0-3.3-.4-4.8-.5-1.9-.1-2.3 1.2-1.3 2.4z"/><path class="st0" d="M35 22.5c1.9 0 2.7-1.8 2.6-3.5-.1-1.7-.9-3.7-3-3.4-.9.1-2.1 1.5-2.1 3.4 0 1.6.8 3.5 2.5 3.5zm5.3-4c.4 0 .7-.8 1.7-1.3 1.1-.4 2.2-.6 3.4-.5 1-.1 1.2-.3 1.1-.7-.2-.7-.8-1.1-1.9-1.2-.7-.1-1.5 0-2.2.3-.9.4-1.6 1-2.1 1.9-.3.8-.4 1.5 0 1.5z"/></svg>