<svg xmlns="http://www.w3.org/2000/svg" width="100" height="100" viewBox="0 0 26.4583 26.4583" id="svg8"><defs id="defs2"><path id="path-1" d="M0 .0387h49.8124v56.4129H0z"/></defs><g id="layer1" transform="translate(0 -270.5417)"><g id="g1593" transform="matrix(.37811 0 0 .4074 -2.0655 267.1603)" stroke-width=".6741"><path id="path1589" d="M27.2 8.3c6.4 4.6 13.5 7.9 21.1 10-3.6 5.3-7 10.9-8.5 17.1 3.4-3.7 5.2-8.6 8.1-12.6 2-2.9 5.4-5 8.9-5 3 0 6 2 6.9 4.9.5 1.5.2 3.1.2 4.7 2-1.8 2.8-4.4 3.4-6.9 1.4 3.9 2.9 7.7 4.5 11.4-2-1.5-4.3-2.7-6.8-2.8 1.1 1.6 2.7 2.8 3.1 4.8.7 2.9-.5 6.1-3 7.8-2.6 1.8-5.8 2.5-8.9 1.9-4.9-.8-9.4-2.9-14.3-3.6 2.4 2.5 5.7 3.8 8.5 5.6 3.5 1.9 7.2 4.6 8.3 8.7 1.3 3.7-.7 8.2-4.4 9.4-2 .8-4.2.1-6.1-.7-.7 1.5-1.4 3.1-2.8 4-2.7 2-6.8 1.6-9.1-.8-2.4-2.4-3.4-6-3-9.3.3-3.1 1.6-6 2.2-9-1.3.9-1.6 2.4-2.1 3.8-2.1 5.9-4.8 11.7-5 18.1-.2 1.1.2 2.6-.8 3.4-.9.1-1.8 0-2.7 0-.4-4.8.8-9.5 2.9-13.8 2.6-5.2 5.5-10.2 8.1-15.4 1.3-2.4.8-5.4-1-7.4-1.6-1.7-3.8-2.4-5.9-3.2-3.9-1.4-7.8-2.8-11.8-4 4.6-6.4 8-13.6 10-21.1z" class="st0" fill="#810f26"/><path id="path1591" d="M12 40.4c-.5-2.7 1.3-5.7 4.1-6.3 1.5-.2 3.2-.2 4.5.7 1.2.7 1.7 2 2.4 3.1 2.1-1.4 5-1.9 7.1-.3 2.5 1.7 3 5.4 1.2 7.8-1.1 1.7-3.2 2.2-5.1 2.3.7 2.2.3 4.9-1.6 6.4-2.4 2.2-6.6 1.6-8.3-1.2-1.4-2-.6-4.4-.2-6.5-2.1 1.3-2.9 3.7-3.6 6-1-3.3-2.2-6.6-3.4-9.8 1.8 1.5 3.9 2.6 6.3 2.7-1.2-1.6-3.1-2.8-3.4-4.9z" class="st0" fill="#810f26"/></g></g><style id="style1583">.st0{fill:#810f26}</style></svg>