<svg width="80" height="80" viewBox="0 0 80 80" fill="none" xmlns="http://www.w3.org/2000/svg">
<rect width="80" height="80" fill="white"/>
<path d="M70.9636 26.5746C70.9636 26.5238 70.9636 26.4729 70.9636 26.424C70.9642 24.9591 70.5775 23.52 69.8425 22.2528C69.1076 20.9855 68.0505 19.9352 66.7787 19.2083L66.7909 19.1879L58.8526 14.602L27.7242 32.5915V47.318L39.6724 54.0534L50.9489 47.8269V39.1131L39.6724 45.6775V36.8415L58.6897 25.9029L58.7732 52.1604L39.5055 63.1825L20.1523 52.2398L20.0587 28.1338L51.1809 10.1749L44.5819 6.36248C43.2888 5.51361 41.7843 5.04269 40.2379 5.00277C38.6915 4.96285 37.1647 5.35552 35.8294 6.13655L35.8172 6.11416L13.1686 19.1879L13.1829 19.2103C11.9115 19.9372 10.855 20.9873 10.1204 22.2541C9.38582 23.521 8.99928 24.9596 9 26.424V52.5553V52.6082C9.00147 54.192 9.45557 55.7424 10.3088 57.0767C11.162 58.411 12.3789 59.4736 13.8159 60.1394L35.5689 72.7105C36.9752 73.6022 38.6169 74.0509 40.2813 73.9987C41.9456 73.9464 43.5559 73.3955 44.9035 72.4173L66.1029 60.1781C67.5541 59.5166 68.7844 58.4515 69.647 57.11C70.5095 55.7685 70.968 54.2072 70.9676 52.6123C70.9676 52.5634 70.9676 52.5125 70.9676 52.4617L70.9636 26.5746Z" fill="#8BC53F"/>
</svg>
