<?xml version="1.0" encoding="UTF-8"?>
<svg width="80px" height="80px" viewBox="0 0 80 80" version="1.1" xmlns="http://www.w3.org/2000/svg" xmlns:xlink="http://www.w3.org/1999/xlink">
    <title>GoldenHeroLogo color </title>
    <g id="GoldenHeroLogo-color-" stroke="none" stroke-width="1" fill="none" fill-rule="evenodd">
        <g id="GoldenHeroLogo-Copy" transform="translate(2.500000, 10.000000)" fill-rule="nonzero">
            <path d="M74.7289157,44.4121536 C74.0198884,41.2783276 74.3718645,41.8563275 71.5972252,30.4271656 C68.8225859,18.9980038 67.2743466,5.18674699 67.2743466,2.11445783 C67.2743466,-1.81720417 54.9646437,4.94523792 50.8909624,6.40618589 C50.8872751,6.40750829 50.4559281,4.73888386 48.1091792,4.50743099 C44.8161147,4.92970863 39.3642771,6.8674732 36.2395484,7.89481666 C35.7831325,5.85077626 34.0003783,4.1393715 33.9939759,4.13403614 C31.5481928,2.03463855 28.3493976,0.686746988 24.3975904,0.0903614458 C24.3674699,0.0903614458 22.0783133,5.22959454e-12 21.8674699,5.22959454e-12 C18.4789157,0.195783133 15.6084337,0.90060241 13.2560241,2.11445783 C9.68975904,3.95481928 6.87349398,6.53614458 4.80722892,9.85843373 C2.73795181,13.1837349 1.28614458,17.126506 0.451807229,21.686747 C0.451807229,21.7168675 0.451807229,21.746988 0.451807229,21.7771084 C0.451807229,21.7915004 -0.161775202,25.5137978 0.12559547,28.8207831 C0.439653053,32.4348743 1.6748307,35.7045631 2.13253012,36.8448795 C3.67168675,40.6762048 5.94140323,43.9891462 11.4105055,47.0907651 C16.8796077,50.192384 24.3975904,49.1585111 28.7710843,47.0907651 C31.686747,45.7122678 33.592643,44.8193973 34.4887724,44.4121536 C35.777382,50.0821636 36.7931727,54.3639558 37.5361446,57.2575301 C37.7198795,57.9743976 38.0722892,58.5587349 38.5933735,59.0105422 C39.1054217,59.4533133 39.7951807,59.7228916 40.6626506,59.8192771 C41.0843373,59.8192771 41.9879518,59.8192771 42.0180723,59.8192771 C45.8433735,58.25 48.8049357,57.3570777 52.4404779,55.5920174 C55.5971044,54.0588849 53.8878066,54.7775081 57.2462403,53.4401587 C57.5444331,55.6690744 58.5082716,55.9090933 58.5383921,55.9090933 C58.8998378,55.9090933 62.5270474,54.4803722 62.5571679,54.4803722 C66.3884932,52.9201312 70.2766609,50.9386315 73.9001549,49.1585111 C74.2766609,48.9747761 75.4379429,47.5459796 74.7289157,44.4121536 Z" id="Shape" fill-opacity="0.996078431" fill="#182E55"></path>
            <g id="Group" transform="translate(6.002981, 4.945238)">
                <path d="M14.3283444,18.7294609 C14.298224,18.7294609 14.2681035,18.7294609 14.237983,18.7294609 C14.5796622,21.0745051 14.9847827,23.3998063 15.4533444,25.7053645 C16.2842226,24.2543103 17.1381383,22.8281055 18.0150914,21.42675 C18.0271396,21.4056657 18.0331637,21.3800633 18.0331637,21.3499428 C18.0030432,21.3499428 17.9774408,21.3424127 17.9563565,21.3273524 C16.6822601,20.5291597 15.4729228,19.6631958 14.3283444,18.7294609 Z" id="Shape" fill="#FADA79"></path>
                <path d="M26.4367782,18.548738 C26.4367782,18.5788585 26.4367782,18.608979 26.4367782,18.6390994 C26.4819589,19.0457259 26.5120794,19.4674127 26.5271396,19.9041597 C26.5271396,19.9342802 26.5271396,19.9644006 26.5271396,19.9945211 C26.6325613,20.1300633 26.6641878,20.3409067 26.6220191,20.6270512 C26.6190071,20.6571717 26.6175011,20.6872922 26.6175011,20.7174127 C26.6175011,20.7776537 26.6175011,20.8378946 26.6175011,20.8981356 C26.6175011,20.9282561 26.6175011,20.9583765 26.6175011,20.988497 C26.7229228,21.365003 26.737983,21.8153043 26.6626818,22.3394006 C26.6626818,22.3424127 26.6476216,22.3439187 26.6175011,22.3439187 C26.6175011,22.4342802 26.6175011,22.5246416 26.6175011,22.615003 C26.6175011,22.6451235 26.6175011,22.675244 26.6175011,22.7053645 C26.6175011,22.735485 26.6190071,22.7656055 26.6220191,22.7957259 C26.6641878,23.0818705 26.6325613,23.2927139 26.5271396,23.4282561 C26.5662963,23.798738 26.5632842,24.1044609 26.5181035,24.3454247 C25.7018384,28.9659067 23.3855734,32.0637982 19.5693083,33.6390994 C19.5693083,33.9403043 19.5693083,34.2415091 19.5693083,34.5427139 C19.5693083,34.5728344 19.5693083,34.6029549 19.5693083,34.6330753 C19.5693083,34.9945211 19.5693083,35.3559669 19.5693083,35.7174127 C19.5693083,35.7475332 19.5693083,35.7776537 19.5693083,35.8077741 C19.5693083,36.4704247 19.5693083,37.1330753 19.5693083,37.7957259 C19.5693083,37.8258464 19.5693083,37.8559669 19.5693083,37.8860874 C23.6295493,36.5547621 26.6461155,34.1647018 28.6190071,30.7159067 C29.7153926,28.800244 30.5542481,26.611991 31.1355734,24.1511476 C31.1355734,24.1210271 31.1310553,24.0924127 31.1220191,24.0653043 C30.5708143,22.7249428 30.1235252,21.2776537 29.7801517,19.7234368 C29.7500312,19.7234368 29.7214167,19.7189187 29.6943083,19.7098826 C28.6461155,19.2881958 27.5602722,18.9011476 26.4367782,18.548738 M25.1717179,3.81982232 C25.1415975,3.81982232 25.111477,3.82283437 25.0813565,3.82885847 C23.4367782,4.13608738 21.7500312,4.40415967 20.0211155,4.63307534 C20.0211155,4.66319582 20.0181035,4.67976208 20.0120794,4.68277413 C19.8976216,4.70988257 19.7801517,4.72343678 19.6596698,4.72343678 C20.0843685,6.64813558 20.4909951,8.57584642 20.8795493,10.5065693 L20.8343685,10.5065693 C21.0723204,10.6631958 21.298224,10.5035573 21.5120794,10.0276537 C21.6295493,9.77162955 21.7696095,9.51259341 21.9322601,9.25054522 C23.0437059,7.47343678 24.1235252,5.66319582 25.1717179,3.81982232" id="Shape" fill="#FBB215"></path>
                <path d="M29.4187059,14.0306657 C29.4187059,14.0005452 29.4187059,13.9704247 29.4187059,13.9403043 C29.4187059,13.6993404 29.4187059,13.4583765 29.4187059,13.2174127 C29.3885854,13.2174127 29.3705131,13.2234368 29.364489,13.235485 C28.4036457,15.0005452 27.427742,16.7415091 26.4367782,18.4583765 C26.4367782,18.488497 26.4367782,18.5186175 26.4367782,18.548738 C27.5602722,18.9011476 28.6461155,19.2881958 29.6943083,19.7098826 C29.7214167,19.7189187 29.7500312,19.7234368 29.7801517,19.7234368 C29.7801517,19.6933163 29.7771396,19.6631958 29.7711155,19.6330753 C29.614489,18.8318705 29.4970191,17.988497 29.4187059,17.1029549 C29.4187059,17.0728344 29.4187059,17.0427139 29.4187059,17.0125934 C29.4187059,16.80175 29.4187059,16.5909067 29.4187059,16.3800633 L29.3735252,16.3800633 C29.3434047,15.5969308 29.3283444,14.8137982 29.3283444,14.0306657 C29.3584649,14.0306657 29.3885854,14.0306657 29.4187059,14.0306657 Z" id="Path" fill="#FEC50D"></path>
                <path d="M18.0331637,21.3499428 C18.0331637,21.3800633 18.0271396,21.4056657 18.0150914,21.42675 C17.1381383,22.8281055 16.2842226,24.2543103 15.4533444,25.7053645 C15.4400608,25.7293668 15.4265066,25.7534631 15.4126818,25.7776537 C15.4126818,25.8077741 15.4202119,25.8303645 15.4352722,25.8454247 C15.4475557,25.8577082 15.4641219,25.8652384 15.484971,25.8680151 C15.4914775,25.8680151 15.4975015,25.8680151 15.5030432,25.8680151 C18.1656938,24.735485 20.8162963,23.6360874 23.4548505,22.5698223 L23.4548505,22.7053645 C24.3313565,21.2927139 25.2741276,19.9448223 26.2831637,18.6616898 C26.2952119,18.6466296 26.3162963,18.6390994 26.3464167,18.6390994 L26.3464167,18.5939187 C23.5843685,19.5065693 20.8132842,20.425244 18.0331637,21.3499428 Z" id="Path" fill="#FBB216"></path>
                <path d="M14.3283444,18.7294609 C15.4729228,19.6631958 16.6822601,20.5291597 17.9563565,21.3273524 C17.9774408,21.3424127 18.0030432,21.3499428 18.0331637,21.3499428 C20.8132842,20.425244 23.5843685,19.5065693 26.3464167,18.5939187 C24.991808,20.2746416 24.0264465,21.615003 23.4503324,22.615003 C23.4503324,22.6451235 23.4533444,22.7656055 23.4503324,22.7957259 C22.9653926,26.5276537 21.0693083,28.8469308 17.7620794,29.7535573 C17.7620794,29.7836777 17.7620794,29.8137982 17.7620794,29.8439187 C18.3072601,31.0758464 18.8735252,32.2836777 19.4608746,33.4674127 C19.4729228,33.4915091 19.4789469,33.5186175 19.4789469,33.548738 C19.5090673,33.548738 19.5316577,33.5562681 19.5467179,33.5713283 C19.5617782,33.5863886 19.5693083,33.608979 19.5693083,33.6390994 C23.3855734,32.0637982 25.7018384,28.9659067 26.5181035,24.3454247 C26.539901,24.2291713 26.7830959,22.883032 26.7642674,21.5874363 C26.7440691,20.1975903 26.4367782,18.488497 26.4367782,18.4583765 C27.427742,16.7415091 28.4036457,15.0005452 29.364489,13.235485 C29.3705131,13.2234368 29.3885854,13.2174127 29.4187059,13.2174127 C29.4488264,13.2174127 29.4653926,13.2144006 29.4684047,13.2083765 C29.5075613,13.05175 29.4608746,12.9644006 29.3283444,12.9463283 C28.1807541,13.3047621 27.0828625,13.6903043 26.0346698,14.1029549 C22.1250312,15.6300633 18.2229228,17.1421115 14.3283444,18.6390994 C14.3283444,18.6692199 14.3283444,18.6993404 14.3283444,18.7294609 Z" id="Shape" fill="#FDE5A2"></path>
                <path d="M16.1310553,4.49753317 C15.8931035,4.52765365 15.6536457,4.54271389 15.4126818,4.54271389 C12.8855734,4.9372922 10.8855734,5.85897895 9.4126818,7.30777413 C6.69280228,9.97946088 4.97413927,13.7716296 4.40486216,18.5939187 C4.40486216,18.6240392 4.20786252,21.5306657 4.20786252,21.8921115 C4.20786252,22.2337429 4.18190578,22.9526688 4.20786252,23.5683163 C4.22538763,23.9839804 4.29822397,24.4100921 4.29822397,24.422232 C5.07834445,29.0366898 7.27864565,32.2264488 10.8991276,33.9915091 C11.7515372,34.4071717 12.7138866,34.7113886 13.7861758,34.9041597 C13.9970191,34.9041597 14.2078625,34.9041597 14.4187059,34.9041597 C14.4488264,34.9041597 14.4789469,34.9041597 14.5090673,34.9041597 C14.7500312,34.9041597 14.9909951,34.9041597 15.2319589,34.9041597 C15.2620794,34.9041597 15.2921999,34.9041597 15.3223204,34.9041597 C15.5331637,34.9041597 15.7440071,34.9041597 15.9548505,34.9041597 C15.984971,34.9041597 16.0150914,34.9041597 16.0452119,34.9041597 C17.3885854,34.738497 19.5813565,33.6631958 19.5693083,33.6390994 C18.9819589,32.4553645 18.4086407,31.0757138 17.8634599,29.8437861 C17.8333395,29.8437861 17.7891878,29.7475332 17.7620794,29.7535573 C17.5857161,29.794572 14.4390554,30.8544842 12.5379377,29.5870115 C10.2506151,28.0620565 9.06774944,24.0834283 8.99701915,21.6210271 C8.96689867,21.6210271 8.99701915,20.1451235 8.99701915,19.9945211 C9.55726011,15.1601838 11.5331637,11.7580753 14.92473,9.78819582 C16.1536457,9.0743404 17.4653926,8.97193076 18.859971,9.4809669 C19.5979228,9.74903919 20.2560553,10.0909067 20.8343685,10.5065693 L20.8795493,10.5065693 C20.4909951,8.57584642 20.0843685,6.64813558 19.6596698,4.72343678 C19.6430682,4.72343678 19.0331724,4.57145778 18.4005324,4.49753317 C17.885365,4.43733535 16.1340673,4.49753317 16.1310553,4.49753317 Z" id="Shape" fill="#FEC40C"></path>
                <path d="M25.2168987,3.81982232 C24.4370244,2.79716965 22.9731167,1.60323199 21.0428728,0.835981712 C19.8226071,0.350939816 17.8678038,0.0446989286 17.5813565,0.0246416019 C16.7642151,-0.0325754522 15.9706756,0.0275589119 15.9548505,0.0291596742 C11.051236,0.514099433 7.40966975,2.26108738 5.03015168,5.27012353 C3.47941308,7.23060216 1.70637448,10.1251609 0.73439502,13.9403043 C0.213040699,15.9866865 0.00194975989,19.9482593 0.000664483741,20.4739733 C-0.00175163092,21.3554974 -0.0290849193,25.7730251 0.73439502,28.6159015 C1.73344249,32.3359318 3.73511227,34.6702242 5.3690071,36.0924127 C6.30623854,36.9068469 7.91821537,38.0431476 10.3338249,38.5696117 C11.9473258,38.9212622 14.5265697,38.8473058 15.2638712,38.7897018 C17.0989065,38.646334 18.9994494,38.1252305 19.5557541,37.9357862 C19.5647902,37.9327741 19.5693083,33.9101838 19.5693083,33.6390994 C19.5391878,33.6390994 17.2020612,34.8555162 15.4126818,34.9041597 C13.3964932,34.9589688 11.3507339,34.211727 10.8991276,33.9915091 C7.27864565,32.2264488 5.07834445,29.0366898 4.29822397,24.422232 C4.20786252,23.608979 4.20786252,22.4644006 4.20786252,21.8921115 C4.20786252,21.861991 4.20786252,21.8318705 4.20786252,21.80175 C4.20786252,21.6930634 4.22842098,21.0286013 4.29822397,20.223372 C4.33603554,19.7871875 4.58765872,16.2061165 5.77055338,12.9463283 C6.64017172,10.5498584 8.26031048,8.43972691 9.4126818,7.30777413 C10.3087418,6.42637362 11.6679178,5.48421535 13.707117,4.92231906 C15.0198356,4.56060273 16.9978303,4.44337558 17.5813565,4.47077858 C17.9573203,4.48843424 18.6500914,4.57265364 19.6596698,4.72343678 L25.2168987,3.81982232 Z" id="Shape" fill="#FDE5A3"></path>
            </g>
            <g id="Group-2" transform="translate(33.193490, 4.945238)">
                <path d="M31.5665742,41.1755111 C29.9792751,43.2169034 28.3565,45.2228197 26.6982488,47.1932599 C26.6982488,47.2135319 26.6982488,47.233804 26.6982488,47.254076 C26.6982488,47.274348 26.6982488,47.29462 26.6982488,47.314892 C29.2079248,46.1938494 31.6983423,45.0515211 34.1695014,43.8879072 C35.4588018,43.2797467 38.4726607,42.1520426 38.4037358,42.1398794 C38.3834638,42.1398794 33.7042586,41.4643874 31.6243494,41.1116543 C31.6040774,41.1319263 31.584819,41.1532119 31.5665742,41.1755111 Z" id="Path" fill="#FBB215"></path>
                <path d="M13.987693,44.9430658 C13.987693,44.9633378 13.982625,44.9795555 13.972489,44.9917187 C12.3791083,46.9641861 10.7826868,48.9346263 9.18322454,50.9030394 C9.18322454,50.9233114 9.18322454,50.9435834 9.18322454,50.9638554 C11.6746557,49.8265952 14.1671004,48.6883213 16.6605587,47.5490338 C17.9944575,46.9408733 19.3131524,46.3154815 20.6166432,45.6728585 C20.5963712,45.6728585 20.5760991,45.6718449 20.5558271,45.6698177 C18.3623947,45.4326351 16.1730166,45.1903844 13.987693,44.9430658" id="Path" fill="#FBB215"></path>
                <path d="M27.4280415,23.4749978 C27.1563965,23.5682491 26.8928602,23.6685956 26.6374328,23.7760373 C24.0750496,24.8443727 21.5055712,25.9106809 18.9289976,26.9749619 C16.3706688,28.0331613 13.7910544,29.0761567 11.1901544,30.103948 C11.1901544,30.12422 11.1850864,30.139424 11.1749504,30.1495601 C11.1648144,30.1596961 11.1496104,30.1647641 11.1293384,30.1647641 C11.1293384,30.1850361 11.1293384,30.2053081 11.1293384,30.2255801 C13.2801996,31.1763378 15.3499727,32.2061564 17.3386577,33.3150358 C17.3548753,33.3231446 17.3731202,33.327199 17.3933922,33.327199 C17.3933922,33.306927 17.3933922,33.286655 17.3933922,33.266383 C17.3933922,33.2461109 17.3933922,33.2258389 17.3933922,33.2055669 C19.3030164,32.4392846 21.1903413,31.6527303 23.0553671,30.8459039 C23.0715847,30.8377951 23.0898295,30.8337407 23.1101015,30.8337407 C23.1101015,30.8134687 23.1101015,30.7931967 23.1101015,30.7729246 C24.5068436,28.5409754 25.8893953,26.2846997 27.2577566,24.0040975 C27.3489806,23.8520574 27.4260143,23.6756908 27.4888576,23.4749978 C27.4685856,23.4749978 27.4483135,23.4749978 27.4280415,23.4749978 Z" id="Shape" fill="#FBB315"></path>
                <path d="M27.4219599,23.441549 C25.3602956,22.8942045 23.2945769,22.3580096 21.2248037,21.8329643 C21.2045317,21.8329643 21.1852733,21.8360051 21.1670285,21.8420867 C19.3202476,22.5860698 17.4542082,23.3128217 15.5689105,24.0223424 C15.5689105,24.0426144 15.5638425,24.0598456 15.5537065,24.074036 C14.1083115,26.0505578 12.6537942,28.0199845 11.1901544,29.9823159 C11.1901544,30.0025879 11.1901544,30.0228599 11.1901544,30.043132 C11.1901544,30.063404 11.1901544,30.083676 11.1901544,30.103948 C13.7910544,29.0761567 16.3706688,28.0331613 18.9289976,26.9749619 C21.5055712,25.9106809 24.0750496,24.8443727 26.6374328,23.7760373 C26.8928602,23.6685956 27.1563965,23.5682491 27.4280415,23.4749978 C27.4280415,23.4547258 27.4260143,23.4435762 27.4219599,23.441549 Z" id="Path" fill="#FDE5A3"></path>
                <path d="M17.3386577,33.3150358 C15.3499727,32.2061564 13.2801996,31.1763378 11.1293384,30.2255801 C11.6827645,33.3008454 12.2736938,36.3406346 12.9021264,39.3449478 C13.2872948,41.1876743 13.6491503,43.0537137 13.987693,44.9430658 C16.1730166,45.1903844 18.3623947,45.4326351 20.5558271,45.6698177 C20.5760991,45.6718449 20.5963712,45.6728585 20.6166432,45.6728585 C20.3814878,44.4484286 20.0865299,43.2037266 19.7317696,41.9387526 C18.9269704,39.0743164 18.1475113,36.2037985 17.3933922,33.327199 C17.3731202,33.327199 17.3548753,33.3231446 17.3386577,33.3150358 Z" id="Path" fill="#FEC40C"></path>
                <path d="M17.6670644,4.56728585 C17.652874,4.63012911 17.602194,4.64837393 17.5150243,4.6220203 C18.1475113,7.61822469 18.7840527,10.6012523 19.4246485,13.571103 C20.022673,16.3362064 20.6227248,19.0901602 21.2248037,21.8329643 C23.2945769,22.3580096 25.3602956,22.8942045 27.4219599,23.441549 C27.4260143,23.4435762 27.4280415,23.4547258 27.4280415,23.4749978 C27.4483135,23.4749978 27.4685856,23.4749978 27.4888576,23.4749978 C27.4260143,23.6756908 27.3489806,23.8520574 27.2577566,24.0040975 C25.8893953,26.2846997 24.5068436,28.5409754 23.1101015,30.7729246 C23.1101015,30.7931967 23.1101015,30.8134687 23.1101015,30.8337407 C23.7283981,33.8441355 24.3517627,36.8454079 24.9801952,39.8375579 C25.5133493,42.3756146 26.0758979,44.8781954 26.6678408,47.3453001 L26.6982488,47.314892 C26.6982488,47.29462 26.6982488,47.274348 26.6982488,47.254076 C26.6982488,47.233804 26.6982488,47.2135319 26.6982488,47.1932599 C28.3565,45.2228197 29.9792751,43.2169034 31.5665742,41.1755111 C31.584819,41.1532119 31.6040774,41.1319263 31.6243494,41.1116543 C30.967536,38.1803203 30.2975458,35.2611496 29.6143788,32.3541421 C28.9231029,29.420781 28.2551399,26.4610662 27.6104897,23.4749978 C27.0489548,20.7321937 26.5076919,17.9579679 25.986701,15.1523205 C25.4211117,12.1115177 24.8879576,9.02713 24.3872387,5.89915749 C22.6681715,5.61332202 20.9795123,5.32545936 19.3212612,5.03556949 C18.7009374,4.92610058 18.1596745,4.76797884 17.6974725,4.56120424 C17.6772004,4.56120424 17.6670644,4.56323145 17.6670644,4.56728585 Z M0.0668976622,8.22233085 C0.0425712396,8.23449406 0.0202720189,8.25071168 0,8.2709837 C0.610187768,11.2894873 1.23659315,14.2897461 1.87921615,17.2717601 C2.52183915,20.2618829 3.16243494,23.2438968 3.80100354,26.217802 C4.44362653,29.220088 5.08726313,32.217306 5.73191333,35.209456 C6.37453633,38.1894427 7.00296892,41.1734839 7.61721109,44.1615795 C8.09563073,46.4847529 8.61763522,48.7521782 9.18322454,50.9638554 C9.18322454,50.9435834 9.18322454,50.9233114 9.18322454,50.9030394 C10.7826868,48.9346263 12.3791083,46.9641861 13.972489,44.9917187 C13.982625,44.9795555 13.987693,44.9633378 13.987693,44.9430658 C13.6491503,43.0537137 13.2872948,41.1876743 12.9021264,39.3449478 C12.2736938,36.3406346 11.6827645,33.3008454 11.1293384,30.2255801 C11.1293384,30.2053081 11.1293384,30.1850361 11.1293384,30.1647641 C11.1496104,30.1647641 11.1648144,30.1596961 11.1749504,30.1495601 C11.1850864,30.139424 11.1901544,30.12422 11.1901544,30.103948 C11.1901544,30.083676 11.1901544,30.063404 11.1901544,30.043132 L11.1597464,30.07354 C10.8982373,29.3619921 10.6874083,28.5845602 10.5272594,27.7412442 C9.95558846,24.7146318 9.36161831,21.6920738 8.74534894,18.6735702 C8.13110677,15.6652026 7.54727262,12.6233861 6.99384651,9.54812088 C6.97357449,9.54812088 6.95330247,9.54609368 6.93303045,9.54203928 C4.6159387,9.14673491 2.34547258,8.7027777 0.121632113,8.21016764 C0.101360094,8.21016764 0.0831152773,8.21422204 0.0668976622,8.22233085 Z" id="Shape" fill="#FCDC7A"></path>
                <path d="M24.3872387,5.89915749 C24.8879576,9.02713 25.4211117,12.1115177 25.986701,15.1523205 C26.5076919,17.9579679 27.0489548,20.7321937 27.6104897,23.4749978 C28.2551399,26.4610662 28.9231029,29.420781 29.6143788,32.3541421 C30.2975458,35.2611496 30.967536,38.1803203 31.6243494,41.1116543 C33.7042586,41.4643874 38.4056417,42.1597176 38.4037353,42.1394456 C38.3827469,41.9088041 37.7245333,39.9408497 37.7059551,39.8953331 C37.0633321,37.7606895 36.4784843,35.5702979 35.9514119,33.3241582 C35.260136,30.3826883 34.6195402,27.4016879 34.0296245,24.3811571 C33.4315999,21.3322454 32.880201,18.234681 32.3754277,15.0884636 C31.8767361,11.9807631 30.3776203,0.170284958 30.4080283,0 C30.2194985,0.135822526 30.0441456,0.284821865 29.8819694,0.446998016 C28.0615421,2.2552621 26.2299652,4.05237657 24.3872387,5.83834143 C24.3872387,5.85861345 24.3872387,5.87888547 24.3872387,5.89915749 Z M12.7105558,3.6489634 C12.6091957,3.77059551 12.5037812,3.88817322 12.3943123,4.00169652 C10.6063203,5.84239584 8.80616499,7.67093194 6.99384651,9.48730483 C6.99384651,9.50757685 6.99384651,9.52784887 6.99384651,9.54812088 C7.54727262,12.6233861 8.13110677,15.6652026 8.74534894,18.6735702 C9.36161831,21.6920738 9.95558846,24.7146318 10.5272594,27.7412442 C10.6874083,28.5845602 10.8982373,29.3619921 11.1597464,30.07354 L11.1901544,30.043132 C11.1901544,30.0228599 11.1901544,30.0025879 11.1901544,29.9823159 C12.6537942,28.0199845 14.1083115,26.0505578 15.5537065,24.074036 C15.5638425,24.0598456 15.5689105,24.0426144 15.5689105,24.0223424 C15.5689105,24.0020703 15.5678969,23.9817983 15.5658697,23.9615263 C15.1178581,20.7849009 14.6769417,17.6011804 14.2431205,14.4103646 C13.8092992,11.2094128 13.3927093,8.00542025 12.9933505,4.79838686 C12.938616,4.36456566 12.8443512,3.9814245 12.7105558,3.6489634 Z" id="Shape" fill="#FEC50C"></path>
                <path d="M24.3872387,5.83834143 C26.2299652,4.05237657 28.0615421,2.2552621 29.8819694,0.446998016 C30.0441456,0.284821865 30.2194985,0.135822526 30.4080283,0 C28.8835725,0.502746068 27.3053958,1.05819938 25.6734983,1.66635995 C23.0381358,2.64752566 20.3794606,3.61247376 17.6974725,4.56120424 C18.1596745,4.76797884 18.7009374,4.92610058 19.3212612,5.03556949 C20.9795123,5.32545936 22.6681715,5.61332202 24.3872387,5.89915749 C24.3872387,5.87888547 24.3872387,5.85861345 24.3872387,5.83834143 Z" id="Path" fill="#FDE5A3"></path>
                <path d="M12.7105558,3.6489634 C11.1739368,4.20036231 9.63731777,4.75987003 8.10069874,5.32748656 C5.46330908,6.30257066 2.80362021,7.26346436 0.121632113,8.21016764 C2.34547258,8.7027777 4.6159387,9.14673491 6.93303045,9.54203928 C6.95330247,9.54609368 6.97357449,9.54812088 6.99384651,9.54812088 C6.99384651,9.52784887 6.99384651,9.50757685 6.99384651,9.48730483 C8.80616499,7.67093194 10.6063203,5.84239584 12.3943123,4.00169652 C12.5037812,3.88817322 12.6091957,3.77059551 12.7105558,3.6489634 Z" id="Path" fill="#FDE5A3"></path>
            </g>
        </g>
    </g>
</svg>