<svg xmlns="http://www.w3.org/2000/svg" width="100" height="100" viewBox="0 0 26.4583 26.4583" id="svg8"><defs id="defs2"><linearGradient id="linearGradient-1" y2="-.015" x2="31.4456" y1="62.982" x1="31.4456" gradientTransform="matrix(.8524 0 0 .62942 17.2866 17.6833)" gradientUnits="userSpaceOnUse"><stop id="stop1177" offset="0%" stop-color="#725826"/><stop id="stop1179" offset="21.41%" stop-color="#D4C879"/><stop id="stop1181" offset="38.83%" stop-color="#CCB853"/><stop id="stop1183" offset="50.35%" stop-color="#684E21"/><stop id="stop1185" offset="69.2%" stop-color="#F6F09A"/><stop id="stop1187" offset="83.66%" stop-color="#AC9541"/><stop id="stop1189" offset="100%" stop-color="#684E21"/></linearGradient><linearGradient id="linearGradient-2" y2="31.4835" x2="63.2368" y1="31.4835" x1="-.3457" gradientTransform="matrix(.8524 0 0 .62942 17.2866 17.6833)" gradientUnits="userSpaceOnUse"><stop id="stop1192" offset="0%" stop-color="#89702B"/><stop id="stop1194" offset="20.03%" stop-color="#E6D54E"/><stop id="stop1196" offset="24.61%" stop-color="#D9CE7D"/><stop id="stop1198" offset="44.89%" stop-color="#725826"/><stop id="stop1200" offset="66.29%" stop-color="#F4EA59"/><stop id="stop1202" offset="70.59%" stop-color="#F7F09B"/><stop id="stop1204" offset="99.96%" stop-color="#684E21"/></linearGradient><linearGradient id="linearGradient-3" y2="33.5008" x2="36.3947" y1="8.8401" x1="36.3947" gradientTransform="matrix(.54423 0 0 .98582 17.2866 17.6833)" gradientUnits="userSpaceOnUse"><stop id="stop1207" offset="0%" stop-color="#725826"/><stop id="stop1209" offset="27.92%" stop-color="#ECE37F"/><stop id="stop1211" offset="59.72%" stop-color="#F6EF88"/><stop id="stop1213" offset="100%" stop-color="#684E21"/></linearGradient></defs><g id="layer1" transform="translate(0 -270.5417)"><g id="Merkur-mini-color" transform="matrix(.11884 0 0 .11881 .0134 270.6416)" fill="none" fill-rule="evenodd" stroke-width="2.2266"><g transform="translate(1 5)" id="Group"><path id="Fill-19" d="M168.8484 107.741c0 15.594-5.521 28.95-16.564 39.917-11.042 10.969-24.324 16.564-39.918 16.564-15.594 0-28.95-5.521-39.992-16.564-8.804-8.804-14.102-19.175-15.893-30.964a59.1756 59.1756 0 0 1-.671-9.028c0-13.729 4.253-25.692 12.759-35.888 1.194-1.418 2.462-2.761 3.73-4.104 11.043-11.043 24.374-16.564 39.993-16.564 15.594 0 28.95 5.521 39.917 16.564 11.118 11.117 16.639 24.398 16.639 40.067m4.477 7.013l47.081-29.621-51.931-2.238 32.904-43.276-51.035 22.757 10.819-43.947-27.831 24.921L130.7214 0l-26.115 46.857L76.3284 6.64l3.283 47.753-43.051-29.845 20.294 45.886-42.38-9.401 39.098 34.695-53.498 9.327 47.006 16.265-40.44 22.16 50.587-4.476-31.561 40.663 48.946-24.025-7.387 52.304 27.607-35.218 13.058 35.665 13.206-34.919 31.039 37.531-5.745-57.079 44.17 30.517-20.742-49.916 44.842-1.567-41.335-18.205" fill="#fee379"/><path id="Fill-20" d="M111.5461 124.678a155.1418 155.1418 0 0 1-35.516-4.178c7.909 13.505 18.479 21.314 31.71 23.428 15.371.298 28.055-7.337 38.053-22.906-9.252 2.835-20.668 4.104-34.247 3.656zm26.114-31.263c-.588.429-1.093.959-1.492 1.567a10.5587 10.5587 0 0 0-1.865 5.447c-.075.469-.075.948 0 1.417.39.126.789.226 1.193.299h.97a5.5581 5.5581 0 0 1 0-1.567c.14-1.946.783-3.823 1.866-5.447.238-.351.514-.676.82-.97a2.2388 2.2388 0 0 0-1.492-.746zm-61.108-1.343c.239-.351.515-.676.821-.97a2.589 2.589 0 0 0-1.492-.746c-.586.4-1.093.906-1.492 1.492a10.5618 10.5618 0 0 0-1.865 5.447v1.418c.39.126.789.225 1.193.298h.97v-1.492a9.7026 9.7026 0 0 1 1.865-5.447zm17.46 7.984c-.896-3.731 0-7.238 2.536-10.521 4.626-4.775 9.551-7.386 14.624-7.834-8.953 3.059-14.176 7.461-15.593 13.206-1.119 3.955-.15 7.163 3.059 9.476a11.4791 11.4791 0 0 0 5.894 1.865h7.014c.597 0 .895.224.97.747v2.91h-.97v-1.567c0-.672-.448-1.194-1.343-1.343h-6.79c-.243.061-.495.086-.746.074a10.0559 10.0559 0 0 1-3.433-.746c-2.834-1.716-4.625-3.805-5.222-6.267zm-18.728-19.624c3.507-.82 6.417-.074 8.655 2.313 2.089 2.09 3.134 5.149 3.134 9.178-1.045-6.939-4.477-10.222-10.371-9.849-4.328.597-7.462 2.761-9.252 6.417 1.343-4.253 3.954-6.939 7.834-8.059zm70.584 5.671c2.089 2.089 3.133 5.148 3.133 9.178-1.044-6.939-4.476-10.223-10.371-9.85-4.327.598-7.461 2.686-9.327 6.417 1.344-4.253 3.955-6.939 7.835-8.058 3.581-.895 6.491-.074 8.73 2.313zm-65.958 5.969c.843 1.843 1.153 3.885.895 5.895a12.6926 12.6926 0 0 1-1.79 5.67c-.45.825-1.158 1.48-2.015 1.865-.284.2-.623.304-.97.299a.273.273 0 0 1-.224.074.671.671 0 0 1-.373-.074c-1.268-.149-2.313-.97-3.059-2.612-.327-.769-.577-1.569-.746-2.387a17.8865 17.8865 0 0 1-.149-3.507c.129-2.018.771-3.97 1.865-5.671.399-.608.905-1.138 1.493-1.567a3.735 3.735 0 0 1 2.014-.596c.149.074.224.074.373.149.363.079.714.204 1.045.373.189.13.364.28.522.447.459.484.837 1.039 1.119 1.642zm53.423 8.208c.141-2.016.782-3.965 1.865-5.671.378-.604.889-1.114 1.492-1.493a3.2085 3.2085 0 0 1 2.015-.596c.114.06.244.086.373.075.363.078.714.204 1.044.373.15.148.373.298.523.447.489.487.871 1.072 1.119 1.716.843 1.843 1.153 3.885.895 5.895a13.0383 13.0383 0 0 1-1.79 5.67 5.454 5.454 0 0 1-2.015 1.791c-.284.199-.623.304-.97.298a.2737.2737 0 0 1-.224.075.4435.4435 0 0 1-.298-.075c-1.269-.074-2.313-.97-3.134-2.611-.327-.769-.577-1.569-.746-2.388a18.111 18.111 0 0 1-.149-3.506zm14.251 19.399c.072.165.173.317.298.448a35.314 35.314 0 0 0 3.805 5.148 12.5743 12.5743 0 0 1-4.476-4.104c-11.715 17.534-24.996 25.791-39.844 24.772-12.982-1.567-24.099-10.223-33.277-26.115a17.43 17.43 0 0 1-5.969 3.581 36.3839 36.3839 0 0 0 5.447-4.626l.224-.223c1.564-1.74 2.94-3.641 4.104-5.671a14.0202 14.0202 0 0 1-2.836 5.894c13.505 2.388 25.07 3.731 34.77 3.955 10.744.671 22.98-.298 36.634-2.91a15.5633 15.5633 0 0 1-1.492-6.342 24.8937 24.8937 0 0 0 2.612 6.193zm4.7 27.979c11.043-11.042 16.564-24.348 16.564-39.917 0-15.569-5.521-28.9-16.564-39.993-11.042-11.042-24.348-16.564-39.918-16.564-15.569 0-28.9 5.522-39.992 16.564-1.343 1.344-2.611 2.761-3.73 4.104-8.506 10.222-12.759 22.185-12.759 35.889-.005 3.022.22 6.04.671 9.028 1.716 11.789 7.014 22.11 15.893 30.964 11.042 11.043 24.373 16.564 39.992 16.564 15.52-.075 28.801-5.62 39.843-16.639z" fill="#fff"/><path id="Fill-21" d="M76.03 120.4997a154.6373 154.6373 0 0 0 35.516 4.178c13.579.373 24.995-.821 34.321-3.656-9.998 15.52-22.682 23.205-38.052 22.906-13.281-2.089-23.801-9.923-31.785-23.428m71.777-.373c-.074-.149-.223-.299-.298-.448a29.0231 29.0231 0 0 1-2.611-6.118c.044 2.195.552 4.357 1.492 6.342-13.654 2.686-25.891 3.656-36.635 2.91-9.7-.224-21.339-1.567-34.769-3.955a14.0184 14.0184 0 0 0 2.835-5.894 34.2775 34.2775 0 0 1-4.104 5.67l-.224.224a41.218 41.218 0 0 1-5.446 4.626 17.43 17.43 0 0 0 5.969-3.581c9.177 15.818 20.269 24.523 33.277 26.115 14.848 1.044 28.129-7.213 39.843-24.772a12.5856 12.5856 0 0 0 4.477 4.104c-1.418-1.791-2.687-3.507-3.806-5.223m-11.639-25.145c.378-.624.887-1.159 1.492-1.566.593.06 1.146.323 1.567.746-.224.223-.522.596-.821.969a10.5618 10.5618 0 0 0-1.865 5.447c-.074.52-.074 1.047 0 1.567h-.97a7.0216 7.0216 0 0 1-1.194-.298c-.075-.47-.075-.949 0-1.418a9.89 9.89 0 0 1 1.791-5.447m-.97-.447a13.0646 13.0646 0 0 0-1.865 5.67c-.066 1.196-.016 2.396.149 3.582.135.827.386 1.63.746 2.387.821 1.641 1.791 2.537 3.134 2.612.087.059.193.086.298.074.082.01.164-.017.224-.074.345-.005.682-.109.97-.299a5.4346 5.4346 0 0 0 2.014-1.791 11.3127 11.3127 0 0 0 1.791-5.67c.258-2.01-.052-4.052-.895-5.895a5.7024 5.7024 0 0 0-1.119-1.715c-.19-.131-.365-.281-.523-.448a2.5078 2.5078 0 0 0-1.044-.373 3.42 3.42 0 0 0-.373-.075 2.8103 2.8103 0 0 0-2.015.597c-.585.371-1.092.852-1.492 1.418m-57.899-3.507c-.224.223-.523.597-.821.97a10.5463 10.5463 0 0 0-1.865 5.446v1.493h-.97a6.9085 6.9085 0 0 1-1.194-.299v-1.417c.14-1.947.782-3.824 1.865-5.447.379-.604.889-1.114 1.492-1.492.556.109 1.072.367 1.493.746m3.432 6.864c.257-2.01-.053-4.052-.895-5.894a5.6977 5.6977 0 0 0-1.12-1.716c-.149-.15-.373-.299-.522-.448a2.5078 2.5078 0 0 0-1.044-.373c-.075-.075-.224-.075-.374-.149a3.2022 3.2022 0 0 0-2.014.597 6.028 6.028 0 0 0-1.492 1.567 13.0485 13.0485 0 0 0-1.866 5.67c-.065 1.171-.015 2.346.149 3.507.17.818.42 1.618.747 2.388.746 1.641 1.79 2.536 3.059 2.611.111.068.243.094.373.075.082.009.164-.018.224-.075.345-.005.681-.109.97-.298a5.1163 5.1163 0 0 0 2.014-1.866 10.3792 10.3792 0 0 0 1.791-5.596m68.196-2.611c0-4.03-1.045-7.089-3.134-9.177-2.238-2.388-5.148-3.134-8.655-2.313-3.88 1.119-6.491 3.805-7.835 8.058 1.866-3.657 4.925-5.82 9.327-6.417 5.82-.373 9.327 2.91 10.297 9.849m-64.988-12.535c-2.238-2.388-5.148-3.134-8.655-2.313-3.979 1.119-6.591 3.805-7.834 8.058 1.79-3.656 4.924-5.82 9.252-6.417 5.82-.373 9.327 2.91 10.371 9.849 0-4.029-1.044-7.088-3.134-9.177m12.61 6.79c-2.537 3.282-3.433 6.789-2.537 10.52.597 2.462 2.388 4.551 5.372 6.193 1.08.483 2.249.737 3.432.746.251.012.503-.013.746-.075h6.79a1.574 1.574 0 0 1 1.343 1.343v1.567h.97v-2.91c-.074-.447-.373-.671-.97-.746h-7.014c-2.1-.06-4.142-.706-5.894-1.865-3.208-2.313-4.253-5.521-3.059-9.476 1.418-5.745 6.566-10.147 15.594-13.207-5.223.598-10.073 3.209-14.773 7.91" fill="#000"/><path id="Stroke-22" d="M56.78 70.4343l-42.38-9.401 39.097 34.695L0 105.0553l47.006 16.265-40.44 22.16 50.587-4.477-31.486 40.664 48.946-24.025-7.387 52.303 27.607-35.217 13.057 35.665 13.206-34.919 31.039 37.53-5.745-57.078 44.171 30.516-20.742-49.916 44.841-1.567-41.335-18.354 47.081-29.472-51.931-2.239 32.905-43.275-51.036 22.757 10.819-43.947-27.83 24.921-2.612-43.35-26.114 46.856-28.278-40.216 3.283 47.752-43.052-29.845zm112.068 37.307c0 15.593-5.521 28.949-16.564 39.917s-24.323 16.564-39.918 16.564c-15.593 0-28.949-5.521-39.992-16.564-8.804-8.804-14.102-19.175-15.892-30.964a59.059 59.059 0 0 1-.672-9.028c0-13.729 4.253-25.692 12.759-35.889 1.194-1.418 2.462-2.76 3.731-4.104 11.042-11.042 24.373-16.564 39.992-16.564 15.594 0 28.95 5.522 39.918 16.564 11.117 11.118 16.638 24.399 16.638 40.068z" stroke="#000" stroke-linecap="round" stroke-linejoin="round"/></g></g></g><style id="style1088"></style></svg>