<svg width="120" height="120" viewBox="0 0 120 120" fill="none" xmlns="http://www.w3.org/2000/svg">
<path d="M85.3058 74.7852C75.8393 74.2807 70.1305 68.3712 69.986 59.0025C70.1305 49.5617 75.7671 43.7242 85.3058 43.2198C91.5927 42.8594 96.073 38.2471 95.9285 32.3376C95.7117 26.6443 91.0868 22.1041 85.378 22.032C79.5247 22.032 74.4663 26.3561 74.6831 32.4097C74.9722 39.7605 71.7203 44.0846 65.2167 46.5349C58.4962 49.0572 52.4261 47.6159 47.0064 43.2198C44.3326 41.0578 43.3209 38.1751 43.2487 34.7879C43.3209 32.77 43.0319 30.7522 42.4538 28.8063C40.6472 23.7616 35.2997 21.0231 30.0968 22.3203C24.5326 23.6896 20.9917 29.3829 22.2924 35.0041C23.3763 39.6885 27.4953 43.0036 32.2647 43.1477C38.6961 43.508 43.8268 46.0304 46.7896 51.9399C49.0297 56.336 49.0297 61.5969 46.7896 65.993C43.8268 71.9025 38.6239 74.3528 32.2647 74.7852C26.4114 75.0734 21.8588 79.9019 22.0033 85.7394C22.1479 90.4958 25.5442 94.6036 30.1691 95.6846C35.372 96.9818 40.7195 94.1712 42.5261 89.1986C43.1042 87.2528 43.3209 85.2349 43.3209 83.217C43.3932 79.8299 44.4049 76.8751 47.0786 74.7852C52.4984 70.3891 58.5685 68.9477 65.2889 71.4701C71.7926 73.9204 75.0444 78.2444 74.7554 85.5952C74.4663 91.6489 79.5247 95.9729 85.378 95.9729C91.0868 95.9008 95.7117 91.3606 95.9285 85.6673C96.073 79.7578 91.5204 75.1455 85.3058 74.7852Z" fill="url(#paint0_linear)"/>
<path d="M58.9301 74.784C53.0768 74.8561 48.3797 79.6846 48.452 85.522C48.5243 91.3595 53.2936 96.0438 59.1469 95.9718C65.0002 95.8997 69.6973 91.0712 69.6251 85.2338C69.6251 79.3963 64.7834 74.712 58.9301 74.784Z" fill="#010101"/>
<path d="M32.6979 48.2637C26.7723 48.2637 22.0029 53.0922 22.0029 59.0017C22.0029 64.9112 26.7723 69.6676 32.6979 69.6676C38.4789 69.6676 43.176 64.9832 43.176 59.1458V59.0737V58.8575C43.2483 53.0922 38.6234 48.3357 32.7701 48.2637C32.7701 48.2637 32.7701 48.2637 32.6979 48.2637Z" fill="#010101"/>
<path d="M95.9997 58.5701C95.7829 52.8047 90.9413 48.1924 85.088 48.2645C79.1624 48.4807 74.5376 53.4533 74.7544 59.3628C74.9712 64.9841 79.4515 69.4522 85.088 69.6684C90.9413 69.7405 95.7107 65.2003 95.9997 59.4349V58.5701Z" fill="#010101"/>
<path d="M58.9289 43.1474C64.7822 43.0753 69.4793 38.3189 69.4071 32.4814C69.3348 26.8602 64.8545 22.2479 59.218 22.0317C53.3647 21.8155 48.4508 26.4278 48.234 32.2652C48.0172 38.1027 52.5698 42.9312 58.4231 43.1474C58.6399 43.1474 58.7844 43.1474 58.9289 43.1474Z" fill="#010101"/>
<defs>
<linearGradient id="paint0_linear" x1="25.0851" y1="25.2204" x2="92.6793" y2="92.9984" gradientUnits="userSpaceOnUse">
<stop offset="0.02" stop-color="#FFCE00"/>
<stop offset="0.44" stop-color="#FF1C03"/>
<stop offset="1" stop-color="#DE0021"/>
</linearGradient>
</defs>
</svg>
