<svg xmlns="http://www.w3.org/2000/svg" width="100" height="31.7941" viewBox="0 0 26.4583 8.4122"><defs><linearGradient id="a" y2="22.94" x2="16.1687" y1=".8632" x1="9.9614" gradientTransform="matrix(.75438 0 0 1.313 -15.1885 40.2362)" gradientUnits="userSpaceOnUse"><stop offset=".3085%" stop-color="#1F8FDD"/><stop offset="100%" stop-color="#015AB6"/></linearGradient><linearGradient id="b" y2="19.3344" x2="97.8973" y1="11.9991" x1="67.2096" gradientTransform="matrix(1.00998 0 0 .98072 -15.1885 40.2362)" gradientUnits="userSpaceOnUse"><stop offset=".2644%" stop-color="#E01801"/><stop offset="100%" stop-color="#B61400"/></linearGradient></defs><g fill="none" fill-rule="evenodd" stroke-width=".9952"><path d="M12.6868 0h5.5523v21.474c0 1.974-.388 3.7086-1.1343 5.234-.7463 1.5253-1.821 2.6917-3.224 3.4992-1.3731.8374-2.9552 1.2262-4.6866 1.2262-2.8657 0-5.0747-.8374-6.6867-2.5123C.9254 27.2463.1791 24.8835.1791 21.833V19.59h5.4926v2.243c0 1.5253.3284 2.632.8657 3.3796.5672.7178 1.4329 1.0767 2.627 1.0767 1.0746 0 1.9104-.4187 2.5373-1.2561.6269-.8374.9552-2.0338.9552-3.589V0z" fill="url(#a)" transform="matrix(.26585 0 0 .26585 -.0476 0)"/><path fill="#fe2002" d="M8.3406 8.3247h-1.476V.0795h4.4361V1.455h-2.96v1.8924h2.2855V4.715H8.3406z"/><path fill="#e01602" d="M13.8244 8.3327V1.455H12.134V.0795h4.9758V1.455h-1.8094v6.8777z"/><path fill="url(#b)" d="M86.091.5982l4.4478 22.102 3.612-22.102h5.5524L93.703 31.6428h-5.612l-4.3882-20.7563-4.3881 20.7563h-5.5822L67.7325.5982h5.5523l3.6419 22.0422L81.3745.5982z" transform="matrix(.26585 0 0 .26585 -.0476 0)"/><path d="M3.1664 6.5198a.6239.6239 0 0 1-.0873.1432c-.1666.2226-.3888.334-.6666.334-.6428.4452-1.0317.8348-1.2539 1.0971.3492.183.7619.2704 1.246.2704.4603 0 .8809-.1113 1.246-.326.365-.2226.6507-.5327.857-.9303.1984-.4055.3016-.8666.3016-1.3914-.6428.2624-1.1904.5407-1.6428.803z" fill="#024ea3"/><path d="M6.8646 4.9773v3.3554h1.476V4.715h2.2856v-.6282c-1.4523.2624-2.6982.5646-3.7616.8905zM14.6338 3.578c-.2777.0238-.5476.0477-.8094.0795v4.6752h1.476V3.5223c-.2222.016-.4444.0398-.6666.0557z" fill="#9c1202"/><path d="M20.9032 3.57l-.492 2.449-.4127-2.5046c-.4682-.0239-.9285-.0398-1.3888-.0557l.9365 4.858.0158.0875h1.492l.0238-.0954.984-4.6513c-.3968-.0318-.7777-.0636-1.1586-.0875zm3.468.3499l-.3492 2.107-.4444-2.2104c-.3968-.0477-.7936-.0875-1.1983-.1272l.976 4.6036.0239.1113h1.492l.0238-.1192.8094-4.1902c-.4444-.0557-.8888-.1193-1.3332-.175z" fill="#9c1202" fill-rule="nonzero"/></g></svg>