<svg width="230" height="214" viewBox="0 0 230 214" fill="none" xmlns="http://www.w3.org/2000/svg">
<path d="M84.1929 161.127C32.7898 83.4935 37.0641 51.2344 41.5619 40.6759C25.666 58.1808 16 81.3818 16 106.833C16 157.542 54.4126 199.332 103.86 205C103.86 193.163 94.2221 176.742 84.1929 161.127Z" fill="#4777BB"/>
<path d="M115.37 165.044C172.779 89.523 184.569 45.455 186.301 37.6472C168.282 19.3643 143.167 8 115.37 8C87.5731 8 62.4582 19.3643 44.4392 37.6472C46.1713 45.455 57.9605 89.523 115.37 165.044Z" fill="#4777BB"/>
<path d="M189.178 40.6759C193.62 51.1233 197.866 82.7989 148.195 158.654C148.139 158.737 148.083 158.82 148.028 158.931C137.523 175.214 126.936 192.635 126.936 205.028C176.383 199.332 214.74 157.57 214.74 106.861C214.74 81.3818 205.046 58.1808 189.178 40.6759Z" fill="#4777BB"/>
</svg>
