<?xml version="1.0" encoding="UTF-8"?>
<svg xmlns="http://www.w3.org/2000/svg" xmlns:xlink="http://www.w3.org/1999/xlink" width="80px" height="80px" viewBox="0 0 80 80" version="1.1">
    
    <title>Mascot_logo_mini_white</title>
    <desc>Created with Sketch.</desc>
    <defs>
        <polygon id="path-1" points="0.000124000001 0.165600009 74.4000006 0.165600009 74.4000006 47.4561218 0.000124000001 47.4561218"/>
        <polygon id="path-3" points="5.46355204e-05 0.944982595 74.4000006 0.944982595 74.4000006 49.6000004 5.46355204e-05 49.6000004"/>
    </defs>
    <g id="Mascot_logo_mini_white" stroke="none" stroke-width="1" fill="none" fill-rule="evenodd">
        <g id="Group-15" transform="translate(2.500000, 1.500000)">
            <path d="M38.6508465,29.5538482 C38.6496843,31.3878082 38.9299243,33.2106083 39.4817243,34.9602483 C40.7291643,32.9130083 42.3287643,31.1038482 44.2061243,29.6158482 C44.2210043,24.4648882 47.4202044,19.8595282 52.2413244,18.0466481 C53.1862044,19.9984082 55.4157244,20.9680882 57.4865244,20.3282482 C58.9819645,19.8744082 60.1128445,18.6443282 60.4377245,17.1166481 C62.7478445,16.4495281 64.0796045,14.0364881 63.4124845,11.7276081 C62.7453645,9.41872808 60.3323245,8.08696807 58.0234444,8.75408808 C57.9639244,8.77020808 57.9044044,8.78880808 57.8461244,8.80864808 C56.7102844,7.73356807 55.0734844,7.37644806 53.5929244,7.87864807 C51.5642844,8.52220807 50.2932844,10.5310081 50.5797244,12.6402481 C43.4137643,15.1698481 38.6286043,21.9538882 38.6508465,29.5538482" id="Fill-1" fill="#FFFFFF"/>
            <g id="Group-5" transform="translate(0.000000, 0.074772)">
                <mask id="mask-2" fill="white">
                    <use xlink:href="#path-1"/>
                </mask>
                <g id="Clip-4"/>
                <path d="M5.55532404,29.4790762 L5.55532404,5.67107605 L68.7953245,5.67107605 L68.7953245,29.4790762 C68.7370445,36.3263563 63.1372045,41.8307163 56.2899244,41.7724363 C53.3808844,41.7463963 50.5747644,40.6998363 48.3601244,38.8162763 C47.1746844,40.3687563 46.4356444,42.2175963 46.2273244,44.1606763 C54.2637644,49.8659164 65.4014445,47.9761564 71.1066845,39.9397163 C73.2655246,36.8992363 74.4174846,33.2573563 74.4003179,29.5286762 L74.4003179,0.165476009 L0.000124000001,0.165476009 L0.000124000001,29.4790762 C0.00260400002,31.3130362 0.282844002,33.1358363 0.830924006,34.8854763 C2.06720402,32.8134363 3.66928403,30.9819562 5.55532404,29.4790762" id="Fill-3" fill="#FFFFFF" mask="url(#mask-2)"/>
            </g>
            <path d="M53.5429524,67.0135045 C55.0235124,67.5157045 56.6615524,67.1585845 57.7973924,66.0835045 C60.1062725,66.7506245 62.5180725,65.4188645 63.1851925,63.1099845 C63.8324725,60.8693045 62.5986725,58.5170245 60.3889925,57.7767445 C60.0603925,56.2490644 58.9307525,55.0202244 57.4377924,54.5639044 C55.3645124,53.9141444 53.1287924,54.8863044 52.1913524,56.8467444 C45.7247524,54.5899444 42.3122723,47.5194644 44.5678323,41.0528643 C46.8233924,34.5875043 53.8938724,31.1737842 60.3604725,33.4305843 C61.9241125,33.9749443 63.3637525,34.8280643 64.5913525,35.9391043 C65.7780325,34.3866243 66.5158325,32.5377843 66.7241525,30.5947042 C58.6505125,24.9452642 47.5239924,26.9106642 41.8745523,34.9843043 C39.7739923,37.9875843 38.6480723,41.5637443 38.6505482,45.2279444 C38.6803123,52.7956644 43.4208323,59.5462245 50.5297524,62.1403045 C50.1788324,64.2892245 51.4634724,66.3674645 53.5429524,67.0135045" id="Fill-6" fill="#FFFFFF"/>
            <path d="M35.7494492,45.2275724 C35.7407683,43.4258523 35.4605283,41.6365323 34.9186483,39.9203723 C33.6687283,41.9638923 32.0691282,43.7730523 30.1942482,45.2635324 C30.1781282,50.4157324 26.9801682,55.0198524 22.1590482,56.8327324 C21.2178882,54.8772524 18.9858881,53.9075724 16.9138481,54.5523724 C15.4171681,55.0062124 14.2825681,56.2350524 13.9502481,57.7627325 C11.6562481,58.4819325 10.3790481,60.9247325 11.0982481,63.2199725 C11.8174481,65.5139725 14.2602481,66.7911725 16.5542481,66.0719725 C17.6900881,67.1470525 19.3268881,67.5041725 20.8074482,67.0019725 C22.8869282,66.3497325 24.1678482,64.2652925 23.8082482,62.1163725 C30.9667682,59.5867725 35.7519283,52.8188524 35.7494492,45.2275724" id="Fill-8" fill="#FFFFFF"/>
            <path d="M23.8083722,12.6400001 C24.1902922,10.4898401 22.8994522,8.39424007 20.8075722,7.76680007 C19.3245321,7.31296006 17.7112921,7.66512007 16.5543721,8.69680007 C14.2603721,7.97760007 11.8175721,9.25480008 11.0983721,11.5488001 C10.3791721,13.8428001 11.6563721,16.2856001 13.9503721,17.0048001 C14.4885321,19.3620402 16.8346121,20.8364002 19.1918521,20.2982402 C20.4888922,20.0018802 21.5800922,19.1326402 22.1591722,17.9348001 C28.6245322,20.1903602 32.0382522,27.2608402 29.7826922,33.7274403 C27.5271322,40.1928003 20.4566522,43.6065203 13.9900521,41.3509603 C12.4264121,40.8053603 10.9880121,39.9522403 9.75917208,38.8412003 C8.52661207,40.3676403 7.78385206,42.2301203 7.62637206,44.1856003 C15.7235721,49.8499204 26.8798522,47.8770804 32.5441723,39.7798803 C38.2084923,31.6814403 36.2356523,20.5251602 28.1384522,14.8620801 C26.8029722,13.9271201 25.3459722,13.1794001 23.8083722,12.6400001" id="Fill-10" fill="#FFFFFF"/>
            <g id="Group-14" transform="translate(0.000000, 26.354772)">
                <mask id="mask-4" fill="white">
                    <use xlink:href="#path-3"/>
                </mask>
                <g id="Clip-13"/>
                <path d="M73.5694486,13.5652281 C72.3257286,15.6137081 70.7261285,17.4241081 68.8438085,18.9096281 L68.8438085,42.7176283 L5.60504804,42.7176283 L5.60504804,18.9220281 C5.66332804,12.0735081 11.2631681,6.57038805 18.1116881,6.62866805 C21.0194882,6.65470805 23.8256082,7.70126806 26.0402482,9.58482807 C27.2256882,8.03234806 27.9634882,6.18350805 28.1730482,4.24042803 C20.1378482,-1.46481201 8.99892807,0.424948003 3.29368803,8.46138807 C1.13484801,11.5018681 -0.0171120001,15.1425081 5.46355204e-05,18.8724281 L5.46355204e-05,49.6008684 L74.4002486,49.6008684 L74.4002486,18.9220281 C74.3928086,17.1041881 74.1113286,15.2987481 73.5694486,13.5652281" id="Fill-12" fill="#FFFFFF" mask="url(#mask-4)"/>
            </g>
        </g>
    </g>
</svg>
