<svg width="80" height="80" xmlns="http://www.w3.org/2000/svg"><path d="M68.903 40.718c5.943 0 10.76 4.818 10.76 10.76v7.378c0 5.943-4.817 10.761-10.76 10.761h-.054c-5.943 0-10.761-4.818-10.761-10.76v-7.378c0-5.943 4.818-10.761 10.76-10.761h.055zm-39.435-29.97l.053.02c5.783 2.22 8.672 8.709 6.452 14.493L22.082 61.449c-2.22 5.784-8.709 8.673-14.493 6.452l-.052-.02c-5.784-2.22-8.673-8.708-6.453-14.492L14.976 17.2c2.22-5.783 8.708-8.672 14.492-6.452zm27.398 0l.053.02c5.784 2.22 8.672 8.709 6.452 14.493L49.48 61.449c-2.22 5.784-8.709 8.673-14.492 6.452l-.053-.02c-5.784-2.22-8.673-8.708-6.453-14.492L42.374 17.2c2.22-5.783 8.708-8.672 14.492-6.452z" fill="#F2F2F2" fill-rule="nonzero"/></svg>