<svg xmlns="http://www.w3.org/2000/svg" width="100" height="68.4989" viewBox="0 0 26.4583 18.1237" id="svg8"><defs id="defs2"><linearGradient id="linearGradient-1" y2="-.015" x2="31.4456" y1="62.982" x1="31.4456" gradientTransform="matrix(.8524 0 0 .62942 17.2866 17.6833)" gradientUnits="userSpaceOnUse"><stop id="stop1177" offset="0%" stop-color="#725826"/><stop id="stop1179" offset="21.41%" stop-color="#D4C879"/><stop id="stop1181" offset="38.83%" stop-color="#CCB853"/><stop id="stop1183" offset="50.35%" stop-color="#684E21"/><stop id="stop1185" offset="69.2%" stop-color="#F6F09A"/><stop id="stop1187" offset="83.66%" stop-color="#AC9541"/><stop id="stop1189" offset="100%" stop-color="#684E21"/></linearGradient><linearGradient id="linearGradient-2" y2="31.4835" x2="63.2368" y1="31.4835" x1="-.3457" gradientTransform="matrix(.8524 0 0 .62942 17.2866 17.6833)" gradientUnits="userSpaceOnUse"><stop id="stop1192" offset="0%" stop-color="#89702B"/><stop id="stop1194" offset="20.03%" stop-color="#E6D54E"/><stop id="stop1196" offset="24.61%" stop-color="#D9CE7D"/><stop id="stop1198" offset="44.89%" stop-color="#725826"/><stop id="stop1200" offset="66.29%" stop-color="#F4EA59"/><stop id="stop1202" offset="70.59%" stop-color="#F7F09B"/><stop id="stop1204" offset="99.96%" stop-color="#684E21"/></linearGradient><linearGradient id="linearGradient-3" y2="33.5008" x2="36.3947" y1="8.8401" x1="36.3947" gradientTransform="matrix(.54423 0 0 .98582 17.2866 17.6833)" gradientUnits="userSpaceOnUse"><stop id="stop1207" offset="0%" stop-color="#725826"/><stop id="stop1209" offset="27.92%" stop-color="#ECE37F"/><stop id="stop1211" offset="59.72%" stop-color="#F6EF88"/><stop id="stop1213" offset="100%" stop-color="#684E21"/></linearGradient><linearGradient id="linearGradient-1-9" y2=".919" x2=".2311" y1=".0816" x1=".7695"><stop id="stop1342" offset="0%" stop-color="#31B7E6"/><stop id="stop1344" offset="100%" stop-color="#21E31B"/></linearGradient></defs><g id="layer1" transform="translate(0 -274.709)"><g id="Page-1" transform="matrix(.34156 0 0 .34156 -.3416 270.2687)" fill="none" fill-rule="evenodd" stroke-width=".7746"><g id="mrsl-color"><g transform="translate(1 13)" id="mrsl"><path id="Shape" fill="#4b4b4d" d="M0 51.1221l74.886-12.4637 2.5773 1.8876z"/><path id="polygon1379" fill="#373435" d="M75.2395 43.0888l2.2238-2.5428L0 51.1221z"/><path id="path1381" d="M21.4022 31.8145l-5.594-30.5992L38.4945 0l23.557 1.267-5.3699 30.3751.8102-.1724c2.4652 1.3447 4.9218 2.6893 7.387 4.034-8.1196 6.275-16.8167 12.0586-25.8671 17.5578-9.0677-5.3871-17.6613-11.2484-25.8068-17.5579l7.0422-4.0942z" fill="#373435"/><path id="polygon1383" fill="#376cb3" d="M44.3817 30.8922l4.215 8.7143 6.2922-3.6374-15.8771 10.1624v-2.7152l5.37-2.1376z"/><path id="path1385" d="M52.234 5.7406l8.4902-3.1979c-.4654 2.7755-.9222 5.5596-1.3877 8.3437-.0345-4.4218-2.6806-5.8095-7.1024-5.1458z" fill="#376cb3"/><path id="path1387" d="M50.5619 27.341c3.9132-1.6636 6.344-3.4823 6.8697-6.2922L54.889 35.969z" fill="#376cb3"/><path id="path1389" d="M51.6566 16.3425c.5257-3.5857-3.3616-1.948-7.068-.3792v6.7835c3.2237-.905 6.4215-1.991 7.068-6.4043z" fill="#376cb3"/><path id="path1391" d="M23.8501 37.1413l-3.465-4.3614c-1.4912.9395-2.9737 1.8877-4.465 2.8272 7.0853 5.9733 14.6446 11.145 22.4538 15.903z" fill="#4b4b4d"/><path id="polygon1393" fill="#4b4b4d" d="M17.42 2.5427l5.9733 34.0211 3.784 1.655 11.8345 7.0162-.1724-34.4348z"/><path id="polygon1395" fill="#00afef" d="M17.42 2.5427l20.9626-1.2756 22.3416 1.2756-21.8848 8.2575-4.8873-1.8877-4.8527 7.568-3.646-10.8434z"/><path id="path1397" d="M27.1772 38.2188l-2.5944-1.0344c4.2666 3.06 9.0849 6.0423 14.429 8.947v-2.715l-5.1976-2.017-.0517-15.2479-3.9822 6.3526-4.1029-9.697z" fill="#00afef"/><path id="polygon1399" fill="#4b4b4d" d="M57.1644 33.0902l-2.1204 1.9566-.1551.9223 7.7144-.3362z"/><path id="polygon1401" fill="#00afef" d="M63.767 42.4165l-1.9998-1.5774 13.1189-2.1807 2.5772 1.8876z"/><path id="polygon1403" fill="#376cb3" d="M75.2395 43.0888l2.2238-2.5428-13.6964 1.8705-.8102 1.9825z"/></g></g></g></g><style id="style1088"></style></svg>