<svg xmlns="http://www.w3.org/2000/svg" xmlns:xlink="http://www.w3.org/1999/xlink" width="100" height="100" viewBox="0 0 26.4583 26.4583" id="svg8"><defs id="defs2"><linearGradient id="linearGradient-1" y2="-.015" x2="31.4456" y1="62.982" x1="31.4456" gradientTransform="matrix(.8524 0 0 .62942 17.2866 17.6833)" gradientUnits="userSpaceOnUse"><stop id="stop1177" offset="0%" stop-color="#725826"/><stop id="stop1179" offset="21.41%" stop-color="#D4C879"/><stop id="stop1181" offset="38.83%" stop-color="#CCB853"/><stop id="stop1183" offset="50.35%" stop-color="#684E21"/><stop id="stop1185" offset="69.2%" stop-color="#F6F09A"/><stop id="stop1187" offset="83.66%" stop-color="#AC9541"/><stop id="stop1189" offset="100%" stop-color="#684E21"/></linearGradient><linearGradient id="linearGradient-2" y2="31.4835" x2="63.2368" y1="31.4835" x1="-.3457" gradientTransform="matrix(.8524 0 0 .62942 17.2866 17.6833)" gradientUnits="userSpaceOnUse"><stop id="stop1192" offset="0%" stop-color="#89702B"/><stop id="stop1194" offset="20.03%" stop-color="#E6D54E"/><stop id="stop1196" offset="24.61%" stop-color="#D9CE7D"/><stop id="stop1198" offset="44.89%" stop-color="#725826"/><stop id="stop1200" offset="66.29%" stop-color="#F4EA59"/><stop id="stop1202" offset="70.59%" stop-color="#F7F09B"/><stop id="stop1204" offset="99.96%" stop-color="#684E21"/></linearGradient><linearGradient id="linearGradient-3" y2="33.5008" x2="36.3947" y1="8.8401" x1="36.3947" gradientTransform="matrix(.54423 0 0 .98582 17.2866 17.6833)" gradientUnits="userSpaceOnUse"><stop id="stop1207" offset="0%" stop-color="#725826"/><stop id="stop1209" offset="27.92%" stop-color="#ECE37F"/><stop id="stop1211" offset="59.72%" stop-color="#F6EF88"/><stop id="stop1213" offset="100%" stop-color="#684E21"/></linearGradient><linearGradient id="linearGradient-1-9" y2="91.9%" x2="23.1106%" y1="8.1562%" x1="76.9456%"><stop id="stop1342" offset="0%" stop-color="#31B7E6"/><stop id="stop1344" offset="100%" stop-color="#21E31B"/></linearGradient><linearGradient xlink:href="#linearGradient-1-9" id="linearGradient1366" x1="49.3364" y1="5.2297" x2="14.8182" y2="58.9249" gradientUnits="userSpaceOnUse" gradientTransform="matrix(.64119 0 0 .64119 20.8005 .1223)"/><linearGradient xlink:href="#linearGradient-1-9" id="linearGradient1368" x1="49.3364" y1="5.2297" x2="14.8182" y2="58.9249" gradientUnits="userSpaceOnUse" gradientTransform="matrix(.64119 0 0 .64119 20.8005 .1223)"/><linearGradient xlink:href="#linearGradient-1-9" id="linearGradient1370" x1="56.8364" y1="12.7297" x2="22.3182" y2="66.4249" gradientUnits="userSpaceOnUse" gradientTransform="matrix(.64119 0 0 .64119 23.4916 2.8134)"/></defs><g id="layer1" transform="translate(0 -270.5417)"><g id="Page-1" transform="matrix(.41265 0 0 .41265 -3.0949 267.4468)" fill="none" fill-rule="evenodd" stroke-width=".6412"><g id="microgaming-color" fill="url(#linearGradient1370)" fill-rule="nonzero"><g transform="translate(7.5 7.5)" id="microgaming" fill="url(#linearGradient1368)"><path id="Shape" d="M32.2744 0c17.6434 0 31.8441 14.2007 31.8441 32.2744 0 17.6434-14.2007 31.8441-31.844 31.8441-11.6189 0-21.086-5.5942-27.1106-14.631 5.5942-7.746 10.7581-16.3524 15.4917-25.3893 0 0-1.291 28.4015 8.6065 28.8319 7.746 1.7213 17.6434-22.377 17.6434-22.377-.8607 0 7.3155 14.2008 9.4672 12.9098.8606-.4303-1.291-3.4426-3.0123-7.3155-1.7213-3.873-2.582-9.0369-3.0123-11.1885-.4303-3.4426 0-4.7336-2.582-5.164-2.1516-.4302-3.0122 1.291-4.3032 4.3033-3.873 8.6065-11.1885 23.668-13.7704 23.2376-3.873-.8606-3.0123-33.135-3.0123-35.717.4303-2.582 0-3.873-1.7213-4.7336-3.0123 0-4.3033 3.4426-5.164 5.5942C13.3402 23.668 7.3156 33.9957 1.291 41.7416.4304 38.7293 0 35.2867 0 32.2744 0 14.2007 14.2007 0 32.2744 0z" fill="url(#linearGradient1366)"/></g></g></g></g><style id="style1088"></style></svg>