<?xml version="1.0" encoding="UTF-8"?>
<svg width="80px" height="80px" viewBox="0 0 80 80" version="1.1" xmlns="http://www.w3.org/2000/svg" xmlns:xlink="http://www.w3.org/1999/xlink">
    <!-- Generator: Sketch 64 (93537) - https://sketch.com -->
    <title>NetGame_logo_mini_color</title>
    <desc>Created with Sketch.</desc>
    <g id="NetGame_logo_mini_color" stroke="none" stroke-width="1" fill="none" fill-rule="evenodd">
        <g id="Group-36" transform="translate(0.500000, 6.000000)">
            <polygon id="Fill-1" fill="#72C05D" points="27.0138921 67.1387714 39.7733123 67.1387714 52.5322106 67.1387714 39.7733123 54.2221421"></polygon>
            <polygon id="Fill-2" fill="#34B677" points="27.0138921 67.1387714 39.7733123 67.1387714 39.7733123 54.2221421"></polygon>
            <polygon id="Fill-3" fill="#72C05D" points="44.1918162 49.4618413 61.3162875 66.7978967 78.4407589 49.4618413 61.3162875 32.126134"></polygon>
            <polygon id="Fill-4" fill="#26B574" points="61.3162614 49.4618413 44.1917901 49.4618413 61.3162614 66.7978967 78.4408198 49.4618413"></polygon>
            <polygon id="Fill-5" fill="#34B677" points="61.3162962 32.1261775 61.3162962 49.4618848 61.3162962 66.7979402 44.1918249 49.4618848"></polygon>
            <polygon id="Fill-6" fill="#009169" points="53.2828205 49.4618587 61.3163136 49.4618587 61.3163136 66.7979141 44.1918423 49.4618587"></polygon>
            <g id="Group-35" transform="translate(0.000000, 0.061770)">
                <path d="M57.0879657,49.4000887 C57.0879657,49.4000887 58.3565127,48.9774427 59.6250597,47.7088087 C60.8936067,46.4402616 61.3163397,45.1719756 61.3163397,45.1719756 C61.3163397,45.1719756 61.7918818,46.4931576 63.0075328,47.7088087 C64.2232708,48.9244597 65.5446268,49.4000887 65.5446268,49.4000887 C65.5446268,49.4000887 64.2760798,49.7205097 63.0075328,51.0912817 C61.7389858,52.4626628 61.3163397,53.6284628 61.3163397,53.6284628 C61.3163397,53.6284628 61.1047557,52.7825618 59.8367307,51.3029527 C58.5681837,49.8232567 57.0879657,49.4000887 57.0879657,49.4000887" id="Fill-7" fill="#FEFEFE"></path>
                <path d="M61.3162962,42.2153241 L54.1321841,49.3996972 L61.3162962,56.5842444 L68.5004084,49.3996972 L61.3162962,42.2153241 Z M61.3162962,37.98086 L72.7353075,49.3996972 L61.3162962,60.8185344 L49.897285,49.3996972 L61.3162962,37.98086 Z" id="Fill-9" fill="#090204"></path>
                <polygon id="Fill-11" fill="#72C05D" points="17.1245061 32.0644075 34.2489775 49.4001148 17.1245061 66.7361702 0.000121800002 49.4001148"></polygon>
                <polygon id="Fill-13" fill="#26B574" points="17.1245061 49.4000887 34.2489775 49.4000887 17.1245061 66.7361441 3.48000007e-05 49.4000887"></polygon>
                <polygon id="Fill-15" fill="#34B677" points="17.1245061 32.0644075 17.1245061 49.4001148 17.1245061 66.7361702 0.000121800002 49.4001148"></polygon>
                <polygon id="Fill-17" fill="#009169" points="9.09072589 49.4000887 17.12448 49.4000887 17.12448 66.7361441 8.70000018e-06 49.4000887"></polygon>
                <path d="M12.8961234,49.4000887 C12.8961234,49.4000887 14.1646704,48.9774427 15.4331304,47.7088087 C16.7018514,46.4402616 17.1244974,45.1719756 17.1244974,45.1719756 C17.1244974,45.1719756 17.6000395,46.4931576 18.8157775,47.7088087 C20.0314285,48.9244597 21.3528715,49.4000887 21.3528715,49.4000887 C21.3528715,49.4000887 20.0843245,49.7205097 18.8157775,51.0912817 C17.5471435,52.4626628 17.1244974,53.6284628 17.1244974,53.6284628 C17.1244974,53.6284628 16.9129134,52.7825618 15.6445404,51.3029527 C14.3760804,49.8232567 12.8961234,49.4000887 12.8961234,49.4000887" id="Fill-19" fill="#FEFEFE"></path>
                <path d="M17.1245061,42.2153241 L9.940133,49.3996972 L17.1245061,56.5842444 L24.3086183,49.3996972 L17.1245061,42.2153241 Z M17.1245061,37.98086 L28.5434304,49.3996972 L17.1245061,60.8185344 L5.70566892,49.3996972 L17.1245061,37.98086 Z" id="Fill-21" fill="#090204"></path>
                <polygon id="Fill-23" fill="#72C05D" points="39.4968872 0.0252474005 61.8686767 22.6736099 39.4968872 45.3219723 17.1244887 22.6736099"></polygon>
                <polygon id="Fill-25" fill="#26B574" points="39.4963739 22.6735838 61.8686854 22.6735838 39.4963739 45.3219462 17.1244974 22.6735838"></polygon>
                <polygon id="Fill-27" fill="#34B677" points="39.4968872 0.0252474005 39.4968872 22.6736099 39.4968872 45.3219723 17.1244887 22.6736099"></polygon>
                <polygon id="Fill-29" fill="#009169" points="29.0011113 22.6735838 39.4963565 22.6735838 39.4963565 45.3219462 17.12448 22.6735838"></polygon>
                <path d="M33.9725089,22.6735838 C33.9725089,22.6735838 35.6298589,22.1212208 37.287122,20.4640447 C38.944385,18.8067817 39.4964,17.1496056 39.4964,17.1496056 C39.4964,17.1496056 40.118189,18.8759467 41.7061131,20.4640447 C43.2940371,22.0520557 45.0207261,22.6735838 45.0207261,22.6735838 C45.0207261,22.6735838 43.3634631,23.0919668 41.7061131,24.8831228 C40.048763,26.6744528 39.4964,28.1975619 39.4964,28.1975619 C39.4964,28.1975619 39.220436,27.0928359 37.563086,25.1594348 C35.9058229,23.2260338 33.9725089,22.6735838 33.9725089,22.6735838" id="Fill-31" fill="#FEFEFE"></path>
                <path d="M39.4963739,12.6380379 L29.4617067,22.6728791 L39.4963739,32.7077203 L49.5310411,22.6728791 L39.4963739,12.6380379 Z M39.4963739,8.40357377 L53.7659402,22.6728791 L39.4963739,36.9421844 L25.2268946,22.6728791 L39.4963739,8.40357377 Z" id="Fill-33" fill="#090204"></path>
            </g>
        </g>
    </g>
</svg>