<svg width="120" height="120" viewBox="0 0 120 120" fill="none" xmlns="http://www.w3.org/2000/svg">
<path d="M70.0152 71.4068C68.8497 72.4516 68.644 74.1931 69.6724 75.4469C70.7009 76.6311 72.4149 76.8401 73.649 75.7952C78.3798 71.8247 81.0537 65.9735 81.0537 59.7739C81.0537 48.2804 71.8664 38.9463 60.5537 38.9463C49.241 38.9463 40.0537 48.2804 40.0537 59.7739C40.0537 66.1128 42.8647 72.0337 47.7326 76.0042C48.9668 76.9794 50.6808 76.7704 51.7092 75.5862C52.6691 74.3324 52.4634 72.591 51.2979 71.5461C40.2594 62.6996 46.43 44.6582 60.4852 44.6582C74.4032 44.6582 80.6423 62.4209 70.0152 71.4068Z" fill="#00269A"/>
<path d="M78.6299 84.9562C86.1472 79.2585 91.0269 69.9474 91.0269 59.5247C91.0269 57.9265 89.84 56.6758 88.3233 56.6758C86.8066 56.6758 85.6197 57.9265 85.6197 59.5247C85.6197 68.1408 81.5973 75.7147 75.5307 80.3702C74.3437 81.2735 74.014 83.0801 74.9372 84.3309C75.7285 85.5816 77.377 85.8595 78.6299 84.9562Z" fill="#00269A"/>
<path d="M48.7243 20.709C47.219 21.1166 46.3979 22.6791 46.8084 24.1736C47.219 25.6681 48.7927 26.4833 50.2981 26.0757C72.8096 19.4183 95.3895 36.1978 95.3895 59.431C95.3895 60.9934 96.6212 62.2162 98.1949 62.2162C99.7687 62.2162 101 60.9934 101 59.431C101.069 32.5294 74.8623 12.9646 48.7243 20.709Z" fill="#00269A"/>
<path d="M80.0008 35.9618C59.6866 19.5317 28.9727 33.8995 28.9727 60.0226C28.9727 77.1402 42.9777 91.0267 60.2412 91.0267C61.8359 91.0267 63.0838 89.7893 63.0838 88.2082C63.0838 86.627 61.8359 85.3896 60.2412 85.3896C46.0976 85.3896 34.6579 73.9779 34.6579 60.0226C34.6579 38.6429 59.8252 26.9562 76.3955 40.3615C77.6435 41.3239 79.3768 41.1865 80.4168 39.949C81.3874 38.7116 81.2487 36.9243 80.0008 35.9618Z" fill="#00269A"/>
<path d="M21.8319 57.7842C20.2433 57.7842 19 59.0034 19 60.5614C19 82.8469 37.5107 101 60.2346 101C69.9044 101 79.2979 97.6813 86.6883 91.585C87.8625 90.5689 88.0697 88.8755 87.0337 87.6562C85.9976 86.5047 84.2709 86.3015 83.0276 87.3175C76.6732 92.5333 68.523 95.446 60.1655 95.446C40.5497 95.446 24.5946 79.7987 24.5946 60.5614C24.6637 59.0034 23.4205 57.7842 21.8319 57.7842Z" fill="#00269A"/>
</svg>
