<svg xmlns="http://www.w3.org/2000/svg" width="100" height="62.441" viewBox="0 0 26.458 16.521"><g fill-rule="nonzero" fill="none" stroke-width=".665"><path d="M14.653 1.612c-.116-.122-.215-.114-.312-.114H8.136c-.723 0-1.376.235-1.984.602-1.214.734-2.033 1.75-2.439 3.143-.619 2.122-1.306 4.224-2 6.323-.662 2 .574 3.599 2.526 3.46 1.049-.073 2.107-.007 3.16-.016.328-.003.653-.007.981-.104 1.692-.5 2.74-1.652 3.303-3.269.414-1.19.774-2.4 1.137-3.606.138-.46.334-.905.4-1.38-.2-.13-.4-.071-.588-.072-1.034-.007-2.068-.011-3.102 0-.366.005-.797-.144-1.083.074-.281.214-.275.661-.388 1.009-.237.733-.465 1.47-.704 2.226.574.119 1.119-.034 1.66.109-.16.505-.315.964-.45 1.428-.048.168-.098.282-.3.28-1.03-.004-2.06-.002-3.16-.002.222-.712.421-1.357.624-2 .466-1.48.933-2.96 1.401-4.439.145-.455.148-.455.643-.457.449-.002.898 0 1.346 0 1.386 0 2.771.003 4.156-.005.154 0 .347.084.427-.177.31-1.017.639-2.028.951-3.013m1.918 13.385c.76.01 1.544.133 2.276-.048 1.9-.468 3.258-1.607 3.876-3.51.658-2.028 1.29-4.065 1.927-6.1.161-.517.298-1.033.324-1.589.07-1.542-1.227-2.505-2.444-2.474-1.13.03-2.262.005-3.393.008-.213 0-.425.001-.637.057-1.93.513-3.253 1.679-3.876 3.596-.263.81-.516 1.625-.768 2.44-.454 1.462-.936 2.917-1.347 4.392-.536 1.929.788 3.277 2.308 3.231.585-.017 1.17-.003 1.754-.003M2.658 3.731C3.55 1.985 4.912.791 6.793.19c.192-.06.438.022.58-.189H23.18c.035.086.114.085.189.102 1.52.346 2.49 1.27 2.917 2.77.08.281.029.586.171.853-.071.75-.191 1.488-.441 2.209-.316.912-.554 1.85-.857 2.768-.46 1.392-.807 2.822-1.373 4.18-.882 1.565-2.13 2.708-3.84 3.314a5.396 5.396 0 0 1-1.827.318c-4.738-.006-9.475-.022-14.213.007-1.662.01-3.554-1.148-3.816-3.236-.017-.135-.06-.266-.091-.398.022-.92.285-1.785.568-2.652.707-2.165 1.326-4.357 2.09-6.504" fill="#000"/><path d="M21.321 4.826c-.918 0-1.754-.002-2.589 0-.538.003-.536.006-.69.5-.345 1.109-.696 2.216-1.04 3.326-.31.997-.614 1.996-.938 3.052.692 0 1.332.008 1.972-.003.367-.006.798.138 1.085-.064.287-.203.275-.66.385-1.008.602-1.9 1.19-3.802 1.815-5.803m-4.75 10.171c-.584 0-1.17-.014-1.754.003-1.52.046-2.844-1.302-2.307-3.231.41-1.475.892-2.93 1.346-4.393.252-.814.505-1.628.768-2.44.623-1.916 1.945-3.082 3.876-3.594.212-.057.424-.057.637-.058 1.131-.003 2.263.022 3.393-.007 1.217-.032 2.514.93 2.444 2.473-.026.556-.163 1.072-.325 1.589-.636 2.035-1.268 4.072-1.926 6.1-.618 1.903-1.977 3.042-3.876 3.51-.732.18-1.515.058-2.276.048M14.653 1.612c-.312.985-.64 1.996-.951 3.013-.08.261-.273.176-.427.177-1.385.008-2.77.004-4.156.004l-1.346.001c-.495.002-.498.002-.643.457-.468 1.48-.935 2.959-1.401 4.439-.203.643-.402 1.288-.623 2 1.098 0 2.129-.002 3.16.003.201 0 .251-.113.3-.28.134-.465.288-.924.45-1.43-.542-.142-1.087.011-1.661-.108.239-.757.467-1.493.704-2.226.113-.348.107-.795.388-1.009.286-.218.717-.07 1.083-.073 1.034-.012 2.068-.008 3.102-.001.189 0 .388-.058.589.071-.067.476-.263.922-.4 1.38-.364 1.208-.724 2.417-1.138 3.607-.564 1.617-1.611 2.77-3.303 3.27-.328.096-.653.1-.98.103-1.054.01-2.112-.057-3.16.017-1.953.138-3.189-1.461-2.527-3.461.694-2.099 1.381-4.201 2-6.323.406-1.392 1.225-2.41 2.44-3.143.607-.367 1.26-.602 1.983-.602h6.205c.097 0 .196-.008.312.114" fill="#e62727"/><path d="M21.321 4.826c-.624 2-1.213 3.904-1.815 5.803-.11.347-.098.805-.385 1.008-.287.202-.718.058-1.085.064-.64.011-1.28.003-1.972.003.324-1.056.628-2.055.938-3.052.344-1.11.695-2.217 1.04-3.326.154-.494.152-.497.69-.5.835-.002 1.67 0 2.589 0" fill="#000"/></g></svg>