<svg xmlns="http://www.w3.org/2000/svg" width="100" height="100" viewBox="0 0 26.4583 26.4583" id="svg8"><defs id="defs2"><linearGradient id="linearGradient-1" y2="-.015" x2="31.4456" y1="62.982" x1="31.4456" gradientTransform="matrix(.8524 0 0 .62942 17.2866 17.6833)" gradientUnits="userSpaceOnUse"><stop id="stop1177" offset="0%" stop-color="#725826"/><stop id="stop1179" offset="21.41%" stop-color="#D4C879"/><stop id="stop1181" offset="38.83%" stop-color="#CCB853"/><stop id="stop1183" offset="50.35%" stop-color="#684E21"/><stop id="stop1185" offset="69.2%" stop-color="#F6F09A"/><stop id="stop1187" offset="83.66%" stop-color="#AC9541"/><stop id="stop1189" offset="100%" stop-color="#684E21"/></linearGradient><linearGradient id="linearGradient-2" y2="31.4835" x2="63.2368" y1="31.4835" x1="-.3457" gradientTransform="matrix(.8524 0 0 .62942 17.2866 17.6833)" gradientUnits="userSpaceOnUse"><stop id="stop1192" offset="0%" stop-color="#89702B"/><stop id="stop1194" offset="20.03%" stop-color="#E6D54E"/><stop id="stop1196" offset="24.61%" stop-color="#D9CE7D"/><stop id="stop1198" offset="44.89%" stop-color="#725826"/><stop id="stop1200" offset="66.29%" stop-color="#F4EA59"/><stop id="stop1202" offset="70.59%" stop-color="#F7F09B"/><stop id="stop1204" offset="99.96%" stop-color="#684E21"/></linearGradient><linearGradient id="linearGradient-3" y2="33.5008" x2="36.3947" y1="8.8401" x1="36.3947" gradientTransform="matrix(.54423 0 0 .98582 17.2866 17.6833)" gradientUnits="userSpaceOnUse"><stop id="stop1207" offset="0%" stop-color="#725826"/><stop id="stop1209" offset="27.92%" stop-color="#ECE37F"/><stop id="stop1211" offset="59.72%" stop-color="#F6EF88"/><stop id="stop1213" offset="100%" stop-color="#684E21"/></linearGradient><linearGradient id="linearGradient-1-9" y2="91.9%" x2="23.1106%" y1="8.1562%" x1="76.9456%"><stop id="stop1342" offset="0%" stop-color="#31B7E6"/><stop id="stop1344" offset="100%" stop-color="#21E31B"/></linearGradient><style id="style1579">.a{fill:none}</style><clipPath transform="translate(8.62 4.16)" id="a"><path id="path1581" d="M74.56 17.85C65.84 4.24 44.17 3.69 39.8 3.72c-4.21 0-25.9.43-34.67 14.1-11.47 17.89 5.71 47.86 32.67 58.44a13.38 13.38 0 0 0 1.85.24h.85a9.6 9.6 0 0 0 1.19-.16C68.72 66.15 86 35.74 74.56 17.85zm-34.08 36.2A16.54 16.54 0 1 1 57 37.51a16.53 16.53 0 0 1-16.52 16.54z" class="a"/></clipPath><clipPath transform="translate(8.62 4.16)" id="b"><path id="path1584" d="M54.94 26.83C45.59 7.94 28.86 7.33 24.29 7.13A20.33 20.33 0 0 0 16 8.56c-5.39 2.69-11 6.72-13.64 15.63s4.18 26.36 18.3 33.08 28.23-2 33.81-10.88.47-19.56.47-19.56zm-14.46 27A16.54 16.54 0 1 1 57 37.31a16.54 16.54 0 0 1-16.52 16.54z" class="a"/></clipPath><clipPath transform="translate(8.62 4.16)" id="c"><path id="path1587" d="M57.11 37.32V39.12c0 .24-.07.49-.11.76s-.07.58-.14.89-.15.64-.24 1a17.8 17.8 0 0 1-2 4.74 18.14 18.14 0 0 1-4.58 4.95 17.55 17.55 0 0 1-7.47 3.1 10 10 0 0 1-1.1.13H40.2a18.08 18.08 0 0 1-6.91-1.21l-1.13-.49c-.38-.17-.73-.39-1.1-.58l-.55-.31c-.18-.11-.35-.23-.52-.35-.35-.24-.71-.47-1-.73a19.42 19.42 0 0 1-3.54-3.75 17.87 17.87 0 0 1-2.33-4.74 19.65 19.65 0 0 1-.82-5.28l.07-1.3c0-.21 0-.39.05-.63l.11-.69.11-.69.06-.35.08-.32.3-1.27c.13-.43.3-.84.45-1.25.08-.21.15-.42.24-.62l.3-.6.3-.59a4 4 0 0 1 .33-.57c.23-.37.47-.74.71-1.11A18.85 18.85 0 0 1 29 23.55c.34-.26.7-.49 1-.73l.52-.35.55-.3c.37-.2.73-.42 1.1-.59l1.14-.49A17.08 17.08 0 0 1 37.93 20a16.22 16.22 0 0 1 2.3-.1H40.82l.53.05c.36 0 .69.05 1.06.12l1.1.21c.18 0 .36.07.53.12l.51.15 1 .31.95.39a17.48 17.48 0 0 1 10 11.61c.08.35.17.67.24 1s.1.61.14.89.08.53.11.76 0 .45 0 .64v1.17zm-.19 0s0-.4-.06-1.16v-.63c0-.23-.07-.48-.12-.75s-.07-.56-.14-.87-.16-.63-.25-1a16.08 16.08 0 0 0-2.09-4.61A16.37 16.37 0 0 0 42.35 21a9.1 9.1 0 0 0-1.05 0h-1.06a15.6 15.6 0 0 0-2.14.19 16 16 0 0 0-4.25 1.22l-1 .5c-.34.17-.66.39-1 .58l-.49.3-.46.34c-.3.24-.62.46-.92.71a18 18 0 0 0-3.12 3.49 17.86 17.86 0 0 0-2 4.31 18.41 18.41 0 0 0-.69 4.74 18.41 18.41 0 0 0 .69 4.74 17.69 17.69 0 0 0 2 4.31A18.3 18.3 0 0 0 30 49.86c.3.25.62.46.92.7l.46.34.49.3c.33.2.65.42 1 .59l1 .49a16 16 0 0 0 4.25 1.23 15.46 15.46 0 0 0 2.15.18h1.05c.35 0 .7 0 1-.06a16.37 16.37 0 0 0 11.88-7.29 16.24 16.24 0 0 0 2.09-4.62l.25-1c.07-.3.1-.6.14-.87s.08-.52.12-.75 0-.44 0-.63c0-.76.07-1.16.07-1.16z" class="a"/></clipPath><linearGradient gradientUnits="userSpaceOnUse" y2="7.41" x2="14.7" y1="65.66" x1="70.32" id="d" gradientTransform="matrix(.84988 0 0 .84988 13.5881 5.9685)"><stop id="stop1590" stop-color="#841919" offset=".09"/><stop id="stop1592" stop-opacity=".86" stop-color="#8c1c1c" offset=".14"/><stop id="stop1594" stop-opacity=".6" stop-color="#9c2221" offset=".25"/><stop id="stop1596" stop-opacity=".38" stop-color="#a92725" offset=".37"/><stop id="stop1598" stop-opacity=".21" stop-color="#b32b28" offset=".49"/><stop id="stop1600" stop-opacity=".09" stop-color="#ba2e2a" offset=".63"/><stop id="stop1602" stop-opacity=".02" stop-color="#be2f2c" offset=".78"/><stop id="stop1604" stop-opacity="0" stop-color="#bf302c" offset="1"/></linearGradient><clipPath transform="translate(8.62 4.16)" id="e"><path id="path1607" d="M74.56 17.85C67.2 6.37 50.64 4.08 43 3.8a65.64 65.64 0 0 0-10.6.33h-.16c3.33-.19 25-.94 36.38 9.89C81 25.81 76.61 41.21 70 52.56a57.85 57.85 0 0 1-24.49 22.17c24.81-11.47 39.98-39.84 29.05-56.88z" fill="#cf433d"/></clipPath><radialGradient gradientUnits="userSpaceOnUse" r="32.51" fx="62.6367" cy="18.01" cx="74.72" id="f" gradientTransform="matrix(.84988 0 0 .84988 13.5881 5.9685)"><stop id="stop1610" stop-color="#ed8683" offset=".31"/><stop id="stop1612" stop-opacity=".97" stop-color="#ed8784" offset=".32"/><stop id="stop1614" stop-opacity=".77" stop-color="#ee8a87" offset=".35"/><stop id="stop1616" stop-opacity=".58" stop-color="#ee8d8a" offset=".39"/><stop id="stop1618" stop-opacity=".43" stop-color="#ef908c" offset=".43"/><stop id="stop1620" stop-opacity=".29" stop-color="#ef928e" offset=".48"/><stop id="stop1622" stop-opacity=".19" stop-color="#ef9490" offset=".53"/><stop id="stop1624" stop-opacity=".1" stop-color="#f09591" offset=".58"/><stop id="stop1626" stop-opacity=".04" stop-color="#f09692" offset=".64"/><stop id="stop1628" stop-opacity=".01" stop-color="#f09793" offset=".72"/><stop id="stop1630" stop-opacity="0" stop-color="#f09793" offset=".85"/></radialGradient><linearGradient id="linearGradient-1-2" y2=".2817" x2="19.2939" y1="37.9895" x1="19.2939" gradientTransform="matrix(.58855 0 0 .74112 11.0218 -1.3322)" gradientUnits="userSpaceOnUse"><stop id="stop3329" offset="24%" stop-color="#FFCC04"/><stop id="stop3331" offset="38%" stop-color="#F7C414"/><stop id="stop3333" offset="100%" stop-color="#D9AB28"/></linearGradient><linearGradient id="linearGradient-2-0" y2="59.6616" x2="36.8398" y1="38.8399" x1="36.8398" gradientTransform="matrix(.92897 0 0 .46954 11.0218 -1.3322)" gradientUnits="userSpaceOnUse"><stop id="stop3336" offset="24%" stop-color="#FFCC04"/><stop id="stop3338" offset="38%" stop-color="#F7C414"/><stop id="stop3340" offset="100%" stop-color="#D9AB28"/></linearGradient><linearGradient id="linearGradient-3-9" y2=".0722" x2="54.9763" y1="14.2211" x1="54.9763" gradientTransform="matrix(.51264 0 0 .85086 11.0218 -1.3322)" gradientUnits="userSpaceOnUse"><stop id="stop3343" offset="24%" stop-color="#FFCC04"/><stop id="stop3345" offset="38%" stop-color="#F7C414"/><stop id="stop3347" offset="100%" stop-color="#D9AB28"/></linearGradient></defs><g id="layer1" transform="translate(0 -270.5417)"><g id="platipus-color" transform="matrix(.33073 0 0 .33073 -6.6146 263.927)" fill="none" fill-rule="evenodd" stroke-width=".8"><g transform="translate(25 20)" id="platipus"><path id="Rounded_Rectangle_1" d="M7.9642 9.6h50.8859L70 0 70 72c.0037 4.4142-3.5618 7.9958-7.9642 8H7.9642a7.9605 7.9605 0 0 1-5.6345-2.3461A8.0038 8.0038 0 0 1 0 72V17.6a8.0038 8.0038 0 0 1 2.3297-5.6539A7.9605 7.9605 0 0 1 7.9642 9.6z" fill="#002e5b"/><path id="path3386" d="M37.9799 52.856a5.7725 5.7725 0 0 0 1.9193-1.8536 7.6665 7.6665 0 0 0 1.0365-2.666c.2026-1.0201.3042-2.0577.3033-3.0978a14.6817 14.6817 0 0 0-.3285-3.0977 8.289 8.289 0 0 0-1.0869-2.717 6.0851 6.0851 0 0 0-1.9464-1.9298 5.4222 5.4222 0 0 0-2.907-.7363 5.5205 5.5205 0 0 0-2.9572.7363 5.9122 5.9122 0 0 0-1.9194 1.9045 7.9192 7.9192 0 0 0-1.0364 2.6913 16.0875 16.0875 0 0 0-.3034 3.1483 14.6183 14.6183 0 0 0 .3286 3.0978 8.0162 8.0162 0 0 0 1.0616 2.666c1.7812 2.4971 5.1293 3.2893 7.8359 1.854zm-9.3273-20.8204v3.3517h.1012a7.9081 7.9081 0 0 1 3.3367-3.0978 10.2029 10.2029 0 0 1 4.4487-.9649 11.2845 11.2845 0 0 1 5.3065 1.1698 10.9923 10.9923 0 0 1 3.6904 3.0978 13.131 13.131 0 0 1 2.1738 4.494 20.0632 20.0632 0 0 1 .7075 5.3584 18.128 18.128 0 0 1-.7075 5.0781 12.957 12.957 0 0 1-2.1486 4.3167 10.6474 10.6474 0 0 1-3.5892 2.9958 10.7645 10.7645 0 0 1-5.0302 1.1174 10.1407 10.1407 0 0 1-4.474-.9902 8.4744 8.4744 0 0 1-3.3618-2.92h-.0998v12.4415H21.828V32.0356z" fill="#fde428" fill-rule="nonzero"/></g></g></g><style id="style1088"></style><style id="style3155"></style></svg>