<svg xmlns="http://www.w3.org/2000/svg" width="100" height="62.992" viewBox="0 0 26.458 16.667"><g transform="matrix(.40643 0 0 .40643 -3.373 -8.21)" stroke-width=".651"><linearGradient gradientTransform="translate(-428.062 -306.538) scale(.03255)" y2="10280.11" x2="13958.725" y1="11058.634" x1="13958.725" gradientUnits="userSpaceOnUse" id="a"><stop offset="0" stop-color="#dfdcdc"/><stop offset="1" stop-color="#fff"/></linearGradient><path d="M9.3 22.3h7.5c3-.1 5.9.2 8.7 1.1 1.8.7 3.2 2 4.2 3.6 1.1 1.8 1.6 3.9 1.5 6 .1 2.3-.6 4.6-2 6.4-1.4 1.7-3.3 3-5.5 3.6-2.4.5-4.9.7-7.4.6v15.5h-7zm7.1 14.4h2.2c1.2.1 2.5-.1 3.7-.4.7-.2 1.2-.7 1.6-1.2.4-.6.6-1.4.6-2.1.1-1.3-.5-2.5-1.7-3.1-1.4-.6-3-.9-4.5-.7h-2z" fill="url(#a)"/><path d="M16.8 22.3c3-.1 5.9.2 8.7 1.1 1.8.7 3.2 2 4.2 3.6 1.1 1.8 1.6 3.9 1.5 6 .1 2.3-.6 4.6-2 6.4-1.4 1.7-3.3 3-5.5 3.6-2.4.5-4.9.7-7.4.6v15.5h-7V22.3h7.5m-.4 14.4h2.2c1.2.1 2.5-.1 3.7-.4.7-.2 1.2-.7 1.6-1.2.4-.6.6-1.4.6-2.1.1-1.3-.5-2.5-1.7-3.1-1.4-.6-3-.9-4.5-.7h-2l.1 7.5m.3-15.4H8.3v39.1h9.1V44.8c2.2.1 4.5-.2 6.7-.6 2.4-.6 4.5-2 6-3.9 1.5-2 2.3-4.5 2.3-7.1.1-2.3-.5-4.6-1.7-6.6-1.1-1.8-2.7-3.2-4.7-4-2.9-1-6-1.4-9.1-1.2zm.6 8.9h1c1.3-.1 2.7.1 3.9.6.8.5 1.3 1.3 1.2 2.3 0 .5-.1 1.1-.4 1.5-.3.4-.7.7-1.1.9-1.1.3-2.2.4-3.3.3h-1.2z"/><linearGradient gradientTransform="translate(-428.062 -306.538) scale(.03255)" y2="10280.11" x2="14616.644" y1="11058.634" x1="14616.644" gradientUnits="userSpaceOnUse" id="b"><stop offset="0" stop-color="#d02627"/><stop offset=".99" stop-color="#ed2a24"/></linearGradient><path d="M69.8 28.3l-5.2 5.2c-2.7-3.2-6.8-5.1-11-5.2-3.4-.1-6.7 1.2-9.1 3.6-2.4 2.3-3.6 5.6-3.5 8.9-.1 3.4 1.3 6.7 3.8 9.1 2.5 2.5 5.9 3.8 9.4 3.7 2.2.1 4.3-.5 6.1-1.5 1.8-1.2 3.2-2.8 4-4.8H53.7v-6.7h18.6V42c.1 3.2-.7 6.3-2.2 9-1.5 2.8-3.8 5.1-6.5 6.7-2.9 1.6-6.1 2.4-9.4 2.3-3.6.1-7.2-.8-10.3-2.5-3-1.6-5.6-4-7.3-7-1.7-3-2.6-6.4-2.6-9.8-.1-4.7 1.7-9.3 4.9-12.8 3.8-4.3 9.3-6.6 15-6.4 3.1 0 6.2.6 9 1.8 2.6 1.2 4.9 2.9 6.9 5z" fill="url(#b)"/><path d="M53.8 21.3c3.1 0 6.2.6 9 1.8 2.7 1.2 5 3 7 5.2l-5.2 5.2c-2.7-3.2-6.8-5.1-11-5.2-3.4-.1-6.7 1.2-9.1 3.6-2.4 2.3-3.6 5.6-3.5 8.9-.1 3.4 1.3 6.7 3.8 9.1 2.5 2.5 5.9 3.8 9.4 3.7 2.2.1 4.3-.5 6.1-1.5 1.8-1.2 3.2-2.8 4-4.8H53.7v-6.7h18.6V42c.1 3.2-.7 6.3-2.2 9-1.5 2.8-3.8 5.1-6.5 6.7-2.9 1.6-6.1 2.4-9.4 2.3-3.6.1-7.2-.8-10.3-2.5-3-1.6-5.6-4-7.3-7-1.7-3-2.6-6.4-2.6-9.8-.1-4.7 1.7-9.3 4.9-12.8 3.8-4.3 9.3-6.6 15-6.4m-.1-1c-6-.2-11.8 2.3-15.7 6.8-3.4 3.7-5.2 8.5-5.2 13.5 0 3.6 1 7.2 2.8 10.3 1.8 3.2 4.4 5.8 7.5 7.5 3.3 1.8 7 2.7 10.8 2.6 3.5.1 6.9-.8 9.9-2.4 2.9-1.7 5.3-4.1 6.9-7 1.7-2.9 2.6-6.3 2.6-9.7v-2.6H52.8v8.7h10c-.8 1.2-1.8 2.2-3 2.9-1.7 1-3.7 1.5-5.6 1.4-3.2.1-6.4-1.1-8.7-3.4-2.3-2.2-3.5-5.2-3.5-8.3-.1-3 1.2-6 3.4-8 2.2-2.2 5.3-3.4 8.4-3.3 4 0 7.7 1.7 10.3 4.6l.7.8.8-.7 5.2-5.2.7-.7-.7-.7c-2-2.3-4.5-4.1-7.3-5.4-3.1-1.3-6.4-2-9.8-2z"/></g></svg>