<svg xmlns="http://www.w3.org/2000/svg" width="99.432" height="49.178" viewBox="0 0 26.308 13.012"><g fill="#fff" fill-rule="nonzero" stroke-width=".71"><g transform="matrix(.37257 0 0 .37257 12.648 0)"><ellipse ry="5.089" rx="5.093" cy="5.089" cx="5.093"/><path d="M36.664 5.09a5.09 5.09 0 0 1-3.11 4.735 5.096 5.096 0 0 1-5.567-1.073A5.086 5.086 0 0 1 26.862 3.2a5.093 5.093 0 0 1 4.71-3.153 5.091 5.091 0 0 1 5.092 5.042z"/><ellipse ry="5.089" rx="5.093" cy="29.835" cx="5.093"/><path d="M36.664 29.835c0 2.81-2.28 5.09-5.093 5.09a5.091 5.091 0 0 1-5.093-5.09c0-2.81 2.28-5.09 5.093-5.09a5.091 5.091 0 0 1 5.093 5.09zM23.42 17.453a5.09 5.09 0 0 1-3.168 4.692c-1.91.78-4.1.33-5.55-1.136a5.086 5.086 0 0 1-1.064-5.56 5.093 5.093 0 0 1 4.737-3.104 5.091 5.091 0 0 1 5.046 5.108z"/></g><path d="M11.544 12.55L8.56 7.496c1.534-.324 2.6-1.388 2.6-3.697C11.165.722 9.116 0 6.527 0H.247A.247.247 0 0 0 0 .247V12.62c0 .136.11.246.247.246h2.215c.136 0 .247-.11.247-.246V7.778H5.85l2.765 4.91c.07.128.207.206.353.2h2.413a.212.212 0 0 0 .208-.208.233.233 0 0 0-.046-.13zM6.546 5.537H2.71v-3.24h3.837c1.44 0 1.876.706 1.876 1.594 0 .888-.437 1.646-1.876 1.646z"/></g></svg>