<svg xmlns="http://www.w3.org/2000/svg" width="100" height="68.4931" viewBox="0 0 26.4583 18.1221" id="svg8"><defs id="defs2"><linearGradient id="linearGradient-1" y2="-.015" x2="31.4456" y1="62.982" x1="31.4456" gradientTransform="matrix(.8524 0 0 .62942 17.2866 17.6833)" gradientUnits="userSpaceOnUse"><stop id="stop1177" offset="0%" stop-color="#725826"/><stop id="stop1179" offset="21.41%" stop-color="#D4C879"/><stop id="stop1181" offset="38.83%" stop-color="#CCB853"/><stop id="stop1183" offset="50.35%" stop-color="#684E21"/><stop id="stop1185" offset="69.2%" stop-color="#F6F09A"/><stop id="stop1187" offset="83.66%" stop-color="#AC9541"/><stop id="stop1189" offset="100%" stop-color="#684E21"/></linearGradient><linearGradient id="linearGradient-2" y2="31.4835" x2="63.2368" y1="31.4835" x1="-.3457" gradientTransform="matrix(.8524 0 0 .62942 17.2866 17.6833)" gradientUnits="userSpaceOnUse"><stop id="stop1192" offset="0%" stop-color="#89702B"/><stop id="stop1194" offset="20.03%" stop-color="#E6D54E"/><stop id="stop1196" offset="24.61%" stop-color="#D9CE7D"/><stop id="stop1198" offset="44.89%" stop-color="#725826"/><stop id="stop1200" offset="66.29%" stop-color="#F4EA59"/><stop id="stop1202" offset="70.59%" stop-color="#F7F09B"/><stop id="stop1204" offset="99.96%" stop-color="#684E21"/></linearGradient><linearGradient id="linearGradient-3" y2="33.5008" x2="36.3947" y1="8.8401" x1="36.3947" gradientTransform="matrix(.54423 0 0 .98582 17.2866 17.6833)" gradientUnits="userSpaceOnUse"><stop id="stop1207" offset="0%" stop-color="#725826"/><stop id="stop1209" offset="27.92%" stop-color="#ECE37F"/><stop id="stop1211" offset="59.72%" stop-color="#F6EF88"/><stop id="stop1213" offset="100%" stop-color="#684E21"/></linearGradient><linearGradient id="linearGradient-1-9" y2=".919" x2=".2311" y1=".0816" x1=".7695"><stop id="stop1342" offset="0%" stop-color="#31B7E6"/><stop id="stop1344" offset="100%" stop-color="#21E31B"/></linearGradient><style id="style1579">.a{fill:none}</style><clipPath transform="translate(8.62 4.16)" id="a"><path id="path1581" d="M74.56 17.85C65.84 4.24 44.17 3.69 39.8 3.72c-4.21 0-25.9.43-34.67 14.1-11.47 17.89 5.71 47.86 32.67 58.44a13.38 13.38 0 0 0 1.85.24h.85a9.6 9.6 0 0 0 1.19-.16C68.72 66.15 86 35.74 74.56 17.85zm-34.08 36.2A16.54 16.54 0 1 1 57 37.51a16.53 16.53 0 0 1-16.52 16.54z" class="a"/></clipPath><clipPath transform="translate(8.62 4.16)" id="b"><path id="path1584" d="M54.94 26.83C45.59 7.94 28.86 7.33 24.29 7.13A20.33 20.33 0 0 0 16 8.56c-5.39 2.69-11 6.72-13.64 15.63-2.64 8.91 4.18 26.36 18.3 33.08 14.12 6.72 28.23-2 33.81-10.88 5.58-8.88.47-19.56.47-19.56zm-14.46 27A16.54 16.54 0 1 1 57 37.31a16.54 16.54 0 0 1-16.52 16.54z" class="a"/></clipPath><clipPath transform="translate(8.62 4.16)" id="c"><path id="path1587" d="M57.11 37.32V39.12c0 .24-.07.49-.11.76-.04.27-.07.58-.14.89-.07.31-.15.64-.24 1a17.8 17.8 0 0 1-2 4.74 18.14 18.14 0 0 1-4.58 4.95 17.55 17.55 0 0 1-7.47 3.1 10 10 0 0 1-1.1.13H40.2a18.08 18.08 0 0 1-6.91-1.21l-1.13-.49c-.38-.17-.73-.39-1.1-.58l-.55-.31c-.18-.11-.35-.23-.52-.35-.35-.24-.71-.47-1-.73a19.42 19.42 0 0 1-3.54-3.75 17.87 17.87 0 0 1-2.33-4.74 19.65 19.65 0 0 1-.82-5.28l.07-1.3c0-.21 0-.39.05-.63l.11-.69.11-.69.06-.35.08-.32.3-1.27c.13-.43.3-.84.45-1.25.08-.21.15-.42.24-.62l.3-.6.3-.59a4 4 0 0 1 .33-.57c.23-.37.47-.74.71-1.11A18.85 18.85 0 0 1 29 23.55c.34-.26.7-.49 1-.73l.52-.35.55-.3c.37-.2.73-.42 1.1-.59l1.14-.49A17.08 17.08 0 0 1 37.93 20a16.22 16.22 0 0 1 2.3-.1H40.82l.53.05c.36 0 .69.05 1.06.12l1.1.21c.18 0 .36.07.53.12l.51.15 1 .31.95.39a17.48 17.48 0 0 1 10 11.61c.08.35.17.67.24 1 .07.33.1.61.14.89.04.28.08.53.11.76.03.23 0 .45 0 .64v1.17zm-.19 0s0-.4-.06-1.16v-.63c0-.23-.07-.48-.12-.75-.05-.27-.07-.56-.14-.87-.07-.31-.16-.63-.25-1a16.08 16.08 0 0 0-2.09-4.61A16.37 16.37 0 0 0 42.35 21a9.1 9.1 0 0 0-1.05 0h-1.06a15.6 15.6 0 0 0-2.14.19 16 16 0 0 0-4.25 1.22l-1 .5c-.34.17-.66.39-1 .58l-.49.3-.46.34c-.3.24-.62.46-.92.71a18 18 0 0 0-3.12 3.49 17.86 17.86 0 0 0-2 4.31 18.41 18.41 0 0 0-.69 4.74 18.41 18.41 0 0 0 .69 4.74 17.69 17.69 0 0 0 2 4.31A18.3 18.3 0 0 0 30 49.86c.3.25.62.46.92.7l.46.34.49.3c.33.2.65.42 1 .59l1 .49a16 16 0 0 0 4.25 1.23 15.46 15.46 0 0 0 2.15.18h1.05c.35 0 .7 0 1-.06a16.37 16.37 0 0 0 11.88-7.29 16.24 16.24 0 0 0 2.09-4.62l.25-1c.07-.3.1-.6.14-.87.04-.27.08-.52.12-.75.04-.23 0-.44 0-.63 0-.76.07-1.16.07-1.16z" class="a"/></clipPath><linearGradient gradientUnits="userSpaceOnUse" y2="7.41" x2="14.7" y1="65.66" x1="70.32" id="d" gradientTransform="matrix(.84988 0 0 .84988 13.5881 5.9685)"><stop id="stop1590" stop-color="#841919" offset=".09"/><stop id="stop1592" stop-opacity=".86" stop-color="#8c1c1c" offset=".14"/><stop id="stop1594" stop-opacity=".6" stop-color="#9c2221" offset=".25"/><stop id="stop1596" stop-opacity=".38" stop-color="#a92725" offset=".37"/><stop id="stop1598" stop-opacity=".21" stop-color="#b32b28" offset=".49"/><stop id="stop1600" stop-opacity=".09" stop-color="#ba2e2a" offset=".63"/><stop id="stop1602" stop-opacity=".02" stop-color="#be2f2c" offset=".78"/><stop id="stop1604" stop-opacity="0" stop-color="#bf302c" offset="1"/></linearGradient><clipPath transform="translate(8.62 4.16)" id="e"><path id="path1607" d="M74.56 17.85C67.2 6.37 50.64 4.08 43 3.8a65.64 65.64 0 0 0-10.6.33h-.16c3.33-.19 25-.94 36.38 9.89C81 25.81 76.61 41.21 70 52.56a57.85 57.85 0 0 1-24.49 22.17c24.81-11.47 39.98-39.84 29.05-56.88z" fill="#cf433d"/></clipPath><radialGradient gradientUnits="userSpaceOnUse" r="32.51" fx="62.6367" cy="18.01" cx="74.72" id="f" gradientTransform="matrix(.84988 0 0 .84988 13.5881 5.9685)"><stop id="stop1610" stop-color="#ed8683" offset=".31"/><stop id="stop1612" stop-opacity=".97" stop-color="#ed8784" offset=".32"/><stop id="stop1614" stop-opacity=".77" stop-color="#ee8a87" offset=".35"/><stop id="stop1616" stop-opacity=".58" stop-color="#ee8d8a" offset=".39"/><stop id="stop1618" stop-opacity=".43" stop-color="#ef908c" offset=".43"/><stop id="stop1620" stop-opacity=".29" stop-color="#ef928e" offset=".48"/><stop id="stop1622" stop-opacity=".19" stop-color="#ef9490" offset=".53"/><stop id="stop1624" stop-opacity=".1" stop-color="#f09591" offset=".58"/><stop id="stop1626" stop-opacity=".04" stop-color="#f09692" offset=".64"/><stop id="stop1628" stop-opacity=".01" stop-color="#f09793" offset=".72"/><stop id="stop1630" stop-opacity="0" stop-color="#f09793" offset=".85"/></radialGradient><linearGradient id="linearGradient-1-2" y2=".2817" x2="19.2939" y1="37.9895" x1="19.2939" gradientTransform="matrix(.58855 0 0 .74112 11.0218 -1.3322)" gradientUnits="userSpaceOnUse"><stop id="stop3329" offset="24%" stop-color="#FFCC04"/><stop id="stop3331" offset="38%" stop-color="#F7C414"/><stop id="stop3333" offset="100%" stop-color="#D9AB28"/></linearGradient><linearGradient id="linearGradient-2-0" y2="59.6616" x2="36.8398" y1="38.8399" x1="36.8398" gradientTransform="matrix(.92897 0 0 .46954 11.0218 -1.3322)" gradientUnits="userSpaceOnUse"><stop id="stop3336" offset="24%" stop-color="#FFCC04"/><stop id="stop3338" offset="38%" stop-color="#F7C414"/><stop id="stop3340" offset="100%" stop-color="#D9AB28"/></linearGradient><linearGradient id="linearGradient-3-9" y2=".0722" x2="54.9763" y1="14.2211" x1="54.9763" gradientTransform="matrix(.51264 0 0 .85086 11.0218 -1.3322)" gradientUnits="userSpaceOnUse"><stop id="stop3343" offset="24%" stop-color="#FFCC04"/><stop id="stop3345" offset="38%" stop-color="#F7C414"/><stop id="stop3347" offset="100%" stop-color="#D9AB28"/></linearGradient></defs><g id="layer1" transform="translate(0 -274.7098)"><g id="Playtech-color-Copy" transform="matrix(.36244 0 0 .36244 -1.4498 268.9107)" fill="none" fill-rule="evenodd" stroke-width=".73"><path id="Shape-Copy-6" d="M68.9302 30.3265c-.0443-.1029-.071-.2058-.1152-.3131-2.7031-6.3527-12.9615-8.2808-24.7887-5.3685l-1.9409-1.1631c5.8227-2.4069 11.6233-3.6685 16.48-3.324 7.2496.5145 10.7946 4.4782 10.3648 10.1687zM58.4147 43.676c-7.573 9.274-21.31 15.6893-30.6157 15.0272-9.3058-.6621-10.7238-8.7371-3.1374-18.0066.1507-.1924.3146-.3758.4741-.5682V51.76c-.054 1.2413.5593 2.4156 1.6043 3.072a3.3799 3.3799 0 0 0 3.4386.0954l27.9082-16.329c.9731-.591 1.5597-1.6616 1.5387-2.8079-.021-1.1463-.6465-2.1941-1.6406-2.7484l-11.3042-6.2632a25.069 25.069 0 0 1 8.5923-1.1005c9.3057.6755 10.7192 8.7281 3.1417 17.9976zM22.9644 63.6914C14.4076 63.074 11 57.6564 13.2156 50.2703a8.4269 8.4269 0 0 0 .6602 3.5029c3.3457 7.8916 18.3589 8.9474 33.5316 2.4113.3146-.1342.6248-.2819.9306-.4116-8.5303 5.288-18.0176 8.4419-25.3913 7.9185zm9.864-41.2744L51.5419 33.74c.672.3828 1.094 1.0951 1.1103 1.8739.0164.7787-.3753 1.5084-1.0305 1.9198L32.7133 48.6016a2.303 2.303 0 0 1-2.3434-.0724c-.7108-.4496-1.1262-1.2514-1.0865-2.0974l-.0886-21.9837c.0315-.8534.5023-1.6283 1.2415-2.0435a2.3995 2.3995 0 0 1 2.3744.0124zm43.307 4.1024c-3.9216-9.256-20.2155-11.296-37.8432-5.3058l-7.8345-4.7287a3.5378 3.5378 0 0 0-3.518-.033c-1.0968.6142-1.7935 1.7648-1.835 3.0304v7.641C9.9231 35.8695 1.1093 48.4406 4.8626 57.3074c4.347 10.2314 23.8226 11.6317 43.4975 3.1317 19.675-8.5 32.118-23.7061 27.7754-33.9196z" fill="#2c3e7e" fill-rule="nonzero"/></g></g><style id="style1088"></style><style id="style3155"></style></svg>