<svg id="Layer_1" data-name="Layer 1" xmlns="http://www.w3.org/2000/svg" viewBox="0 0 512 512"><title>newsvine-flat</title><path d="M492.68-.28H247.77C106.63-.28,2,113.53,2,254.67V499.6c0,5.89-5.07,12.68.82,12.68H247.77C388.91,512.28,512,395.84,512,254.67V9.75C512,3.86,498.56-.28,492.68-.28Z" fill="#ff4555"/><path d="M302.69,185.72a22.55,22.55,0,1,0-11-19.29,21.93,21.93,0,0,0,.23,3.13L263,189.77V94.23h-21.3v50.42l-29.05-20.31a20.77,20.77,0,0,0,.42-4.18,23,23,0,1,0-23,22.65,23.34,23.34,0,0,0,11-2.79l40.56,28.53v63l-29-20.32a20.47,20.47,0,0,0,.36-3.79,22.85,22.85,0,1,0-11.63,19.64l40.26,28.34v67.14l-28.95-20.28a23.7,23.7,0,0,0,.32-3.7,23,23,0,1,0-23,22.61,23.39,23.39,0,0,0,11.42-3l40.18,28.28V413.7H263V391.55l39.29-27.65a23.22,23.22,0,0,0,12.3,3.54,22.63,22.63,0,1,0-23-22.63c0,.89.08,1.81.15,2.69L263,367.66V300.53l39.36-27.72a23.23,23.23,0,0,0,12.24,3.49,22.64,22.64,0,1,0-23-22.63,25.11,25.11,0,0,0,.19,2.8L263,276.63v-63Z" fill="#fff"/></svg>