<svg id="Layer_1" data-name="Layer 1" xmlns="http://www.w3.org/2000/svg" viewBox="0 0 512 512"><title>icq-flat</title><path d="M491.92.48H247.72C107,.48.91,108.94.91,249.67V493.89c0,5.87-3.28,17.67,2.59,17.67H247.72C388.46,511.57,512,390.43,512,249.67V5.45C512-.4,497.79.48,491.92.48Z" fill="#ff5e00"/><path id="path9-16" d="M405.34,268.69l-2.29-3.59c-3.66-5.39-7.32-10.78-12.81-14.37-4.57-3.15-10.07-5.39-15.1-7.64,14.19-6.74,24.25-16.17,28.83-28.3,3.2-9.88,2.29-18-2.29-26v-.9c-5.49-9-12.81-14.82-24.25-18-6.87-1.35-14.65-1.35-21.51-.9l-15.1,3.15,5-11.23c4.58-14.37,3.2-28.3-4.58-41.32l-1.37-2.25c-6.86-11.23-16.93-18-30.66-21.56-14.19-3.6-27.45-2.25-40.27,4.49s-22,17.06-26.08,30.54v.9l-.46,3.14-1.83-3.14L236,123.63c-7.33-11.21-16.48-18-27.92-21.09-10.07-2.25-18.31-1.35-27,3.14-9.61,5.84-15.11,14.82-17.4,27.4-2.29,13,0,25.6,6.87,38.17l3.21,4.49-11-3.59c-13.73-3.15-26.54-1.35-39.36,5.39-13.27,6.74-21.51,16.17-27,29.19-5,12.58-4.57,24.7,1.83,35.93a38.07,38.07,0,0,0,10.52,11.67c5.49,5.39,12.36,8.54,20.59,9.88l3.21.9-6.87,5.84a41.23,41.23,0,0,0-12.36,18.86,29.3,29.3,0,0,0,3.2,23.81c2.29,3.59,4.57,6.73,8.23,9a23.77,23.77,0,0,0,13.73,5.84,60.23,60.23,0,0,0,32-1.35l-8.24,13.47-2.29,5.84c-4.57,14.37-3.21,27,3.66,40a106.2,106.2,0,0,0,10.53,13.47c5.49,4.94,12.35,8.08,20.59,10.33,13.73,3.59,27.46,3.15,40.73-3.59,12.82-6.74,21.05-17.52,25.17-31l.46-2.69c8.69,9.44,16.93,15.72,26.09,18,9.15,2.7,18.3,2.25,26.54-3.15,7.78-4.49,13.27-12.13,16-21.56,2.29-9.88,2.29-19.76,0-31a43.36,43.36,0,0,0,14.64,6.73c14.64,4.49,27.46,4,40.27-2.69,12.36-6.73,20.59-17.52,24.71-31.44,3.66-13.47,2.75-26.49-4.12-39.07ZM339,193.7l5.49-2.24a45.93,45.93,0,0,1,24.26-3.59c7.78.9,13.27,4.49,16,9.88l1.83,5.84-.92,4.49c-3.2,8.09-10.07,14.37-21.51,19.31-4.57,2.25-9.61,3.15-15.1,4l-56.29,6.74-.92-3.14-.91-1.34,1.83-2.25L339,193.7Zm-77.8-56.58c2.29-9,8.69-15.72,16.93-20.21a31.32,31.32,0,0,1,26.08-2.25q14.42,3.36,20.6,14.81a34.67,34.67,0,0,1,3.66,15.72l-1.37,9.88a62.23,62.23,0,0,1-6.86,13.47L279,218a77.86,77.86,0,0,0-13.27-7.64l-4.57-50.75-.46-18,.46-4.49Zm-78.26,1.34c.46-8.09,3.66-13.47,9.15-16.62,2.74-2.25,6.87-2.25,10.52-.45,8.24,2.25,15.1,8.08,20.59,19.31,2.29,4.49,4.58,9,5.49,14.37l9.15,53L231,210.33l-40.73-43.57L188,162.27c-3.65-8.09-5.94-15.72-5-23.81Zm-67.27,95.22c-3.66-6.74-3.66-13.47-.91-20.21a31.8,31.8,0,0,1,17.85-18.86c8.23-4.5,16.47-5.85,25.62-3.6l12.36,4.94,40.27,28.75a39.16,39.16,0,0,0-7.32,13.47l-65.9,8.09-4.58-.9C124.83,244,119.34,240.41,115.67,233.68ZM242.89,366.17l-.46,4.49c-3.2,8.08-8.7,14.81-16.93,18.41a33.32,33.32,0,0,1-25.17,3.14c-9.15-2.24-16-7.63-19.68-14.81a34.57,34.57,0,0,1-4.12-15.28l2.29-10.32a24.61,24.61,0,0,1,6.87-12.58l38.44-44.91c4.58,2.24,9.15,4.49,14.18,4.94.92,15.27,2.29,31.44,4.58,49v18Zm-15.1-89.83a28.25,28.25,0,0,1-9.15-21.11c0-8.08,3.2-14.82,9.15-21.11A31.62,31.62,0,0,1,249.3,226c8.24,0,16,3.14,21.05,8.08,6.41,6.29,9.15,13,9.15,21.11s-2.75,15.72-9.15,21.11c-5.95,5.84-12.81,9-21.05,9a28.58,28.58,0,0,1-21.51-9Zm84.66,78.6c-.92,8.09-3.66,13.92-9.15,16.17-3.2,2.25-6.86,2.25-10.52,1.79-8.7-2.24-15.56-9-20.59-19.76l-5.49-14.82-6.87-39.08,7.78-2.7,5.95-3.15,19.22,19.31,11.9,14.37,2.29,4.49c4.12,7.63,6.41,14.82,5.49,23.36Zm78.71-52.56c-2.29,9-7.78,15.72-15.56,19.31-8.24,4.49-16.47,5.39-25.63,2.25a22.58,22.58,0,0,1-12.36-7.18l-48.05-39.08,3.2-6.74,1.38-5.4,51.72-4.49,18.31-.45,4.58.45c6.86,2.25,13.27,6.29,16.93,13,4.57,4.94,6.86,11.67,6.86,19.31l-1.37,9Z" fill="#fff"/></svg>