<svg xmlns="http://www.w3.org/2000/svg" width="61.4" height="60.6"><path d="M54.3 28.6H7.1v1.8h1.6V52h10.7v-4.4h-6V30.4h40.9v-1.8zM0 0v4.5h3.4v18.1h4.7V4.5h3.4V0H0zm50.7 0v22.6h10.7v-4.4h-6v-4.7h4.8V9.1h-4.8V4.5h6V0H50.7zm.3 43.6c1-1.1 1.5-2.6 1.5-4.1 0-3.6-2.9-6.5-6.5-6.5h-5.1v22.6H46c3.9 0 7-3.1 7-7 .1-2-.6-3.7-2-5zm-5.2-6.2c1.2 0 2.1.9 2.1 2.1 0 1.2-1 2.1-2.1 2.1h-.1l.1-4.2zm2.7 11.2c0 1.5-1.2 2.6-2.6 2.6h-.2V46h.2c1.4 0 2.6 1.1 2.6 2.6zM20.8 0c4.6 0 8.3 3.7 8.3 8.3 0 2.6-1.2 4.9-3.1 6.4l4 7.9h-5.2l-3-6.1c-.4.1-.7.1-1 .1h-.4v6.1h-4.7V0h5.1zm-.3 4.5v7.8h.1c2.1 0 3.9-1.8 3.9-3.9-.1-2.2-1.9-3.9-4-3.9zm21.2 12.2c0 1.2-1 2.1-2.1 2.1-1.2 0-2.2-.9-2.2-2.1V0h-4.7v16.4c0 3.7 3.1 6.8 6.8 6.8 3.7 0 6.8-3.1 6.8-6.8V0h-4.7l.1 16.7zm-4.7 42h17.4v1.8H7.1v-1.8h14.4l4.8-22.3H32l5 22.3zm-4.8 0l-.5-2.3h-4.8l-.5 2.3h5.8zm-2.9-13.6L27.9 52h2.9l-1.5-6.9z" fill="#fff"/></svg>