<svg version="1.1" xmlns="http://www.w3.org/2000/svg" xmlns:xlink="http://www.w3.org/1999/xlink" x="0px" y="0px"
	 width="48px" height="49px" viewBox="0 0 48 49" enable-background="new 0 0 48 49" xml:space="preserve">
<path fill="#FFFFFF" d="M26.015,12.89c0.137,0.269,0.175,0.655,0.076,1.008l-2.237,7.979h4.992l0.003,0.077
	c0.002,0.052-0.009,0.103-0.031,0.149l-6.71,10.999l0.702-8.57l-3.489-0.003l-0.061-0.12c-0.102-0.249-0.133-0.521-0.09-0.786
	l1.525-10.355l0.025-0.133c0.03-0.126,0.073-0.229,0.12-0.302l0.013-0.019h5.117L26.015,12.89z M20.679,10.905l-0.137,0.007
	c-0.85,0.082-1.566,0.927-1.735,2.075l-1.525,10.356l-0.021,0.17c-0.15,1.537,0.731,2.926,1.892,2.926h1.586l-0.836,10.214
	l-0.006,0.131c-0.018,1.191,1.106,1.794,1.69,0.838l8.89-14.575c0.687-1.207,0.038-3.08-1.164-3.08h-2.94l1.557-5.552l0.043-0.17
	c0.37-1.643-0.535-3.34-1.827-3.34H20.679z"/>
</svg>
