<svg width="30px" height="30px" viewBox="0 0 30 30" version="1.1" xmlns="http://www.w3.org/2000/svg" xmlns:xlink="http://www.w3.org/1999/xlink">
    <g id="Chat" stroke="none" stroke-width="1" fill="none" fill-rule="evenodd">
        <g transform="translate(2.500000, 4.500000)" fill="#ffffff">
            <path d="M23.0978175,15.536134 C23.0978175,16.6956827 22.1543838,17.6392832 20.9947101,17.6392832 L10.8765114,17.6392832 L5.21436634,21.5793885 L5.21436634,17.6392832 L3.66524369,17.6392832 C2.50556995,17.6392832 1.56209455,16.6956827 1.56209455,15.536134 L1.56209455,3.70693641 C1.56209455,2.54705418 2.50556995,1.60378726 3.66524369,1.60378726 L20.9947101,1.60378726 C22.1543838,1.60378726 23.0978175,2.54705418 23.0978175,3.70693641 L23.0978175,15.536134 Z M3.66524369,0.0416551874 C1.64427911,0.0416551874 4.16968843e-06,1.68563825 4.16968843e-06,3.70693641 L4.16968843e-06,15.536134 C4.16968843e-06,17.5528872 1.63710724,19.1942017 3.65223427,19.2013735 L3.65223427,24.569347 L11.3665748,19.2013735 L20.9947101,19.2013735 C23.0156329,19.2013735 24.6599496,17.5571403 24.6599496,15.536134 L24.6599496,3.70693641 C24.6599496,1.68563825 23.0156329,0.0416551874 20.9947101,0.0416551874 L3.66524369,0.0416551874 Z" id="Fill-1"></path>
            <polygon id="Fill-4" points="6.13537933 7.12337063 18.5245244 7.12337063 18.5245244 5.56128025 6.13537933 5.56128025"></polygon>
            <polygon id="Fill-6" points="6.13537933 10.455869 18.5245244 10.455869 18.5245244 8.89377864 6.13537933 8.89377864"></polygon>
            <polygon id="Fill-7" points="6.13537933 13.7883674 18.5245244 13.7883674 18.5245244 12.226277 6.13537933 12.226277"></polygon>
        </g>
    </g>
</svg>
