<svg version="1.1" xmlns="http://www.w3.org/2000/svg" xmlns:xlink="http://www.w3.org/1999/xlink" x="0px" y="0px"
	 width="48px" height="49px" viewBox="0 0 48 49" enable-background="new 0 0 48 49" xml:space="preserve">
<path fill="#FFFFFF" d="M24,10.19c3.875,0,7.031,3.187,7.031,7.105c0,0.769-0.117,1.513-0.352,2.228l-0.395,1.202l1.264,0.049
	c3.76,0.144,6.762,3.283,6.762,7.101c0,3.92-3.156,7.106-7.031,7.106c-1.758,0-3.45-0.666-4.738-1.863l-2.527-2.334l2.346,8.024
	h-4.767l2.308-7.893l-2.5,2.257c-1.281,1.164-2.949,1.809-4.679,1.809c-3.874,0-7.031-3.188-7.031-7.106
	c0-3.817,3.002-6.957,6.761-7.1l1.265-0.051l-0.395-1.201c-0.235-0.72-0.354-1.471-0.352-2.228C16.97,13.376,20.126,10.19,24,10.19
	L24,10.19z M24,8.282c-4.932,0-8.94,4.045-8.94,9.014l0.008,0.362c0.014,0.362,0.049,0.72,0.105,1.073l0.046,0.258l-0.098,0.017
	c-4.18,0.763-7.34,4.461-7.34,8.87c0,4.968,4.008,9.013,8.94,9.013l0.317-0.006c1.144-0.04,2.269-0.302,3.313-0.771l0.049-0.023
	l-1.353,4.629h9.856l-1.359-4.656l0.053,0.026c1.141,0.522,2.391,0.801,3.682,0.801c4.932,0,8.939-4.045,8.939-9.014l-0.004-0.258
	c-0.119-4.294-3.238-7.863-7.336-8.611l-0.098-0.017l0.047-0.258c0.074-0.472,0.111-0.95,0.111-1.436
	C32.939,12.326,28.933,8.282,24,8.282L24,8.282z"/>
</svg>
