<?xml version="1.0" encoding="UTF-8"?>
<svg width="50px" height="50px" viewBox="0 0 50 50" version="1.1" xmlns="http://www.w3.org/2000/svg" xmlns:xlink="http://www.w3.org/1999/xlink">
    <!-- Generator: Sketch 61 (89581) - https://sketch.com -->
    <title>Payments</title>
    <desc>Created with Sketch.</desc>
    <g id="Payments" stroke="none" stroke-width="1" fill="none" fill-rule="evenodd">
        <g id="money-(13)" transform="translate(9.529167, 9.937500)" fill="#4F93FF" fill-rule="nonzero">
            <path d="M10.65625,12.1523438 C15.821625,12.1523438 21.3125,13.8495938 21.3125,16.9960938 L21.3125,16.9960938 L21.3125,24.7460938 C21.3125,27.8925938 15.821625,29.5898438 10.65625,29.5898438 C5.490875,29.5898438 -6.35935749e-12,27.8925938 -6.35935749e-12,24.7460938 L-6.35935749e-12,24.7460938 L-6.35935749e-12,16.9960938 C-6.35935749e-12,13.8495938 5.490875,12.1523438 10.65625,12.1523438 Z M20.34375,0.52734375 C25.509125,0.52734375 31,2.22459375 31,5.37109375 L31,5.37109375 L31,24.7460938 C31,27.5380313 26.6619375,29.1480938 22.362625,29.5084687 C22.3335625,29.5104063 22.308375,29.5123437 22.2793125,29.5123437 C21.781375,29.5123437 21.3570625,29.1306562 21.316375,28.6249687 C21.2718125,28.0921563 21.669,27.6213438 22.199875,27.5787188 C26.679375,27.2047812 29.0625,25.6935313 29.0625,24.7460938 L29.0625,24.7460938 L29.0625,23.7347188 C27.934875,24.4535313 26.35775,25.0231563 24.3873125,25.3699688 C24.331125,25.3815938 24.273,25.3854688 24.2168125,25.3854688 C23.757625,25.3854688 23.3488125,25.0541563 23.2655,24.5852813 C23.1725,24.0602188 23.525125,23.5564688 24.0501875,23.4634688 C27.307125,22.8880313 29.0625,21.6984063 29.0625,20.8710938 L29.0625,20.8710938 L29.0625,19.8597188 C27.934875,20.5785313 26.35775,21.1481563 24.3873125,21.4949688 C24.331125,21.5065938 24.273,21.5104688 24.2168125,21.5104688 C23.757625,21.5104688 23.3488125,21.1791563 23.2655,20.7102813 C23.1725,20.1852188 23.525125,19.6814688 24.0501875,19.5884688 C27.307125,19.0130313 29.0625,17.8234062 29.0625,16.9960938 L29.0625,16.9960938 L29.0625,15.9847188 C27.934875,16.7054688 26.35775,17.2731563 24.3873125,17.6199688 C24.331125,17.6315938 24.273,17.6354688 24.2168125,17.6354688 C23.757625,17.6354688 23.3488125,17.3041563 23.2655,16.8352813 C23.1725,16.3102188 23.525125,15.8064688 24.0501875,15.7134688 C27.307125,15.1380313 29.0625,13.9484062 29.0625,13.1210938 L29.0625,13.1210938 L29.0625,12.0845312 C27.3981875,13.1443438 24.88525,13.7972813 22.362625,14.0084688 C22.3335625,14.0104062 22.308375,14.0123438 22.2793125,14.0123438 C21.781375,14.0123438 21.3570625,13.6306562 21.316375,13.1249688 C21.2718125,12.5921563 21.669,12.1213438 22.199875,12.0787188 C26.679375,11.7047813 29.0625,10.1935312 29.0625,9.24609375 L29.0625,9.24609375 L29.0625,8.23665625 C27.0068125,9.53284375 23.6123125,10.2148438 20.34375,10.2148438 C17.0751875,10.2148438 13.6806875,9.53284375 11.625,8.23665625 L11.625,8.23665625 L11.625,9.24609375 C11.625,9.78084375 11.191,10.2148438 10.65625,10.2148438 C10.1215,10.2148438 9.6875,9.78084375 9.6875,9.24609375 L9.6875,9.24609375 L9.6875,5.37109375 C9.6875,2.22459375 15.178375,0.52734375 20.34375,0.52734375 Z M19.375,23.7366562 C17.3193125,25.0328437 13.9248125,25.7148437 10.65625,25.7148437 C7.3876875,25.7148437 3.9931875,25.0328437 1.9375,23.7366562 L1.9375,23.7366562 L1.9375,24.7460937 C1.9375,25.9299062 5.3339375,27.6523437 10.65625,27.6523437 C15.9785625,27.6523437 19.375,25.9299062 19.375,24.7460937 L19.375,24.7460937 Z M19.375,19.8616562 C17.3193125,21.1578437 13.9248125,21.8398438 10.65625,21.8398438 C7.3876875,21.8398438 3.9931875,21.1578437 1.9375,19.8616562 L1.9375,19.8616562 L1.9375,20.8710938 C1.9375,22.0549062 5.3339375,23.7773437 10.65625,23.7773437 C15.9785625,23.7773437 19.375,22.0549062 19.375,20.8710938 L19.375,20.8710938 Z M10.65625,14.0898438 C5.3339375,14.0898438 1.9375,15.8122812 1.9375,16.9960938 C1.9375,18.1799062 5.3339375,19.9023437 10.65625,19.9023437 C15.9785625,19.9023437 19.375,18.1799062 19.375,16.9960938 C19.375,15.8122812 15.9785625,14.0898438 10.65625,14.0898438 Z M20.34375,2.46484375 C15.0214375,2.46484375 11.625,4.18728125 11.625,5.37109375 C11.625,6.55490625 15.0214375,8.27734375 20.34375,8.27734375 C25.6660625,8.27734375 29.0625,6.55490625 29.0625,5.37109375 C29.0625,4.18728125 25.6660625,2.46484375 20.34375,2.46484375 Z" id="Combined-Shape"></path>
        </g>
    </g>
</svg>