<?xml version="1.0" encoding="utf-8"?>
<!-- Generator: Adobe Illustrator 24.2.1, SVG Export Plug-In . SVG Version: 6.00 Build 0)  -->
<svg version="1.1" id="Layer_1" xmlns="http://www.w3.org/2000/svg" xmlns:xlink="http://www.w3.org/1999/xlink" x="0px" y="0px"
	 viewBox="0 0 50 50" style="enable-background:new 0 0 50 50;" xml:space="preserve">
<style type="text/css">
	.st0{fill:#FFFFFF;}
</style>
<desc>Created with Sketch.</desc>
<g id="Payments">
	<g id="money-_x28_13_x29_" transform="translate(9.529167, 9.937500)">
		<path id="Combined-Shape" class="st0" d="M10.7,12.2c5.2,0,10.7,1.7,10.7,4.8l0,0v7.8c0,3.1-5.5,4.8-10.7,4.8S0,27.9,0,24.7l0,0
			V17C0,13.8,5.5,12.2,10.7,12.2z M20.3,0.5C25.5,0.5,31,2.2,31,5.4l0,0v19.4c0,2.8-4.3,4.4-8.6,4.8c0,0-0.1,0-0.1,0
			c-0.5,0-0.9-0.4-1-0.9c0-0.5,0.4-1,0.9-1c4.5-0.4,6.9-1.9,6.9-2.8l0,0v-1c-1.1,0.7-2.7,1.3-4.7,1.6c-0.1,0-0.1,0-0.2,0
			c-0.5,0-0.9-0.3-1-0.8c-0.1-0.5,0.3-1,0.8-1.1c3.3-0.6,5-1.8,5-2.6l0,0v-1c-1.1,0.7-2.7,1.3-4.7,1.6c-0.1,0-0.1,0-0.2,0
			c-0.5,0-0.9-0.3-1-0.8c-0.1-0.5,0.3-1,0.8-1.1c3.3-0.6,5-1.8,5-2.6l0,0v-1c-1.1,0.7-2.7,1.3-4.7,1.6c-0.1,0-0.1,0-0.2,0
			c-0.5,0-0.9-0.3-1-0.8c-0.1-0.5,0.3-1,0.8-1.1c3.3-0.6,5-1.8,5-2.6l0,0v-1c-1.7,1.1-4.2,1.7-6.7,1.9c0,0-0.1,0-0.1,0
			c-0.5,0-0.9-0.4-1-0.9c0-0.5,0.4-1,0.9-1c4.5-0.4,6.9-1.9,6.9-2.8l0,0v-1c-2.1,1.3-5.5,2-8.7,2s-6.7-0.7-8.7-2l0,0v1
			c0,0.5-0.4,1-1,1s-1-0.4-1-1l0,0V5.4C9.7,2.2,15.2,0.5,20.3,0.5z M19.4,23.7c-2.1,1.3-5.5,2-8.7,2S4,25,1.9,23.7l0,0v1
			c0,1.2,3.4,2.9,8.7,2.9s8.7-1.7,8.7-2.9l0,0V23.7z M19.4,19.9c-2.1,1.3-5.5,2-8.7,2s-6.7-0.7-8.7-2l0,0v1c0,1.2,3.4,2.9,8.7,2.9
			s8.7-1.7,8.7-2.9l0,0V19.9z M10.7,14.1c-5.3,0-8.7,1.7-8.7,2.9s3.4,2.9,8.7,2.9s8.7-1.7,8.7-2.9S16,14.1,10.7,14.1z M20.3,2.5
			c-5.3,0-8.7,1.7-8.7,2.9s3.4,2.9,8.7,2.9s8.7-1.7,8.7-2.9S25.7,2.5,20.3,2.5z"/>
	</g>
</g>
</svg>
