<svg version="1.1" xmlns="http://www.w3.org/2000/svg" xmlns:xlink="http://www.w3.org/1999/xlink" x="0px" y="0px"
	 width="48px" height="49px" viewBox="0 0 48 49" enable-background="new 0 0 48 49" xml:space="preserve">
<path fill="#FFFFFF" d="M10.814,24.501c0.001-2.357,1.489-4.458,3.713-5.24l0.677-0.238l-0.4-0.597
	c-0.612-0.913-0.938-1.988-0.936-3.087c0.004-3.064,2.487-5.549,5.552-5.553c1.592,0,3.11,0.686,4.165,1.881l0.417,0.473
	l0.416-0.473c1.053-1.195,2.57-1.881,4.163-1.881c3.065,0.004,5.55,2.487,5.553,5.553c0.002,1.1-0.325,2.175-0.937,3.088l-0.4,0.597
	l0.678,0.237c2.223,0.781,3.711,2.883,3.711,5.24v9.162c-0.004,3.063-2.486,5.548-5.551,5.551H16.366
	c-3.065-0.003-5.548-2.486-5.552-5.551V24.501z M24.971,18.937h3.645c1.903-0.022,3.464-1.516,3.57-3.416l0.004-0.187
	c-0.002-1.992-1.617-3.604-3.608-3.605c-1.991,0.001-3.606,1.613-3.608,3.605L24.971,18.937z M24.971,37.27h6.664
	c1.918-0.002,3.5-1.502,3.604-3.417l0.006-9.353c-0.002-1.993-1.616-3.608-3.609-3.61h-6.664V37.27z M19.415,11.729
	c-1.99,0.002-3.603,1.615-3.604,3.605c0.006,1.977,1.599,3.582,3.576,3.604l3.632-0.001v-3.603
	C23.018,13.345,21.405,11.731,19.415,11.729z M12.757,33.663c0.002,1.991,1.615,3.604,3.606,3.608l6.656-0.002V20.892h-3.594
	l-0.044-0.001h-3.018c-1.992,0.003-3.605,1.618-3.606,3.61V33.663z"/>
</svg>
