<?xml version="1.0" encoding="UTF-8"?>
<svg width="50px" height="50px" viewBox="0 0 50 50" version="1.1" xmlns="http://www.w3.org/2000/svg" xmlns:xlink="http://www.w3.org/1999/xlink">
    <!-- Generator: Sketch 61 (89581) - https://sketch.com -->
    <title>Icon mini</title>
    <desc>Created with Sketch.</desc>
    <g id="Icon-mini" stroke="none" stroke-width="1" fill="none" fill-rule="evenodd">
        <g id="24-hours-support" transform="translate(8.018182, 9.600000)" fill="#4F93FF" fill-rule="nonzero">
            <path d="M15.2792151,0.0473869134 C18.646003,0.0473869134 21.8390887,1.12607451 24.5133849,3.16677624 C26.0086771,4.3077878 27.2834243,5.7257704 28.269198,7.32084457 L28.5095816,7.72324472 L28.8149058,6.16328846 L30.9319946,6.57743812 L29.9552561,11.5685358 C29.8420997,12.2455682 29.0463225,12.6333251 28.4426956,12.3427466 L28.3383459,12.2843472 L24.026361,9.67552576 L25.1430927,7.82967842 L26.5838342,8.70140329 C24.5552012,5.26482765 21.02879,2.87913304 17.047672,2.32722114 L16.6845286,2.28212086 L16.6845286,5.57865054 L14.5272282,5.57865054 L14.5272282,2.2269607 C8.1019856,2.59383798 2.89933282,7.62917338 2.23068755,14.0038243 L2.20147342,14.3183969 L5.78755657,14.3183969 L5.78755657,16.4756973 L2.20154816,16.4756973 C2.72064752,22.8933655 7.82803993,28.0262944 14.2123077,28.5453411 L14.5273029,28.5671335 L14.5273029,25.2154436 L16.6846033,25.2154436 L16.6846033,28.5141409 C18.7449811,28.294257 20.7109596,27.5914064 22.4519147,26.4460512 L22.7970667,26.211092 L24.0389925,27.975096 C21.4637305,29.7882808 18.4347052,30.7466325 15.2792899,30.7466325 C6.85428532,30.7466325 -3.98168354e-11,23.8608058 -3.98168354e-11,15.3970097 C-3.98168354e-11,6.93321368 6.85428532,0.0473869134 15.2792151,0.0473869134 Z M25.4122414,15.5145801 C27.1808794,15.5145801 27.9864569,16.793952 27.9864569,17.9827357 C27.9864569,19.3731754 27.037448,20.4837781 25.7529189,21.7414746 L25.7529189,21.7414746 L28.1558988,21.7414746 L28.1558988,23.4484499 L22.8271881,23.4484499 L22.8271881,22.212653 L23.6995856,21.3654438 C25.4012542,19.7459923 26.1125811,18.9348091 26.1209523,18.0945509 C26.1208775,17.3211875 25.6403563,17.2214806 25.2216473,17.2214806 C24.7048758,17.2214806 24.2712183,17.5184336 24.0587246,17.6954993 L24.0587246,17.6954993 L23.5873967,18.0880483 L22.8928122,16.551636 L23.1621851,16.324119 C23.7803078,15.8021155 24.5793827,15.5145801 25.4122414,15.5145801 Z M34.0159558,15.6309546 L34.0159558,19.9099032 L34.9796143,19.9099032 L34.9796143,21.5736771 L34.0160306,21.5736771 L34.0160306,23.4484499 L32.2034438,23.4484499 L32.2034438,21.5736771 L29.0050514,21.5736771 L29.0050514,20.346102 L32.3001609,15.6309546 L34.0159558,15.6309546 Z M32.2034438,18.6677531 L31.3095203,19.9099032 L32.2034438,19.9099032 L32.2034438,18.6677531 Z M16.7358769,8.2167712 L16.7358769,15.4592704 C16.7358769,16.0153267 16.3151409,16.473068 15.7747167,16.5316288 L15.6571893,16.537958 L8.41469004,16.537958 L8.41469004,14.3806576 L14.5785764,14.3806576 L14.5785764,8.2167712 L16.7358769,8.2167712 Z" id="Combined-Shape"></path>
        </g>
    </g>
</svg>