<?xml version="1.0" encoding="utf-8"?>
<!-- Generator: Adobe Illustrator 24.2.1, SVG Export Plug-In . SVG Version: 6.00 Build 0)  -->
<svg version="1.1" id="Layer_1" xmlns="http://www.w3.org/2000/svg" xmlns:xlink="http://www.w3.org/1999/xlink" x="0px" y="0px"
	 viewBox="0 0 50 50" style="enable-background:new 0 0 50 50;" xml:space="preserve">
<style type="text/css">
	.st0{fill:#FFFFFF;}
</style>
<desc>Created with Sketch.</desc>
<g id="Icon-mini">
	<g id="_x32_4-hours-support" transform="translate(8.018182, 9.600000)">
		<path id="Combined-Shape" class="st0" d="M15.3,0c3.4,0,6.6,1.1,9.2,3.1c1.5,1.1,2.8,2.6,3.8,4.2l0.2,0.4l0.3-1.6l2.1,0.4l-1,5
			c-0.1,0.7-0.9,1.1-1.5,0.8l-0.1-0.1L24,9.7l1.1-1.8l1.4,0.9c-2-3.4-5.6-5.8-9.5-6.4l-0.4,0v3.3h-2.2V2.2C8.1,2.6,2.9,7.6,2.2,14
			l0,0.3h3.6v2.2H2.2c0.5,6.4,5.6,11.6,12,12.1l0.3,0v-3.4h2.2v3.3c2.1-0.2,4-0.9,5.8-2.1l0.3-0.2L24,28c-2.6,1.8-5.6,2.8-8.8,2.8
			C6.9,30.7,0,23.9,0,15.4S6.9,0,15.3,0z M25.4,15.5c1.8,0,2.6,1.3,2.6,2.5c0,1.4-0.9,2.5-2.2,3.8l0,0h2.4v1.7h-5.3v-1.2l0.9-0.8
			c1.7-1.6,2.4-2.4,2.4-3.3c0-0.8-0.5-0.9-0.9-0.9c-0.5,0-1,0.3-1.2,0.5l0,0l-0.5,0.4l-0.7-1.5l0.3-0.2
			C23.8,15.8,24.6,15.5,25.4,15.5z M34,15.6v4.3h1v1.7h-1v1.9h-1.8v-1.9H29v-1.2l3.3-4.7H34z M32.2,18.7l-0.9,1.2h0.9V18.7z
			 M16.7,8.2v7.2c0,0.6-0.4,1-1,1.1l-0.1,0H8.4v-2.2h6.2V8.2H16.7z"/>
	</g>
</g>
</svg>
