<svg xmlns="http://www.w3.org/2000/svg" width="412" height="154" viewBox="0 0 412 154"><defs><mask id="oexib" width="2" height="2" x="-1" y="-1"><path fill="#fff" d="M7 7h107v126H7z"/><path d="M69.48 84.94H32.94l36.54-51.66zM89.1 133c1.32 0 2.37-.42 3.15-1.26.78-.84 1.17-1.86 1.17-3.06v-23.04h16.2c1.32 0 2.37-.42 3.15-1.26.78-.84 1.17-1.86 1.17-3.06V88.54c0-1.32-.39-2.37-1.17-3.15-.78-.78-1.83-1.17-3.15-1.17h-16.2v-72.9c0-1.32-.39-2.37-1.17-3.15C91.47 7.39 90.42 7 89.1 7H69.3c-1.44 0-2.76.27-3.96.81-1.2.54-2.1 1.29-2.7 2.25L9.54 83.5c-1.32 1.68-1.98 3.48-1.98 5.4v12.42c0 1.2.42 2.22 1.26 3.06.84.84 1.86 1.26 3.06 1.26h57.06v23.04c0 1.2.42 2.22 1.26 3.06.84.84 1.86 1.26 3.06 1.26z"/></mask><filter id="oexia" width="127" height="160" x="-3" y="-3" filterUnits="userSpaceOnUse"><feOffset dy="14" in="SourceGraphic" result="FeOffset1023Out"/><feGaussianBlur in="FeOffset1023Out" result="FeGaussianBlur1024Out" stdDeviation="0 0"/></filter><clipPath id="oexic"><path fill="#fff" d="M1.215 138.965V1.035h118.57v137.93zM69.48 84.94H32.94l36.54-51.66zM89.1 133c1.32 0 2.37-.42 3.15-1.26.78-.84 1.17-1.86 1.17-3.06v-23.04h16.2c1.32 0 2.37-.42 3.15-1.26.78-.84 1.17-1.86 1.17-3.06V88.54c0-1.32-.39-2.37-1.17-3.15-.78-.78-1.83-1.17-3.15-1.17h-16.2v-72.9c0-1.32-.39-2.37-1.17-3.15C91.47 7.39 90.42 7 89.1 7H69.3c-1.44 0-2.76.27-3.96.81-1.2.54-2.1 1.29-2.7 2.25L9.54 83.5c-1.32 1.68-1.98 3.48-1.98 5.4v12.42c0 1.2.42 2.22 1.26 3.06.84.84 1.86 1.26 3.06 1.26h57.06v23.04c0 1.2.42 2.22 1.26 3.06.84.84 1.86 1.26 3.06 1.26z"/></clipPath><mask id="oexie" width="2" height="2" x="-1" y="-1"><path fill="#fff" d="M298 7h107v126H298z"/><path d="M360.18 84.94h-36.54l36.54-51.66zM379.8 133c1.32 0 2.37-.42 3.15-1.26.78-.84 1.17-1.86 1.17-3.06v-23.04h16.2c1.32 0 2.37-.42 3.15-1.26.78-.84 1.17-1.86 1.17-3.06V88.54c0-1.32-.39-2.37-1.17-3.15-.78-.78-1.83-1.17-3.15-1.17h-16.2v-72.9c0-1.32-.39-2.37-1.17-3.15-.78-.78-1.83-1.17-3.15-1.17H360c-1.44 0-2.76.27-3.96.81-1.2.54-2.1 1.29-2.7 2.25l-53.1 73.44c-1.32 1.68-1.98 3.48-1.98 5.4v12.42c0 1.2.42 2.22 1.26 3.06.84.84 1.86 1.26 3.06 1.26h57.06v23.04c0 1.2.42 2.22 1.26 3.06.84.84 1.86 1.26 3.06 1.26z"/></mask><filter id="oexid" width="127" height="160" x="288" y="-3" filterUnits="userSpaceOnUse"><feOffset dy="14" in="SourceGraphic" result="FeOffset1042Out"/><feGaussianBlur in="FeOffset1042Out" result="FeGaussianBlur1043Out" stdDeviation="0 0"/></filter><clipPath id="oexif"><path fill="#fff" d="M292.215 138.965V1.035h118.57v137.93zM360.18 84.94h-36.54l36.54-51.66zM379.8 133c1.32 0 2.37-.42 3.15-1.26.78-.84 1.17-1.86 1.17-3.06v-23.04h16.2c1.32 0 2.37-.42 3.15-1.26.78-.84 1.17-1.86 1.17-3.06V88.54c0-1.32-.39-2.37-1.17-3.15-.78-.78-1.83-1.17-3.15-1.17h-16.2v-72.9c0-1.32-.39-2.37-1.17-3.15-.78-.78-1.83-1.17-3.15-1.17H360c-1.44 0-2.76.27-3.96.81-1.2.54-2.1 1.29-2.7 2.25l-53.1 73.44c-1.32 1.68-1.98 3.48-1.98 5.4v12.42c0 1.2.42 2.22 1.26 3.06.84.84 1.86 1.26 3.06 1.26h57.06v23.04c0 1.2.42 2.22 1.26 3.06.84.84 1.86 1.26 3.06 1.26z"/></clipPath></defs><g><g><g filter="url(#oexia)"><path fill="none" d="M69.48 84.94H32.94l36.54-51.66zM89.1 133c1.32 0 2.37-.42 3.15-1.26.78-.84 1.17-1.86 1.17-3.06v-23.04h16.2c1.32 0 2.37-.42 3.15-1.26.78-.84 1.17-1.86 1.17-3.06V88.54c0-1.32-.39-2.37-1.17-3.15-.78-.78-1.83-1.17-3.15-1.17h-16.2v-72.9c0-1.32-.39-2.37-1.17-3.15C91.47 7.39 90.42 7 89.1 7H69.3c-1.44 0-2.76.27-3.96.81-1.2.54-2.1 1.29-2.7 2.25L9.54 83.5c-1.32 1.68-1.98 3.48-1.98 5.4v12.42c0 1.2.42 2.22 1.26 3.06.84.84 1.86 1.26 3.06 1.26h57.06v23.04c0 1.2.42 2.22 1.26 3.06.84.84 1.86 1.26 3.06 1.26z" mask="url(&quot;#oexib&quot;)"/><path fill="#262b4d" d="M69.48 84.94H32.94l36.54-51.66zM89.1 133c1.32 0 2.37-.42 3.15-1.26.78-.84 1.17-1.86 1.17-3.06v-23.04h16.2c1.32 0 2.37-.42 3.15-1.26.78-.84 1.17-1.86 1.17-3.06V88.54c0-1.32-.39-2.37-1.17-3.15-.78-.78-1.83-1.17-3.15-1.17h-16.2v-72.9c0-1.32-.39-2.37-1.17-3.15C91.47 7.39 90.42 7 89.1 7H69.3c-1.44 0-2.76.27-3.96.81-1.2.54-2.1 1.29-2.7 2.25L9.54 83.5c-1.32 1.68-1.98 3.48-1.98 5.4v12.42c0 1.2.42 2.22 1.26 3.06.84.84 1.86 1.26 3.06 1.26h57.06v23.04c0 1.2.42 2.22 1.26 3.06.84.84 1.86 1.26 3.06 1.26z"/></g><path fill="#fff" d="M69.48 84.94H32.94l36.54-51.66zM89.1 133c1.32 0 2.37-.42 3.15-1.26.78-.84 1.17-1.86 1.17-3.06v-23.04h16.2c1.32 0 2.37-.42 3.15-1.26.78-.84 1.17-1.86 1.17-3.06V88.54c0-1.32-.39-2.37-1.17-3.15-.78-.78-1.83-1.17-3.15-1.17h-16.2v-72.9c0-1.32-.39-2.37-1.17-3.15C91.47 7.39 90.42 7 89.1 7H69.3c-1.44 0-2.76.27-3.96.81-1.2.54-2.1 1.29-2.7 2.25L9.54 83.5c-1.32 1.68-1.98 3.48-1.98 5.4v12.42c0 1.2.42 2.22 1.26 3.06.84.84 1.86 1.26 3.06 1.26h57.06v23.04c0 1.2.42 2.22 1.26 3.06.84.84 1.86 1.26 3.06 1.26z"/><path fill="none" stroke="#ef004b" stroke-miterlimit="20" stroke-width="14" d="M69.48 84.94H32.94l36.54-51.66zM89.1 133c1.32 0 2.37-.42 3.15-1.26.78-.84 1.17-1.86 1.17-3.06v-23.04h16.2c1.32 0 2.37-.42 3.15-1.26.78-.84 1.17-1.86 1.17-3.06V88.54c0-1.32-.39-2.37-1.17-3.15-.78-.78-1.83-1.17-3.15-1.17h-16.2v-72.9c0-1.32-.39-2.37-1.17-3.15C91.47 7.39 90.42 7 89.1 7H69.3c-1.44 0-2.76.27-3.96.81-1.2.54-2.1 1.29-2.7 2.25L9.54 83.5c-1.32 1.68-1.98 3.48-1.98 5.4v12.42c0 1.2.42 2.22 1.26 3.06.84.84 1.86 1.26 3.06 1.26h57.06v23.04c0 1.2.42 2.22 1.26 3.06.84.84 1.86 1.26 3.06 1.26z" clip-path="url(&quot;#oexic&quot;)"/></g><g><g filter="url(#oexid)"><path fill="none" d="M360.18 84.94h-36.54l36.54-51.66zM379.8 133c1.32 0 2.37-.42 3.15-1.26.78-.84 1.17-1.86 1.17-3.06v-23.04h16.2c1.32 0 2.37-.42 3.15-1.26.78-.84 1.17-1.86 1.17-3.06V88.54c0-1.32-.39-2.37-1.17-3.15-.78-.78-1.83-1.17-3.15-1.17h-16.2v-72.9c0-1.32-.39-2.37-1.17-3.15-.78-.78-1.83-1.17-3.15-1.17H360c-1.44 0-2.76.27-3.96.81-1.2.54-2.1 1.29-2.7 2.25l-53.1 73.44c-1.32 1.68-1.98 3.48-1.98 5.4v12.42c0 1.2.42 2.22 1.26 3.06.84.84 1.86 1.26 3.06 1.26h57.06v23.04c0 1.2.42 2.22 1.26 3.06.84.84 1.86 1.26 3.06 1.26z" mask="url(&quot;#oexie&quot;)"/><path fill="#262b4d" d="M360.18 84.94h-36.54l36.54-51.66zM379.8 133c1.32 0 2.37-.42 3.15-1.26.78-.84 1.17-1.86 1.17-3.06v-23.04h16.2c1.32 0 2.37-.42 3.15-1.26.78-.84 1.17-1.86 1.17-3.06V88.54c0-1.32-.39-2.37-1.17-3.15-.78-.78-1.83-1.17-3.15-1.17h-16.2v-72.9c0-1.32-.39-2.37-1.17-3.15-.78-.78-1.83-1.17-3.15-1.17H360c-1.44 0-2.76.27-3.96.81-1.2.54-2.1 1.29-2.7 2.25l-53.1 73.44c-1.32 1.68-1.98 3.48-1.98 5.4v12.42c0 1.2.42 2.22 1.26 3.06.84.84 1.86 1.26 3.06 1.26h57.06v23.04c0 1.2.42 2.22 1.26 3.06.84.84 1.86 1.26 3.06 1.26z"/></g><path fill="#fff" d="M360.18 84.94h-36.54l36.54-51.66zM379.8 133c1.32 0 2.37-.42 3.15-1.26.78-.84 1.17-1.86 1.17-3.06v-23.04h16.2c1.32 0 2.37-.42 3.15-1.26.78-.84 1.17-1.86 1.17-3.06V88.54c0-1.32-.39-2.37-1.17-3.15-.78-.78-1.83-1.17-3.15-1.17h-16.2v-72.9c0-1.32-.39-2.37-1.17-3.15-.78-.78-1.83-1.17-3.15-1.17H360c-1.44 0-2.76.27-3.96.81-1.2.54-2.1 1.29-2.7 2.25l-53.1 73.44c-1.32 1.68-1.98 3.48-1.98 5.4v12.42c0 1.2.42 2.22 1.26 3.06.84.84 1.86 1.26 3.06 1.26h57.06v23.04c0 1.2.42 2.22 1.26 3.06.84.84 1.86 1.26 3.06 1.26z"/><path fill="none" stroke="#ef004b" stroke-miterlimit="20" stroke-width="14" d="M360.18 84.94h-36.54l36.54-51.66zM379.8 133c1.32 0 2.37-.42 3.15-1.26.78-.84 1.17-1.86 1.17-3.06v-23.04h16.2c1.32 0 2.37-.42 3.15-1.26.78-.84 1.17-1.86 1.17-3.06V88.54c0-1.32-.39-2.37-1.17-3.15-.78-.78-1.83-1.17-3.15-1.17h-16.2v-72.9c0-1.32-.39-2.37-1.17-3.15-.78-.78-1.83-1.17-3.15-1.17H360c-1.44 0-2.76.27-3.96.81-1.2.54-2.1 1.29-2.7 2.25l-53.1 73.44c-1.32 1.68-1.98 3.48-1.98 5.4v12.42c0 1.2.42 2.22 1.26 3.06.84.84 1.86 1.26 3.06 1.26h57.06v23.04c0 1.2.42 2.22 1.26 3.06.84.84 1.86 1.26 3.06 1.26z" clip-path="url(&quot;#oexif&quot;)"/></g><g><g><path fill="#ef004b" d="M280.977 6.05c1.344.975 2.952 1.734 3.98 2.976 1.8 2.181 2.566 4.872 2.062 7.724-1.225 6.922-2.543 13.83-3.816 20.745-1.068 5.79-2.126 11.58-3.192 17.372-.883 4.808-1.739 9.623-2.657 14.425-1.078 5.638-2.236 11.261-3.314 16.9a4507.74 4507.74 0 0 0-5.197 27.486c-.969 5.224-1.799 10.474-2.77 15.698-.451 2.414-1.267 4.702-3.37 6.26-3.264.276-6.527.78-9.791.79-20.548.074-41.098.038-61.644.038h-4.158c2.602-3.316 4.824-6.282 7.186-9.127 4.658-5.619 9.387-11.178 14.1-16.747 4.9-5.794 9.826-11.568 14.726-17.36 4.713-5.571 9.375-11.185 14.12-16.728 4.014-4.69 8.13-9.294 12.166-13.963 1.116-1.292 2.205-2.621 3.135-4.049.925-1.42 1.758-2.954 1.094-4.867-1.758-2.34-4.334-2.914-7.126-2.923-5.536-.017-11.074.007-16.614-.024-.761-.005-1.525-.228-2.569-.393 9.67-13.763 19.085-27.17 28.265-40.239V6.05h25.384"/></g><g><path fill="#ef004b" d="M162.815 6.05h36.761c.5 2.39-.323 4.58-1.13 6.732-7.945 21.216-15.952 42.409-23.823 63.651-.638 1.72-2.01 3.516-1.047 5.776h9.24c2.911 0 5.825-.057 8.734.014 3 .079 6.035-.354 9.46.414-1.222 3.162-2.316 6.102-3.494 9.009-3.663 9.04-7.348 18.069-11.044 27.094-2.662 6.501-5.36 12.986-8.04 19.477l-3.769-1.781h-32.591c-3.673-1.002-4.917-3.416-5.462-6.368.274-.497.79-.995.787-1.49-.023-5.996 1.913-11.703 2.888-17.524 1.247-7.44 2.605-14.912 4.26-22.291.47-2.091.562-4.185.988-6.25 1.101-5.35 2.517-10.664 3.168-16.068.51-4.213 1.525-8.323 2.065-12.534.87-6.775 3.202-13.366 4.018-20.143.659-5.484 2.393-10.724 2.91-16.221.151-1.599.55-3.31 1.987-4.765 1.506-1.527 1.06-2.224 3.067-6.023-.024-.24 0-.478.067-.709z"/></g><g><path fill="#af0238" d="M179.65 139.878c2.667-3.385 5.252-6.834 8.014-10.14a4845.299 4845.299 0 0 1 23.231-27.602c7.03-8.302 14.128-16.544 21.15-24.851 5.702-6.749 11.335-13.552 16.99-20.339.256-.309.399-.71.827-1.496-1.125-.197-2-.459-2.885-.49-8.683-.29-17.365-.542-26.512-.818.383-.823.564-1.435.911-1.927A16860.937 16860.937 0 0 1 252.115 8.69c.704-.994 1.727-1.765 2.602-2.64h.876v3.994c-9.18 13.069-18.595 26.476-28.265 40.24 1.044.164 1.808.387 2.569.392 5.54.03 11.078.007 16.613.024 2.793.01 5.37.583 7.127 2.923.664 1.913-.169 3.447-1.094 4.867-.93 1.428-2.02 2.757-3.135 4.049-4.037 4.67-8.152 9.272-12.165 13.963-4.746 5.543-9.408 11.157-14.12 16.728-4.901 5.792-9.828 11.566-14.728 17.36-4.712 5.569-9.441 11.128-14.099 16.747-2.362 2.845-4.584 5.811-7.186 9.127h4.158c20.546 0 41.096.036 61.644-.038 3.263-.01 6.527-.514 9.79-.79-1.346 3.014-4.245 3.516-6.974 4.249-.683.183-1.448.069-2.176.069-24.052.002-48.104.005-72.156 0-.58 0-1.163-.05-1.746-.076"/></g><g><path fill="#af0238" d="M178.279 139.83c-12.389.038-24.777.138-37.168.081-4.482-.019-8.007-3.53-7.95-7.997.045-3.285.554-6.587 1.096-9.841 1.018-6.076 2.18-12.13 3.342-18.184 1.021-5.328 2.189-10.628 3.179-15.961 1.332-7.189 2.519-14.406 3.839-21.597 1.213-6.62 2.543-13.22 3.777-19.835 1.083-5.787 2.091-11.589 3.157-17.379.856-4.648 1.413-9.387 2.729-13.902 1.21-4.143 4.034-8.033 8.54-9.165.558 2.648-.31 4.499-1.817 6.026-.058.06-3.16 3.938-3.305 5.47-.516 5.498-2.25 10.738-2.91 16.222-.815 6.777-3.147 13.368-4.017 20.143-.54 4.21-1.556 8.321-2.065 12.534-.652 5.404-2.067 10.719-3.169 16.069-.425 2.064-.518 4.158-.987 6.249-1.655 7.379-3.014 14.85-4.26 22.291-.975 5.821-2.912 11.528-2.888 17.525.002.494-.514.992-.787 1.489.544 2.952 1.789 5.366 5.461 6.368h32.592c1.513.716 2.64 1.249 3.768 1.781l-.157 1.613z"/></g></g></g></svg>