<svg xmlns="http://www.w3.org/2000/svg" width="64" height="24" viewBox="0 0 64 24"><g><g><path fill="#fff" d="M0 10.95L2.016.31h2.737L2.737 10.95zm36.541 12.648l.813-4.291-2.824-6.35h3.087l1.565 3.925 3.02-3.924h3.103l-5.214 6.349-.813 4.291zm-6.164-7.929l-2.112 4.005h2.706zm.889 6.398H27.08l-.815 1.531H23.16l6.01-10.64h3.439l1.995 10.64h-3.104zm-8.346-5.568c.14-.734-.323-1.148-1.055-1.148h-2.213l-.432 2.28h2.212c.732 0 1.352-.414 1.488-1.132zm-5.552-3.541h5.316c2.387 0 3.387 1.61 3.021 3.541-.362 1.914-1.973 3.526-4.36 3.526h-2.579l-.676 3.573h-2.738zm38.728-2.008l1.562-8.247h-2.976L55.135.31h8.674l-.453 2.393h-2.96l-1.563 8.247zm-6.121 0l-3.322-6.157-1.166 6.157h-2.738L44.764.31h2.818l3.188 5.854L51.88.31h2.753l-2.016 10.64zM38.247 3.022l-2.111 4.004h2.705zm.889 6.397H34.95l-.815 1.531H31.03L37.04.31h3.438l1.996 10.64H39.37zM26.919 10.95l1.563-8.247h-2.977L25.958.31h8.675l-.453 2.393h-2.961l-1.562 8.247zM15.015 9.451l1.839-2.058c.619.766 1.676 1.404 3.124 1.404.94 0 1.582-.367 1.678-.877.276-1.453-5.962-.288-5.185-4.388C16.809 1.745 18.624.15 21.346.15c1.703 0 3.086.511 4.032 1.484L23.51 3.596c-.752-.734-1.845-1.1-2.895-1.1-.797 0-1.207.319-1.291.765-.257 1.356 5.93.367 5.181 4.323-.405 2.138-2.25 3.558-5.099 3.558zm-3.619 1.5L8.074 4.792 6.908 10.95H4.17L6.186.31h2.817l3.188 5.854L13.301.31h2.753l-2.016 10.64z"/></g></g></svg>