<svg xmlns="http://www.w3.org/2000/svg" width="38" height="33" viewBox="0 0 38 33"><g><g><g><path fill="#ef004b" d="M35.923-.11c.326.237.716.42.965.722.438.53.623 1.183.501 1.875-.297 1.68-.617 3.357-.926 5.035-.26 1.405-.516 2.81-.775 4.217-.214 1.166-.422 2.335-.645 3.5-.261 1.369-.542 2.734-.804 4.102-.426 2.223-.85 4.446-1.262 6.672-.235 1.267-.436 2.542-.672 3.81-.11.586-.307 1.141-.818 1.52-.792.066-1.584.189-2.376.19-4.987.019-9.975.01-14.962.01H13.14c.632-.805 1.17-1.525 1.744-2.215 1.13-1.364 2.278-2.713 3.422-4.065 1.19-1.406 2.385-2.808 3.575-4.213 1.143-1.353 2.275-2.715 3.427-4.06.974-1.139 1.973-2.256 2.952-3.39.271-.313.536-.636.761-.982.225-.345.427-.717.266-1.181-.427-.569-1.052-.708-1.73-.71-1.343-.004-2.687.002-4.032-.006-.185 0-.37-.055-.624-.095l6.86-9.767V-.11h6.162"/></g><g><path fill="#ef004b" d="M7.224.062A.455.455 0 0 1 7.24-.11h8.923c.12.58-.079 1.111-.275 1.634-1.928 5.15-3.871 10.293-5.782 15.449-.155.417-.488.853-.254 1.402h2.243c.706 0 1.414-.014 2.12.003.728.02 1.464-.086 2.296.1-.297.768-.563 1.482-.848 2.187-.89 2.194-1.784 4.386-2.681 6.576-.646 1.578-1.3 3.152-1.951 4.728l-.915-.433h-7.91c-.892-.243-1.194-.829-1.326-1.545.066-.121.192-.242.191-.362-.006-1.455.464-2.84.701-4.253.303-1.806.632-3.62 1.034-5.41.114-.508.136-1.016.24-1.517.267-1.299.61-2.589.769-3.9.123-1.023.37-2.02.5-3.043.212-1.644.778-3.244.976-4.889.16-1.33.58-2.602.706-3.937.037-.388.206-.832.554-1.186.366-.37.809-.79.673-1.432"/></g><g><path fill="#af0238" d="M11.33 32.372c.647-.822 1.275-1.66 1.945-2.462 1.87-2.241 3.752-4.471 5.639-6.699 1.706-2.015 3.429-4.015 5.133-6.031 1.384-1.638 2.751-3.29 4.123-4.937.063-.075.097-.172.201-.363-.273-.048-.485-.111-.7-.119-2.107-.07-4.215-.132-6.435-.199.093-.2.137-.348.221-.467C23.94 7.57 26.424 4.047 28.918.53c.171-.241.42-.429.632-.641h.212v.97l-6.86 9.766c.253.04.439.094.624.095 1.344.008 2.688.002 4.032.006.678.002 1.303.141 1.73.71.16.464-.041.836-.266 1.18-.226.347-.49.67-.761.984-.98 1.133-1.979 2.25-2.953 3.389-1.151 1.345-2.283 2.707-3.427 4.06-1.19 1.405-2.385 2.807-3.574 4.213-1.144 1.352-2.292 2.701-3.422 4.065-.574.69-1.113 1.41-1.744 2.215h1.009c4.986 0 9.974.009 14.961-.01.793-.001 1.585-.124 2.377-.19-.327.73-1.03.853-1.693 1.03-.166.045-.352.017-.528.017H11.754c-.141 0-.283-.012-.424-.018"/></g><g><path fill="#af0238" d="M11.029 31.967l-.038.391c-3.007.01-6.014.034-9.021.02C.882 32.373.026 31.52.04 30.437c.011-.798.135-1.6.266-2.389.247-1.475.53-2.944.812-4.413.247-1.294.53-2.58.77-3.874.324-1.745.612-3.497.933-5.242.294-1.607.617-3.209.917-4.814.262-1.405.507-2.813.766-4.218.208-1.129.343-2.279.662-3.374C5.46 1.107 6.129.335 7.223.06c.135.643-.308 1.062-.673 1.432a1.972 1.972 0 0 0-.554 1.186c-.126 1.335-.547 2.607-.706 3.937-.199 1.645-.764 3.245-.976 4.89-.13 1.021-.377 2.019-.5 3.042-.159 1.311-.503 2.601-.77 3.9-.103.5-.126 1.009-.24 1.516a100.804 100.804 0 0 0-1.033 5.41c-.237 1.414-.707 2.799-.701 4.254 0 .12-.125.24-.192.362.133.716.435 1.302 1.326 1.545h7.91l.915.433"/></g></g></g></svg>