<svg xmlns="http://www.w3.org/2000/svg" viewBox="0 0 511.959 511.959"><path d="M357.42 87.945l-78.88-78.56C266.051-3.119 245.789-3.13 233.286 9.36l-.025.025-80 80c-12.25 12.738-11.855 32.996.884 45.246 1.029.99 2.124 1.91 3.276 2.754 13.231 9.135 31.111 7.448 42.4-4l3.68-3.68a47.987 47.987 0 008.32-11.2l12.16-22.56v222.24c-.634 16.247 10.62 30.552 26.56 33.76 17.416 3.006 33.971-8.675 36.977-26.09.337-1.951.492-3.93.463-5.91v-224a256.196 256.196 0 0013.92 26.4 53.44 53.44 0 0011.52 12.32c12.492 12.502 32.753 12.509 45.255.017a32.055 32.055 0 001.785-1.937c10.731-13.47 9.412-32.903-3.041-44.8z" fill="#fff"/><path d="M495.98 431.945v-192-1.92c-3.04-48-30.88-75.84-80-77.92h-78.72c-17.673 0-32 14.327-32 32 0 17.673 14.327 32 32 32h77.28c13.6 0 16 1.92 17.44 17.12v189.28c0 12.16-3.04 16-17.12 17.44H97.1c-14.88-1.12-16-4.64-17.12-16v-190.56c0-17.44 5.44-17.44 16-17.44h80c17.673 0 32-14.327 32-32s-14.327-32-32-32h-80c-48 0-77.92 30.08-80 80v193.28c-1.245 42.22 31.972 77.456 74.193 78.701 1.242.037 2.485.043 3.727.019h324.16c42.945.106 77.846-34.622 77.952-77.568a73.08 73.08 0 00-.032-2.432z" fill="#fff"/></svg>