<svg xmlns="http://www.w3.org/2000/svg" viewBox="0 0 88.5 88.5"><path d="M67.5 36.8C56.1 12.3 50.2 3 31.6 3.4c-6.6.1-5-4.8-10.1-2.9s-.7 4.6-5.9 8.9C1.1 21.2 2.4 32.2 9.1 58.5c2.8 11.1-6.8 11.6-3 22.3 2.8 7.8 23.4 11.1 45.1 3 21.8-8 35.5-24 32.7-31.8-3.8-10.8-11.6-4.8-16.4-15.2zM48.9 77.2c-19.4 7.2-35.4 3-36 1.1-1.2-3.2 6.3-14.1 28.5-22.3 22.2-8.2 34.6-5.2 35.9-1.6.6 2.2-9 15.6-28.4 22.8zm-6.3-17.4c-10.1 3.8-17.2 8.1-21.8 12C24 74.7 30 75.4 36 73.2c7.6-2.8 12.3-9.3 10.5-14.5 0-.1-.1-.1-.1-.2-1.2.3-2.4.8-3.8 1.3z" fill="#fff"/></svg>