<svg xmlns="http://www.w3.org/2000/svg" width="18" height="19"><path fill-rule="evenodd" fill="#7D7D7D" d="M17 3.992l-.001 2.137-1-.129v12c0 .822-.901 1-1.726 1H2.722c-.825 0-1.723-.178-1.723-1V6l-1 .129-.004-2.137C-.005 3.17.174 3 .999 3h3l.25-2.387c0-.376.388-.609.763-.609h6.848c.013 0 .037.013.05.024a.101.101 0 0 1 .071-.024c.377 0 1.018.621 1.018.996v2h3l-.466-.471c1.073.546 1.986 1.784 1.467 1.463zM1.999 18h13V6h-13v12zm10-17h-7v2h7V1zm4 3h-15c-.086 0 .214.206.214.29L.999 5h15l-.214-.71c0-.084.299-.29.214-.29zm-5 7h1v3h-1v-3zm-3-2h1v7h-1V9zm-3 2h1v3h-1v-3z"/></svg>