<svg xmlns="http://www.w3.org/2000/svg" width="100" height="62" viewBox="0 0 100 62"><g><g><g><g><path fill="#7c7c7f" d="M22.341 17.509c0-2.789.027-5.583-.017-8.369 0-.834.258-1.14 1.088-1.093.977.059 1.956.059 2.932 0 .801-.053 1.332.156 1.467 1.011.135.928.586.65 1.1.317 1.71-1.122 3.548-1.819 5.636-1.745 1.689.059 3.193.588 4.275 1.901.54.661.88.456 1.426.082 2.39-1.633 4.985-2.46 7.888-1.736 2.493.62 3.97 2.236 4.381 4.745.549 3.353.188 6.74.232 10.111.018 1.396.63 3.206-.276 4.088-.83.808-2.615.088-3.961.258-1.54.194-1.965-.361-1.898-1.892.126-2.98.065-5.971.02-8.956-.017-1.214.018-2.598-1.395-3.124-1.534-.57-2.974-.015-4.308.79-.513.312-.387.853-.387 1.332 0 3.426-.08 6.855.035 10.284.044 1.363-.402 1.687-1.642 1.572a21.365 21.365 0 0 0-3.367 0c-.93.062-1.152-.294-1.14-1.175a464.68 464.68 0 0 0 0-9.697c0-1.22.123-2.618-1.335-3.12-1.53-.527-2.985 0-4.308.843-.51.326-.314.881-.316 1.354 0 3.526-.042 7.052 0 10.579.014.966-.27 1.28-1.23 1.219a26.111 26.111 0 0 0-3.659 0c-1.085.082-1.293-.361-1.273-1.343.074-2.756.032-5.498.032-8.236z"/></g><g><path fill="#7c7c7f" d="M63.744 12.068c1.546-.024 2.815 1.33 2.795 2.973-.015 1.567-1.173 2.762-2.64 2.762-1.562 0-2.639-1.178-2.639-2.897-.006-1.71.939-2.815 2.484-2.838zm.543 20.275a6.391 6.391 0 0 1-3.505-.8c-1.1-.637-1.437-1.733-.93-2.732.226-.45.502-.682 1.033-.588 1.862.332 3.739.596 5.592.973.8.17 1.78.47 1.76 1.469-.02.999-.983 1.19-1.78 1.44a7.203 7.203 0 0 1-2.167.235zM58.193 21.13c-1.939 1.583-2.235 2.635-1.156 4.91.402.846-.331.787-.624.996-2.915 2.033-2.915 5.677.017 7.713a7.618 7.618 0 0 0 2.361 1.134c3.36.92 6.913.86 10.24-.173a7.915 7.915 0 0 0 3.49-2.057c2.613-2.71 1.81-6.567-1.686-7.934-.822-.302-1.67-.53-2.534-.678-1.721-.32-3.463-.556-5.181-.908-.775-.159-1.652-.512-1.432-1.522.22-1.011 1.083-.332 1.605-.294 4.401.335 8.085-2.069 8.783-5.836.357-1.936-.141-3.752-1.074-5.492 2.645-.294 2.645-.294 3.317-2.938.047-.188.108-.376.158-.564.115-.491-.067-.738-.586-.738-1.821-.056-3.66-.085-5.15 1.176-.627.531-1.111.402-1.818.202-3.36-.96-6.595-.796-9.331 1.684-2.42 2.192-3.423 7.525 1.02 10.922-.146.13-.284.262-.42.397z"/></g><g><path fill="#7c7c7f" d="M85.32 22.421c-1.29.297-2.618.679-3.725-.358-.947-.882-.554-2.472.697-3 1.046-.432 2.184-.459 3.297-.432.601.014.601.073.601 1.836-.094.69.358 1.67-.87 1.954zm2.812 4.637c1.173-.041 2.346-.015 3.519 0 .533.006.744-.138.744-.752-.07-3.911-.014-7.825-.15-11.733-.146-4.182-2.31-6.477-6.322-6.867a18.007 18.007 0 0 0-6.947.608c-2.988.89-2.991.884-1.578 3.696.076.127.14.26.191.397.243.823.736.867 1.434.529 1.065-.52 2.238-.64 3.41-.761a4.356 4.356 0 0 1 2.81.588c.585.313.895.974.762 1.625-.152.655-.82.326-1.26.361-2.135.167-4.294.188-6.288 1.134-2.768 1.317-3.935 3.697-3.325 6.773.527 2.615 2.873 4.552 5.63 4.737 2.194.147 4.155-.394 5.836-1.763.66.394.536 1.475 1.534 1.428z"/></g><g><path fill="#b3071a" d="M18.36 17.068l-.115.555h-.138a20479.39 20479.39 0 0 0-16.454 5.622c-.402.135-.9.476-1.226.076-.326-.4.1-.82.381-1.137 1.466-1.657 2.399-3.867 4.894-4.678-2.533-.87-3.501-3.15-5.032-4.872-.25-.279-.572-.652-.234-1.025.263-.294.636-.062.956.05 3.736 1.269 7.46 2.591 11.217 3.805 1.76.564 3.41 1.443 5.278 1.592z"/></g><g><path fill="#b61123" d="M18.362 17.07h-.466c.228-.682-.188-1.244-.396-1.82-1.663-4.601-3.337-9.18-5.006-13.763-.161-.44-.551-1.002-.135-1.355.416-.352.88.177 1.273.42.082.05.158.112.237.171 4.663 3.47 4.654 2.803 4.584 9.015l-.091 7.331z"/></g><g><path fill="#b3071a" d="M18.385 18.83c.02 3.323.073 6.646.041 9.97a4.063 4.063 0 0 1-1.76 3.384c-.988.717-1.95 1.47-2.947 2.169-.41.294-.844.928-1.372.496-.416-.338 0-.908.153-1.351 1.564-4.31 3.128-8.613 4.692-12.909.217-.587.469-1.175.703-1.763z"/></g><g><path fill="#c0bfc1" d="M19.095 45.253c-.692 1.037-1.211 1.733-1.642 2.48-.654 1.137-1.223.881-1.827-.024-.508-.75-.936-1.566-1.804-2.289v4.193c0 .547.194 1.264-.768 1.231-.962-.032-.704-.772-.704-1.298a256.281 256.281 0 0 1 0-6.006c0-.435-.229-1.035.513-1.176.542-.124 1.1.125 1.37.611.724 1.093 1.466 2.178 2.325 3.456.704-1.087 1.367-2.057 1.977-3.07.404-.67.844-1.217 1.727-1 .962.235.53 1.035.548 1.578.057 1.763.057 3.52 0 5.272-.02.61.47 1.607-.809 1.627-1.393.024-.833-1.054-.88-1.7-.07-1.162-.026-2.337-.026-3.885z"/></g><g><path fill="#c0bfc1" d="M75.986 45.256c-.683 1.022-1.202 1.719-1.633 2.465-.654 1.131-1.23.881-1.83-.024a9.237 9.237 0 0 0-1.78-2.148v4.188c0 .55.047 1.113-.78 1.093-.827-.02-.722-.617-.722-1.14 0-2.057-.015-4.114 0-6.171 0-.438-.229-1.037.52-1.175.541-.123 1.099.126 1.372.61a267.975 267.975 0 0 0 2.346 3.471c.765-1.175 1.51-2.221 2.14-3.332.27-.584.917-.893 1.54-.735.818.15.53.829.54 1.305.029 1.957 0 3.914 0 5.877 0 .67 0 1.301-.948 1.307-.947.006-.768-.684-.774-1.234.009-1.328.009-2.65.009-4.357z"/></g><g><path fill="#c0bfc1" d="M89.13 47.977v-4.608c0-.496-.044-.993.698-1.022.815-.033.815.485.813 1.058v6.3c0 .405.173.949-.429 1.101a1.195 1.195 0 0 1-1.375-.546c-1.255-1.707-2.572-3.365-4.076-5.316v4.849c0 .587 0 1.087-.813 1.057-.712-.026-.915-.417-.915-1.043v-6.153c0-.446-.237-1.078.414-1.254.651-.177 1.25-.118 1.71.49 1.114 1.47 2.249 2.939 3.378 4.408.108.138.235.27.595.679z"/></g><g><path fill="#bfbec0" d="M51.918 57.416c-.023 1.892-.903 2.87-2.563 2.897-1.622 0-2.472-1.02-2.449-2.938.02-1.678 1.02-2.9 2.458-2.938 1.437-.039 2.569 1.287 2.551 2.982zm-6.757.015c-.008 2.63 1.651 4.299 4.261 4.299a4.128 4.128 0 0 0 3.026-1.2 4.144 4.144 0 0 0 1.22-3.023c.015-2.68-1.586-4.322-4.225-4.322-2.692 0-4.273 1.56-4.282 4.246z"/></g><g><path fill="#c1c0c2" d="M43.651 57.53c0 1.076-.02 2.155 0 3.233.018.673-.214.981-.93.967-.715-.015-.835-.356-.806-.932v-.881c0-1.98 0-1.98-1.95-1.98-1.868 0-1.862 0-1.877 1.918a5.043 5.043 0 0 1-.132 1.587c-.147.42-.677.279-1.053.25-.545-.042-.54-.474-.54-.882v-6.758c0-.626.256-.867.88-.867.625 0 .904.25.863.881-.015.244 0 .488 0 .735-.006 1.919-.006 1.919 1.876 1.919 1.883 0 1.874 0 1.939-2.286.017-.562-.159-1.202.792-1.234.997-.033.944.587.938 1.251-.006 1.026 0 2.051 0 3.08z"/></g><g><path fill="#c1c0c2" d="M57.68 54.706c.73.056 1.22.447 1.22 1.177s-.478 1.115-1.208 1.177c-.935.073-.818-.589-.818-1.177.02-.553-.135-1.242.806-1.177zM55.138 60.7c-.009.597.053 1.052.836 1.052.727.003.944-.329.903-.984a8.859 8.859 0 0 1 0-1.175c.032-.362-.17-.864.325-1.014.546-.165.745.326.965.7.37.628.742 1.257 1.088 1.9.396.738 1.132.72 1.654.48.707-.32.015-.809-.15-1.176a9.096 9.096 0 0 0-1.02-1.763c-.428-.564-.443-.846.144-1.393 1.182-1.075.97-2.73-.352-3.611-1.24-.814-2.642-.467-3.982-.403-.525.024-.405.591-.405.955v3.233c-.003 1.072.009 2.148-.006 3.2z"/></g><g><path fill="#c0bfc1" d="M99.8 48.538c0 1.904-.256 2.21-2.13 2.29-.88.037-1.76.143-2.604-.174-2.112-.782-3-2.51-2.595-5.098.293-1.848 1.909-3.191 3.944-3.232.685-.025 1.37-.007 2.053.055.639.065 1.14.365 1.011 1.138-.173 1.025-.82.361-1.228.293-2.783-.57-4.376.785-4.038 3.477.199 1.61 2.017 2.67 3.519 2.089.61-.235.495-.738.586-1.208.114-.608-.484-1.695.789-1.628 1.273.068.478 1.14.686 1.734a.922.922 0 0 1 .006.264z"/></g><g><path fill="#c0bfc1" d="M59.338 48.51c0 1.96-.276 2.269-2.246 2.333-.821.027-1.651.13-2.464-.161-2.111-.75-3.014-2.469-2.639-5.072.267-1.857 1.883-3.232 3.91-3.285.684-.026 1.37-.01 2.052.047.724.067 1.26.438 1.026 1.246-.26.899-.9.232-1.31.152-2.64-.514-4.144.732-3.945 3.32.066.82.51 1.563 1.199 2.01.69.446 1.547.545 2.32.268.622-.217.525-.711.616-1.175.117-.611-.498-1.684.757-1.663 1.255.02.548 1.096.736 1.695.01.095.005.191-.012.285z"/></g><g><path fill="#bfbec0" d="M20.83 56.567v-2.489c0-.493.091-.849.704-.881.695-.027.795.367.792.926 0 1.316-.027 2.644 0 3.952.038 1.525.657 2.212 1.918 2.206 1.316 0 1.865-.637 1.877-2.203.011-1.319.011-2.636 0-3.953 0-.558.102-.928.788-.94.687-.012.983.256.942.943-.1 1.749.21 3.512-.206 5.245-.442 1.84-1.759 2.566-4.222 2.351-1.581-.147-2.558-1.255-2.593-2.962-.02-.728 0-1.457 0-2.195z"/></g><g><path fill="#c0bfc1" d="M44.729 47.23c-.123.186-.989.174-1.059.033-.425-.879.282-1.552.613-2.727.176 1.187 1.015 1.84.446 2.694zm3.249 2.73c-.941-2.295-1.848-4.604-2.771-6.908-.17-.426-.402-.755-.953-.737a.962.962 0 0 0-.983.696c-.88 2.318-1.765 4.64-2.683 6.943-.323.808.044.9.713.9.53-.003.88-.25.953-.717.202-1.39 1.17-1.358 2.255-1.408 1.085-.05 1.478.47 1.689 1.352a.9.9 0 0 0 1.08.755c.659.062 1.028-.082.7-.876z"/></g><g><path fill="#c0bfc1" d="M25.99 47.253c-.144.191-1.019.112-1.05 0-.261-.882.257-1.597.751-2.647.047 1.12.975 1.8.299 2.647zm3.27 2.7l-2.749-6.928c-.179-.447-.434-.732-.973-.711a.971.971 0 0 0-.956.743c-.842 2.186-1.728 4.358-2.528 6.562-.12.317-.769.914.067 1.175.642.2 1.311.085 1.496-.735.211-.949.689-1.369 1.724-1.328 1.035.041 1.944-.006 2.208 1.287.065.312.217.717.605.761.46.053 1.038.309 1.316-.314z"/></g><g><path fill="#c0bfc1" d="M64.647 47.196c-.173.294-.892.294-1.053 0-.463-.84.373-1.483.502-2.274.337.75 1.029 1.422.55 2.274zm3.161 2.75c-.924-2.31-1.847-4.623-2.768-6.937a.941.941 0 0 0-.982-.693c-.572.006-.754.388-.913.796-.836 2.13-1.66 4.271-2.472 6.426-.164.423-.56.964.13 1.243.642.262 1.172-.017 1.357-.705.264-.987.757-1.363 1.874-1.346 1.117.018 1.88.188 2.117 1.428.147.767.804.729 1.408.673.276-.026.457-.147.39-.467-.047-.138-.085-.282-.14-.417z"/></g><g><path fill="#c0bfc1" d="M16.596 58.169c-.093.17-.967.17-1.067 0-.487-.818.226-1.43.537-2.547.334 1.117 1.009 1.732.53 2.547zm-2.844 3.433a.853.853 0 0 0 .334-.597c.238-1.287 1.115-1.302 2.17-1.36 1.144-.063 1.56.49 1.839 1.424.217.732.818.779 1.428.638.496-.118.352-.503.226-.826-.933-2.35-1.836-4.719-2.833-7.052-.349-.814-1.378-.864-1.692-.109-.988 2.39-1.883 4.816-2.821 7.226-.232.59.006.814.683.814a.85.85 0 0 0 .666-.158z"/></g><g><path fill="#c3c2c4" d="M31.117 58.231c0-.487-.023-.978 0-1.469.07-1.23.182-2.453-1.71-2.115-.48.085-.668-.265-.668-.735 0-.626.396-.69.88-.688h4.824c.325 0 .912-.226.88.403-.02.44-.13 1.12-.801 1.002-1.927-.332-1.724.923-1.698 2.127.03 1.317 0 2.645 0 3.955 0 .62-.108 1.026-.88 1.026-.771 0-.88-.42-.859-1.034.047-.811.032-1.64.032-2.472z"/></g><g><path fill="#c3c2c4" d="M36.986 47.324c0-.534-.038-1.075 0-1.607.106-1.196.03-2.177-1.607-1.913-.537.088-.792-.217-.774-.781.02-.65.457-.647.91-.65 1.556 0 3.113-.02 4.668 0 .357 0 .994-.294 1 .415 0 .481-.294 1.051-.88.975-1.76-.232-1.654.882-1.619 2.057.044 1.363 0 2.73.018 4.093 0 .673-.22.976-.93.961-.71-.015-.806-.379-.798-.94.024-.855.012-1.734.012-2.61z"/></g><g><path fill="#bfbec0" d="M79.49 53.257c-.311 1.264-1.062 2.251-1.692 3.27-.777 1.255-1.214 2.519-1.062 4 .053.505.147 1.128-.707 1.152-.853.023-.88-.54-.777-1.082.355-2.03-.786-3.543-1.689-5.145-.378-.673-.745-1.354-1.129-2.057 1.51-.323 1.51-.323 3.478 3.06 1.502-.691.868-3.78 3.578-3.198z"/></g><g><path fill="#bfbec0" d="M67.663 58.218c0-.44-.03-.882 0-1.322.109-1.352.164-2.616-1.838-2.295-.44.07-.71-.28-.722-.74-.017-.647.437-.659.9-.659h4.836c.346 0 .88-.156.86.47-.018.444-.212.996-.743.917-2.052-.294-1.862 1.008-1.815 2.321.047 1.314 0 2.545 0 3.82 0 .532-.04.979-.753.973-.713-.006-.725-.467-.725-.99v-2.495z"/></g><g><path fill="#c1c0c2" d="M30.499 46.547v-3.376c0-.629.272-.855.88-.858.606-.003.861.264.853.881-.02 1.567.055 3.133-.027 4.702-.055 1.105.217 1.69 1.434 1.49.293-.025.587-.025.88 0 .525 0 .645.326.63.775 0 .403-.172.658-.6.661h-3.367c-.619 0-.683-.423-.68-.899-.002-1.124-.003-2.25-.003-3.376z"/></g><g><path fill="#c5c4c6" d="M81.202 46.506v3.212c0 .64-.026 1.152-.897 1.134-.78-.017-.836-.464-.833-1.055.01-2.14.01-4.282 0-6.423 0-.588.044-1.04.827-1.06.88-.021.915.484.903 1.128v3.064z"/></g><g><path fill="#c3c2c4" d="M64.211 57.548c0 1.073-.02 2.145 0 3.218.02.687-.25.96-.944.946-.695-.015-.807-.367-.804-.934v-6.726c0-.623.25-.867.88-.867s.88.229.88.858c-.012 1.163-.012 2.333-.012 3.505z"/></g><g><path fill="#b61123" d="M18.384 18.83h-.466l.19-1.217h.138c.3.382.23.799.138 1.216z"/></g></g></g></g></svg>