<svg xmlns="http://www.w3.org/2000/svg" width="30" height="30" viewBox="0 0 30 30"><g><g><path fill="#fff60a" d="M14.85 29.7c8.201 0 14.85-6.649 14.85-14.85S23.051 0 14.85 0 0 6.649 0 14.85 6.649 29.7 14.85 29.7z"/></g><g><path fill="#262b4d" d="M22.296 13.988H15.13v-2.202h7.166zm-1.103 7.71H15.13V15.09h6.063zm-4.218-13.97a1.212 1.212 0 0 1 1.675 0 1.198 1.198 0 0 1 0 1.687c-.476.478-1.935 1.27-2.699 1.27-.158 0-.204-.036-.206-.037-.256-.266.485-2.173 1.23-2.92zm-2.947 6.26H6.862v-2.202h7.166zm.01 7.71H7.965V15.09h6.073zm-3.521-13.97c.224-.225.52-.348.835-.348.314 0 .611.123.835.348.743.747 1.481 2.654 1.225 2.92 0 0-.047.036-.204.036-.762 0-2.216-.79-2.691-1.269a1.2 1.2 0 0 1 0-1.687zm11.779 2.956h-3.488c.25-.17.465-.34.615-.492a2.303 2.303 0 0 0 0-3.24c-.863-.869-2.37-.87-3.233 0-.478.478-1.747 2.43-1.571 3.732h-.08c.174-1.303-1.093-3.254-1.57-3.733-.865-.869-2.37-.868-3.234 0a2.304 2.304 0 0 0-.001 3.24c.151.153.366.322.616.493H6.862c-.607 0-1.102.495-1.102 1.102v2.753c0 .304.247.55.551.55h.551v6.61c0 .606.495 1.101 1.103 1.101h13.228c.608 0 1.103-.495 1.103-1.101v-6.61h.55a.551.551 0 0 0 .552-.55v-2.753c0-.607-.495-1.102-1.102-1.102z"/><path fill="none" stroke="#262b4d" stroke-miterlimit="20" stroke-width=".8" d="M22.296 13.988H15.13v-2.202h7.166zm-1.103 7.71H15.13V15.09h6.063zm-4.218-13.97a1.212 1.212 0 0 1 1.675 0 1.198 1.198 0 0 1 0 1.687c-.476.478-1.935 1.27-2.699 1.27-.158 0-.204-.036-.206-.037-.256-.266.485-2.173 1.23-2.92zm-2.947 6.26H6.862v-2.202h7.166zm.01 7.71H7.965V15.09h6.073zm-3.521-13.97c.224-.225.52-.348.835-.348.314 0 .611.123.835.348.743.747 1.481 2.654 1.225 2.92 0 0-.047.036-.204.036-.762 0-2.216-.79-2.691-1.269a1.2 1.2 0 0 1 0-1.687zm11.779 2.956h-3.488c.25-.17.465-.34.615-.492a2.303 2.303 0 0 0 0-3.24c-.863-.869-2.37-.87-3.233 0-.478.478-1.747 2.43-1.571 3.732h-.08c.174-1.303-1.093-3.254-1.57-3.733-.865-.869-2.37-.868-3.234 0a2.304 2.304 0 0 0-.001 3.24c.151.153.366.322.616.493H6.862c-.607 0-1.102.495-1.102 1.102v2.753c0 .304.247.55.551.55h.551v6.61c0 .606.495 1.101 1.103 1.101h13.228c.608 0 1.103-.495 1.103-1.101v-6.61h.55a.551.551 0 0 0 .552-.55v-2.753c0-.607-.495-1.102-1.102-1.102z"/></g></g></svg>