<svg xmlns="http://www.w3.org/2000/svg" width="30" height="30" viewBox="0 0 30 30"><g><g><path fill="#fff60a" d="M14.85 29.9c8.201 0 14.85-6.649 14.85-14.85S23.051.2 14.85.2 0 6.849 0 15.05 6.649 29.9 14.85 29.9z"/></g><g><path fill="#262b4d" d="M8.228 14.777h5.973v5.729zm7.166 0h5.973l-5.973 5.729zM9.6 9.525l3.65 4.031H7.677zm10.365-.064l1.951 4.095h-5.59zm-9.162-.39h7.908l-3.918 4.406zM9.08 7.86L6.01 14.303l8.787 8.428 8.788-8.428-3.07-6.443z"/><path fill="none" stroke="#262b4d" stroke-miterlimit="20" stroke-width=".7" d="M8.228 14.777h5.973v5.729zm7.166 0h5.973l-5.973 5.729zM9.6 9.525l3.65 4.031H7.677zm10.365-.064l1.951 4.095h-5.59zm-9.162-.39h7.908l-3.918 4.406zM9.08 7.86L6.01 14.303l8.787 8.428 8.788-8.428-3.07-6.443z"/></g></g></svg>