<svg xmlns="http://www.w3.org/2000/svg" width="30" height="30" viewBox="0 0 30 30"><g><g><path fill="#fff60a" d="M14.85 29.8c8.201 0 14.85-6.649 14.85-14.85S23.051.1 14.85.1 0 6.749 0 14.95 6.649 29.8 14.85 29.8z"/></g><g><path fill="#262b4d" d="M16.622 19.612c-.597-.252-1.05-.583-1.357-.994a2.35 2.35 0 0 1-.49-1.344c0-.075.028-.142.084-.203a.274.274 0 0 1 .21-.091h1.273c.103 0 .187.023.252.07a.743.743 0 0 1 .182.196c.093.317.305.583.636.798.331.215.786.322 1.364.322.653 0 1.145-.11 1.477-.329.33-.22.496-.52.496-.903a.855.855 0 0 0-.252-.63c-.168-.168-.422-.315-.762-.441s-.847-.278-1.518-.455c-1.1-.261-1.908-.607-2.42-1.036-.514-.43-.77-1.045-.77-1.848 0-.541.149-1.024.447-1.449.299-.425.726-.758 1.28-1.001.556-.243 1.202-.364 1.938-.364.775 0 1.444.135 2.008.406.565.27.994.609 1.287 1.015.294.406.45.81.47 1.211a.292.292 0 0 1-.085.203.274.274 0 0 1-.21.091h-1.329c-.205 0-.345-.084-.42-.252-.046-.299-.228-.548-.545-.749-.317-.2-.71-.301-1.176-.301-.513 0-.916.098-1.21.294-.294.196-.44.48-.44.854 0 .252.074.462.223.63.15.168.383.315.7.441.317.126.779.268 1.385.427.83.187 1.49.397 1.98.63.49.233.851.527 1.084.882.233.355.35.807.35 1.358 0 .607-.166 1.132-.497 1.575-.33.443-.797.782-1.399 1.015-.601.233-1.299.35-2.092.35-.839 0-1.557-.126-2.154-.378zm-9.356.238a.324.324 0 0 1-.238-.098.324.324 0 0 1-.098-.238V10.4c0-.103.03-.187.09-.252a.318.318 0 0 1 .246-.098h6.085a.34.34 0 0 1 .251.098c.066.065.098.15.098.252v1.008a.324.324 0 0 1-.098.238.34.34 0 0 1-.251.098H8.874v2.632h4.197a.34.34 0 0 1 .252.098.324.324 0 0 1 .098.238v1.008a.324.324 0 0 1-.098.238.34.34 0 0 1-.252.098H8.874v3.458a.324.324 0 0 1-.098.238.34.34 0 0 1-.251.098z"/><path fill="none" stroke="#262b4d" stroke-miterlimit="20" stroke-width=".5" d="M16.622 19.612c-.597-.252-1.05-.583-1.357-.994a2.35 2.35 0 0 1-.49-1.344c0-.075.028-.142.084-.203a.274.274 0 0 1 .21-.091h1.273c.103 0 .187.023.252.07a.743.743 0 0 1 .182.196c.093.317.305.583.636.798.331.215.786.322 1.364.322.653 0 1.145-.11 1.477-.329.33-.22.496-.52.496-.903a.855.855 0 0 0-.252-.63c-.168-.168-.422-.315-.762-.441s-.847-.278-1.518-.455c-1.1-.261-1.908-.607-2.42-1.036-.514-.43-.77-1.045-.77-1.848 0-.541.149-1.024.447-1.449.299-.425.726-.758 1.28-1.001.556-.243 1.202-.364 1.938-.364.775 0 1.444.135 2.008.406.565.27.994.609 1.287 1.015.294.406.45.81.47 1.211a.292.292 0 0 1-.085.203.274.274 0 0 1-.21.091h-1.329c-.205 0-.345-.084-.42-.252-.046-.299-.228-.548-.545-.749-.317-.2-.71-.301-1.176-.301-.513 0-.916.098-1.21.294-.294.196-.44.48-.44.854 0 .252.074.462.223.63.15.168.383.315.7.441.317.126.779.268 1.385.427.83.187 1.49.397 1.98.63.49.233.851.527 1.084.882.233.355.35.807.35 1.358 0 .607-.166 1.132-.497 1.575-.33.443-.797.782-1.399 1.015-.601.233-1.299.35-2.092.35-.839 0-1.557-.126-2.154-.378zm-9.356.238a.324.324 0 0 1-.238-.098.324.324 0 0 1-.098-.238V10.4c0-.103.03-.187.09-.252a.318.318 0 0 1 .246-.098h6.085a.34.34 0 0 1 .251.098c.066.065.098.15.098.252v1.008a.324.324 0 0 1-.098.238.34.34 0 0 1-.251.098H8.874v2.632h4.197a.34.34 0 0 1 .252.098.324.324 0 0 1 .098.238v1.008a.324.324 0 0 1-.098.238.34.34 0 0 1-.252.098H8.874v3.458a.324.324 0 0 1-.098.238.34.34 0 0 1-.251.098z"/></g></g></svg>