<svg xmlns="http://www.w3.org/2000/svg" width="30" height="30" viewBox="0 0 30 30"><defs><clipPath id="tolya"><path fill="#fff" d="M17.576 12.649l1.134-4.044c.347-1.232-.324-2.555-1.298-2.555h-3.98c-.663 0-1.234.635-1.363 1.517l-1.111 7.54c-.173 1.167.485 2.256 1.362 2.256h1.155l-.609 7.437c-.076.93.786 1.427 1.226.705l6.419-10.524c.588-.873.113-2.332-.792-2.332z"/></clipPath></defs><g><g><path fill="#fff60a" d="M14.85 29.8c8.201 0 14.85-6.649 14.85-14.85S23.051.1 14.85.1 0 6.749 0 14.95 6.649 29.8 14.85 29.8z"/></g><g><path fill="none" stroke="#262b4d" stroke-miterlimit="20" stroke-width="3.6" d="M17.576 12.649v0l1.134-4.044c.347-1.232-.324-2.555-1.298-2.555h-3.98c-.663 0-1.234.635-1.363 1.517l-1.111 7.54c-.173 1.167.485 2.256 1.362 2.256h1.155v0l-.609 7.437c-.076.93.786 1.427 1.226.705l6.419-10.524c.588-.873.113-2.332-.792-2.332z" clip-path="url(&quot;#tolya&quot;)"/></g></g></svg>