<svg xmlns="http://www.w3.org/2000/svg" width="30" height="31" viewBox="0 0 30 31"><g><g><path fill="#fff60a" d="M14.85 30.4c8.201 0 14.85-6.649 14.85-14.85S23.051.7 14.85.7 0 7.349 0 15.55 6.649 30.4 14.85 30.4z"/></g><g><g><path fill="#262b4d" d="M18.163 9.51l1.983-3.428 1.028.593-1.983 3.428zM8.816 6.674l1.028-.592 1.983 3.427-1.028.593zM14.4 4.86h1.188v3.958h-1.188zm10.73 12.558l-2.376.787v4.354l-7.76 2.572-7.76-2.572v-4.354l-2.375-.787 2.58-4.097 7.555-2.504 7.555 2.504zm-10.136-5.35l-5.279 1.746 5.28 1.746 5.278-1.746zm-2.317 6.685l1.41-2.236-6.004-1.987-1.411 2.236zm-4.255 2.95l5.978 1.98v-5.428l-1.213 1.925-4.765-1.577zm13.144 0v-3.1l-4.764 1.577-1.214-1.925v5.427zm1.75-4.937l-1.41-2.236-6.005 1.987 1.41 2.236z"/><path fill="none" stroke="#262b4d" stroke-miterlimit="20" stroke-width=".7" d="M18.163 9.51l1.983-3.428 1.028.593-1.983 3.428zM8.816 6.674l1.028-.592 1.983 3.427-1.028.593zM14.4 4.86h1.188v3.958h-1.188zm10.73 12.558l-2.376.787v4.354l-7.76 2.572-7.76-2.572v-4.354l-2.375-.787 2.58-4.097 7.555-2.504 7.555 2.504zm-10.136-5.35l-5.279 1.746 5.28 1.746 5.278-1.746zm-2.317 6.685l1.41-2.236-6.004-1.987-1.411 2.236zm-4.255 2.95l5.978 1.98v-5.428l-1.213 1.925-4.765-1.577zm13.144 0v-3.1l-4.764 1.577-1.214-1.925v5.427zm1.75-4.937l-1.41-2.236-6.005 1.987 1.41 2.236z"/></g></g></g></svg>